<svg xmlns="http://www.w3.org/2000/svg" viewBox="0 0 350 350"><title>Alibi</title><g id="Alibi"><g id="Background"><rect x="60.31" y="60.53" width="229.79" height="229.54" style="fill:#fff"/><rect x="69.6" y="69.9" width="211.21" height="210.98" style="fill:#231f20"/><rect x="79.03" y="79.45" width="192.63" height="192.42" style="fill:#757e2c"/><path d="M246.7,79.45a58,58,0,0,1,3.55,12.61c2.29,13.6-.74,24.77-2.76,31.92a92.52,92.52,0,0,1-5,13.52l29.16-34.76V271.87H79V106.14c6.68,7.59,13.69,15.26,20.7,22.94a85,85,0,0,1-5.29-17.34c-1.78-9.35-4.07-21.44,2.64-29.37a17.55,17.55,0,0,1,3.17-2.92C149,79.37,197.94,79.53,246.7,79.45Z" style="fill:#666e24"/><path d="M176.65,209a84.52,84.52,0,0,0-51.7,62.88h97.54A71.77,71.77,0,0,0,176.65,209Z" style="fill:#757e2c"/></g><g id="Kraken"><g id="KrakenMainBody"><path d="M141.77,55.29a2.36,2.36,0,0,0-.38.53S141.52,55.63,141.77,55.29Z" style="fill:#231f20"/><path d="M265.28,116.63c-.6,1.08-1.5,2.85-3.09,5.31-1.46,2.26-2.79,4-3.71,5.17a1.11,1.11,0,0,1-.19-.41,1.18,1.18,0,0,1,.12-.8l-4.55,3.19.29-1.65c-3.77,4.26-5.21,7.3-5.81,9.32a49.89,49.89,0,0,1-1.73,5.06c-.55,1.36-1.06,2.45-1.4,3.15a6.64,6.64,0,0,1-2.8.66,15.41,15.41,0,0,1-4,7,15,15,0,0,1-3.71,2.72l1.07-1.48h-3a7.09,7.09,0,0,1,1.15-2.53,29,29,0,0,0-7,4,43.6,43.6,0,0,0,3.61-7.35,44.49,44.49,0,0,0,2.82-17c-.08-3.25-.27-5.86-.41-7.55-.49-5.7-1.1-8-1.3-12.84a67.84,67.84,0,0,1,.06-6.85,1.79,1.79,0,0,0-2.55-.16,2.23,2.23,0,0,1-.29,1.46,2.07,2.07,0,0,1-.45.51q-.24-.55-.47-1.13a32.81,32.81,0,0,1-2.08-8.33,23.4,23.4,0,0,1-.41-6.75,6.27,6.27,0,0,1,.95,1,6.93,6.93,0,0,1,1.05,2.16,13.31,13.31,0,0,1,.56,4.32,18.12,18.12,0,0,0,.12-4,32.21,32.21,0,0,0-1.05-5.12c-1.09-4.56-1-4.34-1.24-5.12A50.8,50.8,0,0,0,224,77.11c-.16.22-.33.47-.49.74a10.3,10.3,0,0,0-.56,1A36.51,36.51,0,0,0,200.8,52.69l.82-1.89a18.37,18.37,0,0,0-4.76-4.86,17.79,17.79,0,0,0-1.75-1.07q-1-.06-2-.16c-.88-.09-1.72-.2-2.51-.33-1.31-.86-2.66-1.8-4-2.82q-1.78-1.32-3.38-2.61c.73.07,1.51.17,2.33.33a24.5,24.5,0,0,1,5.09,1.56c-1.46-.95-3.09-1.92-4.9-2.86-1.42-.74-2.79-1.37-4.08-1.91a6.2,6.2,0,0,1,1-.49c1.1-.43,1.78-.33,1.81-.49s-2.15-1.05-4.78-1.61a21.69,21.69,0,0,0-5.19-.45,19.54,19.54,0,0,0-3.83.88,20.26,20.26,0,0,0-3.52,1.61c-3.47,1.93-6.82,4.06-8.47,5.12a2.67,2.67,0,0,1,.93,1.67c.1,1.16-.91,1.53-3.34,4.51-.83,1-1.86,1.86-2.66,2.9a2,2,0,0,1-1.24.93c-.67.1-.9-.42-1.48-.37-.77.06-1,1.11-2,2.28a7.43,7.43,0,0,1-1.92,1.54,9.31,9.31,0,0,1,6.3-7.53q.26-.79.56-1.61.37-1,.74-2a44.67,44.67,0,0,0-5.19,4,49.43,49.43,0,0,0-7.51,8.36A4.22,4.22,0,0,1,144,53.93a5.33,5.33,0,0,0-1.27,1.57,5.26,5.26,0,0,0-.43,1.11A38.66,38.66,0,0,0,126.47,77.3a13.36,13.36,0,0,1-1.85,5.19c-1.38,2.21-2.87,3-4.2,5.68a14.11,14.11,0,0,0-1.11,3.09,49,49,0,0,0-1.3,12l-1.55-.49a54.89,54.89,0,0,0-.25,13.4c.42,3.88,1.17,6.74,1.36,12.1a66.67,66.67,0,0,1-.12,7.1l-.87-.31a31.16,31.16,0,0,1,1.36,5c.86,4.68.31,7.87,1.61,10.62a21.14,21.14,0,0,0,1.67,3.15c.41.53,1,1.2.87,1.42s-.89-.3-1.61,0a1.57,1.57,0,0,0-.74.74l-8.06-5.27q-.75-1.68-1-1.6t-.13.54q-4-2.87-8-6.08a231.71,231.71,0,0,1-18.48-16.36l7.85,4.45a24.51,24.51,0,0,1-2.9-2.78c-2.53-2.85-3-4.7-4.7-6.79A15.17,15.17,0,0,0,78,117.68V272.76h84.76c.13-1.49.55-8.14-4.14-13.34a16.07,16.07,0,0,0-5.25-3.83,4.12,4.12,0,0,1,1.42,1.48,4,4,0,0,1,.37.93,27.68,27.68,0,0,0-5.87-3,18.66,18.66,0,0,0-6-1.42,16.34,16.34,0,0,0-5.87.8,43.11,43.11,0,0,1,7.36-12.22,42.36,42.36,0,0,1,4-4c-.12.27-.24.55-.35.85a12.59,12.59,0,0,0-.7,3.17,56.25,56.25,0,0,1,4.7-6.05,39.74,39.74,0,0,1,3.83-3.87,29.62,29.62,0,0,1,6.68-4.53,26.51,26.51,0,0,1,11.41-2.59,27.4,27.4,0,0,1,11.13,2.47,34,34,0,0,1,7.62,4.57,38.46,38.46,0,0,1,4.39,4,4.3,4.3,0,0,0-1.24-3.33l1.42.93,1.79-1.11-1.67-.25c-2.75-2.1-5.13-3.78-6.92-5a42.39,42.39,0,0,0-6.55-4,16.53,16.53,0,0,0-7.17-1.85,13.81,13.81,0,0,0-2.93.33,5.76,5.76,0,0,0,.91,1q-1.17.06-2.39.08c-1.73,0-3.39,0-5,0l-.8-.66-.8-.62a29.74,29.74,0,0,0-3.4,1.54,24.68,24.68,0,0,0-7.29,5.37,32,32,0,0,1-3.71,3.89c-.54.46-1,.82-1.3,1l-.11.5a4.43,4.43,0,0,1-.07-1.12,4.66,4.66,0,0,1,.93-2.47A49.26,49.26,0,0,1,156,226a46,46,0,0,1,5.87-4c5.91-3.22,13.45-2.45,16.63-2,1.42.11,1.76,0,1.79-.12s-.39-.3-.68-.8a1.94,1.94,0,0,1-.25-.93,20.1,20.1,0,0,1,5.32.43c2.23.49,5.81,1.68,11.56,6.79a64.62,64.62,0,0,1,9.7,11c4.24,5.9,7.31,10.17,9.39,16.55.21.65.43,1.39.65,2.2a11.11,11.11,0,0,0-1.19-.48,11.49,11.49,0,0,0-3-.58,50.25,50.25,0,0,0-3.67-7.66,50.88,50.88,0,0,0-10.47-12.57A54.38,54.38,0,0,1,206,244.62a25,25,0,0,0-22.77,8.62,1.51,1.51,0,0,1-.18-.32,1.75,1.75,0,0,1,0-1.23,25.61,25.61,0,0,1,13.56-8.81,30.37,30.37,0,0,0-12.53,6.83,28.31,28.31,0,0,0-5.23,7.12c-.41.84-.71,1.57-.91,2.1q.54-.87,1.15-1.77t1.19-1.69c-.25.53-.63,1.31-1.07,2.26a57.26,57.26,0,0,0-3.13,7.45,23.49,23.49,0,0,0-.95,6.42c0,.34.07.73.16.74.26,0,.58-3.18,1-5.31a23.75,23.75,0,0,1,4.29-9.22,25.47,25.47,0,0,1,5.44-6.13c.83-.67,5.72-4.64,11.45-5.36a50.37,50.37,0,0,0,5-.77c1.5-.32,2.71-.65,3.53-.89.48.82,1,1.66,1.41,2.54a53.25,53.25,0,0,1,2.93,6.79l-3.42-.16a13,13,0,0,0-4.9-.95,13.55,13.55,0,0,0-8,2.76,14.14,14.14,0,0,1,10.92-1.4,14.32,14.32,0,0,0-5.32.58,14,14,0,0,0-3.09,1.4,12,12,0,0,0-3.21,2.68c-.76.92-.66,1.12-1.65,2.39-1.15,1.47-1.38,1.32-2,2.22a10.1,10.1,0,0,0-1.52,5.76,14.31,14.31,0,0,0,.16,2.68l10.55,0a3,3,0,0,1,0-.95,3,3,0,0,1,.54-1.28l.54,1.4a6.06,6.06,0,0,0,.45-1.11,6.18,6.18,0,0,0,.21-2.47l2-1.89a4.84,4.84,0,0,1,.74,1.56,13.7,13.7,0,0,0-2.64,3,13.53,13.53,0,0,0-.91,1.65l1-.08a10.61,10.61,0,0,1,.58-1.36,10.77,10.77,0,0,1,2-2.72l.62.74a8.17,8.17,0,0,0-2.1,3.58l2.47,0a3,3,0,0,1,1-2.39,4,4,0,0,1,1.44,2.47l1.26.1c.83.07,1.06.1,1.29-.06s.22-.36.49-.78a3.16,3.16,0,0,1,.78-.82,7.5,7.5,0,0,0-1.77-3l0-1.73a10.15,10.15,0,0,1,3,3.25,6.27,6.27,0,0,0-.95,1.48,1.29,1.29,0,0,1,.66,1.19h.82A1.56,1.56,0,0,1,213,271a.91.91,0,0,1,.29.37,1,1,0,0,1,0,.7l.87-.08c0-.3,0-.61,0-.95a10.58,10.58,0,0,1,.33-2.18,3.75,3.75,0,0,1,.74-.78c.37-.29.64-.51.95-.45.11,0,.21.07.74.62l.54.58.08-1.69a48.17,48.17,0,0,1-.36,5.47h55.63V106.85A44.85,44.85,0,0,0,265.28,116.63Z" style="fill:#231f20"/><path d="M229.07,93.76a28.51,28.51,0,0,1,1.11,6c.06.83.08,1.62.08,2.36a1.41,1.41,0,0,1,.77,0,1.44,1.44,0,0,1,.77.68c0-.77-.1-1.58-.2-2.41A35.05,35.05,0,0,0,230,93.32a29.18,29.18,0,0,1,1,6.16c0,.64,0,1.26,0,1.86-.21-1.15-.48-2.36-.79-3.62S229.47,95,229.07,93.76Z" style="fill:#231f20"/><path d="M117.11,151.8l3.36,2.43.55-.1a42.62,42.62,0,0,1-3.46-2.83c-1.17-1.06-1.79-1.75-3.17-2.92-1-.81-1.77-1.42-2.31-1.81a23.27,23.27,0,0,0-6.18-2.88c2.13,1.6,3.91,2.89,5.15,3.79C113.1,148.95,114.26,149.74,117.11,151.8Z" style="fill:#231f20"/><path d="M115.79,119.2a1.54,1.54,0,0,0,.25-.49s-.15-1-.25-1.42a6.94,6.94,0,0,0-.8-2,11.84,11.84,0,0,0,0,4.51A1.61,1.61,0,0,0,115.79,119.2Z" style="fill:#231f20"/><path d="M123.46,76.56a64.69,64.69,0,0,0-6.72,24.37c.57-3.16,1.29-6.49,2.18-10A142.28,142.28,0,0,1,123.46,76.56Z" style="fill:#231f20"/><path d="M247.42,200.24c-3.38-2.59-6.9-4.9-13.93-9.52-3.67-2.41-8.56-5.56-14.42-9.16l6.84.73c1.29-.79,3.31-2.06,5.74-3.66,7.61-5,14.21-9.34,21.15-16A92.77,92.77,0,0,0,262,152.5a85.59,85.59,0,0,0,9.78-16.12V120.51a174.49,174.49,0,0,1-20,28c-7.55,8.57-12.51,12.41-15.28,14.41a79.32,79.32,0,0,1-16,8.91,9.24,9.24,0,0,1-7.21.73,8.92,8.92,0,0,1-4.4-3.3,10.74,10.74,0,0,1-.24-8.42,10.51,10.51,0,0,1,4.64-5.13,9,9,0,0,0,5.26-1.22c.89-.55,3.51-2.45,5-12.33a66.43,66.43,0,0,0,.61-14.16,100.19,100.19,0,0,0-4.28-28.81,103.62,103.62,0,0,0-19.43-35.65c-3.91-4.62-7-7.23-13.2-12.45-7.34-6.18-10-7.32-12.83-7.2-2.56.11-4.66,1.24-9.9,5.62-6.47,5.41-9.7,8.11-14.42,13.8a99.66,99.66,0,0,0-15.4,23.69s-7.46,16.45-8.43,42.49a107.92,107.92,0,0,0,.61,11.6c0,.44.62,6.91,2.81,10.74a7.41,7.41,0,0,0,5.26,3.78,5.64,5.64,0,0,1,2.93.24c2.84,1.06,4.66,4.67,4.52,9a8.49,8.49,0,0,1-1.22,4.76c-1.54,2.44-4,3.23-6.72,4a24.66,24.66,0,0,1-14.42.24c-2.93-.87-5-2.1-8.43-4.4A162.67,162.67,0,0,1,94.27,156c-4.35-3.91-9.85-9.06-16-15.38v12.58A106.21,106.21,0,0,0,110,181.31a102.36,102.36,0,0,0,11.73,5.74l9.29-7.2a94.57,94.57,0,0,1-10.76,14c-5.93,6.4-11.94,12.89-21.76,16.73a46,46,0,0,1-20,2.93v11.84a50.36,50.36,0,0,0,24.57-3.3,54.33,54.33,0,0,0,20.29-15c4.21-4.76,7-9.44,7.21-9.28s-3.81,6.49-7.46,13.31c-5,9.25-9,16.76-11.12,27.1a83.81,83.81,0,0,0-1.59,17.58A103,103,0,0,0,111.62,272H123a81,81,0,0,1-.86-16.73c.42-8,1.12-21.27,9.78-33.94A55.6,55.6,0,0,1,157,201.58a49.62,49.62,0,0,0-14.91,24.3,44.86,44.86,0,0,1,18.21-13.06c7.24-2.74,13.34-2.77,20.29-2.81a91.39,91.39,0,0,1,23.35,2.93,46.94,46.94,0,0,0-9.66-12.58A53.78,53.78,0,0,1,215.64,215,54.58,54.58,0,0,1,228,239.92,61.3,61.3,0,0,1,226.52,272H239a65.17,65.17,0,0,0,2.93-30.89,68,68,0,0,0-8.43-23.44,82.11,82.11,0,0,0-17.6-22,69.38,69.38,0,0,1,19.56,8.18c8.89,5.49,12,10.36,21.39,14.77a54.25,54.25,0,0,0,14.91,4.52V214a43.68,43.68,0,0,1-13-5C254.58,206.56,253.75,205.09,247.42,200.24Z" style="fill:#fff"/><path d="M135.95,132.84a93.85,93.85,0,0,0,10.45,2.32c4.19.68,6,.67,8.37,2.14a16.59,16.59,0,0,1,5.07,5.49,28.71,28.71,0,0,1,3.73,8.06,91.16,91.16,0,0,1-9.17-.24c-5.85-.45-7.27-1.12-7.82-1.4-2.86-1.47-4.28-3.78-6.48-7.33A41,41,0,0,1,135.95,132.84Z" style="fill:#231f20"/><path d="M186.43,151c4.08-10.93,9.16-13.58,11.61-14.41,1.62-.54,5-1.26,8.8-2.08,3-.63,5.41-1.1,7.09-1.4a32.45,32.45,0,0,1-3.73,8.67c-2.07,3.36-3.61,5.85-6.6,7.39-.7.36-2,.95-11.18,1.53C189.92,150.83,187.85,150.92,186.43,151Z" style="fill:#231f20"/></g><g id="LeftTentancle"><path d="M60.29,228.26c-.57-.13-1.4-.35-2.38-.67-8.37-2.78-13.25-8.94-15.58-12-2.92-3.78-8.79-11.41-8.74-22.53.07-13.77,9.18-22.71,11.06-24.48l-1.47-1a36.15,36.15,0,0,1,27.56-9.22v3.66a30,30,0,0,0-10.21.31c-12.6,2.59-19.07,12.61-19.92,14a31.7,31.7,0,0,0-4.4,20.76,33.59,33.59,0,0,0,4.28,11.6,39.9,39.9,0,0,0,7.58,9.65,41.92,41.92,0,0,1-6.78-9.4,34.22,34.22,0,0,1-4.4-14A31.34,31.34,0,0,1,39,181.07a29.75,29.75,0,0,1,31.72-18l.06,14.83a8.22,8.22,0,0,0-6.91-.49,7.64,7.64,0,0,0-3.42,2.93Z" style="fill:#231f20"/><path d="M60.29,230a36.17,36.17,0,0,1-7.74-3.3A39.88,39.88,0,0,1,45,221a40.79,40.79,0,0,1-9.21-12.62,38.3,38.3,0,0,1-3.34-11.68c-1.53-14.84,8.81-27.1,8.72-27.15a36.3,36.3,0,0,0-9.09,21.69,38.06,38.06,0,0,0,6.19,23.28,39.26,39.26,0,0,0,8.19,9.12,39.9,39.9,0,0,0,13.81,7.28Z" style="fill:#231f20"/><path d="M88.77,183.43a34.67,34.67,0,0,0-4.56-7.24c-1.68-2.05-5.91-7.21-11.9-9.28-8.72-3-18.58,1.41-24.36,6.84-10.71,10.05-8.48,24.5-8.31,25.48C42,212.73,53.12,219,54.54,219.81V209.48A20.23,20.23,0,0,1,51,205.24a21,21,0,0,1-3.18-10.74c-.2-9.17,5.83-15.46,7.82-17.34s5.16-4.85,10.27-5.62c5.48-.82,9.82,1.5,13,3.17A29.74,29.74,0,0,1,88.77,183.43Z" style="fill:#fff"/></g><g id="BottomLeftTentacle"><path d="M157.95,299.75a24.51,24.51,0,0,0,7.58-10.83,23.52,23.52,0,0,0,1.22-8.3H142.34a10.6,10.6,0,0,1-9.53,9.48h-26.4a38.16,38.16,0,0,0,17.72,15.63,36.61,36.61,0,0,0,13,2.81l-.16-2.2C139.62,306.49,149.77,306.78,157.95,299.75Zm1.71-6.15c.33-.25.63-.49.9-.73a3.61,3.61,0,0,1-1.3,1.67l-.77-.16A12.18,12.18,0,0,0,159.66,293.6Zm-29.91,10.05a29.64,29.64,0,0,1-9.21-4.19l.69-.2a30.17,30.17,0,0,0,10.63,4.27,31.4,31.4,0,0,0,19.35-2.69,28.12,28.12,0,0,1-7.7,3.05A29.18,29.18,0,0,1,129.75,303.65Z" style="fill:#231f20"/><path d="M167.05,290.1a36.15,36.15,0,0,1-18.28,16.26,36.92,36.92,0,0,0,16.08-11.62,33.69,33.69,0,0,0,3.06-4.7Z" style="fill:#231f20"/><path d="M148.78,306.36a46.65,46.65,0,0,1-5.07,1.63A36.73,36.73,0,0,0,148.78,306.36Z" style="fill:#231f20"/><path d="M152.08,264.66a16,16,0,0,0-8.39-3.26,13.74,13.74,0,0,0-12.14,9.12,13.42,13.42,0,0,1,5.54-3.26c1.4-.41,6.09-1.78,9.86,1.14a10.1,10.1,0,0,1,3.5,9.52,21.45,21.45,0,0,1-7.17,14.41c-7.52,6.48-16.7,4.86-17.85,4.64a21.94,21.94,0,0,0,13,3.74A20.25,20.25,0,0,0,158.11,280C158.19,279.24,158.93,270,152.08,264.66Z" style="fill:#fff"/></g><g id="BottomRightTentacle"><path d="M239.9,290.1a8,8,0,0,1-2.66,3.24,15.39,15.39,0,0,0,2.17-3.24H212.24a15.36,15.36,0,0,1-5.12-10l-26.47,0a23.48,23.48,0,0,0,1.63,10q-1.39.35-1.39.37h0a37.59,37.59,0,0,0,4.07,5.62c.95,1.08,11.29,12.5,25.79,12.62h0A35.42,35.42,0,0,0,236,297.55l1.63,1.59,7.13-9Zm-43.45,12.45a31,31,0,0,1-12.22-11.66,35.34,35.34,0,0,0,11.86,10.44A36.14,36.14,0,0,0,218,305.18,31.62,31.62,0,0,1,196.45,302.55Z" style="fill:#231f20"/><path d="M206.53,309.51c-17.65-2.6-26.08-17.67-27-19.41h-.82c.79,1.53,9.57,17.81,28,20.08A36.75,36.75,0,0,0,231.41,304,37,37,0,0,1,206.53,309.51Z" style="fill:#231f20"/><path d="M205,289.73a22.73,22.73,0,0,1-6.84-15.47c.07-4.05,1.8-7.71,4.81-9.2s6.59-.37,9,.41a18.6,18.6,0,0,1,4.64,2.28,14.84,14.84,0,0,0-6.68-7.08,13.47,13.47,0,0,0-10-1.14c-5,1.56-7.31,5.94-8.15,7.57a19.29,19.29,0,0,0-1.71,11c.29,3.71.9,11.42,7.25,16.77,5.8,4.89,14.57,6.28,20.86,3.09a14.73,14.73,0,0,0,3-2A22.83,22.83,0,0,1,205,289.73Z" style="fill:#fff"/></g><g id="RightTentactle"><path d="M307.68,193a34.82,34.82,0,0,0-10.55-23,.7.7,0,0,1-.08-.53.75.75,0,0,1,.49-.49,34.7,34.7,0,0,0-19.88-9.77l-.29,18.88a10.83,10.83,0,0,1,4.56,1.42c3.2,1.89,4.47,5.06,6,9a37.91,37.91,0,0,1,2.19,8.69q0,14.78,0,29.56l6.59-5.49v-1.67C298.19,218.24,308.43,208.37,307.68,193Zm-4.4,12.53a29.37,29.37,0,0,1-6.6,10.58,37.91,37.91,0,0,0,8.23-22.55A29.34,29.34,0,0,1,303.28,205.49Z" style="fill:#231f20"/><path d="M299.73,170.69c2.31,2.59,9.37,11.19,9.59,23.75.37,20.73-18.24,32.45-19.21,33,1.19-.78,19.49-13.31,18.66-34.2A38,38,0,0,0,299.73,170.69Z" style="fill:#231f20"/><path d="M303.81,190.35c-1.7-11-10.57-18.52-19.23-21.16a29,29,0,0,0-19,1c1.51-.34,11.41-2.43,20.37,4.07a25.43,25.43,0,0,1,9.78,15.38c.45,3.09.82,6.4,1.06,9.93.3,4.46.35,8.63.24,12.45C298.19,210.72,305.61,202.09,303.81,190.35Z" style="fill:#fff"/></g><g id="SmallGreenParts"><path d="M219.92,162.74a4.7,4.7,0,0,1,.77.46,4.82,4.82,0,0,1,1.33,1.51l-4.2,3a10.85,10.85,0,0,1,2.1-4.94Z" style="fill:#707728"/><path d="M216.86,164.69a1,1,0,0,1,.68.19.94.94,0,0,1,.28.34,2.91,2.91,0,0,1-1.14,1.48,3.5,3.5,0,0,1,.19-2Z" style="fill:#707728"/><path d="M208.3,164.69a15.9,15.9,0,0,1,2.87,2.28,8.32,8.32,0,0,1,0,2.87,5.73,5.73,0,0,1-2.87-5.16Z" style="fill:#707728"/><path d="M225.93,137.35a19.45,19.45,0,0,1,.46,3.35,12.32,12.32,0,0,1,0,1.87,10.85,10.85,0,0,1-1.79,4.64,21.49,21.49,0,0,1-2.34,3.27c.7-1.94,1.38-4,2-6.28C225,141.8,225.5,139.5,225.93,137.35Z" style="fill:#707728"/><path d="M228.08,132.33l.33.41.54.66c-.11.69-.25,1.44-.45,2.22a23.52,23.52,0,0,1-1.32,3.79,31.84,31.84,0,0,1,.41-4.65C227.72,133.9,227.89,133.09,228.08,132.33Z" style="fill:#707728"/><path d="M230.14,120.52a2.14,2.14,0,0,1,1.19.82l-.1.87-.27,2.42a13.53,13.53,0,0,1-.82-4.12Z" style="fill:#707728"/><path d="M230.26,113.19a8.58,8.58,0,0,1,1.54,2.51,6,6,0,0,1,0,2.47,5.89,5.89,0,0,1-.45,1.36,42.63,42.63,0,0,1-.87-4.32Q230.35,114.17,230.26,113.19Z" style="fill:#707728"/><polygon points="78.05 123.97 81.28 127.37 78.05 124.96 78.05 123.97" style="fill:#636b24"/><path d="M138.15,271.65l-.43-2a5.85,5.85,0,0,1,5.81,1l-.43,1.14Z" style="fill:#666e24"/><path d="M143.83,266.28l2,3.4v-1.11l1.45.12a6.54,6.54,0,0,0-1.11-1.17A6.63,6.63,0,0,0,143.83,266.28Z" style="fill:#666e24"/></g></g></g></svg>