<svg xmlns="http://www.w3.org/2000/svg" xmlns:xlink="http://www.w3.org/1999/xlink" viewBox="0 0 350 350"><defs><linearGradient id="linear-gradient" x1="219.55" y1="184.76" x2="133.4" y2="98.6" gradientUnits="userSpaceOnUse"><stop offset="0" stop-color="#6e7e8e"/><stop offset="0.52" stop-color="#647483"/><stop offset="1" stop-color="#6e7e8e"/></linearGradient><linearGradient id="linear-gradient-2" x1="172.41" y1="111.5" x2="172.41" y2="85.86" gradientUnits="userSpaceOnUse"><stop offset="0" stop-color="#5d6b76" stop-opacity="0.1"/><stop offset="1" stop-color="#5d6b76"/></linearGradient><linearGradient id="linear-gradient-3" x1="245.42" y1="149.89" x2="251.81" y2="138.82" gradientUnits="userSpaceOnUse"><stop offset="0" stop-color="#5d6b76" stop-opacity="0.2"/><stop offset="1" stop-color="#5d6b76" stop-opacity="0.4"/></linearGradient><linearGradient id="New_Gradient_Swatch_3" x1="149.06" y1="259" x2="201.7" y2="167.83" gradientUnits="userSpaceOnUse"><stop offset="0" stop-color="#5d6b76" stop-opacity="0.3"/><stop offset="1" stop-color="#5d6b76"/></linearGradient><linearGradient id="linear-gradient-4" x1="215.37" y1="255.37" x2="216.83" y2="252.85" gradientUnits="userSpaceOnUse"><stop offset="0" stop-color="#5d6b76" stop-opacity="0.3"/><stop offset="1" stop-color="#5d6b76" stop-opacity="0.5"/></linearGradient><linearGradient id="linear-gradient-5" x1="220.01" y1="251" x2="218.21" y2="249.96" gradientUnits="userSpaceOnUse"><stop offset="0" stop-color="#5d6b76" stop-opacity="0.1"/><stop offset="1" stop-color="#5d6b76" stop-opacity="0.7"/></linearGradient><linearGradient id="linear-gradient-6" x1="226.58" y1="246.49" x2="233.79" y2="239.28" gradientUnits="userSpaceOnUse"><stop offset="0" stop-color="#5d6b76" stop-opacity="0.2"/><stop offset="1" stop-color="#5d6b76" stop-opacity="0.5"/></linearGradient></defs><title>Clash</title><g id="Clash"><g id="Background"><rect x="59.96" y="59.96" width="230.08" height="230.08" style="fill:#fff"/><rect x="69.5" y="69.5" width="211" height="211" style="fill:#191917"/><rect x="79" y="79" width="192" height="192" style="fill:#0c0c0c"/></g><g id="BottomSplatter"><g id="OuterBottomSplatter"><path d="M67,220.33a5.1,5.1,0,0,0,2,.83c1.41.26,2.46-.21,2.83.33a1.78,1.78,0,0,1,.09,1.18h0a6.13,6.13,0,0,1-.33,2c-.41.86-1.19.85-2.43,1.69A8.13,8.13,0,0,0,67,228.42Z" style="fill:#fff"/><path d="M70,235.17c.44-.2,1.32.47,1.63,1.29a2.26,2.26,0,0,1-.29,2,1.59,1.59,0,0,1-1-.21C69.22,237.54,69.35,235.44,70,235.17Z" style="fill:#fff"/><path d="M74.61,244.61a1.35,1.35,0,0,0-1.55-.19,2.14,2.14,0,0,0-.4,2.87,1.58,1.58,0,0,0,1,0C74.69,246.92,75.22,245.29,74.61,244.61Z" style="fill:#fff"/><path d="M76.38,244.63c-.43-.52-.35-.87-.32-1s.13-.36,1.24-.79a9.57,9.57,0,0,1,1.38-.42,2.63,2.63,0,0,1-1.25,1.92A2.24,2.24,0,0,1,76.38,244.63Z" style="fill:#fff"/><path d="M74.08,259c.39.12.82.18,1,0s0-.57.21-1.08.84-.7.88-1.08-.18-.62-1.34-1.17a2.18,2.18,0,0,0-1,.42,2,2,0,0,0-.75,2.33A1.45,1.45,0,0,0,74.08,259Z" style="fill:#fff"/><path d="M82.38,270.33a1.38,1.38,0,0,1-.12-1.17,1.18,1.18,0,0,1,1.17-.79,1.06,1.06,0,0,1,.83.71,1.09,1.09,0,0,1-.17,1A1.39,1.39,0,0,1,82.38,270.33Z" style="fill:#fff"/><path d="M88,262.46a1.2,1.2,0,0,1,.46-.75,1.55,1.55,0,0,1,1.88.33,1.29,1.29,0,0,1,.42.92,1.31,1.31,0,0,1-1.12,1.21,1.4,1.4,0,0,1-1.08-.42A1.49,1.49,0,0,1,88,262.46Z" style="fill:#fff"/><path d="M88.63,268c-.42.46-.14,1.36,0,1.92s.53,1.64,1.29,1.79c.39.08.47-.21,1.21-.33,1-.16,1.2.2,1.78,0a2.58,2.58,0,0,0,1.3-1.74,3.25,3.25,0,0,0,0-1.58c0-.84-.23-1.18-.46-1.33-.39-.26-.71.06-1.58,0s-1.26-.59-1.67-.37-.21.75-.71,1.21S89,267.63,88.63,268Z" style="fill:#fff"/><path d="M92.54,275.29a1.69,1.69,0,0,1,2.54.17c.17.43-.14,1.05-.67,1.54a1.33,1.33,0,0,1-1.78.07A1.36,1.36,0,0,1,92.54,275.29Z" style="fill:#fff"/><path d="M255.25,198.13l-72.5,72.5L73.63,198.13H67.44v14.25c-.42,1.05-.74,2.29-.19,2.88.83.87,3-.35,3.63.5s-.79,2.14-.19,3.06,2.5,0,3.63,1.06c.85.84.07,1.71,1.06,3.13.61.87,1.07.78,2.06,2.06.33.42,1.17,1.52.88,1.94s-1.43-.15-1.62.19,1.91,1.75,1.63,2.92a1.06,1.06,0,0,1-.8.78c-.53.07-.74-.59-1.58-1.07-.1-.05-1.6-.89-2.5-.19a1.69,1.69,0,0,0-.44,2,2.76,2.76,0,0,0,1.63.87c-.05,0-.7,2.15-.81,2.56-.92,3.6,5.51,7.46,4.44,10.5-.73,2.09-3.29,2.17-3.63,4.56-.18,1.21.67,1.61,1.69,4.1A21.72,21.72,0,0,1,77.59,259a36.21,36.21,0,0,1,.19,7.63c-.08,2.62.52,5.29.06,7.88a2.42,2.42,0,0,0,.28,1.81,1.49,1.49,0,0,0,1.32.66,1.63,1.63,0,0,0,1.05-.91c.73-1.28.22-2.43.16-4.28-.07-2.27.55-5.26,2-5.74.48-.16.75.06,1.44-.24a2.6,2.6,0,0,0,1.5-1.58,2,2,0,0,0-.33-2c-.62-.5-1.48.12-2.08-.48a1.14,1.14,0,0,1-.33-.9,1.32,1.32,0,0,1,.6-.9,2.37,2.37,0,0,1,1.51-.38c2.08.07,5.45.22,6.16,1.15a1.4,1.4,0,0,1,.21.37c.13.4-.07.62,0,1.21,0,.26,0,.54.21.65s.35-.07.48,0-.29,1,0,1.55c.18.32.63.56.9.44.66-.3,0-2.84.38-2.92.15,0,.23.5.73.73s.82-.13,1.42,0,1.12.78,1,1.1-1.41.31-1.45.65c0,.14.21.27.27.31.44.26.89,0,1.33,0a2.36,2.36,0,0,1,1.6,1c1.2,1.28.08,4-.33,7.33a23.11,23.11,0,0,0,0,5.92L93.69,282l3.81,7.38a19.53,19.53,0,0,1,.33,2.77c.21,4.44-1.22,6.44-.1,9.5.19.51.73,2,1.69,2.1.7.07,1.3-.64,1.48-.85,1.06-1.26.92-2.8.73-6.48-.23-4.49-.22-5.92.42-7.62a10.5,10.5,0,0,1,1-2l3.22-5.87c.05-.11.16-.33.28-.61.89-2.15.66-4.07,1-8.06.07-.92.13-1.49.44-1.58s1.24.65,1.19,1.31c0,.43-.4.54-.36.87.07.54,1.18.46,1.36,1,.26.75-1.8,1.54-1.76,3a1.4,1.4,0,0,0,.76,1.3.78.78,0,0,0,.74-.17c.28-.29,0-.72.32-1.06a.71.71,0,0,1,.6-.27c.69.15.49,2.27,1.26,2.46a.58.58,0,0,0,.37,0c.86-.35,1.21-2.44.49-3.91-.47-1-1.25-1.35-1.08-1.71a.81.81,0,0,1,1-.17c.46.25.21.83.73,1.46s.88.45,1,.83-.31.53-.5,1.13a2.39,2.39,0,0,0,0,1.35,9.49,9.49,0,0,1-.25,4l4.69,1.19a20.21,20.21,0,0,1-.69-2.87c-.29-1.81-.12-2.31.15-2.6s.48-.17,1-.62c.71-.6.62-1.07,1.25-1.4.1,0,.71-.37,1.15-.06a.82.82,0,0,1,.33.73c0,.4-.43.46-.58.79-.41.85,1.23,2.31,1.06,2.48s-.77-.23-1.25-.81-.41-.79-.77-.92-.69,0-.8.17c-.2.38.64,1.09,1.39,2a11.29,11.29,0,0,1,1.88,3.31L223,286l13.08-3.17c.49-1.57.26-2.3-.05-2.68s-.48-.39-.44-.56c.1-.38,1.56,0,1.84-.62.15-.31-.1-.77-.31-1s-.51-.3-1.16-.53c-.89-.32-1.34-.49-1.43-.77-.16-.53,1-1.31,1.33-1.54a1.63,1.63,0,0,0,.69-.84c.15-.47-.06-.76.16-1.09a.82.82,0,0,1,1-.34c.3.19.2.77.18.94a2.39,2.39,0,0,1-1.07,1.51,1,1,0,0,0-.39,1.27.71.71,0,0,0,.69.22c.4-.09.39-.48.78-.62s.77.32,1.19.16.44-1.05.77-1.1c.15,0,.38.12.73.79.07.14.18.34.29.6.43,1,.34,1.35.61,1.87.35.68,1.16,1.35,1.79,1.22.43-.09.43-.48,1.22-1.16.45-.39,1.07-.93,1.45-.78s.37,1.4.29,3c-.05,1.13-.11,2.75-.08,4.76.09,2.41.08,4.34.06,5.56-.06,4.17-.35,7.9,1.16,9.25a1.61,1.61,0,0,0,1.19.5c.69-.08,1.1-.87,1.28-1.22.86-1.67.53-3.48.32-5.41-.14-1.23-.19-2.67-.29-5.55a47.84,47.84,0,0,1,.24-6.62c-.09-2.16,0-3.92,0-5.16.15-3.23.48-4.21-.16-5.84-.26-.67-.64-1.35-.4-1.58.4-.39,2.25.6,2.18.85l0,0a3.32,3.32,0,0,0-.43.71,6.28,6.28,0,0,0-.5,1,1.3,1.3,0,0,0,.14.74,1,1,0,0,0,.61-.05c.4-.18.37-.53.72-.81.55-.45,1.26-.1,1.44-.44.06-.11.07-.31-.23-.74-.27-.25-.65-.61-1.08-1.07a11,11,0,0,1-1.53-1.91c-.49-.8-.73-1.2-.69-1.69.06-.75.64-.9.63-1.62s-.65-1.16-.47-1.41.57.11,1.34,0a2.46,2.46,0,0,0,1.18-.6c.22-.21.49-.46.45-.71s-.64-.6-1.45-.62a2.83,2.83,0,0,1,.94-.78,3.53,3.53,0,0,1,2.67,0c.61.17,1.31.36,1.41.81s-.5.8-.34,1.16a.88.88,0,0,0,1.06.25c.55-.25.6-1.08.63-1.47a3,3,0,0,0-.41-1.75c-.39-.63-.88-.8-.81-1.16s.49-.47.56-.5a1.14,1.14,0,0,1,1.06.13c.67.56-.27,2,.38,2.63.46.46,1.5.28,1.61,0s-.31-.36-.52-1c0-.09-.27-.83,0-1.08s.58.1.82-.08-.14-1,.2-1.48,1.84-.17,1.93-.14,1.63.52,1.84,1.66c.1.53-.08,1.16-.34,1.22s-.59-.65-1.12-.62a.77.77,0,0,0-.47.22,1.38,1.38,0,0,0-.17,1.06c.07.25.28.67.57.69s.46-.62.78-.66c.5-.05,1.06,1.44,1.78,3.47s1,2.88,1.06,3.06c.86,3.84-.9,5.82.34,7.06a2.33,2.33,0,0,0,2.88.25c.59-.56.27-1.65,0-3.09a53.85,53.85,0,0,1-.24-6c-.27-5.15-.4-7.72.62-10.44,1.32-3.53,3.42-4.53,2.82-6.5s-3.24-3.06-3-3.37,1.54.53,2,0a.43.43,0,0,0,.13-.41c-.12-.27-.76-.05-1.53-.44-.39-.2-.45-.37-.47-.44a.56.56,0,0,1,.31-.62c.22-.07.33.16.73.3a1.29,1.29,0,0,0,1.21-.11c.32-.32.08-.89.38-1a.37.37,0,0,1,.34,0c.45.31-.3,1.61.19,2.16.15.17.45.3,1.09.19a.63.63,0,0,0,.38-.31c.18-.44-.52-.89-.37-1.41s.58-.35.68-.74-.21-.5-.58-1.29a2.13,2.13,0,0,1-.34-1.41c.11-.41.38-.41.72-.87.49-.67.15-1,.59-2.09.36-.91.67-1,.72-1.66,0-.39-.06-.63.13-.87s.45-.18,1-.37c.22-.08,1.14-.42,1.31-1.12a1.13,1.13,0,0,0-.16-.87c-.47-.69-1.57-.43-1.69-.8,0-.16.08-.46,1-1.08a3,3,0,0,1,.86.48c.3.24.39.4.53.38s.51-.65.35-1.1c-.25-.68-1.32-.55-1.45-1.09s.61-1,.73-1.09a2.66,2.66,0,0,1,2-.41l4.58-28.25ZM112,274.87c.32.14.24,1.24,0,1.29s-.16-.29-.52-.47-.49,0-.75-.21-.33-.36-.27-.45.42.14.92,0S111.86,274.81,112,274.87Zm123-3q.69.31.67.52t-1.83.42q-.35,0-.37-.08T235,271.86Zm-7.17,8.22c-.35.33-.92.06-1,0-.26-.12-.28-.27-.54-.54-.58-.61-1.24-.66-1.21-.83s.43,0,.88-.29.64-.91.83-.87,0,.64.42,1.08.55.23.71.54A.77.77,0,0,1,227.83,280.08Zm2.25-1.21c-.22.07-.47-.15-.54-.21-.57-.5-.16-1.23-.67-1.75s-1-.28-1-.56.24-.46.51-.64a2.33,2.33,0,0,1,1.92,1C230.76,277.54,230.51,278.74,230.08,278.88Zm4.5-.21a1.21,1.21,0,0,1,.29,1.25,1.15,1.15,0,0,1-.53.58,1.92,1.92,0,0,0-.35-.5c-.25-.26-.43-.29-.46-.42S233.67,279.17,234.58,278.67Zm-.37-3.21c-.23.24-.34.49-.58.5a.63.63,0,0,1-.46-.24,1.07,1.07,0,0,1-.12-.93c.23-.54,1.22-.84,2.38-.42.25.13.29.23.29.29C235.7,274.94,234.83,274.83,234.21,275.46Zm4-4.58a1.92,1.92,0,0,1-1.79-.17c-.14-.19-.15-.3-.12-.37.11-.28.76,0,1.37-.38.46-.27.45-.64.88-.75a1.07,1.07,0,0,1,.7.09A1.81,1.81,0,0,1,238.17,270.88Zm2.38,1.38c0,.58-.09.68-.17.71s-.55-.32-.71-.54a1.1,1.1,0,0,1-.2-.4c-.08-.41.31-.92,1-1.27A7,7,0,0,1,240.54,272.25Z" style="fill:#fff"/><path d="M239.88,277.81a.64.64,0,1,1-.65.48A.66.66,0,0,1,239.88,277.81Z" style="fill:#fff"/><path d="M252.06,279.44h0c0,.06,1.23,0,1.4-.42s-1.1-1.58-1.1-1.58h0a.9.9,0,0,0-.71-.12,1.11,1.11,0,0,0-.46,1.43A1.3,1.3,0,0,0,252.06,279.44Z" style="fill:#fff"/><path d="M253.56,272.44a1.44,1.44,0,1,1,.25,2.81,1.41,1.41,0,0,1-.25-2.81Z" style="fill:#fff"/><path d="M252.44,268.83a2,2,0,0,1-.37-1.19,1.91,1.91,0,0,1,.06-.83,1.82,1.82,0,0,1,1-1,1.6,1.6,0,0,1,1.3,0,1.77,1.77,0,0,1,.86,1.42,2.07,2.07,0,0,1-1.6,2.25A1.55,1.55,0,0,1,252.44,268.83Z" style="fill:#fff"/><path d="M256.5,265.33a.53.53,0,0,0,.17-1c-.24,0-.58.46-.44.79A.51.51,0,0,0,256.5,265.33Z" style="fill:#fff"/><path d="M261.19,264.79c.35.15.91-.38,1.15-.67a2,2,0,0,0,.46-.94c.06-.31.12-.65,0-.79-.46-.42-2.59.93-2.44,1.46,0,.15.25.16.56.54S261.06,264.74,261.19,264.79Z" style="fill:#fff"/><path d="M260.23,267.58a.87.87,0,0,1,.75,1,.86.86,0,0,1-.92.6c-.74-.2-1.05-.86-.9-1.23A1,1,0,0,1,260.23,267.58Z" style="fill:#fff"/><path d="M264.56,266.88a1,1,0,0,1,1.29-.12.88.88,0,0,1,0,1.1c-.7.13-.92.05-1-.06s.13-.38,0-.62S264.56,267,264.56,266.88Z" style="fill:#fff"/><path d="M272.65,264.25c.29,0,.46.26.79.67s.76.94.67,1.38a1.61,1.61,0,0,1-1.58.94,1.31,1.31,0,0,1-1-.23,1.51,1.51,0,0,1-.31-1.65C271.46,264.75,272.08,264.15,272.65,264.25Z" style="fill:#fff"/><path d="M276.6,263.08a1.09,1.09,0,0,0,1.21-.21,1.18,1.18,0,0,0-.58-1.62c-.92.09-1.45.72-1.37,1.17S276.56,263.07,276.6,263.08Z" style="fill:#fff"/><path d="M273.21,258.77a2.13,2.13,0,0,0,1.73-2.68,2,2,0,0,0-2.11-1.15,1.86,1.86,0,0,0-1.48,1A2.26,2.26,0,0,0,273.21,258.77Z" style="fill:#fff"/><path d="M276.67,256.13a1.2,1.2,0,0,1,.63-.9,1,1,0,0,1,.77,0c.36.15.31.45.69.63s.51,0,.73.15a.81.81,0,0,1,.17.88,1.09,1.09,0,0,1-.45.48,1.46,1.46,0,0,1-.86.38,2.45,2.45,0,0,1-.94-.44c-.49-.29-.58-.4-.65-.52A1,1,0,0,1,276.67,256.13Z" style="fill:#fff"/><path d="M275.81,252.81a1,1,0,0,0,.86-.54c.3-.67-.51-1.45-.56-1.5a2,2,0,0,0-.57-.37,1.16,1.16,0,0,0-.85.44A1.53,1.53,0,0,0,275.81,252.81Z" style="fill:#fff"/><path d="M276.13,246.31c.06,0,.75-.27,1.08,0a1.24,1.24,0,0,1-.56,1.77.81.81,0,0,1-.78-.25A1.19,1.19,0,0,1,276.13,246.31Z" style="fill:#fff"/><path d="M277.27,242.75a1.43,1.43,0,0,1,.52-1c.71-.52,2.19-.11,3.46,1.27a2.34,2.34,0,0,1-2.71,1.17A2.26,2.26,0,0,1,277.27,242.75Z" style="fill:#fff"/><path d="M278.44,239.9a.88.88,0,0,0,.63.31c.38,0,.48-.42.87-.62.74-.39,1.55.4,1.92.13.21-.16.28-.66-.33-2.19-.66.91-1.17,1.08-1.51,1.06s-.48-.26-.86-.22c-.55,0-1.15.61-1.06,1.08A.71.71,0,0,0,278.44,239.9Z" style="fill:#fff"/><path d="M278,236.77a.77.77,0,0,0,.88.17c.36-.22,0-.79.38-1.81.2-.61.4-.69.35-1-.08-.59-.75-1.12-1.15-1s-.27.41-.6.5-.44-.12-.62,0-.29.32-.23,1.15a.86.86,0,0,0,.06.77c.17.19.4.08.6.27S277.69,236.46,278,236.77Z" style="fill:#fff"/><path d="M67,220.33a5.1,5.1,0,0,0,2,.83c1.41.26,2.46-.21,2.83.33a1.78,1.78,0,0,1,.09,1.18h0a6.13,6.13,0,0,1-.33,2c-.41.86-1.19.85-2.43,1.69A8.13,8.13,0,0,0,67,228.42Z" style="fill:#fff"/><path d="M70,235.17c.44-.2,1.32.47,1.63,1.29a2.26,2.26,0,0,1-.29,2,1.59,1.59,0,0,1-1-.21C69.22,237.54,69.35,235.44,70,235.17Z" style="fill:#fff"/><path d="M74.61,244.61a1.35,1.35,0,0,0-1.55-.19,2.14,2.14,0,0,0-.4,2.87,1.58,1.58,0,0,0,1,0C74.69,246.92,75.22,245.29,74.61,244.61Z" style="fill:#fff"/><path d="M76.38,244.63c-.43-.52-.35-.87-.32-1s.13-.36,1.24-.79a9.57,9.57,0,0,1,1.38-.42,2.63,2.63,0,0,1-1.25,1.92A2.24,2.24,0,0,1,76.38,244.63Z" style="fill:#fff"/><path d="M74.08,259c.39.12.82.18,1,0s0-.57.21-1.08.84-.7.88-1.08-.18-.62-1.34-1.17a2.18,2.18,0,0,0-1,.42,2,2,0,0,0-.75,2.33A1.45,1.45,0,0,0,74.08,259Z" style="fill:#fff"/><path d="M82.38,270.33a1.38,1.38,0,0,1-.12-1.17,1.18,1.18,0,0,1,1.17-.79,1.06,1.06,0,0,1,.83.71,1.09,1.09,0,0,1-.17,1A1.39,1.39,0,0,1,82.38,270.33Z" style="fill:#fff"/><path d="M88,262.46a1.2,1.2,0,0,1,.46-.75,1.55,1.55,0,0,1,1.88.33,1.29,1.29,0,0,1,.42.92,1.31,1.31,0,0,1-1.12,1.21,1.4,1.4,0,0,1-1.08-.42A1.49,1.49,0,0,1,88,262.46Z" style="fill:#fff"/><path d="M88.63,268c-.42.46-.14,1.36,0,1.92s.53,1.64,1.29,1.79c.39.08.47-.21,1.21-.33,1-.16,1.2.2,1.78,0a2.58,2.58,0,0,0,1.3-1.74,3.25,3.25,0,0,0,0-1.58c0-.84-.23-1.18-.46-1.33-.39-.26-.71.06-1.58,0s-1.26-.59-1.67-.37-.21.75-.71,1.21S89,267.63,88.63,268Z" style="fill:#fff"/><path d="M92.54,275.29a1.69,1.69,0,0,1,2.54.17c.17.43-.14,1.05-.67,1.54a1.33,1.33,0,0,1-1.78.07A1.36,1.36,0,0,1,92.54,275.29Z" style="fill:#fff"/><path d="M255.25,198.13l-72.5,72.5L73.63,198.13H67.44v14.25c-.42,1.05-.74,2.29-.19,2.88.83.87,3-.35,3.63.5s-.79,2.14-.19,3.06,2.5,0,3.63,1.06c.85.84.07,1.71,1.06,3.13.61.87,1.07.78,2.06,2.06.33.42,1.17,1.52.88,1.94s-1.43-.15-1.62.19,1.91,1.75,1.63,2.92a1.06,1.06,0,0,1-.8.78c-.53.07-.74-.59-1.58-1.07-.1-.05-1.6-.89-2.5-.19a1.69,1.69,0,0,0-.44,2,2.76,2.76,0,0,0,1.63.87c-.05,0-.7,2.15-.81,2.56-.92,3.6,5.51,7.46,4.44,10.5-.73,2.09-3.29,2.17-3.63,4.56-.18,1.21.67,1.61,1.69,4.1A21.72,21.72,0,0,1,77.59,259a36.21,36.21,0,0,1,.19,7.63c-.08,2.62.52,5.29.06,7.88a2.42,2.42,0,0,0,.28,1.81,1.49,1.49,0,0,0,1.32.66,1.63,1.63,0,0,0,1.05-.91c.73-1.28.22-2.43.16-4.28-.07-2.27.55-5.26,2-5.74.48-.16.75.06,1.44-.24a2.6,2.6,0,0,0,1.5-1.58,2,2,0,0,0-.33-2c-.62-.5-1.48.12-2.08-.48a1.14,1.14,0,0,1-.33-.9,1.32,1.32,0,0,1,.6-.9,2.37,2.37,0,0,1,1.51-.38c2.08.07,5.45.22,6.16,1.15a1.4,1.4,0,0,1,.21.37c.13.4-.07.62,0,1.21,0,.26,0,.54.21.65s.35-.07.48,0-.29,1,0,1.55c.18.32.63.56.9.44.66-.3,0-2.84.38-2.92.15,0,.23.5.73.73s.82-.13,1.42,0,1.12.78,1,1.1-1.41.31-1.45.65c0,.14.21.27.27.31.44.26.89,0,1.33,0a2.36,2.36,0,0,1,1.6,1c1.2,1.28.08,4-.33,7.33a23.11,23.11,0,0,0,0,5.92L93.69,282l3.81,7.38a19.53,19.53,0,0,1,.33,2.77c.21,4.44-1.22,6.44-.1,9.5.19.51.73,2,1.69,2.1.7.07,1.3-.64,1.48-.85,1.06-1.26.92-2.8.73-6.48-.23-4.49-.22-5.92.42-7.62a10.5,10.5,0,0,1,1-2l3.22-5.87c.05-.11.16-.33.28-.61.89-2.15.66-4.07,1-8.06.07-.92.13-1.49.44-1.58s1.24.65,1.19,1.31c0,.43-.4.54-.36.87.07.54,1.18.46,1.36,1,.26.75-1.8,1.54-1.76,3a1.4,1.4,0,0,0,.76,1.3.78.78,0,0,0,.74-.17c.28-.29,0-.72.32-1.06a.71.71,0,0,1,.6-.27c.69.15.49,2.27,1.26,2.46a.58.58,0,0,0,.37,0c.86-.35,1.21-2.44.49-3.91-.47-1-1.25-1.35-1.08-1.71a.81.81,0,0,1,1-.17c.46.25.21.83.73,1.46s.88.45,1,.83-.31.53-.5,1.13a2.39,2.39,0,0,0,0,1.35,9.49,9.49,0,0,1-.25,4l4.69,1.19a20.21,20.21,0,0,1-.69-2.87c-.29-1.81-.12-2.31.15-2.6s.48-.17,1-.62c.71-.6.62-1.07,1.25-1.4.1,0,.71-.37,1.15-.06a.82.82,0,0,1,.33.73c0,.4-.43.46-.58.79-.41.85,1.23,2.31,1.06,2.48s-.77-.23-1.25-.81-.41-.79-.77-.92-.69,0-.8.17c-.2.38.64,1.09,1.39,2a11.29,11.29,0,0,1,1.88,3.31L223,286l13.08-3.17c.49-1.57.26-2.3-.05-2.68s-.48-.39-.44-.56c.1-.38,1.56,0,1.84-.62.15-.31-.1-.77-.31-1s-.51-.3-1.16-.53c-.89-.32-1.34-.49-1.43-.77-.16-.53,1-1.31,1.33-1.54a1.63,1.63,0,0,0,.69-.84c.15-.47-.06-.76.16-1.09a.82.82,0,0,1,1-.34c.3.19.2.77.18.94a2.39,2.39,0,0,1-1.07,1.51,1,1,0,0,0-.39,1.27.71.71,0,0,0,.69.22c.4-.09.39-.48.78-.62s.77.32,1.19.16.44-1.05.77-1.1c.15,0,.38.12.73.79.07.14.18.34.29.6.43,1,.34,1.35.61,1.87.35.68,1.16,1.35,1.79,1.22.43-.09.43-.48,1.22-1.16.45-.39,1.07-.93,1.45-.78s.37,1.4.29,3c-.05,1.13-.11,2.75-.08,4.76.09,2.41.08,4.34.06,5.56-.06,4.17-.35,7.9,1.16,9.25a1.61,1.61,0,0,0,1.19.5c.69-.08,1.1-.87,1.28-1.22.86-1.67.53-3.48.32-5.41-.14-1.23-.19-2.67-.29-5.55a47.84,47.84,0,0,1,.24-6.62c-.09-2.16,0-3.92,0-5.16.15-3.23.48-4.21-.16-5.84-.26-.67-.64-1.35-.4-1.58.4-.39,2.25.6,2.18.85l0,0a3.32,3.32,0,0,0-.43.71,6.28,6.28,0,0,0-.5,1,1.3,1.3,0,0,0,.14.74,1,1,0,0,0,.61-.05c.4-.18.37-.53.72-.81.55-.45,1.26-.1,1.44-.44.06-.11.07-.31-.23-.74-.27-.25-.65-.61-1.08-1.07a11,11,0,0,1-1.53-1.91c-.49-.8-.73-1.2-.69-1.69.06-.75.64-.9.63-1.62s-.65-1.16-.47-1.41.57.11,1.34,0a2.46,2.46,0,0,0,1.18-.6c.22-.21.49-.46.45-.71s-.64-.6-1.45-.62a2.83,2.83,0,0,1,.94-.78,3.53,3.53,0,0,1,2.67,0c.61.17,1.31.36,1.41.81s-.5.8-.34,1.16a.88.88,0,0,0,1.06.25c.55-.25.6-1.08.63-1.47a3,3,0,0,0-.41-1.75c-.39-.63-.88-.8-.81-1.16s.49-.47.56-.5a1.14,1.14,0,0,1,1.06.13c.67.56-.27,2,.38,2.63.46.46,1.5.28,1.61,0s-.31-.36-.52-1c0-.09-.27-.83,0-1.08s.58.1.82-.08-.14-1,.2-1.48,1.84-.17,1.93-.14,1.63.52,1.84,1.66c.1.53-.08,1.16-.34,1.22s-.59-.65-1.12-.62a.77.77,0,0,0-.47.22,1.38,1.38,0,0,0-.17,1.06c.07.25.28.67.57.69s.46-.62.78-.66c.5-.05,1.06,1.44,1.78,3.47s1,2.88,1.06,3.06c.86,3.84-.9,5.82.34,7.06a2.33,2.33,0,0,0,2.88.25c.59-.56.27-1.65,0-3.09a53.85,53.85,0,0,1-.24-6c-.27-5.15-.4-7.72.62-10.44,1.32-3.53,3.42-4.53,2.82-6.5s-3.24-3.06-3-3.37,1.54.53,2,0a.43.43,0,0,0,.13-.41c-.12-.27-.76-.05-1.53-.44-.39-.2-.45-.37-.47-.44a.56.56,0,0,1,.31-.62c.22-.07.33.16.73.3a1.29,1.29,0,0,0,1.21-.11c.32-.32.08-.89.38-1a.37.37,0,0,1,.34,0c.45.31-.3,1.61.19,2.16.15.17.45.3,1.09.19a.63.63,0,0,0,.38-.31c.18-.44-.52-.89-.37-1.41s.58-.35.68-.74-.21-.5-.58-1.29a2.13,2.13,0,0,1-.34-1.41c.11-.41.38-.41.72-.87.49-.67.15-1,.59-2.09.36-.91.67-1,.72-1.66,0-.39-.06-.63.13-.87s.45-.18,1-.37c.22-.08,1.14-.42,1.31-1.12a1.13,1.13,0,0,0-.16-.87c-.47-.69-1.57-.43-1.69-.8,0-.16.08-.46,1-1.08a3,3,0,0,1,.86.48c.3.24.39.4.53.38s.51-.65.35-1.1c-.25-.68-1.32-.55-1.45-1.09s.61-1,.73-1.09a2.66,2.66,0,0,1,2-.41l4.58-28.25ZM112,274.87c.32.14.24,1.24,0,1.29s-.16-.29-.52-.47-.49,0-.75-.21-.33-.36-.27-.45.42.14.92,0S111.86,274.81,112,274.87Zm123-3q.69.31.67.52t-1.83.42q-.35,0-.37-.08T235,271.86Zm-7.17,8.22c-.35.33-.92.06-1,0-.26-.12-.28-.27-.54-.54-.58-.61-1.24-.66-1.21-.83s.43,0,.88-.29.64-.91.83-.87,0,.64.42,1.08.55.23.71.54A.77.77,0,0,1,227.83,280.08Zm2.25-1.21c-.22.07-.47-.15-.54-.21-.57-.5-.16-1.23-.67-1.75s-1-.28-1-.56.24-.46.51-.64a2.33,2.33,0,0,1,1.92,1C230.76,277.54,230.51,278.74,230.08,278.88Zm4.5-.21a1.21,1.21,0,0,1,.29,1.25,1.15,1.15,0,0,1-.53.58,1.92,1.92,0,0,0-.35-.5c-.25-.26-.43-.29-.46-.42S233.67,279.17,234.58,278.67Zm-.37-3.21c-.23.24-.34.49-.58.5a.63.63,0,0,1-.46-.24,1.07,1.07,0,0,1-.12-.93c.23-.54,1.22-.84,2.38-.42.25.13.29.23.29.29C235.7,274.94,234.83,274.83,234.21,275.46Zm4-4.58a1.92,1.92,0,0,1-1.79-.17c-.14-.19-.15-.3-.12-.37.11-.28.76,0,1.37-.38.46-.27.45-.64.88-.75a1.07,1.07,0,0,1,.7.09A1.81,1.81,0,0,1,238.17,270.88Zm2.38,1.38c0,.58-.09.68-.17.71s-.55-.32-.71-.54a1.1,1.1,0,0,1-.2-.4c-.08-.41.31-.92,1-1.27A7,7,0,0,1,240.54,272.25Z" style="fill:#fff"/><path d="M239.88,277.81a.64.64,0,1,1-.65.48A.66.66,0,0,1,239.88,277.81Z" style="fill:#fff"/><path d="M252.06,279.44h0c0,.06,1.23,0,1.4-.42s-1.1-1.58-1.1-1.58h0a.9.9,0,0,0-.71-.12,1.11,1.11,0,0,0-.46,1.43A1.3,1.3,0,0,0,252.06,279.44Z" style="fill:#fff"/><path d="M253.56,272.44a1.44,1.44,0,1,1,.25,2.81,1.41,1.41,0,0,1-.25-2.81Z" style="fill:#fff"/><path d="M252.44,268.83a2,2,0,0,1-.37-1.19,1.91,1.91,0,0,1,.06-.83,1.82,1.82,0,0,1,1-1,1.6,1.6,0,0,1,1.3,0,1.77,1.77,0,0,1,.86,1.42,2.07,2.07,0,0,1-1.6,2.25A1.55,1.55,0,0,1,252.44,268.83Z" style="fill:#fff"/><path d="M256.5,265.33a.53.53,0,0,0,.17-1c-.24,0-.58.46-.44.79A.51.51,0,0,0,256.5,265.33Z" style="fill:#fff"/><path d="M261.19,264.79c.35.15.91-.38,1.15-.67a2,2,0,0,0,.46-.94c.06-.31.12-.65,0-.79-.46-.42-2.59.93-2.44,1.46,0,.15.25.16.56.54S261.06,264.74,261.19,264.79Z" style="fill:#fff"/><path d="M260.23,267.58a.87.87,0,0,1,.75,1,.86.86,0,0,1-.92.6c-.74-.2-1.05-.86-.9-1.23A1,1,0,0,1,260.23,267.58Z" style="fill:#fff"/><path d="M264.56,266.88a1,1,0,0,1,1.29-.12.88.88,0,0,1,0,1.1c-.7.13-.92.05-1-.06s.13-.38,0-.62S264.56,267,264.56,266.88Z" style="fill:#fff"/><path d="M272.65,264.25c.29,0,.46.26.79.67s.76.94.67,1.38a1.61,1.61,0,0,1-1.58.94,1.31,1.31,0,0,1-1-.23,1.51,1.51,0,0,1-.31-1.65C271.46,264.75,272.08,264.15,272.65,264.25Z" style="fill:#fff"/><path d="M276.6,263.08a1.09,1.09,0,0,0,1.21-.21,1.18,1.18,0,0,0-.58-1.62c-.92.09-1.45.72-1.37,1.17S276.56,263.07,276.6,263.08Z" style="fill:#fff"/><path d="M273.21,258.77a2.13,2.13,0,0,0,1.73-2.68,2,2,0,0,0-2.11-1.15,1.86,1.86,0,0,0-1.48,1A2.26,2.26,0,0,0,273.21,258.77Z" style="fill:#fff"/><path d="M276.67,256.13a1.2,1.2,0,0,1,.63-.9,1,1,0,0,1,.77,0c.36.15.31.45.69.63s.51,0,.73.15a.81.81,0,0,1,.17.88,1.09,1.09,0,0,1-.45.48,1.46,1.46,0,0,1-.86.38,2.45,2.45,0,0,1-.94-.44c-.49-.29-.58-.4-.65-.52A1,1,0,0,1,276.67,256.13Z" style="fill:#fff"/><path d="M275.81,252.81a1,1,0,0,0,.86-.54c.3-.67-.51-1.45-.56-1.5a2,2,0,0,0-.57-.37,1.16,1.16,0,0,0-.85.44A1.53,1.53,0,0,0,275.81,252.81Z" style="fill:#fff"/><path d="M276.13,246.31c.06,0,.75-.27,1.08,0a1.24,1.24,0,0,1-.56,1.77.81.81,0,0,1-.78-.25A1.19,1.19,0,0,1,276.13,246.31Z" style="fill:#fff"/><path d="M277.27,242.75a1.43,1.43,0,0,1,.52-1c.71-.52,2.19-.11,3.46,1.27a2.34,2.34,0,0,1-2.71,1.17A2.26,2.26,0,0,1,277.27,242.75Z" style="fill:#fff"/><path d="M278.44,239.9a.88.88,0,0,0,.63.31c.38,0,.48-.42.87-.62.74-.39,1.55.4,1.92.13.21-.16.28-.66-.33-2.19-.66.91-1.17,1.08-1.51,1.06s-.48-.26-.86-.22c-.55,0-1.15.61-1.06,1.08A.71.71,0,0,0,278.44,239.9Z" style="fill:#fff"/><path d="M278,236.77a.77.77,0,0,0,.88.17c.36-.22,0-.79.38-1.81.2-.61.4-.69.35-1-.08-.59-.75-1.12-1.15-1s-.27.41-.6.5-.44-.12-.62,0-.29.32-.23,1.15a.86.86,0,0,0,.06.77c.17.19.4.08.6.27S277.69,236.46,278,236.77Z" style="fill:#fff"/></g><g id="InnerBottomSplatter"><path d="M102.44,197.66a62.67,62.67,0,0,0,7.86,33.77c18.86,33.05,62.37,34.73,65.25,34.8,5.46,0,38.65-.8,61.89-26.82a76.88,76.88,0,0,0,18.75-41.76Zm126.34,7.53a2.76,2.76,0,0,1-2.18,1.31,2.42,2.42,0,0,0-1.33,1.47c-.14.71.34,1,.13,1.64-.29.83-1.37.74-1.61,1.56-.18.64.39,1,.14,1.38-.38.54-1.82-.15-2.42.54a1.94,1.94,0,0,0-.33.62,1.13,1.13,0,0,0-.09.69c.16.5,1,.43,1.06.82s-.32.77-.71.8-.66-.58-1.07-.55c-.22,0-.51.2-.83,1q-1.39-2-1.87-1.79-.23.09-.25.7c.39,3,.24,4-.12,4.1s-1.15-1.27-1.78-1.07a.76.76,0,0,0-.42.92c.13.25.5.12.84.43a1.05,1.05,0,0,1,.34.94,1.17,1.17,0,0,1-1,.87,5.05,5.05,0,0,1-1.53-.19c-1.47-.42-2.13-1.37-2.68-1.09-.27.14-.39.52-.55,1a1.15,1.15,0,0,0-.08.66,1,1,0,0,0,.85.74c.43,0,.5-.52,1-.61s1,.19,1.06.49-.91.71-.86,1.23.67.56.61.78-.53.26-.93.16c-.23-.06-.52-.19-1-.82-.75-.94-.69-1.39-1.31-1.8-.08-.06-.65-.43-.93-.25s0,.88-.34,1.19-.73,0-1,.21a.81.81,0,0,0,0,.93c.41.64,1.54.2,2.2.86a1.59,1.59,0,0,1,.39,1.13,1,1,0,0,1-.48.63c-.57.29-1.3-.28-1.48-.08s.89,1.2.61,1.74c-.16.3-.67.34-1.23.38-1.35.09-2.24-.32-2.34-.11s.45.44.85,1.23a3.35,3.35,0,0,1,.26.73l-1.11.21c-1.26.17-2.2-.63-2.37-.41s.72.93.55,1.19-1.4-.47-2,0c-.41.31-.21.85-.63,1.06s-.62-.12-1.19-.18c-1-.1-2.09.51-2.15,1.08s1.28.92,1.23,1.52-1,.54-2.49,1.34c-1.64.88-2.36,1.85-2.86,1.58s-.14-.81-.56-1-.68.32-1.82.53c-.5.09-.79.06-1,.29s.05.47-.06.82a1.41,1.41,0,0,1-1.24.81c-.77,0-1.14-.67-1.51-.49s-.13.48-.41,1.12a2,2,0,0,1-1,1.14,1.81,1.81,0,0,1-1.92-.48c-.42-.5-.14-.94-.51-1.19-.55-.37-1.29.55-2.37.29-.74-.18-1-.76-1.39-.61s-.37,1-.68,1-.63-1.34-1.39-1.47c-.45-.08-.58.36-1.33.67a4.84,4.84,0,0,1-3.28-.18,7.31,7.31,0,0,1-1.67-.76c-2-1.49-2.75-1.57-3-1.35s-.08.69-.53,1.37c-.34.52-.95,1-1.27.86s-.12-.81-.59-1.15a1,1,0,0,0-.65-.16c-1.4.78-2,.74-2.22.53-.53-.44.12-1.87-.36-2.11s-.8.54-1.46.39-.5-.61-1.06-.74a3.15,3.15,0,0,0-1.39.37c-.77.29-.85.4-.89.49-.15.37.31.74.13,1a.66.66,0,0,1-.55.2,5,5,0,0,1-2.45-.86,7,7,0,0,0-2.79-.78,2.8,2.8,0,0,1-2-1.31,2,2,0,0,1-.19-.65c-1.19.17-1.49.1-1.52,0s.85-.43,1-1.15c.13-.49-.12-1.08-.42-1.15s-.34.26-.8.33a1.85,1.85,0,0,1-.82-.14,6.29,6.29,0,0,1-.91-.35c-2.06-1-2.61-.81-3.34-1.6-.24-.26-.45-.57-.76-.55s-.43.34-.89.41a1.07,1.07,0,0,1-.51,0c-.64-.27-.06-1.54-.79-2.48a8.37,8.37,0,0,0-1.87-1.18l-.76-.41a1.42,1.42,0,0,1-.13-1.31c.28-.43.91-.37.93-.57s-1.11-.85-2.15-.61c-.52.12-.66.35-1.27.4-.44,0-1.12,0-1.19-.28s1-.58,1.27-1.51c.1-.34.12-.84-.13-1s-.82.14-1.14.45c-.6.58-.5,1.25-1,1.4a.55.55,0,0,1-.45,0c-.39-.28.19-1.31-.15-1.58-.13-.11-.43-.11-1.12.29a2,2,0,0,0,.67-.6c.39-.58.16-1,.59-1.61.24-.35.34-.26.57-.62.33-.51.2-.81.39-1.31.35-1,1.3-1.24,1.19-1.47s-.72-.11-1.17.14a1.67,1.67,0,0,0-.69.72c-.14,0-1.55-.5-2.28.2-.08.08-.36.35-.3.61.12.49,1.3.44,1.35.78,0,.14-.16.35-.89.66.07.2.61,1.8-.09,2.36-.16.13-.52.32-.71.18s-.16-.39,0-.69c.37-1.43.22-1.9,0-2.05s-1.12.31-1.44,0-.11-.46-.08-.61c.17-.92,1.25-1.41,1.5-1.52l1.8-.65a.63.63,0,0,0-.17-.49c-.28-.24-.69.07-1-.12s-.06-1.1-.51-1.39a.83.83,0,0,0-1,.13c-.31.36.15.89-.18,1.43-.15.25-.32.23-.68.49-.89.65-1.1,1.68-1.23,1.64s.32-1-.13-1.47c-.23-.23-.49-.14-.63-.37-.25-.41.39-1,.21-1.23s-.6.19-1.44.33a4.09,4.09,0,0,1-.93,0l.57-3a1.05,1.05,0,0,0-.7-.06c-.5.15-.55.71-1,.86-.21.08-.56.06-1.14-.37.39-2,.05-2.73-.39-3.06s-1-.18-1.27-.61.33-.9.18-1.78c-.12-.69-.63-.78-.68-1.43a1.64,1.64,0,0,1,.38-1.15c1-1.08,3.67.82,7.06.37a8.29,8.29,0,0,0,2.92-1,4.65,4.65,0,0,1,2.28.16c.67.23.92.52,1.39.45.68-.1.67-.75,1.44-1.19a3.67,3.67,0,0,1,3.59.33c.38.27.5.51.89.57a2.14,2.14,0,0,0,1.69-.78,1.8,1.8,0,0,1,1.35.2c.51.37.41.92.85,1.31s.85.46,2,.18c1.06.39,2.26.66,2.88.11s.17-1.18.76-1.72,2.08-.39,3.25-.16,1.19.43,2,.53a6.78,6.78,0,0,0,3.13-.53c.73-.22,5.69-1.73,6.66-.39.28.39.11.85.48,1s1-.17,1.73-.53a11.29,11.29,0,0,1,2.79-.94,8.27,8.27,0,0,1,4.35-.25c.44.1.33.12,1.69.53,2.92.88,3.53.82,3.93.53s.32-.89.76-1.06c1-.39,2.56,2.05,3.25,1.72.18-.09.36-.38.23-1.47a5.85,5.85,0,0,1,2.06.45c1.25.53,1.59,1.23,2.41,1.27.49,0,1.19-.19,2.07-1.27,1.78-1.17,2.57-1.15,3-.9s.29.95.85,1.27,1.07-.13,2.66-.37c1-.15,1.83-.27,2.2.14s.1.7-.13,1.78c-.35,1.69-.71,3.39,0,3.93a1.25,1.25,0,0,0,.89.18,2,2,0,0,0,1.3-.64c.63-.78.06-1.76.35-3.31a5.38,5.38,0,0,1,.79-1.94,12,12,0,0,0,4.49,0c2.26-.44,3.62-1.44,5.7-.94a8.66,8.66,0,0,1,1.52.61,12.56,12.56,0,0,0,6.68.37,42.13,42.13,0,0,1,9.08-.06A2.3,2.3,0,0,1,228.78,205.2Z" style="fill:#fff"/></g></g><g id="TopSplatter"><g id="LeftTopSplatter"><path d="M76.17,109.35a2.25,2.25,0,0,1,2,2.15,2.28,2.28,0,0,1-2,2.42,2,2,0,0,1-1.75-1.25C73.86,111.33,74.92,109.4,76.17,109.35Z" style="fill:#fff"/><path d="M73.17,104.75c.58-.23,1.4.36,1.58,1.08a1.35,1.35,0,0,1-.67,1.58c-.62.17-1.43-.61-1.5-1.42A1.24,1.24,0,0,1,73.17,104.75Z" style="fill:#fff"/><path d="M70.28,99.78c.43-.12,1,.51,1.22,1,.07.15.47,1,0,1.5a1,1,0,0,1-1,.31,1.07,1.07,0,0,1-.62-.53C69.46,101.26,69.74,99.93,70.28,99.78Z" style="fill:#fff"/><path d="M76.81,92.88a3.66,3.66,0,0,0-.22-2c-.9-1.87-4.34-2.32-6.44-1.16-.2.11-1.61.89-1.53,1.84,0,.46.42.84,1.59,1.5,2.28,1.28,4.57,2.56,5.78,1.59A2.82,2.82,0,0,0,76.81,92.88Z" style="fill:#fff"/><path d="M82.81,90.19c1.21,1.8,1.24,2.59,1,3s-.71.32-1.28,1c-.32.38-.34.58-.64.73a1.51,1.51,0,0,1-1.23,0,1.66,1.66,0,0,1-.81-.87,1.74,1.74,0,0,1-.09-1.34c.2-.47.65-.65,1.25-1A9.51,9.51,0,0,0,82.81,90.19Z" style="fill:#fff"/><path d="M82.94,98a1.7,1.7,0,0,1,.7-.67c.53-.26.86,0,1.33-.28s.53-.82.78-.8.2.59.66,1.13,1.08.42,1.31.91c.15.32,0,.49-.22,1.44-.25,1.26,0,1.46-.31,1.84a2.07,2.07,0,0,1-2,.51,2.37,2.37,0,0,1-1.34-.87,2.2,2.2,0,0,1-.33-.64c-.27-.87.13-1.52-.24-1.84-.11-.1-.26-.13-.34-.31A.63.63,0,0,1,82.94,98Z" style="fill:#fff"/><path d="M89.84,90.34a.9.9,0,0,1,.78-.16c.56.27.49,1.85,0,2.06-.32.13-.91-.2-1.08-.73A1.1,1.1,0,0,1,89.84,90.34Z" style="fill:#fff"/><path d="M78.69,82.31a1.08,1.08,0,0,1,.63-.91c.61-.2,1.42.59,1.31,1.22a.72.72,0,0,1-.39.53C79.81,83.35,79.12,83.06,78.69,82.31Z" style="fill:#fff"/><path d="M83.7,85.08a1.87,1.87,0,0,1,2.46-.51,1.81,1.81,0,0,1,.72.84,1.39,1.39,0,0,1-.44,1.66,1.22,1.22,0,0,1-.91-.09c-.33-.16-.3-.31-.62-.5-.52-.31-.86-.08-1.12-.34A1,1,0,0,1,83.7,85.08Z" style="fill:#fff"/><path d="M91.22,73a2.61,2.61,0,0,0,1.06-.06C93,72.72,94,72.1,94,71.29a1.63,1.63,0,0,0-1.16-1.19c-.55.35-1,.68-1.31.94-.64.5-.78.68-.81.91A1.31,1.31,0,0,0,91.22,73Z" style="fill:#fff"/><path d="M92.56,84.78a1.12,1.12,0,0,1,.81-.59,1.25,1.25,0,0,1,1.25.34A1.29,1.29,0,0,1,94,86.38a1.26,1.26,0,0,1-1.32-.69A1.08,1.08,0,0,1,92.56,84.78Z" style="fill:#fff"/><path d="M98.25,68.5c2.26-1.05,4.58-.32,5.31,1.13a3,3,0,0,1-.72,3.63,2.66,2.66,0,0,1-1.78.44,2.84,2.84,0,0,1-.5-.19C98.49,72.49,98.28,69.23,98.25,68.5Z" style="fill:#fff"/><path d="M93.69,77.75a1.33,1.33,0,0,0,.59.94,1.15,1.15,0,0,0,1.31,0,1.1,1.1,0,0,0,.28-1.25.92.92,0,0,0-.52-1.07.9.9,0,0,0-1.08.28c-.12.21,0,.4-.19.53s-.41,0-.5.13S93.53,77.46,93.69,77.75Z" style="fill:#fff"/><path d="M86.68,79.64A1.84,1.84,0,0,0,88,79.13c.71-.69.76-2,.32-2.3-.2-.16-.38,0-.6-.21s-.13-.79-.43-1.08c-.12-.12-.36-.24-.88-.14a2.37,2.37,0,0,0-1.8,1C84,77.61,85.33,79.56,86.68,79.64Z" style="fill:#fff"/><path d="M111.75,68.83c-.21,1.79.12,2.43.5,2.67a5.81,5.81,0,0,0,1.09.28,6.6,6.6,0,0,1,1.36.55,2.86,2.86,0,0,1-.52.79,2.92,2.92,0,0,1-1.27.79,2.79,2.79,0,0,0-.54,2.42l-1-.29a1.4,1.4,0,0,1-.31-1.14c.15-.62.85-.73,1.19-1.47a2,2,0,0,0,.13-1.1,11,11,0,0,0-3.71.71,1.64,1.64,0,0,0-1.07.55,1.58,1.58,0,0,0-.34.74,2,2,0,0,1-.5,1c-.41.44-.89.48-1,.83,0,.15,0,.39.38.75.52.61.8.7,1,.64s.19-.51.48-1a2.23,2.23,0,0,1,1-.86,2.14,2.14,0,0,1,.76,1.69,1.89,1.89,0,0,1-.34.94,3.44,3.44,0,0,0-3.54,1.42.79.79,0,0,0-1.33-.58l-.33,1.17.33,3.13c-1.46.09-2-.25-2.25-.59s-.23-.65-.62-.94a1.47,1.47,0,0,0-.75-.26,1.51,1.51,0,0,0-.91.82c-.28.87.83,1.86.53,2.22s-.92-.17-1.47.25a1,1,0,0,0-.28.34,2.46,2.46,0,0,1,.07,3.37,2.37,2.37,0,0,1-2.07.33,4.16,4.16,0,0,1-2,2.38,2.25,2.25,0,0,1-1,4.17c-.52,2-1.22,2.58-1.78,2.76-.28.09-.93.19-1.12.66a.86.86,0,0,0,0,.53,1.17,1.17,0,0,1,.56.38,1.41,1.41,0,0,1,.16,1.25,2.21,2.21,0,0,1-1.57,1.3v2.92a1.81,1.81,0,0,0-1.61-.22,1.78,1.78,0,0,0-1,1.05l1,1.33-1.42,1,.79,1.58a7.17,7.17,0,0,0-2.54.32,7,7,0,0,0-.94.38.84.84,0,0,0-.44-.91.88.88,0,0,0-1,.5c-.11.25,0,.57.14,1.18s.3.76.22,1c-.13.41-.73.71-1,.55s0-.92-.47-1.22a.8.8,0,0,0-.84,0,1,1,0,0,0-.37.75,1.44,1.44,0,0,0,.16.78c.44.92,1.22.94,1.69,1.68a2.26,2.26,0,0,1,.28,1.51.78.78,0,0,1-1,.34.76.76,0,0,1-.35-.81L80.63,115l-1.54-.21c.47-1.2.28-1.57.14-1.71s-.21-.1-.91-.37l-.52-.21-.1,1.08a4.15,4.15,0,0,0,.31,1.13,7.66,7.66,0,0,0,1,1.47,3.55,3.55,0,0,1,.46,2.41H77.54a.75.75,0,0,0-.57.25c-.23.32.07.75-.09.94s-.47.13-1.37-.31a.91.91,0,0,0-.62,0c-.71.34-.4,1.7-.81,3.72-.32,1.56-.93,2.83-1.24,2.78s-.15-.8-.56-1-.94.35-1.2.71a2.43,2.43,0,0,0-.37,1.81l-3-4.26-.23,26.42,4.38.13,83.22-81Zm5.52.57c.31-.31,1-.22,1.81.23a.83.83,0,0,1-.42.28c-.23.06-.33,0-.56.05s-.15.13-.34.2a.55.55,0,0,1-.46,0,.51.51,0,0,1-.19-.52A.59.59,0,0,1,117.27,69.4Zm-2.78.71q-1-.11-1-.28s0-.07.08-.11a1,1,0,0,1,.29-.21,1.7,1.7,0,0,1,1.55.28.57.57,0,0,1-.24.38A.58.58,0,0,1,114.5,70.11Zm.5,5c-1-.32-1.24-.56-1.23-.73s.38-.28.77-.62a2.51,2.51,0,0,0,.73-1.25.59.59,0,0,1,.48-.23c.29.06.32.56.54,1,.5,1,1.65,1.17,1.6,1.46S117.32,75.14,115,75.1Zm5.5-2.25c-.36-.2-.49-.41-.71-.36s-.24.25-.38.24-.23-.79-.62-.94-.62.29-1,.15a.73.73,0,0,1-.37-.42.38.38,0,0,1,0-.33c.17-.24.76.09,1.31-.08a1.5,1.5,0,0,0,.85-.85,7.86,7.86,0,0,0,.16,1.29.52.52,0,0,0,.21.38c.15.08.26,0,.42,0s.12.26.35.48.15.08.35.23.44.36.4.44S120.93,73.09,120.5,72.85Zm2-1.6a1,1,0,0,1-.65-.4c-.18-.29,0-.53-.23-.71s-.59,0-.81-.2a.45.45,0,0,1-.1-.44c.1-.21.62-.33,2.5.1.48.42.54.59.5.67s-.46,0-.79.17A1.08,1.08,0,0,0,122.48,71.25Zm.82.63a.41.41,0,0,1-.15-.2,1.31,1.31,0,0,1,.44-.35,1.38,1.38,0,0,1,1-.08l-.46.44A.68.68,0,0,1,123.3,71.88Z" style="fill:#fff"/></g><g id="RightTopSplatter"><path d="M280.5,114.83c-.46-.28-.86-.19-1.21-.34a1.66,1.66,0,0,0-.31.61c-.17.49-.07.67-.23.79s-.65-.14-.93.08-.14.46-.29.5-.29-.15-.42-.35c-.29-.2-.34-.32-.32-.4s.2-.12.48-.33.24-.32.42-.37.36.1.52.06c.36-.08.34-1.09.47-1.61a.23.23,0,0,0-.11-.11c-.39-.14-.92.69-1.15.56s.21-.77-.08-1.4c-.22-.46-.77-.79-1.11-.67s-.16.26-.5.52a3.64,3.64,0,0,1-.68.32,1.11,1.11,0,0,1-.16,1c-.23.34-.48.3-.66.66s-.08.68-.17.7-.16-.43-.56-.7c-.21-.14-.31-.1-.53-.2-.48-.22-.36-.66-.73-.87s-.65.15-1-.08-.21-.38-.7-1l-.36-.38c-.63-.65-.85-.78-.82-1a.41.41,0,0,1,.41-.28c.22,0,.27.3.66.59s.58-.1,1,.1.28.56.69.77.49,0,.75.16.22.65.5.84.48.15,1.14-.2c-.17-.12.14-.57-.07-.94s-.44-.17-.65-.43c-.37-.46.22-1.24-.1-1.54s-.77,0-.82-.12.47-.27.53-.62-.2-.46-.77-1.17c-.22-.27-.39-.51-.5-.67a.82.82,0,0,0-.73-.08c-.19.11-.18.31-.38.4a.55.55,0,0,1-.67-.21c-.08-.27.51-.5.5-.94a.84.84,0,0,0-.37-.59,1.43,1.43,0,0,0-1.15.05,1.79,1.79,0,0,0-.34.31,1.91,1.91,0,0,0-.3.47,1.71,1.71,0,0,0,.24.87c.3.48.74.58.92,1.09a1.24,1.24,0,0,1,.06.52,1.32,1.32,0,0,1-.83.42,1.36,1.36,0,0,1-1.32-.83c-.26-.71.42-1.43.1-1.73a.48.48,0,0,0-.44-.08c-.16.05-.28.2-.41.52-.34.8-.22,1.25-.54,1.46a.64.64,0,0,1-.42.09c-.39-.74-.35-1.17-.22-1.42s.31-.34.63-.77a4.13,4.13,0,0,0,.41-.71q.34-2,0-2.12t-.66.62c-1.38-.12-1.84-.52-2-.87s0-.52-.23-.76c-.46-.51-1.54,0-1.72-.41-.11-.21.23-.42.11-.73s-.6-.32-.72-.66a.71.71,0,0,1,.11-.57c.54-.09.76,0,.85.13s0,.57.17.86a.71.71,0,0,0,.45.25,1,1,0,0,0,.42-.33,1.13,1.13,0,0,0,.14-.95c2,.26,2.55.14,2.61-.05s-.19-.27-.17-.59.31-.44.39-.81a1,1,0,0,0-.12-.71,1.41,1.41,0,0,0,1.31-1.41c.72.41,1.52.8,1.68.61,0,0,0-.1,0-.37a4.42,4.42,0,0,0-.56-1.15,1.58,1.58,0,0,1,.33-1.12c.38-.43.91-.35.94-.56s-1.21-1-1.75-.67,0,1.08-.59,1.89a2.42,2.42,0,0,1-1,.76c-2.19,1.19-3.9,2.13-5.21,1.4a2.14,2.14,0,0,1-.53-.42.67.67,0,0,0-.59.07c-.2.19,0,.53-.19.85s-.32.41-.91.52a1.66,1.66,0,0,0,.53-1.7,1.23,1.23,0,0,0-.35-.5,1.54,1.54,0,0,1-.1.23,1.62,1.62,0,0,1-.5.54c-.37.23-1,.33-1.27,0s.08-1-.23-1.19a.56.56,0,0,0-.45,0,1.06,1.06,0,0,0-.61.55c-.28.47-.11.63-.33.9s-.62.12-1,.46-.36.88-.61.91-.44-.37-.45-.41c-.28-.54,0-1-.25-1.56a.55.55,0,0,0-.21-.23.68.68,0,0,0-.56,0,2.53,2.53,0,0,0-.63.38c-.48.39-.64.83-.76.79s.13-.84-.2-1.09-.39.07-.92,0a1.8,1.8,0,0,1-.73-.35c-.07-.06-.39-.32-.33-.46s.3,0,.56-.17a.82.82,0,0,0,.37-.53c.08-.65-2.14-1.45-2.44-1.55-1.53-.54-3.8-1.29-6.85-2.12-3.55-3.93-4.13-5.29-3.94-5.77,0-.08.24-.54,0-.81s-.38-.09-.59-.28-.13-.5-.25-1.23c-.08-.5-.18-1-.5-1.15a.72.72,0,0,0-.56.13c-.23.16-.2.33-.41.5s-.58.26-.7.14.87-1.35.56-1.82-1.15.06-1.58-.47c-.16-.19-.14-.38-.42-.62s-.45-.26-.44-.37.07-.14.36-.22a5.19,5.19,0,0,0,3-2,5.15,5.15,0,0,0-.83.23c-.31.11-.45.2-.85.35s-.76.29-.86.2,0-.37.19-1.1c.24-.91.23-1.24.39-1.26s.43,1,.89,1.06c.31,0,.53-.41,1.3-1.66s1.11-1.79,1.4-2.17c.77-1,1.16-1.23,1.06-1.56-.15-.51-1.25-.68-2-.6a3.53,3.53,0,0,0-1.35.46,7.52,7.52,0,0,1-.89.61c-.41.19-1,.35-1.19.14s.44-.7.27-1.13c-.08-.22-.32-.32-.66-.43-1.17-.38-1.5-.14-2.12-.37-.9-.34-.78-1-1.83-1.65a3.62,3.62,0,0,0-1.56-.46L191.25,67l90,82.88v-34A1.91,1.91,0,0,0,280.5,114.83ZM261.64,99.52c.15-.16.36,0,.66-.14s.28-.21.55-.42.6-.45.87-.42.26.16.48.29c.71.43,1.61-.09,1.72.14s-.13.34-.32.44a.57.57,0,0,1-.27.05,12.13,12.13,0,0,0-1.76-.16,2.58,2.58,0,0,0-.81.26,2.25,2.25,0,0,1-.62.32c-.06,0-.47.11-.56,0A.29.29,0,0,1,261.64,99.52Zm-5.78.45c-.58.09-1.14,0-1.14-.11s.34,0,.66-.28.32-.59.48-.59.2.08.34.44c.41.06.51.13.52.19S256.25,99.91,255.86,100Zm7.8,5.27a.78.78,0,0,1,1,.35,2.39,2.39,0,0,0-.66.32c-.17.12-.27.23-.39.2s-.22-.22-.27-.37A.73.73,0,0,1,263.66,105.23Zm-.77,3.73c-.13.23,0,.44-.22.58a.47.47,0,0,1-.31.09.52.52,0,0,1-.3-.33c0-.2.13-.38.31-.58a2,2,0,0,1,.34-.3c.58,0,.72,0,.73.08S263.07,108.64,262.89,109Zm1.25,2.52c-.11.22,0,.37-.18.49a.48.48,0,0,1-.51.06.49.49,0,0,1-.28-.45,1,1,0,0,0,.22-.41c.09-.36-.09-.57,0-.94a1.06,1.06,0,0,1,.22-.44c.08-.23.14-.27.17-.27s0,.58.35.95.64.26.65.42S264.33,111.09,264.14,111.48Zm15.46,4.64c.09-.2.16-.24.2-.24s.14.08.4.68c.18.41.22.52.17.57s-.2,0-.31,0a1.63,1.63,0,0,0-.33-.35c-.13-.1-.22-.13-.25-.23A.44.44,0,0,1,279.6,116.13Zm-2,2.17c.69,0,1.18.48,1.5.25.17-.12.07-.29.31-.5s.28-.1.65-.29.39-.29.46-.25-.26.6-.17,1.33c.06.5.32.8.15,1.16a.71.71,0,0,1-.2.24.81.81,0,0,1-.63,0c-.31-.16-.26-.53-.55-.63s-.34.13-.7,0-.3-.16-.44-.1-.14.23-.29.28a.38.38,0,0,1-.37-.12c-.15-.16,0-.35-.15-.47s-.41,0-.51-.12-.07-.17.05-.44h0A1.63,1.63,0,0,1,277.6,118.29Zm.83,3.25a1,1,0,0,1-.6-.37,1.13,1.13,0,0,1,.77,0c.17.06.41.19.39.29S278.67,121.58,278.44,121.54Zm.55,4a.53.53,0,0,1-.16.23.88.88,0,0,1-1-.08.69.69,0,0,1,.77-.54A.64.64,0,0,1,279,125.54Zm-2.51-11.29a1.82,1.82,0,0,1,.44-.15.3.3,0,0,1,.23.16.29.29,0,0,1,0,.21.42.42,0,0,1-.67.13h0c-.19-.06-.28,0-.29-.07S276.31,114.34,276.48,114.25Zm-1.25,1.35a.46.46,0,0,1,.49-.17.76.76,0,0,1,.47.75c0,.35-.42.62-.57.56s0-.26-.22-.53-.19-.18-.22-.32A.41.41,0,0,1,275.24,115.6Zm-.44,3.42c.21-.18.23-.45.31-.44s.09.2.1.33a7.1,7.1,0,0,0,.19,1.06c.26.69,1.77.66,1.76.78a6.59,6.59,0,0,1-1.63.09,9,9,0,0,1-1.83,0c0-.07.76-.07.94-.48a.86.86,0,0,0-.17-.75c-.39-.19-.47-.28-.46-.33S274.48,119.29,274.79,119Zm-8.87-5.66c-.18-.05-.29-.37-.19-.61a.55.55,0,0,1,.34-.3.5.5,0,0,1,.33.44C266.41,113.17,266.12,113.41,265.93,113.36Zm.78,1a.68.68,0,0,1-.3.06.42.42,0,0,1-.06-.37.41.41,0,0,1,.39-.27s.28,0,.33.13S266.91,114.27,266.7,114.36Zm1.63-2a1.21,1.21,0,0,1-.16.61.87.87,0,0,1-.47.36,1.38,1.38,0,0,1-.66,0,.83.83,0,0,1-.23-.47c0-.22.28-.25.31-.47s-.17-.4-.39-.61c-.5-.47-.76-.42-.83-.66-.11-.42.59-1.06.59-1.06h0c.29,0,.63.09.73.31s-.16.49,0,.7.82,0,1.09.34C268.4,111.52,268.38,111.8,268.33,112.34Zm1.47,4.91c-.08,0-.2-.13-.24-.17a.25.25,0,1,1,.31-.34C269.92,117,269.89,117.22,269.8,117.25Zm0-1.75a1.54,1.54,0,0,1-.81-.19,1.1,1.1,0,0,1,.52-.34.72.72,0,0,1,.53,0c.14.07.31.22.28.34S269.87,115.49,269.77,115.5Zm.49.91c0-.06.11-.11.31-.3a2.26,2.26,0,0,0,.38-.48.58.58,0,0,1,0,.72C270.72,116.58,270.28,116.51,270.25,116.41Zm1.29,5a.75.75,0,0,0-.19-.6c-.09-.08-.19-.11-.23-.23a.3.3,0,0,1,.08-.33c.13-.08.36.07.46.21A.88.88,0,0,1,271.54,121.42Zm1.27-3c-.35.54-.55.84-.66.8s.13-.94-.2-1.14-.4.1-.72,0c0,0-.29-.13-.31-.33s.5-.41.84-.92a1.54,1.54,0,0,0,.22-1.41c-.33-.68-1.49-.67-1.47-.84s.39,0,1.14-.23c.33-.08.52-.17.61-.07s-.12.36,0,.66.33.23.58.58.09.36.25.58c.32.45,1,.45,1,.55s-1.06,0-1.17.33.29.36.3.77C273.17,117.73,273.15,117.85,272.81,118.38Zm1.08,4.31c-.09,0-.16-.11-.21-.21a.75.75,0,0,1,.06-.65.69.69,0,0,1,.38-.27c.34-.1.73,0,.74.18s-.3.1-.57.4S274,122.69,273.9,122.69Zm1.17,3.06c-.16,0-.36-.13-.38-.26s.07-.15.16-.27a1.34,1.34,0,0,0,.22-.54,1,1,0,0,0,.31.56c.26.21.58.18.59.24S275.78,125.62,275.06,125.75Zm1.5-.9a1.28,1.28,0,0,1-.37-.48c-.36-.56-.87-.61-.83-.81s.45-.06.83-.4c.17-.14.15-.22.56-.83.26-.38.33-.45.38-.44s-.18.75.13,1.1a.6.6,0,0,0,.35.17.77.77,0,0,1,.21-.54.78.78,0,0,1,.6-.23,3,3,0,0,1-.1,1.65c-.59-.18-.84-.12-.94,0s.19.85,0,1-.23,0-.36,0A1,1,0,0,1,276.56,124.85Zm.9,2a4,4,0,0,1,.65-.56c.08-.05.4-.26.6-.15s.23.73,0,1.08a1,1,0,0,1-.5.33c-.14,0-1,.22-1.14,0S277.21,127.15,277.46,126.88Zm-.29,4.79q0-.15.93-.42.56-.1.6,0t-.77.6Q277.19,131.8,277.17,131.67Zm1.79,1.39a1,1,0,0,0,.21-.77.88.88,0,0,1,.47.94.93.93,0,0,1-1.31.19A1,1,0,0,0,279,133.06Zm.35,6.69c-.63-.41-.72-.72-.71-.9a4.77,4.77,0,0,1,.23-.75l.1-.33a1.11,1.11,0,0,1,.67.46A1.27,1.27,0,0,1,279.31,139.75Zm.62-11.44c-.81-.2-1-.31-1-.37s.31-.08.77-.33l.21-.12a.46.46,0,0,1,.31.5A.45.45,0,0,1,279.94,128.31Zm.4-3a.43.43,0,0,1-.4-.48.5.5,0,0,1,.71-.08A.44.44,0,0,1,280.33,125.35Zm.31-1.29a1.06,1.06,0,0,1-.62-.12,1.05,1.05,0,0,1-.37-.35c0-.18-.08-.41,0-.48s.14,0,.21,0a1,1,0,0,0,.77-.12,1.18,1.18,0,0,1,.13.63A1.16,1.16,0,0,1,280.65,124.06Z" style="fill:#fff"/><path d="M251.44,87a2.07,2.07,0,0,0-1.19,3.35,4.69,4.69,0,0,0,2.17,1.24c.55.13,1.4.34,1.85-.09s.06-1.28.54-1.67,1.23.22,1.53-.07c.57-.56-1.12-3.65-2-3.45-.25.06-.2.35-.57.61C253.11,87.37,252.43,86.72,251.44,87Z" style="fill:#fff"/><path d="M244.73,83.89a1.58,1.58,0,0,0,1.88-.41,1.46,1.46,0,0,0-.25-1.73,1.21,1.21,0,0,0-.92-.88,1.08,1.08,0,0,0-1.08.4c-.14.22,0,.34-.15.69s-.45.47-.5.75S244.18,83.68,244.73,83.89Z" style="fill:#fff"/><path d="M240,71.88a2,2,0,0,0,1.69,0c1.07-.74.34-3.22-.08-3.25-.1,0-.19.12-.26.25a3.28,3.28,0,0,0-.9.63,2.1,2.1,0,0,0-.81,1.69A1.37,1.37,0,0,0,240,71.88Z" style="fill:#fff"/><path d="M245.77,72.31a3.66,3.66,0,0,0,2.15.46c.91,0,1.44.07,1.78-.27.52-.52.1-1.37.59-1.68s1,.24,1.33,0,.08-1.22-.27-1.71c-1.22-1.71-5.57-.43-6.11-.27C244.78,70.27,245,71.68,245.77,72.31Z" style="fill:#fff"/><path d="M249.67,75.1c-.4-.44-1.15-.27-1.69-.15a1.32,1.32,0,0,0-.87.42,1.35,1.35,0,0,0,.15,1.46,1.46,1.46,0,0,0,1.41.59,1.53,1.53,0,0,0,1.09-.94S250.11,75.59,249.67,75.1Z" style="fill:#fff"/><path d="M251,80a.78.78,0,0,0-.24.58c0,.19.19.3.5.52s.62.44.77.38.3-.61.17-1.27a.73.73,0,0,0-.4-.71C251.48,79.44,251.15,79.87,251,80Z" style="fill:#fff"/><path d="M255.94,80.38a2,2,0,0,0,1.33.06,1,1,0,0,0,.33-.5c.1-.41-.21-.7-.75-1.52-.69-1-.72-1.37-1.08-1.44-.13,0-.5-.05-1,.46a2.6,2.6,0,0,0,0,1.56A2.19,2.19,0,0,0,255.94,80.38Z" style="fill:#fff"/><path d="M255.77,83.6a1.43,1.43,0,0,0,.36,1,1.82,1.82,0,0,0,1,.15,1.16,1.16,0,0,0,.85-2,1.25,1.25,0,0,0-.8-.47A1.4,1.4,0,0,0,255.77,83.6Z" style="fill:#fff"/><path d="M259.6,90.38a1.86,1.86,0,0,0,.51.24,1.48,1.48,0,0,0,1-.65,1.4,1.4,0,0,0,.17-1.19c-.17-.39-.51-.4-1.19-1a5.55,5.55,0,0,1-.58-.58,1.12,1.12,0,0,0-1,.33c-.41.51,0,1.41.33,2A2.08,2.08,0,0,0,259.6,90.38Z" style="fill:#fff"/><path d="M265.35,90.65c.35.25.73.51,1.08.37s.53-.74.5-1.12a1.47,1.47,0,0,0-.58-1,1.17,1.17,0,0,0-1-.23,1.08,1.08,0,0,0-.81,1C264.57,90.1,265,90.37,265.35,90.65Z" style="fill:#fff"/><path d="M260.54,92.73c-.22.19-.07.51-.35.85s-.31.14-.52.35a1.44,1.44,0,0,0-.25,1.31,1.63,1.63,0,0,0,.49.79,1.73,1.73,0,0,0,2.47-2,2,2,0,0,0-1-1.29C260.88,92.57,260.65,92.64,260.54,92.73Z" style="fill:#fff"/><path d="M275.21,93.17c.73-.07,1.16-.11,1.45-.44a2.1,2.1,0,0,0-.57-2.75,2.07,2.07,0,0,0-2.47,0,4.33,4.33,0,0,0-.55.82,2.71,2.71,0,0,0-.33.67,1.55,1.55,0,0,0,.37,1.35C273.59,93.32,274.38,93.24,275.21,93.17Z" style="fill:#fff"/><path d="M279.65,105.31a.88.88,0,0,0,0-1.1.93.93,0,0,0-1.33.08.89.89,0,0,0,.06,1A.9.9,0,0,0,279.65,105.31Z" style="fill:#fff"/><path d="M281.1,98a1.18,1.18,0,0,1-.44.6c-.49.32-1,0-1.29.31-.11.12-.18.36,0,.9a1.14,1.14,0,0,0,.31.4c.25.21.47.18.75.37a1.42,1.42,0,0,1,.42.44,2.36,2.36,0,0,0,.65-1.19A2.45,2.45,0,0,0,281.1,98Z" style="fill:#fff"/></g><g id="InnerTopSplatter"><path d="M240.75,118C220.4,90,185.06,89.94,181,90c-4.66-.56-35.3-3.7-59.75,18.75-18.17,16.68-22.05,37.51-23,44H253.12A67.17,67.17,0,0,0,240.75,118Zm-7.87,27.06c-.24.53-2-.22-6.65-.5-2.83-.17-4.26-.24-5.23.35-.56.34-1.42,1.05-2.12.75-.25-.11-.33-.28-.65-.71-.68-.94-1.62-2-1.81-1.85s.61,1.83.27,2c-.18.11-.48-.3-.83-.19s-.32.62-.6,1c-.7.87-3.21.68-4.17-.56-.4-.51-.39-1-.73-1.07s-.67.76-1.7,1.18c-.33.14-.76.24-.84.11s.65-.66.54-1-1.26-.09-2.77-.28-1.79-.9-2.67-.69-.73.71-2.06,1.4a5.51,5.51,0,0,1-1.67.58,11.81,11.81,0,0,1-2-.08c-.5,0-1.39,0-2.33.08-.66,0-1.1.09-1.21-.12s.42-.64.31-.94-.5-.41-2.15-.25c-.38.11-.87.31-.9.6s.52.57.44.81-.38.11-.92.33-.77.56-.94.47.07-.76-.23-1.07-.63-.18-1-.08l-1,.48c-.19.67-.4.83-.56.85s-.42-.42-1-.75a1.75,1.75,0,0,0-1.35-.23c-.36.14-.37.38-1.1.86-.32.21-.47.26-.55.21s.12-.46,0-.71a.85.85,0,0,0-1.14-.06c-.3.31,0,.89-.28,1s-.32,0-.46-.08a1.42,1.42,0,0,0-.75-.3,2,2,0,0,0-1.11.4c-.79.43-1.66.91-2,.65s0-.47-.27-.83a1.55,1.55,0,0,0-1.11-.51,2.92,2.92,0,0,0-1.76.34,12.1,12.1,0,0,1-1.75-.23.9.9,0,0,0-.62,0c-.32.16-.26.49-.5.71a1.74,1.74,0,0,1-2.1-.48c-.39-.48-.19-.85-.56-1.15-.62-.49-1.85,0-1.85.21s.74.21.81.6a.48.48,0,0,1-.24.47c-.29.15-.52-.23-1.18-.39s-.94.11-1.32-.16a1.54,1.54,0,0,1-.46-.73c-.23-.54-.12-.7-.33-1s-.55-.56-.85-.48-.24,1-.85,1.35c-.4.24-.81.08-1,.37s0,.31-.06.52-.33.42-.92.54c-1.33-.84-1.88-1-2-.81s.29,1,.08,1.17-.31-.07-.46-.17c-.51-.34-.54-.7-.92-.9a1.14,1.14,0,0,0-.77-.08c-.81,0-1.43,0-1.85,0a2.41,2.41,0,0,1-1.23-.15l-.63-.35c-.43-.23-.54-.29-.66-.26s-.33.39-.46.58c-.39.62-1.63.43-3.27.32-2.8-.2-3.66,0-3.79.39-.08.22.1.47-.06.65s-.35.09-.77,0c-1-.1-1.31,0-1.37-.17s.27-.33.45-.91c0-.17.1-.35,0-.41s-.17-.07-1.19.77c-.67.55-.79.71-1,.69-.44,0-.88-.65-.75-1s.71-.21,1.13-.75c.08-.11.3-.39.21-.6-.2-.48-1.91-.6-2.6.19-.3.34-.4.83-.62.81s-.18-.22-.33-.35c-.45-.41-1.53.09-1.75.19a24.55,24.55,0,0,1-4.06.21c-4.67.1-5.2-.23-6.83.19a3.67,3.67,0,0,1-1.23.17c-1.52-.09-1.83-1.2-2.92-1.15s-1.07.95-2.48,1.15c-.69.1-1.33,0-1.35-.19s.62-.22.9-.77c.15-.29,0-.42.19-.94a2.72,2.72,0,0,1,.35-.79c.47-.66,1.11-.56,1.27-1,.09-.23,0-.63-.69-1.33a1,1,0,0,0,1.27,0,.87.87,0,0,0,.23-.59.68.68,0,0,0,1,0,.66.66,0,0,0,0-.75c.59.3,1.11.34,1.27.13s-.24-.89-.29-1a2.32,2.32,0,0,0-1.31-.85,2.22,2.22,0,0,1,.33-.67c.2-.27.65-.75.9-.65s.08.46.29,1.23a4.6,4.6,0,0,0,.23.65c.14.1.3.18.4.13s0-.48.1-1c.07-.32.29-.8.61-.9s1.05.32,1.45,1.17a1,1,0,0,0,.79.1.87.87,0,0,0,.58-.67c.08-.71-1.21-1.27-1.1-1.5s.38-.12,1.48.19a3,3,0,0,0-.44-.9c-.27-.38-.44-.42-.58-.67-.4-.68,0-1.8.33-1.81s.24.82.94,1.17c.34.17.55.08.92.35s.38.43.52.4.27-.34.25-.6a1.38,1.38,0,0,0-.62-.9c-.47-.35-1-1.18-1.38-3.18a2.52,2.52,0,0,1-.06-.3c0,.11,0,.2.06.3a2,2,0,0,0,.55,1,2,2,0,0,0,.83.48,1.78,1.78,0,0,0,0-1.75.93.93,0,0,1,.5.1c.53.29.46,1,.88,1.15.23.06.31-.15.58-.08s.29.2.65.65.41.51.45.55c.67.59,1.82-.1,2.18.39.17.23,0,.49.21.75a.93.93,0,0,0,.71.25c.26,0,.34,0,.38,0s0-.29-.64-1.1c-.36-.49-.41-.54-.45-.69a1.88,1.88,0,0,1,.23-1.1,2.76,2.76,0,0,0-.17-1.92,2.83,2.83,0,0,1,.6.75,3.34,3.34,0,0,0,.5.85,1.83,1.83,0,0,0,.35.29.44.44,0,0,0,.31-.12c.15-.16.06-.39.1-.9,0-.14,0-.25,0-.33l.64.06a1,1,0,0,0,.26-.21.91.91,0,0,0,.2-1c-.21-.3-.74,0-1.29-.17s-1-.54-1.44-2a1.35,1.35,0,0,1,.31-1.6,1.13,1.13,0,0,1,.77-.19.88.88,0,0,0,.31.71.77.77,0,0,0,.4.15.92.92,0,0,0,.4-.44,1.49,1.49,0,0,0-.75-1.62.65.65,0,0,1-.06-.58c.31-.63,2.35-.4,3.83.38a3.31,3.31,0,0,1,1.38,1.13,3.45,3.45,0,0,1,.43,2.15c-.26,5.27.19,4.27-.16,6.5-.27,1.7-.57,2.51,0,3.17a1.66,1.66,0,0,0,1.79.58c1-.51.33-2.87.19-8.25-.1-3.61.11-5.71,1.1-6.09.58-.22,1,.31,1.77,0s.79-.92,1.85-2.1c.7-.79.77-.6,1.5-1.39s1.83-2,1.58-2.84-1.74-1-1.69-1.54,1.13-.22,2-1.12c.58-.59.77-1.33,1.29-1.33a.67.67,0,0,1,.38.13c.43.32.1,1,.4,1.23s.77-.36,1.69-.62a3.65,3.65,0,0,1,1.46-.1c.35,0,.44,0,.46,0s-.41-.28-.73-.69a1.89,1.89,0,0,1-.37-1,1.89,1.89,0,0,1,1.27.17,1.8,1.8,0,0,1,.58.5,1.42,1.42,0,0,1,0-.71,1.45,1.45,0,0,1,.56-.77.94.94,0,0,0,1.06,1.15c.23-.08.51-.22.54-.44s-.12-.24-.27-.54-.31-.79-.12-1,.34,0,.58-.06.51-.34.67-1.27a1.92,1.92,0,0,0,2.5,1.13q.34,1.85.69,1.85.14,0,.29-.31a2.26,2.26,0,0,1,1.67-.21,3.85,3.85,0,0,1,1,.6c.14.11.26.22.33.29.31-.32.33-.49.29-.58s-.37-.09-.62-.31a.83.83,0,0,1-.27-.73,1,1,0,0,1,1-.69,1.6,1.6,0,0,1,.85.44c.35.37.3.74.58,1.23.06.11.57,1,1,1s.45-1.63,1-1.74c.32-.06.49.37,1.19.66a2.79,2.79,0,0,0,1.17.19c0,.19.09.45.23.48s.5-.74.77-.71.29.21.42,1.11a1.72,1.72,0,0,0,1.21,0,1.64,1.64,0,0,0,.6-.42,1,1,0,0,0,.23.81c.33.32.77,0,1.25.35s.28.67.72,1,1.4.27,1.45.08-.81-.37-1-1a.73.73,0,0,1,.15-.71c.24-.19.55.13.92,0s.45-.87.67-.87.48,1,.56,1.38c.32,1.47.36,2.35.49,3.13a11.61,11.61,0,0,0,.85,2.66c.85,2.27.56,5,0,10.25-.39,3.42-.83,5.64.16,6.22a2.69,2.69,0,0,0,1.92.13,2.17,2.17,0,0,0,.94-.52c.79-.83.28-2.53.13-3.07s-.25-3.67-.48-10.08c-.14-3.89,0-5.9,1.18-6.55a2.75,2.75,0,0,1,1-.27,5.78,5.78,0,0,1,3.67,1c1.47.78,2.75,1.46,3,2.49a6.58,6.58,0,0,1,.08,2c0,.1,0,.17,0,.2-.22,1.61-.05,4.85-.2,7.63-.11,2.06-.37,3.28.33,3.81a1.39,1.39,0,0,0,1,.27,1.43,1.43,0,0,0,.85-.67c.91-1.39-.45-3.87,0-7.2a5.64,5.64,0,0,1,.94-2.62,5.28,5.28,0,0,1,2.13-1.71,1.28,1.28,0,0,1,.58,0c.7.2,1,1,1.36,1.89a15.2,15.2,0,0,0,2.44,4.21c.47.53.45.4.74.77s1,1.42,1.19,4.38a17.72,17.72,0,0,1-.27,4.63,14.69,14.69,0,0,0-.42,2.65c0,1.07-.09,2.27.62,2.76a1.39,1.39,0,0,0,1.27.15c1.4-.64,1.06-4.75.62-9.73-.26-2.88-.52-4.37.48-5.38.76-.77,2.21-1.2,2.9-.71.48.34.32.94,1,1.4.51.34,1,.25,1.13.6s-.25.77-.1.92.75-.05,1-.48.14-.74.35-.85.36-.06.88.35a.79.79,0,0,1,.06.67c-.21.42-1,.39-1,.5s.59,0,1.11.33a1.43,1.43,0,0,1,.73,1.35,1,1,0,0,1-.23.44c-.46.55-1.09.35-1.29.73a.75.75,0,0,0,.27.9c.48.25,1.21-.61,1.52-.37s0,.75.19.88.49-.38,1.08-.42c.41,0,.43.2.9.19s.87-.35,1.06-.19a.42.42,0,0,1,.08.39c-.07.29-.37.35-.77.65s-.79.59-.75,1a.66.66,0,0,0,.52.58c.32,0,.47-.39,1-.92s1.44-1.18,1.69-1-.41,1.27-.08,1.58.93-.08,1.56-.46c.12,0,.27,0,.29,0s-.59.32-.9.88,0,.88-.31,1.33-.45.19-.81.56a2.69,2.69,0,0,0-.6,1.31c-.16.63-.08.87-.31,1.06s-.55,0-.73.25,0,1,.25,1.06.5-.78,1.23-.94c.36-.08.45.1,1.1.21,1,.17,1.73-.12,1.79,0s-1.33.8-1.24,1.12.7,0,1,.41-.15.85.1,1.1a.68.68,0,0,0,.65.06c.42-.14.52-.56,1-1.27s.61-1,.92-1.17c.88-.49,2.38.14,2.42.69s-.81.69-.73.94,2.26-.28,2.69.4-1.15,2.22-.77,2.62c.16.17.58.06.79,0,.5-.23.51-.67.81-.79C231.54,143.08,233.12,144.52,232.88,145.06Z" style="fill:#fff"/><path d="M157.09,143.5c0-.07.06-.17.33-.29.61-.26,1,0,1.82,0s1.22-.32,1.79-.05a1.53,1.53,0,0,1,.47.34h0a3.82,3.82,0,0,1-2,.84,3.61,3.61,0,0,1-1.86-.35C157.45,143.91,157.07,143.71,157.09,143.5Z" style="fill:#fff"/><path d="M162.69,142.88a.79.79,0,0,1,.26-.51c.58-.49,2,.17,2.06.73a.56.56,0,0,1-.25.44,1.39,1.39,0,0,1-1.12.22A1.42,1.42,0,0,1,162.69,142.88Z" style="fill:#fff"/><path d="M168.75,142.2a.79.79,0,0,1,.11-.46c.16-.25.4-.25.83-.46.61-.3.64-.56.92-.52a.71.71,0,0,1,.58.74.51.51,0,0,1-.31.28A6.52,6.52,0,0,1,168.75,142.2Z" style="fill:#fff"/><path d="M173.59,144c0-.29.62-.54,1.09-.39a1.08,1.08,0,0,1,.63.61,1.23,1.23,0,0,1-1.09.38C173.91,144.48,173.56,144.21,173.59,144Z" style="fill:#fff"/><path d="M176.09,146.13c-1-.23-1.1-.26-1.1-.3,0-.23,1.74-.74,3.51-.35a6,6,0,0,1,1.44.52,3.91,3.91,0,0,1-1.84.5A13.21,13.21,0,0,1,176.09,146.13Z" style="fill:#fff"/><path d="M185.81,144.41c-.24-.17-.08-.52-.31-.94-.33-.57-1.06-.63-1-.75a8.85,8.85,0,0,0,2.07,0c1-.27,1.18-.85,2-.79.4,0,.4.18,1,.4.93.33,2.25.45,2.53,0s-.25-.78-.06-1,1.34.78,2.31.47c.73-.24,1-1.13,1.28-1s.22.47.22.76a1.72,1.72,0,0,1-.88,1c-.38.16-.55,0-1.31.11a1.89,1.89,0,0,0-1.31.5c-.25.31-.08.53-.31.75s-1.09.15-1.6,0c-.67-.18-.63-.31-1.18-.46-.2-.05-1.53-.41-2.16.28a1.22,1.22,0,0,0-.28.56C186.22,144.53,186,144.5,185.81,144.41Z" style="fill:#fff"/><path d="M202.75,142c.94.71,1.89.94,2.38.56a.88.88,0,0,0,.34-.72,1,1,0,0,0-.69-.78A2,2,0,0,0,202.75,142Z" style="fill:#fff"/><path d="M219.72,141.59c-.09-.37-1.19-.09-2.94-.56-1-.26-1.3-.54-2-.41-.47.09-.53.26-1.3.71-1.52.87-2.39.84-2.51,1.38,0,.18,0,.48.44.94,1,.39,1.38.33,1.53.16s-.06-.55.16-.91a1.13,1.13,0,0,1,1.31-.37c.32.15.32.44.59.5s.53-.23.84-.44c1-.66,2.07.37,3.24-.31C219.36,142.15,219.78,141.84,219.72,141.59Z" style="fill:#fff"/></g></g><g id="RingInner"><path d="M175,67C115.35,67,67,115.13,67,174.5S115.35,282,175,282s108-48.13,108-107.5S234.65,67,175,67Zm0,181a73.5,73.5,0,1,1,73.84-73.5A73.67,73.67,0,0,1,175,248Z" style="fill:#768696"/><path d="M150,105a82.92,82.92,0,0,0-10.05,4.49q-1.62.88-3.15,1.82a71,71,0,0,0-7.42,5.25,79.28,79.28,0,0,0-23.62,32.52L99,149l6-6,3-6-1-3,7-5-4-5,1-3,3,2,1-3h3l-1-3,1-2a10,10,0,0,0,4.58.58A9.81,9.81,0,0,0,125,115a3.36,3.36,0,0,0,.75-2.08A3.7,3.7,0,0,0,124,110l4-1,19-18,3,3,1-2,.83,1.25L153,95a4.4,4.4,0,0,0,1-3,6.75,6.75,0,0,0,4.67,1.33A5.73,5.73,0,0,0,160,93l1-2,10,4,2.92-8.5a2.5,2.5,0,0,1,2.25,1.58A2.47,2.47,0,0,1,176,90l5,4a5.39,5.39,0,0,0-3-7,3.21,3.21,0,0,1,4-.75q.14,1.05.33,2.17.16.9.33,1.75L184,90l5,7,2-5,3,4,14,3c8.28,2.32,10.31,4.1,10.25,5.38,0,.5-.36,1-1.19,1.56.44.09,3.46.73,4.38,3.13a3.93,3.93,0,0,1,.25,1.19c4.44-.68,7.64.43,8.06,2.06.06.22.28,1.29-1.37,3,1.93-1.55,3.88-2.32,4.88-1.62.31.21.67.68.81,3.5a34.25,34.25,0,0,1-.12,5.06,3.1,3.1,0,0,1,2.6.54c.55.54.59,1.29.88,1.29s.5-.37.88-2.08l.5,1.46c.31.93.5,1.5.54,1.63a9.78,9.78,0,0,0,2.75,3.5c.81.69,2.28,3,5.17,7.6,3.07,4.89,5.8,9.45,7.88,13l-10.81.06c-2.52-6.75-10.4-25.08-30-37.19a74.41,74.41,0,0,0-33.81-10.62S163.81,100,150,105Z" style="fill:url(#linear-gradient)"/><path d="M243.08,129.75a11.55,11.55,0,0,1-3.58,1.19c-1.3.2-2.16.08-2.69.69a2.62,2.62,0,0,0-.23,2.29l4.35,7.65a15,15,0,0,0,5.13-7.25Z" style="fill:#6c7e8c"/><path d="M136.81,111.5a14.38,14.38,0,0,1,3.19-6.42c3.19-3.6,6.66-3.41,10.25-7A16.41,16.41,0,0,0,154,92l6,1,1-2a30,30,0,0,1,10,4c.18-1,.43-2,.75-3.08a31.86,31.86,0,0,1,2.17-5.42,6,6,0,0,1,2.25,1.58c.83,1,.73,1.53,1.52,2.35,1,1.1,2.82,1.77,3.38,1.25s0-1.86-.44-2.56A5,5,0,0,0,178,87a3.21,3.21,0,0,1,4-.75l.67,3.92L184,90l5,7,2-5,3,4,14,3-4,8a72.87,72.87,0,0,0-67.19,4.5Z" style="fill:url(#linear-gradient-2)"/><path d="M231.94,112.56a1.51,1.51,0,0,0,.56-1.75,1.44,1.44,0,0,0-.87-.75l1-.94a7.81,7.81,0,0,0-1.87-1.44c-.87-.47-1.39-.53-2.44-1.06a11.05,11.05,0,0,1-1.69-1.06,2.72,2.72,0,0,0,3.06-1.37,2.14,2.14,0,0,0,1,2.56c3.47,1,5.43,2.83,5.19,4C235.67,111.72,233.92,112.37,231.94,112.56Z" style="fill:#6c7b8e"/><path d="M169.75,87a10.87,10.87,0,0,1-.33,4.25L171,90.5a5.38,5.38,0,0,0-1.25-3.5Z" style="fill:#5d6b76"/><path d="M247.25,136.19a16.8,16.8,0,0,1-6.31,5.38,36.6,36.6,0,0,1,3.38,7.69l10.81-.06Z" style="fill:url(#linear-gradient-3)"/><path d="M106.17,201a10.83,10.83,0,0,0-1.6,3.24c-.66,2.21,0,2.86-.48,5.67s-1.34,3.5-1,5.16a6.18,6.18,0,0,0,2.38,3.34,75.29,75.29,0,0,1,9.75,10.42c.93-2,2.15-3.31,2.78-3.11s.92,2,.39,4.36a1.28,1.28,0,0,0,.67.56c1,.31,1.88-1.29,3.5-1.81a4.53,4.53,0,0,1,3.25.33,4.91,4.91,0,0,1,1.33,2.17c.62,2.21-.91,3.66-.83,6.25a7.48,7.48,0,0,0,1.33,3.92,2.37,2.37,0,0,0,.25,1.42,2.34,2.34,0,0,0,.75.83,6.15,6.15,0,0,0,.25,1.25,7.27,7.27,0,0,0,3.25,3.92,7.32,7.32,0,0,1-2-5.42,6.22,6.22,0,0,1,.58-2.08,11.45,11.45,0,0,1,3.92,4.17,10.89,10.89,0,0,1,.83,2,3,3,0,0,1-2.33,2.08,2.63,2.63,0,0,0,2.08,1c1.1-.12,1.56-1.29,3.5-3.12a20.3,20.3,0,0,1,1.67-1.42l8.08,7.67a4.76,4.76,0,0,1,2.58-.5c1,.11,1.07.48,2.17.75a7.45,7.45,0,0,0,4.17-.33,11.72,11.72,0,0,1,2.08-.83,7,7,0,0,1,1.83-.17,2.19,2.19,0,0,0,.5,1.33c.85,1,2.77,1.06,4.67,0l-.58,3.17a49.89,49.89,0,0,0,11.83-.08c3.82-.5,6.33-1.08,6.33-1.08,3.7-.86,5-1.58,7.33-1.5a12,12,0,0,1,5.58,1.67.78.78,0,0,0,.67,0c.74-.49-.71-2.95-.08-3.75s2.71-.36,8.75,2.75c.11-.23.29-.49.5-.5.51,0,.59,1.4,1.58,2.42s2.65,1.31,2.83,1-.84-.9-2.08-2.5c-.85-1.1-2.64-3.42-1.92-4.75.48-.88,1.85-1,2.08-1,2-.12,2.94,1.71,4.58,1.42a2.8,2.8,0,0,0,1.58-1l.92-3.92a4.31,4.31,0,0,0,3.5.25c1.32-.61,1.84-2.08,2.58-4.17a17.51,17.51,0,0,0,.75-2.83,16.24,16.24,0,0,1,5.83-4.58,3.14,3.14,0,0,1,1.67,1.58c.33.85,0,1.59.25,1.67s1.28-1.27,2.08-2.92a21.27,21.27,0,0,0,1.42-3.83c.87-3.07,2.86-4.85,4.38-6.62,1.92-2.25,4.33-6,6.38-12.29l3.5-1.17c-1.45-.42-2.69-1.3-2.83-2.33-.2-1.45,1.68-3.52,4.92-3.75a2.33,2.33,0,0,0,1.75-1.17,2.27,2.27,0,0,0,.08-1.83,2.84,2.84,0,0,1,1.67-.25c1.22.22,1.58,1.3,2.37,1.33.5,0,1.27-.36,2.29-2.5H243.83a73.74,73.74,0,0,1-17,25.83c-19.2,18.79-43,20.89-50.17,21.25-6.81,0-28-.82-47.42-16.17A75.76,75.76,0,0,1,106.17,201Z" style="fill:url(#New_Gradient_Swatch_3)"/><path d="M216,252.38a1.88,1.88,0,0,1,.75,2.5,1.69,1.69,0,0,1-1.37.5Z" style="fill:url(#linear-gradient-4)"/><path d="M218.47,249.5c.61-.34.89-.2,1-.16.47.26.54,1.33,0,2.66Z" style="fill:url(#linear-gradient-5)"/><path d="M225.38,245.28l1.63-1.34,1.47-1.19c1.72-1.43,1.78-1.77,2.72-2.41a8.23,8.23,0,0,1,2.38-1.09c.69.34,1.12.89,1.06,1.38-.08.69-1.1,1-1.5,1.13-1.1.34-1.59-.06-2.56.16a3.73,3.73,0,0,0-2,1.35,1,1,0,0,0-.13.15c-.47.7.24,1.61,0,2S227.56,245.88,225.38,245.28Z" style="fill:url(#linear-gradient-6)"/></g><g id="StripeBar"><rect x="44" y="149" width="262" height="52" style="fill:#fff"/><rect x="70" y="156" width="21" height="19"/><rect x="52" y="175" width="18" height="19"/><rect x="91" y="175" width="21" height="19"/><rect x="112" y="156" width="21" height="19"/><rect x="133" y="175" width="21" height="19"/><rect x="154" y="156" width="21" height="19"/><rect x="175" y="175" width="21" height="19"/><rect x="196" y="156" width="21" height="19"/><rect x="217" y="175" width="21" height="19"/><rect x="238" y="156" width="21" height="19"/><rect x="259" y="175" width="21" height="19"/><rect x="280" y="156" width="18" height="19"/></g></g></svg>