<svg xmlns="http://www.w3.org/2000/svg" xmlns:xlink="http://www.w3.org/1999/xlink" viewBox="0 0 350 350"><defs><linearGradient id="linear-gradient" x1="300.5" y1="122.38" x2="67" y2="122.38" gradientUnits="userSpaceOnUse"><stop offset="0.26" stop-color="#891716"/><stop offset="1" stop-color="#d12c2d"/></linearGradient><linearGradient id="linear-gradient-2" x1="67" y1="182.03" x2="298.5" y2="182.03" xlink:href="#linear-gradient"/><linearGradient id="linear-gradient-3" x1="298.5" y1="238" y2="238" xlink:href="#linear-gradient"/><linearGradient id="Unbenannter_Verlauf_24" x1="111.94" y1="129.46" x2="278.04" y2="84.95" gradientUnits="userSpaceOnUse"><stop offset="0" stop-color="#db8a89" stop-opacity="0"/><stop offset="0.02" stop-color="#db8a89" stop-opacity="0.05"/><stop offset="0.16" stop-color="#db8a89" stop-opacity="0.34"/><stop offset="0.3" stop-color="#db8a89" stop-opacity="0.57"/><stop offset="0.42" stop-color="#db8a89" stop-opacity="0.76"/><stop offset="0.53" stop-color="#db8a89" stop-opacity="0.89"/><stop offset="0.63" stop-color="#db8a89" stop-opacity="0.97"/><stop offset="0.7" stop-color="#db8a89"/></linearGradient><linearGradient id="Unbenannter_Verlauf_39" x1="121.09" y1="160.08" x2="299.83" y2="95.03" gradientUnits="userSpaceOnUse"><stop offset="0.11" stop-color="#db8a89" stop-opacity="0"/><stop offset="0.16" stop-color="#db8a89" stop-opacity="0.12"/><stop offset="0.27" stop-color="#db8a89" stop-opacity="0.38"/><stop offset="0.39" stop-color="#db8a89" stop-opacity="0.6"/><stop offset="0.49" stop-color="#db8a89" stop-opacity="0.78"/><stop offset="0.59" stop-color="#db8a89" stop-opacity="0.9"/><stop offset="0.68" stop-color="#db8a89" stop-opacity="0.97"/><stop offset="0.74" stop-color="#db8a89"/></linearGradient><linearGradient id="Unbenannter_Verlauf_39-2" x1="144.51" y1="226.64" x2="287.48" y2="251.85" xlink:href="#Unbenannter_Verlauf_39"/></defs><title>Fuze</title><g id="Fuze"><g id="Background"><polygon points="290.11 290 60 290 60 60 290.11 60 95.75 130.76 155 243.5 290.11 290" style="fill:#fff"/><path d="M284.75,69l-43.5,7.88L101.67,121.67l1.67,103.67,158,55.67H69V69Z"/><g id="BlastStripes"><g id="Dark_red" data-name="Dark red"><polygon points="67 162 300.5 84.25 237 82.75 67 133.5 67 162" style="fill:url(#linear-gradient)"/><path d="M67,156.75,262.75,144l35.75,35-68.35,41.06L67.29,194.23Z" style="fill:url(#linear-gradient-2)"/><path d="M67,213.25l214,69L298.5,268,251,237.75l-20.59-17.84L67,193.75Z" style="fill:url(#linear-gradient-3)"/></g><g id="lightred"><polygon points="113.5 146 160.19 130.19 256.63 111.63 281.8 120.69 247.5 140.42 113.5 146" style="fill:#d65d5d"/><polygon points="115.24 141.77 128.77 115.06 237 82.75 254.76 83.17 250 89.75 281 96 115.24 141.77" style="fill:url(#Unbenannter_Verlauf_24)"/><path d="M302,101,118.69,139l-3.45,5L267.5,128.75l29.25-16.49-6.62-2.51Zm-40.62,16.38,10.74-4.63,4.38,2.94Z" style="fill:url(#Unbenannter_Verlauf_39)"/><polygon points="226.5 264.83 224 254.83 289.33 241.33 257.5 222.83 146 218.17 144.5 239.17 226.5 264.83" style="fill:url(#Unbenannter_Verlauf_39-2)"/></g><g id="white"><polygon points="65.2 132.05 257.54 66.05 290 69 65.2 136.21 65.2 132.05" style="fill:#fff"/><polyline points="248.46 113.33 213.67 113.33 66.17 146 66.17 149.17 248.46 113.33" style="fill:#fff"/><polyline points="298.5 137.75 113.5 146 67.5 155 67 156.75 296.25 142.25 300.5 139.75" style="fill:#fff"/><polygon points="67 218 269 287.5 290.11 281 67 213.25 67 218" style="fill:#fff"/><polygon points="68 208.5 269.5 254.83 275.5 251.83 67.33 206.83 68 208.5" style="fill:#fff"/><polygon points="229.5 235.33 245.17 226.83 259.83 238 229.5 235.33" style="fill:#fff"/><polygon points="189.58 103.58 191.5 115.17 200.83 106.75 189.58 103.58" style="fill:#fff"/><polygon points="248.46 94.13 256.13 86.5 261.38 97.25 254.92 102.75 248.46 94.13" style="fill:#fff"/></g></g><polygon id="WhiteBorder" points="69.13 69 69.13 281 290.11 281 290.11 290 60 290 60 60 290.11 60 290.11 69 69.13 69" style="fill:#fff"/></g><g id="ClusterGrenades"><g id="Grenade3"><path d="M113,128.58l18.92-12.83L117.7,99.51a4.21,4.21,0,0,0-5.35-.73l-20.8,13a3.5,3.5,0,0,0-1.63,2.66c-.52,5.89-2,25.05.16,30.18,2.58,6.08,16.5,23.17,18.25,23.67s4.67-5,4.67-5-13.25-16.17-14.42-21.08-1.07-14.67.58-15.87Z" style="fill:#fff;stroke:#000;stroke-miterlimit:10;stroke-width:5px"/><circle cx="138.25" cy="146.5" r="28.5" style="fill:#fff;stroke:#000;stroke-miterlimit:10;stroke-width:5px"/></g><g id="Grenade2"><path d="M144.5,217.08l18.92-12.83L149.2,188a4.21,4.21,0,0,0-5.35-.73l-20.8,13a3.5,3.5,0,0,0-1.63,2.66c-.52,5.89-2,25.05.16,30.18,2.58,6.08,16.5,23.17,18.25,23.67s4.67-5,4.67-5-13.25-16.17-14.42-21.08-1.07-14.67.58-15.87Z" style="fill:#fff;stroke:#000;stroke-miterlimit:10;stroke-width:5px"/><circle cx="169.75" cy="235" r="28.5" style="fill:#fff;stroke:#000;stroke-miterlimit:10;stroke-width:5px"/></g><g id="Grenade1"><path d="M212.37,159.34l21.38-14.5-16.06-18.35a4.76,4.76,0,0,0-6-.82L188.14,140.4a4,4,0,0,0-1.84,3c-.59,6.66-2.28,28.31.18,34.11,2.92,6.87,18.65,26.18,20.62,26.75s5.27-5.65,5.27-5.65-15-18.27-16.29-23.83-1.21-16.58.66-17.94Z" style="fill:#fff;stroke:#000;stroke-miterlimit:10;stroke-width:5px"/><circle cx="240.91" cy="179.59" r="32.21" style="fill:#fff;stroke:#000;stroke-miterlimit:10;stroke-width:5px"/><path d="M260.13,205.43c-18.76-3.87-18.88-26.24-18.88-26.24C227.31,185.63,229,209.52,229,209.52l12.56,2.27,12-2.59Z"/><polygon points="231.58 185 240.25 188.67 237.58 195.49 244.54 195.92 241.67 200.92 249.5 201.33 244.54 207.92 255.17 209.5 237.17 210.33 243.38 203.75 233.75 203.08 238.42 198.28 232.42 197.33 235.08 191.75 230.17 188.83 231.58 185" style="fill:#fff"/><path d="M254.92,175.25c1.91,3.4,5.59,3.37,6.83,3.26a.81.81,0,0,1,.72.32c.8,1,2.53,3.8-2.73,2.5-6.42-1.58-5.79-5.6-5.79-5.6a.82.82,0,0,1,.37-.44A.77.77,0,0,1,254.92,175.25Z"/></g></g></g></svg>