<svg xmlns="http://www.w3.org/2000/svg" xmlns:xlink="http://www.w3.org/1999/xlink" viewBox="0 0 350 350"><defs><linearGradient id="New_Gradient_Swatch_3" x1="261.5" y1="77.52" x2="261.5" y2="271.52" gradientUnits="userSpaceOnUse"><stop offset="0" stop-color="#fff"/><stop offset="1" stop-color="#c5cfd1"/></linearGradient><linearGradient id="New_Gradient_Swatch_3-2" x1="240" y1="75.88" x2="240" y2="268.19" xlink:href="#New_Gradient_Swatch_3"/><linearGradient id="New_Gradient_Swatch_3-3" x1="218.5" y1="75.88" x2="218.5" y2="268.19" xlink:href="#New_Gradient_Swatch_3"/><linearGradient id="New_Gradient_Swatch_3-4" x1="197" y1="90" x2="197" y2="284.13" xlink:href="#New_Gradient_Swatch_3"/><linearGradient id="New_Gradient_Swatch_3-5" x1="175.5" y1="93.88" x2="175.5" y2="287.01" xlink:href="#New_Gradient_Swatch_3"/><linearGradient id="New_Gradient_Swatch_3-6" x1="154" y1="88.5" x2="154" y2="281.64" xlink:href="#New_Gradient_Swatch_3"/><linearGradient id="New_Gradient_Swatch_3-7" x1="132.5" y1="81.31" x2="132.5" y2="274.31" xlink:href="#New_Gradient_Swatch_3"/><linearGradient id="New_Gradient_Swatch_3-8" x1="111" y1="78.56" x2="111" y2="272.56" xlink:href="#New_Gradient_Swatch_3"/><linearGradient id="New_Gradient_Swatch_3-9" x1="89.5" y1="83.06" x2="89.5" y2="276.25" xlink:href="#New_Gradient_Swatch_3"/></defs><title>Vigil</title><g id="Vigil"><g id="Bar11"><rect x="273" y="60.15" width="18" height="230" style="fill:#fff"/><rect x="273" y="68.52" width="9" height="212"/><polygon points="291 133.25 273 138.69 273 142.75 291 135.88 291 133.25"/></g><g id="Bar10"><rect x="251.5" y="60.15" width="20" height="230" style="fill:#fff"/><rect x="251.5" y="68.52" width="20" height="9"/><rect x="251.5" y="271.52" width="20" height="9"/><rect x="251.5" y="77.52" width="20" height="194" style="fill:url(#New_Gradient_Swatch_3)"/><path d="M251.5,144.88l20-5.5v4.56l-6,2.69a34.38,34.38,0,0,1-14,23.56Z"/></g><g id="Bar9"><rect x="230" y="56.76" width="20" height="230" style="fill:#fff"/><rect x="230" y="66.88" width="20" height="9"/><rect x="230" y="268.19" width="20" height="9"/><rect x="230" y="75.88" width="20" height="192.31" style="fill:url(#New_Gradient_Swatch_3-2)"/><path d="M230,146.5l20-5.25v27a34.77,34.77,0,0,1-6.75,4.06A35.24,35.24,0,0,1,230,175.44Z"/></g><g id="Bar8"><rect x="208.5" y="56.76" width="20" height="230" style="fill:#fff"/><rect x="208.5" y="66.88" width="20" height="9"/><rect x="208.5" y="268.19" width="20" height="9"/><rect x="208.5" y="75.88" width="20" height="192.31" style="fill:url(#New_Gradient_Swatch_3-3)"/><path d="M208.5,152.19l20-5.69v29a35.07,35.07,0,0,1-20-3.74Z"/></g><g id="Bar7"><rect x="187" y="72.17" width="20" height="230" style="fill:#fff"/><rect x="187" y="81" width="20" height="9"/><rect x="187" y="284.13" width="20" height="9"/><rect x="187" y="90" width="20" height="194.13" style="fill:url(#New_Gradient_Swatch_3-4)"/><path d="M187,159.38l4.63,12.39L207,168v20.46A40.3,40.3,0,0,1,193,175l-6,2.5Z"/></g><g id="Bar6"><rect x="165.42" y="75" width="20" height="230" style="fill:#fff"/><rect x="165.42" y="84.88" width="20" height="9"/><rect x="165.58" y="287.01" width="20" height="9"/><rect x="165.42" y="93.88" width="20.17" height="193.14" style="fill:url(#New_Gradient_Swatch_3-5)"/></g><g id="Bar5"><rect x="143.99" y="70.44" width="20" height="230" style="fill:#fff"/><rect x="144.01" y="281.64" width="20" height="9"/><rect x="143.99" y="88.5" width="20.02" height="193.14" style="fill:url(#New_Gradient_Swatch_3-6)"/><rect x="143.99" y="79.5" width="20" height="9"/><path d="M144,164.88l13.64,4.38L164,156.63v17.5L157.88,172a23.28,23.28,0,0,1-3.75,7.47A23.73,23.73,0,0,1,144,187.17Z"/></g><g id="Bar4"><rect x="122.56" y="63.41" width="20" height="230" style="fill:#fff"/><rect x="122.56" y="72.31" width="20" height="9"/><rect x="122.56" y="274.31" width="20" height="9"/><rect x="122.44" y="81.31" width="20.13" height="193" style="fill:url(#New_Gradient_Swatch_3-7)"/><path d="M122.44,152.13l20.13,5.13v21.63a107.24,107.24,0,0,1-11.31,1.25c-3.13.18-6.07.21-8.81.14Z"/></g><g id="Bar3"><rect x="101" y="59.94" width="20" height="230" style="fill:#fff"/><rect x="101" y="69.56" width="20" height="9"/><rect x="101" y="272.56" width="20" height="9"/><rect x="101" y="78.56" width="20" height="194" style="fill:url(#New_Gradient_Swatch_3-8)"/><path d="M101,144.88l20,5.63v27.91a39.44,39.44,0,0,1-20-7.16Z"/></g><g id="Bar2"><rect x="79.5" y="65.04" width="20" height="230" style="fill:#fff"/><rect x="79.5" y="74.06" width="20" height="9"/><rect x="79.5" y="276.25" width="20" height="9"/><rect x="79.5" y="83.06" width="20" height="193.19" style="fill:url(#New_Gradient_Swatch_3-9)"/><path d="M79.5,144.75l20,5.38v25.44A31.25,31.25,0,0,1,87.25,161a29.51,29.51,0,0,1-2-8.87l-5.75-3Z"/></g><g id="Bar1"><rect x="60" y="59.96" width="18" height="230" style="fill:#fff"/><rect x="69" y="68.58" width="9" height="212"/><path d="M60,134.13l18,6.63v6.63l-18-11.5Z"/></g></g></svg>