<svg xmlns="http://www.w3.org/2000/svg" xmlns:xlink="http://www.w3.org/1999/xlink" viewBox="0 0 350 350"><defs><linearGradient id="Unbenannter_Verlauf_16" x1="79.03" y1="79.03" x2="270.97" y2="270.97" gradientUnits="userSpaceOnUse"><stop offset="0" stop-color="#165110"/><stop offset="0.56" stop-color="#146604"/></linearGradient><linearGradient id="Unbenannter_Verlauf_14" x1="84.63" y1="243.23" x2="132.89" y2="243.23" gradientUnits="userSpaceOnUse"><stop offset="0" stop-color="#08811b"/><stop offset="1" stop-color="#127612"/></linearGradient><linearGradient id="Unbenannter_Verlauf_14-2" x1="85.95" y1="221.27" x2="168.49" y2="221.27" xlink:href="#Unbenannter_Verlauf_14"/><linearGradient id="Unbenannter_Verlauf_14-3" x1="94.65" y1="203.34" x2="214.91" y2="203.34" xlink:href="#Unbenannter_Verlauf_14"/><linearGradient id="Unbenannter_Verlauf_14-4" x1="149.49" y1="183.95" x2="270.97" y2="183.95" xlink:href="#Unbenannter_Verlauf_14"/><linearGradient id="Unbenannter_Verlauf_14-5" x1="186.16" y1="155.02" x2="270.97" y2="155.02" xlink:href="#Unbenannter_Verlauf_14"/><linearGradient id="Unbenannter_Verlauf_14-6" x1="253.94" y1="103.53" x2="270.96" y2="103.53" xlink:href="#Unbenannter_Verlauf_14"/></defs><title>Amaru</title><g id="Amaru"><g id="Background"><path d="M290,290H127l-22.93-26.65L116.18,290H60V60H228.89l-7.81-18.65L236.51,60H290V247.92l-24.63-28.41L290,264.14Z" style="fill:#fff"/><path d="M280.46,69.53H69.53V280.46h35.92L101.64,271c-3.23-8.83-7.47-19.37-10.7-28.19,8.44,8.72,17.88,19.15,26.32,27.87l9.44,9.81H280.46V259l-30.22-61,30.22,30.92Z"/><polygon points="270.97 270.97 120.03 270.97 117.57 270.97 90.94 242.78 101.64 270.97 79.03 270.97 79.03 79.03 270.97 79.03 270.97 219.19 250.24 197.98 270.97 240.11 270.97 270.97" style="fill:url(#Unbenannter_Verlauf_16)"/><path d="M121.42,271a15.18,15.18,0,0,0-.88-1.66,15.7,15.7,0,0,0-1.35-1.85c-1.81-2.2-1.47-4.09-3.46-6.63-1.06-1.35-1.21-.89-2.52-2.42-1.7-2-1.75-3.11-3-5.39-1.61-2.91-2.36-2.5-5.83-7.32-1-1.43-1.92-2.76-2.72-4-2.88-4.51-2.58-5.23-4.75-8.27-1-1.37-.85-1-4-4.94-.82-1-2.14-2.71-3-3.85a48.28,48.28,0,0,1-5.26-9.16c8.43,8.44,12,12.75,13.69,15.14a29.06,29.06,0,0,0,4.36,5.43,34.89,34.89,0,0,1,3.41,3.42c.49.58.58.74,1.86,2.45.25.33,1.9,2.55,3.64,4.77,2.45,3.13,3,3.6,3.4,3.95,1.29,1.06,1.72,1,2.77,2a14.13,14.13,0,0,1,2.51,3.77c1.68,2.85,2.76,2.15,5.3,5.23,2.3,2.79,2,4,4.53,6.8a21,21,0,0,0,2.79,2.5Z" style="fill:url(#Unbenannter_Verlauf_14)"/><path d="M152.14,271a7.31,7.31,0,0,1-1.69-.55c-.7-.31-1.28-.71-4-3.56-1.1-1.17-1.49-1.61-1.68-2.37a6.17,6.17,0,0,1,0-1.91c0-1.6-1.14-2.23-2.69-4.37-1.39-1.92-.85-1.91-3.12-5.64-.38-.63-.29-.45-2-3.06-1-1.57-2.3-3.57-3.41-5.35-1.73-2.77-2.94-4.85-3.16-5.24-1.88-3.19-14-21.69-44.47-67.35,32.77,35.77,56.44,62.15,58.61,65a20,20,0,0,1,3.56,6.36,8.73,8.73,0,0,0,.59,1.85c.7,1.45,1.6,2.09,3.56,3.82a23.11,23.11,0,0,1,3.24,3.1c1.18,1.82.49,2.77,1.51,4.55,1.5,2.61,2.75,2.16,5.24,5,1.2,1.39,1,1.54,4.36,6.83.78,1.22,1.44,2.22,1.87,2.87Z" style="fill:url(#Unbenannter_Verlauf_14-2)"/><polygon points="94.65 135.7 195.13 270.97 214.91 270.97 94.65 135.7" style="fill:url(#Unbenannter_Verlauf_14-3)"/><path d="M262.65,271a13.43,13.43,0,0,1-1.45-2.24c-1-2-1-3.09-1.85-4.72a10,10,0,0,0-2.31-2.77c-5.31-5-13.13-28.12-24-37.9-.55-.5-1.58-1.39-2.94-2.85a40.67,40.67,0,0,1-7.31-11c-7.83-16.75-55.58-86.88-60.73-92.81a43.28,43.28,0,0,1-3-3.79,47,47,0,0,1-2.9-4.71c-3.49-6.4-6.95-11.12-6.72-11.28s5.68,7.73,9.26,11a32.4,32.4,0,0,1,3.26,3.4s.7.83,1.35,1.74c2,2.71,58.56,82.34,70.52,95.25,3,3.2,5.81,6.54,8.77,9.75a50.79,50.79,0,0,1,3.81,4.46c2.72,3.65,2.09,4.37,4.75,7.61,1.89,2.31,3.32,3.43,5.23,6.53.76,1.24,1,1.75,2,3.31a36.85,36.85,0,0,0,3.47,4.63c1.88,2.11,2.33,2.06,3,3.4a9.47,9.47,0,0,0,1.42,2.41,7.93,7.93,0,0,0,1.65,1.38c1,.67,2.13,2,3,4.71V271Z" style="fill:url(#Unbenannter_Verlauf_14-4)"/><path d="M271,215.48c-.76-.86-2-2.23-3.38-3.95-3.4-4.13-4.13-5.44-6.66-8.43-4.2-4.94-4.17-3.64-5.65-6.07-2.69-4.42-2-7.49-5-9.44a8.24,8.24,0,0,1-2.87-2.47c-.84-1.23-.5-1.62-1.29-2.77-1.2-1.74-2.3-1.33-3.56-3.06-.82-1.13-.5-1.51-1.38-3.08a11.63,11.63,0,0,0-2.68-3.17c-4.43-4-10.1-19.3-14.83-26.09a15.51,15.51,0,0,0-2.07-2.58c-2-1.93-3.21-2-4.69-3.89a21.19,21.19,0,0,1-1.55-2.73,22.58,22.58,0,0,0-3.89-4.82c-1.86-1.86-8.35-11.32-25.32-38.37C206,111.6,213,119.82,215,124a32.73,32.73,0,0,0,10.81,13c11.21,8.33,20.81,22.14,22.55,27.1a35.84,35.84,0,0,0,2.17,5,22.89,22.89,0,0,0,1.88,3.16c1.8,2.42,3,2.37,6.23,4.95a27.1,27.1,0,0,1,5.34,5.54c1.36,1.91,1.48,2.67,2.92,4.5a22.45,22.45,0,0,0,4.12,4Z" style="fill:url(#Unbenannter_Verlauf_14-5)"/><path d="M271,117a29.36,29.36,0,0,1-2.09-2.47c-1.75-2.35-1.95-3.43-3.58-5.53-1.22-1.58-1.4-1.36-2.75-3a27,27,0,0,1-3.36-5.34c-2-3.86-3.73-7.42-5.24-10.58,4,2.12,5.64,4.4,6.43,6.13a13.21,13.21,0,0,0,3.76,5.64c.57.46.57.35,1.08.79,2,1.69,1.94,3.28,3.56,5.14a8.94,8.94,0,0,0,2.19,1.81Z" style="fill:url(#Unbenannter_Verlauf_14-6)"/></g><g id="Hand"><path d="M235.52,207.09a6.5,6.5,0,0,1,2.8,2.9c.5,1.12.15,1.36.64,2.87.69,2.13,1.69,2.47,2.06,4.29a6.14,6.14,0,0,1,0,2.29,2,2,0,0,1,1.32.2c.84.48.84,1.48,1.85,3.36.22.42.42.74.56,1l-1.26.36,9.86,18.16a1.13,1.13,0,0,1-.72.27c-.45,0-.7-.38-.79-.31s.13.94.79,1.49,1.45.3,2.24.7.85,1.4,1.84,4.25c.79,2.26,1,2,1.62,4.09.53,1.66.48,2,1,3.52.78,2.12,1.07,2,1.18,2.86.19,1.38-.5,2.65-1.88,5.14-.5.9-1.18,2-2.05,3.31a4.83,4.83,0,0,1,.09,2.47c-.27,1.18-.87,1.47-1.71,2.84-1.21,2-.73,2.64-1.78,4.14a7.44,7.44,0,0,1-2.74,2.32l-.59,3.17-21.71,12a9.49,9.49,0,0,1-.69.66,16.06,16.06,0,0,1-2.87,1.79c-1.62.93-1.83,1.18-2.5,1.22a3.22,3.22,0,0,1-1.6-.35,1.62,1.62,0,0,1-.15,1.33,1.54,1.54,0,0,1-.64.55,14,14,0,0,1-3.49,1.13c-1.27.23-1.91.15-2.79.72-.53.33-.66.59-1.61,1.26a6,6,0,0,1-1.44.87c-1.38.39-3.08-1.5-3.66-2.13-1.85-2.05-4.23-4.46-7.46-7.57a1.76,1.76,0,0,0-.45-3.46c-.1.67-.35,1.86-.91,2s-1-.73-1.16-1c-.84-1.27-3.27-4-9.28-9.74a1,1,0,0,0,.05-.78c-.23-.48-1-.46-1.58-.68a3.56,3.56,0,0,1-1.93-2.08,19.07,19.07,0,0,0,.08-2.06c0-.64,0-1.24-.08-1.79a5.9,5.9,0,0,1-.81.21,5.29,5.29,0,0,1-1.07.08,5,5,0,0,1-.16-1,5.07,5.07,0,0,1,.16-1.68,2.1,2.1,0,0,1-.64.32,2.14,2.14,0,0,1-.45.08,2.45,2.45,0,0,0-.08-1,2.05,2.05,0,0,0-.15-.42,1.87,1.87,0,0,1-2,.5A1.66,1.66,0,0,1,178,271a5.07,5.07,0,0,1-.54-2,5,5,0,0,1,.49-2.45,7.41,7.41,0,0,1-1.48-1.36,11.09,11.09,0,0,1-1.46-2.65c-1.17-2.49-1-2.12-1.18-2.49-1.4-3.22-1.09-3.66-2.14-5.45a14.4,14.4,0,0,1-1.48-2.39,7.21,7.21,0,0,1-.32-3.47,2,2,0,0,1-.92.2,2.28,2.28,0,0,1-1.36-.49,2.72,2.72,0,0,1,.3-1.09,2.46,2.46,0,0,1,.4-.56,9.28,9.28,0,0,0-1.45-2.32,10.07,10.07,0,0,0-4.39-2.82c-5-1.85-4.33-2.83-9.69-4.78a44.47,44.47,0,0,0-12.26-2.58l2,1.14c-.47.05-1.16.11-2,.13a22.59,22.59,0,0,1-8.3-1.07,16,16,0,0,1-4.75-3c-2.5-2-3-1.95-11.87-7.06-4-2.28-9.92-5.78-18.39-10.94,3.22,2.53,6,4.37,7.84,5.57,5.62,3.57,8.94,4.87,16.35,9.56a39.91,39.91,0,0,1,4.69,3.17c-.17.29-10.54-5.07-21.17-11.55-3.32-2-2.84-1.82-11.45-7.17-12.64-7.87-14.18-8.62-14.26-8.49s3.52,3,3.9,3.27c2.53,1.9,4,2.76,3.93,2.92s-4.42-1.82-5.78-2.48c-6.87-3.33-7.57-4.14-13.79-7.3-4.61-2.34-5.84-2.71-7.91-4.55A23.76,23.76,0,0,1,55,190.89a121.34,121.34,0,0,0-10.09-13.52q6.16,1.27,12.73,2.38,4.31.72,8.47,1.32c-.39-.51-1-1.28-1.75-2.18A79.11,79.11,0,0,0,58.85,173a71,71,0,0,1-6-6.79,35.22,35.22,0,0,1,8.67,3.26c.77.43,2.3,1.32,2.57,1s-.68-1.44-1.05-1.91c-3.16-3.94-5.9-8.2-8.88-12.28a78,78,0,0,1-4.38-6.67c3,1.36,5.5,2.63,7.27,3.58,3.88,2.09,6.62,3.87,7.22,3.21.1-.1.13-.26-.2-1.48-.56-2.13-1-3.16-1.33-4.33a11,11,0,0,1-.3-3.16c1.35,1.17,2.94,2.44,3.24,2.18s-.14-.75-.37-1.19c-.68-1.3-1.71-3.22-3.09-5.66q-3.2-7.17-6.4-14.32c2.24,2.28,5,5,5.39,4.7.17-.15-.35-1-.61-1.49C56.4,124.5,53.5,119.6,54,119.13c.29-.27,1.7.92,4.5,3.19,9.33,7.58,9.56,7.29,12.95,10.53,2.19,2.09,2.85,2.93,5.19,5s4.29,3.41,5.64,4.35a6,6,0,0,1-1.28-.1,6.46,6.46,0,0,1-2.23-.84c13.8,11.89,22,19.11,26.87,23.47,1.45,1.3,5,4.45,4.78,4.68s-2.72-1.65-7-4.74c-3.34-2.42-7.83-5.68-13.19-9.6a64,64,0,0,0,12.63,10.72c.94.6,5.74,4.15,15.35,11.25a7.69,7.69,0,0,1,2.19,2.41,7.47,7.47,0,0,1,.79,2.06q7.62,6.34,15.63,12.73,4.56,3.63,9.1,7.15L140,190.07c-1.62-2.15-4.27-5.77-7.25-10.45-5.76-9-5.49-10.59-14.21-26.35-3.36-6.06-5-8.73-6.87-13.5a63.21,63.21,0,0,0-2.63-6.13c-1.16-2.33-1.77-3.12-4.89-8.06-4.42-7-5.46-9-6-11.77a20.57,20.57,0,0,1-.4-4.5,3,3,0,0,1-.84-.29c-1-.55-1.32-1.54-1.83-2.67s-.14-.07-1.73-3.12c-2.16-4.14-2-4.49-1.88-4.6.41-.36,1.87.83,2.08.57s-1.13-1.68-1.34-1.9c0,0-1.65-2.15-4.92-6.38A47.7,47.7,0,0,1,82.08,83a37.43,37.43,0,0,1-2.5-6.35l-4.15-2c5,1.59,8.95,3,11.7,4.09,3.73,1.41,6.1,2.43,9.88,3.5A70,70,0,0,0,104.8,84a3.08,3.08,0,0,0,1.32,2.3c.8.41,1.31-.11,2.51.13,1.52.32,1.44,1.34,3,1.78,1.34.4,1.79-.27,3.5,0a7.66,7.66,0,0,1,2.71,1.11c1.7,1,2.16.88,6.19,2.39,3,1.13,5,2,12.2,5,3,1.25,7.32,3.06,12.72,5.28.38,1.07,3.78,10.94,6.2,19.31,2.11,7.28,1.62,7,2.36,8.57a8.22,8.22,0,0,1,.94,3.67,7.73,7.73,0,0,1-.3,2.2,70.25,70.25,0,0,1,5.56,11.74c.43,1.18.82,2.33,1.17,3.46-.48-.21-1.18-.54-2-1a68.31,68.31,0,0,1-10.73-7c-2.19-1.64-4.88-3.7-7.94-6.15a14.42,14.42,0,0,0,3.7,6.33,4.55,4.55,0,0,1,1.88,2.7c.11,1-.32,1.72.16,2.31.36.43.91.39,1.39.51,1.41.36,1.89,2.1,2.86,4.17a18.65,18.65,0,0,0,5.64,7.33c.81.58.73.39,1.68,1,5.17,3.47,5.6,8,9.5,9.24a1.38,1.38,0,0,0,1.16,0c1.32-.78.11-5.11-.62-7.63-2.38-8.26-4.65-14.75-5.27-16.62a61,61,0,0,1-3-16,46.21,46.21,0,0,1-.36-7.68A47.33,47.33,0,0,1,165,110.19c3.6-12.18,1.24-14.41,5.87-35.48A72,72,0,0,0,173,57.54a67.11,67.11,0,0,0-.49-7.86c1,1,2.11,2.11,2.54,1.84s0-1.45-.07-1.84c-.84-3-3.16-4.66-2.83-5.1s1.41.4,1.71,0c.19-.24-.08-.73-.36-1.23a25.08,25.08,0,0,0-1.62-2.74c-.77-.93-2-3.41-4.08-9.87l9.62,8.3q18,15.52,35.87,31.12c1.49-.12,2,.19,2.24.53s0,.63.15,1.51a14.11,14.11,0,0,0,.54,1.66,4.43,4.43,0,0,1-.1,2.22c-.26,1.31.25,2.68,2.18,6.68,2.4,5,2.33,4.34,2.77,5.6.88,2.52,1.68,4.84.92,7.32s-2.31,2.93-2.8,5.73a9.07,9.07,0,0,0,0,3.17,51.29,51.29,0,0,0-3,11.28c-.45,3-.23,3.42-.74,5.93-1.09,5.31-2.51,5.71-4,11.14-1.44,5.15-1.36,9.08-2.24,9.1-.46,0-.89-1.05-1.05-1.65-.37-1.35.18-2.22.33-3.29.21-1.57-.58-2.3-2.31-5.67a33,33,0,0,1-2.64-5.94c-.85-2.82-.58-3.89-1.79-6.56-.71-1.58-.91-1.42-1.51-2.8-1.62-3.73-1-6.81-1.45-6.86s-1,2-1.73,6c-1.3,7.2-1.31,12.86-2.09,12.9-.41,0-.7-1.5-1.05-1.45s-.45,2.22-.4,4.29a8.23,8.23,0,0,1,2.7,3c.79,1.5.39,2,.95,3.88,1,3.47,2.94,3.9,3.72,7.49.25,1.18,0,1.08.26,2.37a16.6,16.6,0,0,0,3.72,7.49,26.93,26.93,0,0,1,4.8,11.28,6.29,6.29,0,0,0,1.26-.2,6.7,6.7,0,0,0,2.9-1.65h-2.64a23.61,23.61,0,0,0,2.77-2.7,25.8,25.8,0,0,0,3.44-5.24c3.82-7.18,5.72-10.77,5.92-13.16a8.87,8.87,0,0,1,1.53-4.73c.64-.87.81-.69,1.37-1.46,1.7-2.34.51-4.47,1.9-6.2a4.33,4.33,0,0,1,2.85-1.45c1-1.79,1.88-3.64,1.38-4.07-.32-.28-1,.24-1.28,0-.49-.47,1.18-2.78,2.63-5.16,3.12-5.15,3-7,5.51-8.85a10.33,10.33,0,0,1,3.5-1.65c0-5.39-.05-11-.32-16.8-.12-2.72-.28-5.4-.47-8q2,3.06,4,6.19c.48.75.95,1.5,1.42,2.25l-3.25-3.09,3.65,6.51a3.15,3.15,0,0,1,1.1.27,4,4,0,0,1,1.84,2.1c1.35,2.92,3.51,2.71,5.23,6.16,1,2,.35,2.23,1.54,4.82a21,21,0,0,0,2.78,4.32,84.63,84.63,0,0,1,5.18,7.65c.67,1.21,2.35,4.56,1,7.49a7.23,7.23,0,0,1-.39.71,6.9,6.9,0,0,1,1.19,2.45c.56,2.22-.38,3.5.08,5.9.27,1.38.61,1.1,1.07,2.71,1.12,3.87-.36,7.24.82,7.78.34.16.62,0,.82.18.49.55-.76,2.38-1.29,3.26-1.5,2.47-1.44,4.16-2.27,7.62-1.59,6.55-3.84,8.86-6,16.41-2.62,9-2.07,14.9-3.16,14.94s-2.18-5.91-2.82-9.55a146.53,146.53,0,0,1-2.18-21.31c-.49.85-1.1,1.73-1.48,1.62s-.29-1.11-.4-2.71c-.12-1.76-.5-4.69-1-4.73s-.42,1.75-1.93,3.37a11.15,11.15,0,0,1-2.21,1.56c-1.83,1.4-2.09,3.71-2.51,5.72-.84,4.09-1.54,3.28-3.26,9.05-1.29,4.32-.55,3.63-2.39,12.38-1.67,8-2.51,12-3.66,13.35-.19.23-1.25,1.44-.89,2.32.22.53.81.61.84,1s-.39.86-2.19,1.57l2.11.13a4.25,4.25,0,0,1-.21,2.41c-.56,1.33-1.53,1.4-2.28,2.62-.93,1.51.09,2.15-.64,4.1s-1.94,1.73-3,4.1c-.67,1.49-.28,1.78-1,2.88-.92,1.4-1.77,1.26-2.76,2.57s-.66,2.22-1.34,3.56c-.57,1.12-1.82,2.47-4.85,3.34a26.76,26.76,0,0,0,0,4.52c.26,3,1,5.39.69,5.49s-1.14-2.19-1.53-2.08c-.12,0-.29.35.15,3.61.56,4.13.83,6.2,1.63,7.42.43.65,1,1.34.78,1.75s-1.12.32-1.86.18a3.33,3.33,0,0,0,.69,1.58,3.53,3.53,0,0,0,.64.61,1.24,1.24,0,0,1,1.43.87,1.13,1.13,0,0,1-.49,1.19c-.45.26-.94,0-1.08.16s0,.41.64,1.18A2.63,2.63,0,0,0,220,257c.37-.29.44-.52.59-.5.37,0,.08,1.47.8,2.68s1.93,1.17,2.12,2c.11.49-.09,1.23-1.45,2.38a2.18,2.18,0,0,0,1.9.13,2.28,2.28,0,0,0,.69-3,41.67,41.67,0,0,0,3.76-2.42c1.37-1,2.1-1.65,2-2.38,0-.36-.24-.38-.5-.89-.69-1.35.23-2.12-.25-3.8-.29-1.05-.84-1.46-.59-2a1.46,1.46,0,0,1,1.14-.63,11.28,11.28,0,0,0-.15-6.28c-.18-.51-.63-1.6-.18-2.07s1-.22,1.52-.06c-1.36-3.46-1.09-4.87-.47-5.47.45-.44,1.24-.6,1.39-1.26a1.84,1.84,0,0,0-.62-1.48l0-4L233,228a14.24,14.24,0,0,1,.1-4.61,26.21,26.21,0,0,1,.89-3c1.43-4.68,1.56-5.55,1.13-6.44s-1.08-1.35-.87-1.67.83-.18,1.39,0q0-1.12,0-2.37C235.63,208.83,235.59,207.94,235.52,207.09Z" style="fill:#fff"/><path d="M246.56,100.3c.6-.18,1.62,2.63,4.09,7.25a119,119,0,0,0,6.53,10.68c1.64,2.47,3.08,4.47,4.08,5.82q1.26,7.5,2.44,15.15c.6,3.82,1.17,7.63,1.72,11.4q-1.29,5-2.9,10.22c-1.67,5.37-3.45,10.41-5.28,15.1q-1.65-8.73-3.32-17.45l-2.22-11.69q-2.12,2.15-4.28,4.62A103.64,103.64,0,0,0,239.31,162a38.55,38.55,0,0,1-1.07,5.05c-1.07,3.78-2.16,5.34-3.22,8.66a38.63,38.63,0,0,0-1.45,7.19,98.29,98.29,0,0,1-4.68,19.71c-1,2.57-4.06,10.87-8.51,15.82a67.89,67.89,0,0,0-6.26,8.21,13.38,13.38,0,0,0-1,1.58,15.76,15.76,0,0,0-1.45,7.93,57.94,57.94,0,0,0,.65,9.8A51.26,51.26,0,0,0,217.7,262a45,45,0,0,0,2.47,4,30.37,30.37,0,0,0-3.16,1.29c-2.77,1.31-5.69,3.21-5.51,3.58,0,.08.21.12.83,0,1.08-.13,2.64-.34,4.53-.63a32.62,32.62,0,0,0,4.55-.85c2.23-.76,3-1.89,5.63-4a48.14,48.14,0,0,1,6-4.14,59.91,59.91,0,0,1,.11-8.22c.19-2.38.44-3.78.94-6.84,1.47-8.94,1.25-9,3.14-20.51.31-1.87.56-3.4.72-4.35.78,1.83,1.89,4.41,3.32,7.47,4.58,9.85,6,11.09,8.75,18,1.79,4.5,1.71,5.29,3.21,7.76,1.34,2.19,2.46,3.31,2.53,5.34,0,.86-.15,1.51-1.74,4.85-2.2,4.65-2.46,4.64-3.56,7.22-1,2.4-1.1,3.12-2.32,5.73-.7,1.5-1.35,2.69-1.78,3.46q-7.53,3.59-15.18,7.37-10.16,5-19.88,10.09l-24.64-24.18q-7-13.47-13.78-27.89-2.23-4.74-4.36-9.43c-1.68-.56-4.19-1.38-7.25-2.31-5.89-1.78-10.07-2.82-13.19-3.62-4.23-1.1-10.25-2.76-17.73-5.11l-62.7-36.8L89.11,192a46,46,0,0,0-3.4-3.53,47.7,47.7,0,0,0-9-6.62c2.83,1.27,6.21,2.64,6.63,2,.24-.39-.58-1.29-1.19-2-2.26-2.59-3.91-5.68-6.13-8.31s-5.16-6.3-9.46-12c1.75.78,4.36,2,7.48,3.69,2.58,1.39,4.42,2.51,5,2,.82-.79-1.77-4.32-1.13-4.84s3.87,3,4.48,2.51-2.25-5-5.07-10.62c-2-4-3.49-7.48-4.42-9.85,1.74,1.23,4.3,3.1,7.29,5.5,6.08,4.89,9,8,13.47,12.24,7.37,6.94,7.47,6,22.06,18.6,6.65,5.74,6.39,5.73,11.15,9.81,5.48,4.71,13.49,11.31,23.83,18.86l4.09,8.17c4.37,4.87,5.65,5.4,6.07,5.14a1.2,1.2,0,0,0,.52-.77,1.22,1.22,0,0,0-.27-.89c-2.39-3.39-3.16-7.73-5.46-11.17-3.33-5-6.09-10.31-9.2-15.43-10.14-16.71-9.68-17.25-13.55-22.5a76.94,76.94,0,0,1-5.41-8.31,72.09,72.09,0,0,1-3.49-7.12c-2-4.74-9.09-19.48-26.18-53.94a8.12,8.12,0,0,0,2-.06,7.89,7.89,0,0,0,1.88-.55q-1.92-1.81-3.86-3.85A105,105,0,0,1,87.53,85.33c6.18,2,11.29,3.22,14.78,4,7.79,1.72,10.6,1.75,16.4,3.86,2.09.76,3.27,1.31,10.62,4.94,4.33,2.14,9.63,4.76,15.69,7.78q4.26,12.84,9.36,26.24,2,5.3,4.09,10.42c-4.87-3.4-10.1-6.83-15.69-10.22q-5-3-9.89-5.74,4,7.22,8.18,14.48,4.41,7.74,8.83,15.33c3.14,3.78,6.67,7.73,10.63,11.75,3,3.06,6,5.86,8.89,8.42,1.59-.08,5.92-.51,7.78-3.56a7.56,7.56,0,0,0,.66-5.27c-1.79-10.85-6.33-24.42-7.53-28.17-.83-2.57-2-6.48-3.15-11.39,1.33-7,2.31-12.8,2.95-16.78,1.65-10.24,1.62-11.7,3.11-20S175.5,78.82,176,76.49a58.11,58.11,0,0,0,1.83-13.22,48.83,48.83,0,0,0-.25-5.37,7.72,7.72,0,0,0,3.91,2.36,9.43,9.43,0,0,0,1,.15c0-.23-.1-.58-.19-1a22.4,22.4,0,0,0-1.22-3.83,85.24,85.24,0,0,1-2.8-9.13c6.37,5.19,11.18,9.14,14.18,11.6,4.67,3.84,7.63,6.29,12.06,9.5,3,2.19,5.61,3.91,7.39,5.07a51,51,0,0,0,1.42,6.89c1.13,4.07,2.25,6.07,3.56,11,.45,1.72.76,3.15.95,4.09q-4.49,16.22-9,32.44a82.4,82.4,0,0,1-4.55-11.11c-1.59-4.87-2-7.65-4-12.86a72.2,72.2,0,0,0-3.3-7.41q-4,18-8,36l15.82,35.74a6.55,6.55,0,0,0,3.3,2.58c3,1,6.84-.69,9.23-4.3,1.56-2.72,3.9-6.86,6.59-12,1.47-2.8,4-7.69,10.75-22.12,2-4.29,4.72-10.12,7.91-17.11a9.15,9.15,0,0,0,4.25-2.28c-.14-1.58-.33-3.89-.49-6.69C246.18,101,246.3,100.37,246.56,100.3Z"/></g></g></svg>