<svg xmlns="http://www.w3.org/2000/svg" xmlns:xlink="http://www.w3.org/1999/xlink" viewBox="0 0 350 350"><defs><linearGradient id="linear-gradient" x1="109.58" y1="284.89" x2="237.19" y2="63.87" gradientUnits="userSpaceOnUse"><stop offset="0" stop-color="#fbd267"/><stop offset="0.78" stop-color="#f7921e"/></linearGradient></defs><title>Bandit</title><g id="Bandit"><g id="Background"><path d="M290.13,290H200.33L175.5,250.83,108.33,222.5,60,272.81l-.13-18.48V60H290.13Z" style="fill:#fff"/><polygon points="280.82 280.79 188 280.79 178 270 158.33 285.67 144.33 251.33 105.92 292.09 100.33 223.33 69.18 251.67 69.18 69.39 280.82 69.39 280.82 280.79"/></g><g id="LightningBolt"><path d="M243.63,180.64c-.58-.6,2.1-3.77,3.75-4.58.18-.09.33-.14.42-.07.38.26-.19,2.31-1.59,3.56C245.38,180.29,244,181,243.63,180.64Z"/><path d="M252.27,171.1c-.4-.51,3.28-4.5,3.81-4.15.3.2-.23,1.9-1.42,3C253.8,170.76,252.48,171.37,252.27,171.1Z"/><path d="M266.34,154.91c.27.28,2-.65,3.22-2.09s1.78-3.21,1.44-3.44-2.4,1.94-3.5,3.44C266.88,153.66,266.13,154.68,266.34,154.91Z"/><path d="M236.71,190.58l-91.27-8.76,10.69-44.7-28.75-32.31-5.54,10.52,1.42-19.08L149,123.94l2.75-11.9,0-3.21.06-.4c15.37-44.46,20.3-59.92,19.79-60.17-.87-.42-1.21-.15-1.21-.15h0a.78.78,0,0,0-.19.63c0,.74-6,18.73-19.54,58.38a16.11,16.11,0,0,1-1.58-7.56l-4.87,5.69L116.33,73q-3.95,86.3-7.33,172.62-.94,23.91-1.83,47.83L159.92,234l15.6,24.6Zm-96.23-84c2.39,2.62,4.51,5.19,6.4,7.65l-.31,1.34-16.69-19.2A114.94,114.94,0,0,1,140.48,106.6Z"/><path d="M243.63,180.64c-.58-.6,2.1-3.77,3.75-4.58.18-.09.33-.14.42-.07.38.26-.19,2.31-1.59,3.56C245.38,180.29,244,181,243.63,180.64Z" style="fill:#fff"/><path d="M252.27,171.1c-.4-.51,3.28-4.5,3.81-4.15.3.2-.23,1.9-1.42,3C253.8,170.76,252.48,171.37,252.27,171.1Z" style="fill:#fff"/><path d="M266.34,154.91c.27.28,2-.65,3.22-2.09s1.78-3.21,1.44-3.44-2.4,1.94-3.5,3.44C266.88,153.66,266.13,154.68,266.34,154.91Z" style="fill:#fff"/><path d="M236.71,190.58l-91.27-8.76,10.69-44.7-28.75-32.31-5.54,10.52,1.42-19.08L149,123.94l2.75-11.9,0-3.21.06-.4c15.37-44.46,20.3-59.92,19.79-60.17-.87-.42-1.21-.15-1.21-.15h0a.78.78,0,0,0-.19.63c0,.74-6,18.73-19.54,58.38a16.11,16.11,0,0,1-1.58-7.56l-4.87,5.69L116.33,73q-3.95,86.3-7.33,172.62-.94,23.91-1.83,47.83L159.92,234l15.6,24.6Zm-96.23-84c2.39,2.62,4.51,5.19,6.4,7.65l-.31,1.34-16.69-19.2A114.94,114.94,0,0,1,140.48,106.6Z" style="fill:#fff"/><path d="M184,33.17,149.33,133.83l-21.5-25.33-18,176.56,50.79-58.23L175,256.5,298.67,102.17Z" style="fill:url(#linear-gradient)"/><path d="M280.82,61.5,181.75,235.08l-18-49-53,90.62,1.56-15.3L162,117.25l18.5,21.5,44-106.25Z"/><path d="M113.46,266.13l52.29-134.87,18.13,26.38L234.33,37.56,272.46,57.2,184.58,217.67,166,169.75Z" style="fill:#fff"/></g><path id="ShockBorder" d="M67.73,247.75l1.38,14.68L95.75,235.5l5.92,71.17L145.88,259l9.63,37L178,275l15.67,24.5L224,261.34l-8-6.68L195.17,281l-15.33-22.33-18.67,18.5L149.5,239.83l-39.33,43.33-7-70.33Z" style="fill:#fff"/></g></svg>