<svg xmlns="http://www.w3.org/2000/svg" xmlns:xlink="http://www.w3.org/1999/xlink" viewBox="0 0 350 350"><defs><radialGradient id="radial-gradient" cx="175" cy="175" r="96" gradientTransform="translate(-140 350) rotate(-90) scale(1 1.8)" gradientUnits="userSpaceOnUse"><stop offset="0" stop-color="#ffff8b"/><stop offset="1" stop-color="#fff" stop-opacity="0"/></radialGradient></defs><title>Blackbeard</title><g id="Blackbeard"><g id="Background"><rect x="59.96" y="59.96" width="230.08" height="230.08" style="fill:#fff"/><rect x="69.5" y="69.5" width="211" height="211" style="fill:#231f20"/><rect x="79" y="79" width="192" height="192" style="fill:#c79326"/><rect x="79" y="79" width="192" height="192" style="fill:url(#radial-gradient)"/><path d="M266.62,137.55c-.11-3.42-.38-6.85-.51-10.28S266,120.4,266,117s.44-6.87.55-10.29c.06-2,.22-5.31-.8-7-.71-1.21-3.71-2.27-7-3.14-3.81-1-7.79-1.94-8-1.18-.36,1.23,6.51,3.18,6.25,3.78,0,0-4.2-1.2-8.48-2.41s-8.1-2.35-8.1-2.37c.12-.83,9,1,9.1.34s-3.86-1.56-9.29-2.53c-2.81-.5-6-1.24-9.42-1.75-3.12-.46-6.4-.58-9.53-1-3.39-.46-6.67-.78-9.51-1.13-5-.62-8.71-1-9.51-1-3-.25-6-1.09-9.07-1.26s-6.11.21-9.15.13-6.09-.51-9.13-.5-6.11-.14-9.15,0-6.09.47-9.13.67c-3.33.22-6.63.74-9.95,1.1s-6.59,1-9.88,1.52-6.53,1.28-9.81,1.88-6.69.53-9.95,1.24a96.43,96.43,0,0,0-9.54,2.6c-3.1,1-6.08,2.84-9.2,3.64a33.25,33.25,0,0,1-9.81.64c-2.15-.09-3.11,3.31-3.42,7.32a71.36,71.36,0,0,0-.13,8.46c.17,3.72,1,7,1,8.42,0,2.71-.1,5.43-.08,8.14s-.55,5.43-.52,8.14.69,5.42.71,8.13-.51,5.43-.48,8.14c0,2.92.35,5.83.36,8.75s-.23,5.83-.24,8.75-.07,5.84-.08,8.75.68,5.84.69,8.75-.78,5.84-.74,8.76.3,5.84.37,8.75.51,5.82.63,8.74a16.19,16.19,0,0,0,2.44,8.39A23.94,23.94,0,0,0,95,231.69a57.89,57.89,0,0,0,7.62,4.62c2.7,1.36,5.8,1.89,8.35,3.13,2.85,1.39,5.28,3.53,8.08,4.85s5.85,2.26,8.65,3.64,5.82,2.34,8.57,3.87,5.23,3.36,7.88,5.13,5.19,3,7.78,4.54,5.14,3.08,7.8,4.49,5.16,3.1,7.89,4.37c3.95,1.84,5.18,2.76,9.11,1.77,2.8-.7,5.63-3.1,8.19-4.41s5.1-2.64,7.64-4,5.18-2.49,7.7-3.87,4.76-3.27,7.27-4.67,5.19-2.48,7.7-3.89,5-2.85,7.48-4.27c2.24-1.27,4.64-2.29,6.89-3.55s4.37-2.75,6.63-4,4.3-2.89,6.56-4.13c2.68-1.47,6.67-2.34,10.22-4a28,28,0,0,0,8.87-6.26c2-2.23,2.16-5.83,2.07-9.76-.09-3.69.12-7.53.14-10.4,0-3.15-.36-6.3-.34-9.45s-.07-6.3,0-9.45c0-.43-.28-4.42-.25-9.24,0-3,1-6.26,1-9.22.12-5-.08-9.24.3-9.25s1.06,3.64,1.36,9.11c.14,2.67.17,5.81.28,9.19.1,2.91-.23,6-.16,9.2s.31,6.14.36,9.19,0,6.27,0,9.19c0,3.37.49,6.49.52,9.19,0,4.69.11,8.14.11,9.25.55-3.13.29-6.36.64-9.49s.86-6.25,1-9.4.89-6.29.92-9.45-.25-6.32-.33-9.48-.31-6.31-.46-9.46-.75-6.28-.94-9.43-.44-6.3-.64-9.45.08-6.33-.08-9.48S266.73,140.71,266.62,137.55Z" style="fill:#231f20"/><path d="M264.12,223.82c-.6-.25-1.83,3.14-5.42,4.69a25.83,25.83,0,0,1-3.5,1.19c-3,.94-4.59,3-5.7,4-3.41,2.95-6.48,3.29-11.28,5.7-1.56.79-4.29,2-8.38,4.24-2.26,1.25-5.06,2.6-8.28,4.42-2.42,1.36-4.91,3.3-7.95,5-2.5,1.42-5.33,2.76-8.28,4.44-2.54,1.45-5.31,2.91-8.21,4.58-2.57,1.47-5.36,2.89-8.22,4.53-2.59,1.49-5.21,3.28-8.05,4.92,1.15.08,2.32.05,3.47.14,2.12-1,5.37-2.33,9.17-4.28,3-1.52,5.68-2.49,7.86-3.65,3.14-1.67,5.41-3.33,7.42-4.47,3.13-1.78,5-3.5,7.25-4.76s4.59-2,7.89-3.58c2.61-1.23,5-2.33,7.28-3.39,2.68-1.26,5.15-2.29,7.31-3.31,2.85-1.34,5.08-2.85,7.09-3.78a77.61,77.61,0,0,1,7.41-3.06c1.53-.53,7.11-2.41,9.92-7.44C264.48,227.21,264.65,224,264.12,223.82Z" style="fill:#231f20"/></g><g id="Head"><path d="M115.69,147.63c0,1.13-.61,1.43-3.25,5.94-.92,1.57-1.37,2.35-1.6,2.85-1.77,3.88.33,8.57,1.17,10.5,2.55,5.86,7.07,17.62,13.25,33.17.9,2.51,2.19,6.34,3.42,11.08,3.86,14.88,1.85,18.2,5.75,27.33A54.09,54.09,0,0,0,145,254.17a37.35,37.35,0,0,0,7.54,6.46c8.24,5.13,16.78,4.93,22,4.81,5.4-.12,13.85-.31,22.6-5.75a39.15,39.15,0,0,0,13.75-14.81c2.05-3.81,3.12-8.08,5.25-16.62s2-10.47,3.63-16.87c1.86-7.57,3.91-12.76,6.88-20.25,3.67-9.29,6-19.11,10.25-28.17a9.1,9.1,0,0,0,.94-6.18,12.36,12.36,0,0,0-2.19-3.87c-2.3-3.26-3.35-3.35-3.44-4.59-.19-2.58,4.08-4.91,5.73-5.81,4.07-2.22,5.66-1.38,7.58-3,3.37-2.83,2.67-8.91,2.31-11.69-1.19-9.24-6-15.3-9.06-20.06-11.18-17.2-3.55-22.3-13.67-36.67-9-12.72-21.69-18.3-26.67-20.42a67.73,67.73,0,0,0-24.75-5.33,72.41,72.41,0,0,0-33.33,9.5c-3.45,2-12.82,7.61-18.75,17.08A46.28,46.28,0,0,0,118,79c-2.33,6-2.42,10.18-2.92,13.67-.58,4-4.89,13-13.5,30.83-.83,1.71-2.72,5.63-1.67,10a10.14,10.14,0,0,0,3.17,5.5c2.47,2.07,4.12,1,7.67,3C111.95,142.69,115.69,144.84,115.69,147.63Z" style="fill:#050708"/><path d="M124.25,143.94q6.34,31.93,14.38,65.44,3.92,16.24,8,32A51.52,51.52,0,0,0,153,225.17q1.74,6.41,4,13.33c1.4,4.26,2.85,8.32,4.33,12.17a22.21,22.21,0,0,0,5.83-5,15.55,15.55,0,0,0,1.58,3.83,16,16,0,0,0,5.38,5.5,17,17,0,0,0,7.13-9.12,12.95,12.95,0,0,0,4.58,4.46c1-1.87,1.89-3.86,2.79-6a97.24,97.24,0,0,0,5.88-18.87l5.33,15.67c3.17-9.53,6.21-19.55,9-30A543.34,543.34,0,0,0,222.5,144a32.78,32.78,0,0,1,10.67,13.5c-1.23,4.12-5.22,17.32-8.83,28-5.37,15.85-6.13,16.27-8.33,24.33-5,18.19-2.29,21.52-7.67,31.5-2.2,4.08-6.42,11.68-15.33,16.54a37.17,37.17,0,0,1-18,4.25c-3.79.06-13.56.2-22.44-5.81-9.35-6.33-12.68-16.08-15.19-23.44-3.36-9.84-1.93-13.77-6.87-29-1.25-3.83-2.12-6-3.75-10.25-3.14-8.19-7.56-20.2-12.75-35.87a73.34,73.34,0,0,1,10.25-13.81Z" style="fill:#fff"/><path d="M163.9,172.35c-8.88,4.4-14.59,12.95-14.59,22,0,12.67,11.24,24,24.68,24s24.86-11.21,24.68-24c-.13-9.43-6.57-18.25-16.29-22.13V161.67l-5.56,6.83H171.3l-7.39-6.82ZM174,211.08a17.31,17.31,0,1,1,17.79-17.3A17.55,17.55,0,0,1,174,211.08Z" style="fill:#fff"/><path d="M174,179.52c-8.31,0-15,6.48-15,14.48s6.73,14.48,15,14.48S189,202,189,194,182.31,179.52,174,179.52ZM174,205a11,11,0,1,1,11.53-11A11.28,11.28,0,0,1,174,205Z" style="fill:#fff"/><path d="M232.88,107.75c-9.12-17.48-2.77-20.79-11.12-33-8-11.68-19.52-17-24.37-19.25-4.56-2.11-12.59-5.73-23-6-26.75-.7-51.92,21-53.46,35.75a51.37,51.37,0,0,1-2.54,13.08c-1.29,3.8-2.28,4.95-5.5,11.33-8.13,16.14-9.15,20.58-7.33,23.83a5.13,5.13,0,0,0,2.83,2.67c4.19,1.19,7.47-6.68,13.83-8.33,3.18-.83,7.86-.28,14.67,5.17l2.33-22c.26,28.88.68,49.33,1.33,49.33.42,0,.8-8.35,1.17-8.33.61,0,.14,22.48.67,22.5.33,0,.94-9,1.17-9s-.76,7.14.83,15.83a52.75,52.75,0,0,0,2,7.5l4.54-40A24.78,24.78,0,0,0,161,153.17a27.74,27.74,0,0,0,5.67-12.67c.81,1.41,1.71,2.87,2.71,4.38,1.32,2,2.66,3.81,4,5.46a20.08,20.08,0,0,0,6.17-10q1.77,3.62,3.63,7.29,1.31,2.59,2.63,5.13A30.25,30.25,0,0,0,197,148.83q.17,5.29.63,10.92A216.68,216.68,0,0,0,202,188.67a62.49,62.49,0,0,0,.81-7.17c.2-3.55.06-6.48.31-6.5s.66,3.89,1,3.88c.68,0,.32-15.84,1-15.87.41,0,.94,5.9,1.25,5.88.51,0-.5-16,.5-16.12.51-.05,1.11,4.17,1.63,4.13.86-.08.35-11.88.25-22.56-.07-7.54.05-15.9.5-25l.92,24.69c6.65-5.92,11.46-6.76,14.83-6.12,6.75,1.27,10.36,9.51,14.67,8.13a5.5,5.5,0,0,0,3-3.12C245.67,126.38,238.51,118.54,232.88,107.75ZM122.29,106a45.37,45.37,0,0,1,0-10.62c.68-5.77,1.49-12.63,6.79-17.17a15.51,15.51,0,0,1,8.17-3.71c2.74-.31,5.45.62,10.75,2.5l11.58,4.13A5.33,5.33,0,0,0,161.5,76,127.34,127.34,0,0,1,148,71c-3.84-1.68-7.34-3.43-10.5-5.17,4.72,1.64,9.72,3.23,15,4.73q6.89,2,13.33,3.44a32.77,32.77,0,0,1-4.15,13.19C150.85,106,124.36,106,122.29,106Zm51.13,14.08a34.06,34.06,0,0,0-16.83,4.25c-.09-9,1.43-20.06,7.79-29.33,4.74-6.92,8.2-7,9-7,1.59,0,4.07.76,7.5,5.38,7.2,9.68,8.64,23.06,8.88,31.13A34,34,0,0,0,173.42,120.08Zm51.1-13.92c-2.07,0-28.56,0-39.4-18.81A32.77,32.77,0,0,1,181,74.17q6.52-1.58,13.33-3.44,7.9-2.17,15.27-4.48c-3.34,1.66-6.93,3.32-10.77,4.92-4.72,2-9.24,3.62-13.5,5a5.3,5.3,0,0,0,.69,2.5A5.43,5.43,0,0,0,188.75,81c4.42-1.63,7.9-3,10.06-3.83,6.46-2.54,8.12-3.36,10.77-3.08,4,.42,6.7,2.95,8.15,4.29,5.81,5.39,6.64,13,7.1,17.29A38.44,38.44,0,0,1,224.52,106.17Z" style="fill:#fff"/></g></g></svg>