<svg xmlns="http://www.w3.org/2000/svg" xmlns:xlink="http://www.w3.org/1999/xlink" viewBox="0 0 350 350"><defs><linearGradient id="New_Gradient_Swatch_3" x1="93.76" y1="147.4" x2="74.26" y2="147.4" gradientUnits="userSpaceOnUse"><stop offset="0" stop-color="#e8ab8f"/><stop offset="1" stop-color="#d75b2b"/></linearGradient><linearGradient id="New_Gradient_Swatch_3-2" x1="147.59" y1="147.4" x2="128.1" y2="147.4" xlink:href="#New_Gradient_Swatch_3"/><linearGradient id="New_Gradient_Swatch_3-3" x1="201.55" y1="147.4" x2="182.06" y2="147.4" xlink:href="#New_Gradient_Swatch_3"/><linearGradient id="New_Gradient_Swatch_3-4" x1="255.25" y1="147.4" x2="235.75" y2="147.4" xlink:href="#New_Gradient_Swatch_3"/></defs><title>Castle</title><g id="Castle"><g id="Background"><polygon points="223.13 60.23 223.13 95.13 208.13 95.13 208.13 60.23 141.75 60.23 141.75 95.13 126.75 95.13 126.75 60.23 60.1 60.23 60.1 289.77 289.9 289.77 289.9 60.23 223.13 60.23" style="fill:#fff"/><polygon points="233.67 69.6 233.67 105.63 198.67 105.63 198.67 69.6 151.67 69.6 151.67 105.63 116.67 105.63 116.67 69.6 69.39 69.6 69.39 280.58 280.61 280.58 280.61 69.6 233.67 69.6"/><path d="M244.44,79.15l0,35.85H188.75l.13-35.85H162.19l0,35.85H107.47l.09-35.85H78.83q0,15.59,0,31.18l-4.4,12.42L78.83,153v84.67L269.13,242a700.35,700.35,0,0,1,2-91.3q1.24-14.31,3-27.92l-3-12.42V79.16Z" style="fill:#d75b2b"/></g><g id="ShieldScales"><path d="M93,286a54.79,54.79,0,0,1-12.62-11,57.46,57.46,0,0,1-13-32.47l-.62-18.6,27.26-9.09,26.75,9.58-.82,18a57.52,57.52,0,0,1-12.26,32.52,54.74,54.74,0,0,1-12,11l-1.36.92Z"/><path d="M94,217.45l24.2,8.66-.74,16.19a55.32,55.32,0,0,1-11.71,31.06,52.25,52.25,0,0,1-11.44,10.51,52.32,52.32,0,0,1-12-10.51A55.34,55.34,0,0,1,69.93,242.3l-.55-16.62L94,217.45m.06-5.29-1.64.55-24.67,8.23-3.54,1.18.12,3.73.28,8.31.28,8.31v.23a60,60,0,0,0,13.55,33.88,57.3,57.3,0,0,0,13.19,11.52l2.77,1.76L97.17,288a57.25,57.25,0,0,0,12.53-11.52,60,60,0,0,0,12.81-33.88v-.09l.74-16.19.17-3.69-3.48-1.24-12.1-4.33-12.1-4.33-1.63-.58Z" style="fill:#fff"/><path d="M75,229c-.6,8.21-.89,28.61,12.81,44a46.74,46.74,0,0,0,6.47,6,46.72,46.72,0,0,0,6.34-6c13.51-15.43,13.1-35.74,12.44-44L94,223.1Z" style="fill:#d75b2b"/><path d="M94,223.1,75,229c-.65,7.57-1.27,27.51,12,43.06a47.46,47.46,0,0,0,7.3,6.92Z" style="fill:#e8ab8f"/><path d="M146.86,286a54.81,54.81,0,0,1-12.61-11,57.46,57.46,0,0,1-13-32.47l-.62-18.6,27.26-9.09,26.75,9.58-.82,18a57.52,57.52,0,0,1-12.26,32.52,54.72,54.72,0,0,1-12,11l-1.36.92Z"/><path d="M147.88,217.45l24.2,8.66-.74,16.19a55.32,55.32,0,0,1-11.71,31.06,52.25,52.25,0,0,1-11.44,10.51,52.32,52.32,0,0,1-12-10.51,55.34,55.34,0,0,1-12.39-31.06l-.55-16.62,24.67-8.23m.06-5.29-1.64.55-24.67,8.23-3.54,1.18.12,3.73.28,8.31.28,8.31v.23a60,60,0,0,0,13.55,33.88,57.3,57.3,0,0,0,13.19,11.52l2.77,1.76L151,288a57.25,57.25,0,0,0,12.53-11.52,60,60,0,0,0,12.81-33.88v-.09l.74-16.19.17-3.69-3.48-1.24-12.1-4.33-12.1-4.33-1.63-.58Z" style="fill:#fff"/><path d="M128.8,229c-.6,8.21-.89,28.61,12.81,44a46.74,46.74,0,0,0,6.47,6,46.72,46.72,0,0,0,6.34-6c13.51-15.43,13.1-35.74,12.44-44l-19-5.87Z" style="fill:#d75b2b"/><path d="M147.88,223.1,128.8,229c-.65,7.57-1.27,27.51,12,43.06a47.46,47.46,0,0,0,7.3,6.92Z" style="fill:#e8ab8f"/><path d="M200.82,286a54.79,54.79,0,0,1-12.62-11,57.45,57.45,0,0,1-13-32.47l-.62-18.6,27.26-9.09,26.75,9.58-.82,18a57.52,57.52,0,0,1-12.26,32.52,54.72,54.72,0,0,1-12,11l-1.36.92Z"/><path d="M201.84,217.45l24.2,8.66-.74,16.19a55.32,55.32,0,0,1-11.71,31.06,52.25,52.25,0,0,1-11.44,10.51,52.32,52.32,0,0,1-12-10.51,55.34,55.34,0,0,1-12.39-31.06l-.55-16.62,24.67-8.23m.06-5.29-1.64.55-4.94,1.65-19.74,6.58L172,222.11l.12,3.73.28,8.31.28,8.31v.23a60,60,0,0,0,13.55,33.88,57.3,57.3,0,0,0,13.19,11.52l2.77,1.76L205,288a57.25,57.25,0,0,0,12.53-11.52,60,60,0,0,0,12.81-33.88v-.09l.74-16.19.17-3.69-3.48-1.24L218.27,218l-14.74-5.28-1.63-.58Z" style="fill:#fff"/><path d="M182.76,229c-.6,8.21-.89,28.61,12.81,44a46.74,46.74,0,0,0,6.47,6,46.72,46.72,0,0,0,6.34-6c13.51-15.43,13.1-35.74,12.44-44l-19-5.87Z" style="fill:#d75b2b"/><path d="M201.84,223.1,182.76,229c-.65,7.57-1.27,27.51,12,43.06A47.46,47.46,0,0,0,202,279Z" style="fill:#e8ab8f"/><path d="M254.51,286a54.81,54.81,0,0,1-12.61-11,57.46,57.46,0,0,1-13-32.47l-.62-18.6,27.26-9.09,26.75,9.58-.82,18a57.52,57.52,0,0,1-12.26,32.52,54.72,54.72,0,0,1-12,11l-1.36.92Z"/><path d="M255.54,217.45l24.2,8.66L279,242.3a55.32,55.32,0,0,1-11.71,31.06,52.25,52.25,0,0,1-11.44,10.51,52.32,52.32,0,0,1-12-10.51,55.34,55.34,0,0,1-12.39-31.06l-.55-16.62,24.67-8.23m.06-5.29-1.64.55-24.67,8.23-3.54,1.18.12,3.73.28,8.31.28,8.31v.23A60,60,0,0,0,240,276.57a57.3,57.3,0,0,0,13.19,11.52l2.77,1.76,2.72-1.84a57.25,57.25,0,0,0,12.53-11.52A60,60,0,0,0,284,242.61v-.09l.74-16.19.17-3.69-3.48-1.24-12.1-4.33-12.1-4.33-1.63-.58Z" style="fill:#fff"/><path d="M236.46,229c-.6,8.21-.89,28.61,12.81,44a46.74,46.74,0,0,0,6.47,6,46.72,46.72,0,0,0,6.34-6c13.51-15.43,13.1-35.74,12.44-44l-19-5.87Z" style="fill:#d75b2b"/><path d="M255.54,223.1,236.46,229c-.65,7.57-1.27,27.51,12,43.06a47.46,47.46,0,0,0,7.3,6.92Z" style="fill:#e8ab8f"/><path d="M121.11,258.15a54.81,54.81,0,0,1-12.62-11,57.47,57.47,0,0,1-13-32.47l-.62-18.6L122.17,187l26.75,9.58-.82,18a57.52,57.52,0,0,1-12.26,32.52,54.74,54.74,0,0,1-12,11l-1.36.92Z"/><path d="M122.14,189.62l24.2,8.66-.74,16.19a55.32,55.32,0,0,1-11.71,31.06A52.25,52.25,0,0,1,122.45,256a52.32,52.32,0,0,1-12-10.51A55.34,55.34,0,0,1,98,214.47l-.55-16.62,24.67-8.23m.06-5.29-1.64.55L95.88,193.1l-3.54,1.18.12,3.73.28,8.31.28,8.31v.23a60,60,0,0,0,13.55,33.88,57.3,57.3,0,0,0,13.19,11.52l2.77,1.76,2.72-1.84a57.25,57.25,0,0,0,12.53-11.52,60,60,0,0,0,12.81-33.88v-.09l.74-16.19.17-3.69L148,193.57l-12.1-4.33-12.1-4.33-1.63-.58Z" style="fill:#fff"/><path d="M103.06,201.15c-.6,8.21-.89,28.61,12.81,44a46.74,46.74,0,0,0,6.47,6,46.72,46.72,0,0,0,6.34-6c13.51-15.43,13.1-35.74,12.44-44l-19-5.87Z" style="fill:#d75b2b"/><path d="M122.14,195.27l-19.08,5.88c-.65,7.57-1.27,27.51,12,43.06a47.46,47.46,0,0,0,7.3,6.92Z" style="fill:#e8ab8f"/><path d="M174.95,258.15a54.81,54.81,0,0,1-12.61-11,57.47,57.47,0,0,1-13-32.47l-.62-18.6L176,187l26.75,9.58-.82,18a57.52,57.52,0,0,1-12.26,32.52,54.72,54.72,0,0,1-12,11l-1.36.92Z"/><path d="M176,189.62l24.2,8.66-.74,16.19a55.32,55.32,0,0,1-11.71,31.06A52.25,52.25,0,0,1,176.29,256a52.32,52.32,0,0,1-12-10.51,55.34,55.34,0,0,1-12.39-31.06l-.55-16.62L176,189.62m.06-5.29-1.64.55-24.67,8.23-3.54,1.18.12,3.73.28,8.31.28,8.31v.23a60,60,0,0,0,13.55,33.88,57.3,57.3,0,0,0,13.19,11.52l2.77,1.76,2.72-1.84a57.25,57.25,0,0,0,12.53-11.52,60,60,0,0,0,12.81-33.88v-.09l.74-16.19.17-3.69-3.48-1.24-12.1-4.33-12.1-4.33-1.63-.58Z" style="fill:#fff"/><path d="M156.89,201.15c-.6,8.21-.89,28.61,12.81,44a46.74,46.74,0,0,0,6.47,6,46.72,46.72,0,0,0,6.34-6c13.51-15.43,13.1-35.74,12.44-44l-19-5.87Z" style="fill:#d75b2b"/><path d="M176,195.27l-19.08,5.88c-.65,7.57-1.27,27.51,12,43.06a47.46,47.46,0,0,0,7.3,6.92Z" style="fill:#e8ab8f"/><path d="M228.91,258.15a54.81,54.81,0,0,1-12.62-11,57.46,57.46,0,0,1-13-32.47l-.62-18.6L230,187l26.75,9.58-.82,18a57.52,57.52,0,0,1-12.26,32.52,54.72,54.72,0,0,1-12,11l-1.36.92Z"/><path d="M229.93,189.62l24.2,8.66-.74,16.19a55.32,55.32,0,0,1-11.71,31.06A52.25,52.25,0,0,1,230.25,256a52.32,52.32,0,0,1-12-10.51,55.34,55.34,0,0,1-12.39-31.06l-.55-16.62,24.67-8.23m.06-5.29-1.64.55-24.67,8.23-3.54,1.18.12,3.73.28,8.45.27,8.17v.23a60,60,0,0,0,13.55,33.88,57.3,57.3,0,0,0,13.19,11.52l2.77,1.76,2.72-1.84a57.25,57.25,0,0,0,12.53-11.52,60,60,0,0,0,12.81-33.88v-.09l.74-16.19.17-3.69-3.48-1.24-19.15-6.86-5-1.81-1.63-.58Z" style="fill:#fff"/><path d="M210.85,201.15c-.6,8.21-.89,28.61,12.81,44a46.74,46.74,0,0,0,6.47,6,46.72,46.72,0,0,0,6.34-6c13.51-15.43,13.1-35.74,12.44-44l-19-5.87Z" style="fill:#d75b2b"/><path d="M229.93,195.27l-19.08,5.88c-.65,7.57-1.27,27.51,12,43.06a47.46,47.46,0,0,0,7.3,6.92Z" style="fill:#e8ab8f"/><path d="M93,229.82a54.81,54.81,0,0,1-12.62-11,57.47,57.47,0,0,1-13-32.47l-.62-18.6,27.26-9.09,26.75,9.58-.82,18a57.52,57.52,0,0,1-12.26,32.52,54.74,54.74,0,0,1-12,11l-1.36.92Z"/><path d="M94.07,161.29l24.2,8.66-.74,16.19a55.32,55.32,0,0,1-11.71,31.06,52.25,52.25,0,0,1-11.44,10.51,52.32,52.32,0,0,1-12-10.51,55.34,55.34,0,0,1-12.39-31.06l-.55-16.62,24.67-8.23m.06-5.29-1.64.55-24.67,8.23L64.27,166l.12,3.73.28,8.31L65,186.3v.23a60,60,0,0,0,13.55,33.88A57.3,57.3,0,0,0,91.7,231.93l2.77,1.76,2.72-1.84a57.25,57.25,0,0,0,12.53-11.52,60,60,0,0,0,12.81-33.88v-.09l.74-16.19.17-3.69L120,165.24l-12.1-4.33-12.1-4.33L94.13,156Z" style="fill:#fff"/><path d="M75,172.82c-.6,8.21-.89,28.61,12.81,44a46.74,46.74,0,0,0,6.47,6,46.72,46.72,0,0,0,6.34-6c13.51-15.43,13.1-35.74,12.44-44l-19-5.87Z" style="fill:#d75b2b"/><path d="M94.07,166.94,75,172.82c-.65,7.57-1.27,27.51,12,43.06a47.46,47.46,0,0,0,7.3,6.92Z" style="fill:#e8ab8f"/><path d="M146.88,229.82a54.81,54.81,0,0,1-12.61-11,57.47,57.47,0,0,1-13-32.47l-.62-18.6,27.26-9.09,26.75,9.58-.82,18a57.52,57.52,0,0,1-12.26,32.52,54.72,54.72,0,0,1-12,11l-1.36.92Z"/><path d="M147.9,161.29,172.1,170l-.74,16.19a55.32,55.32,0,0,1-11.71,31.06,52.25,52.25,0,0,1-11.44,10.51,52.32,52.32,0,0,1-12-10.51,55.34,55.34,0,0,1-12.39-31.06l-.55-16.62,24.67-8.23M148,156l-1.64.55-4.94,1.65-19.74,6.58L118.11,166l.12,3.73.28,8.31.28,8.31v.23a60,60,0,0,0,13.55,33.88,57.3,57.3,0,0,0,13.19,11.52l2.77,1.76,2.72-1.84a57.25,57.25,0,0,0,12.53-11.52,60,60,0,0,0,12.81-33.88v-.09l.74-16.19.17-3.69-3.48-1.24-24.2-8.66L148,156Z" style="fill:#fff"/><path d="M128.82,172.82c-.6,8.21-.89,28.61,12.81,44a46.74,46.74,0,0,0,6.47,6,46.72,46.72,0,0,0,6.34-6c13.51-15.43,13.1-35.74,12.44-44l-19-5.87Z" style="fill:#d75b2b"/><path d="M147.9,166.94l-19.08,5.88c-.65,7.57-1.27,27.51,12,43.06a47.46,47.46,0,0,0,7.3,6.92Z" style="fill:#e8ab8f"/><path d="M200.84,229.82a54.81,54.81,0,0,1-12.62-11,57.46,57.46,0,0,1-13-32.47l-.62-18.6,27.26-9.09,26.75,9.58-.82,18a57.52,57.52,0,0,1-12.26,32.52,54.72,54.72,0,0,1-12,11l-1.36.92Z"/><path d="M201.86,161.29l24.2,8.66-.74,16.19a55.32,55.32,0,0,1-11.71,31.06,52.25,52.25,0,0,1-11.44,10.51,52.32,52.32,0,0,1-12-10.51,55.34,55.34,0,0,1-12.39-31.06l-.55-16.62,24.67-8.23m.06-5.29-1.64.55-24.67,8.23L172.07,166l.12,3.73.28,8.31.28,8.31v.23a60,60,0,0,0,13.55,33.88,57.3,57.3,0,0,0,13.19,11.52l2.77,1.76,2.72-1.84a57.25,57.25,0,0,0,12.53-11.52,60,60,0,0,0,12.81-33.88v-.09l.74-16.19.17-3.69-3.48-1.24-12.1-4.33-12.1-4.33-1.63-.58Z" style="fill:#fff"/><path d="M182.78,172.82c-.6,8.21-.89,28.61,12.81,44a46.74,46.74,0,0,0,6.47,6,46.72,46.72,0,0,0,6.34-6c13.51-15.43,13.1-35.74,12.44-44l-19-5.87Z" style="fill:#d75b2b"/><path d="M201.86,166.94l-19.08,5.88c-.65,7.57-1.27,27.51,12,43.06a47.46,47.46,0,0,0,7.3,6.92Z" style="fill:#e8ab8f"/><path d="M254.53,229.82a54.81,54.81,0,0,1-12.61-11,57.47,57.47,0,0,1-13-32.47l-.62-18.6,27.26-9.09,26.75,9.58-.82,18a57.52,57.52,0,0,1-12.26,32.52,54.72,54.72,0,0,1-12,11l-1.36.92Z"/><path d="M255.56,161.29l24.2,8.66L279,186.14a55.33,55.33,0,0,1-11.71,31.06,52.25,52.25,0,0,1-11.44,10.51,52.32,52.32,0,0,1-12-10.51,55.34,55.34,0,0,1-12.39-31.06l-.55-16.62,24.67-8.23m.06-5.29-1.64.55-24.67,8.23L225.76,166l.12,3.73.54,16.1,0,.52v.23A60,60,0,0,0,240,220.42a57.3,57.3,0,0,0,13.19,11.52l2.77,1.76,2.72-1.84a57.25,57.25,0,0,0,12.53-11.52A60,60,0,0,0,284,186.45v-.09l.24-5.31.49-10.87.17-3.69-3.48-1.24-12.1-4.33-12.1-4.33-1.63-.58Z" style="fill:#fff"/><path d="M236.48,172.82c-.6,8.21-.89,28.61,12.81,44a46.74,46.74,0,0,0,6.47,6,46.72,46.72,0,0,0,6.34-6c13.51-15.43,13.1-35.74,12.44-44l-19-5.87Z" style="fill:#d75b2b"/><path d="M255.56,166.94l-19.08,5.88c-.65,7.57-1.27,27.51,12,43.06a47.46,47.46,0,0,0,7.3,6.92Z" style="fill:#e8ab8f"/><path d="M121.24,199.11a54.79,54.79,0,0,1-12.62-11,57.46,57.46,0,0,1-13-32.47L95,137l27.26-9.09L149,137.51l-.82,18A57.52,57.52,0,0,1,136,188.06a54.72,54.72,0,0,1-12,11l-1.36.92Z"/><path d="M122.26,130.58l24.2,8.66-.74,16.19A55.32,55.32,0,0,1,134,186.49,52.25,52.25,0,0,1,122.58,197a52.32,52.32,0,0,1-12-10.51,55.34,55.34,0,0,1-12.39-31.06l-.55-16.62,24.67-8.23m.06-5.29-1.64.55-14.8,4.94L96,134.06l-3.54,1.18.12,3.73.28,8.31.28,8.31v.23a60,60,0,0,0,13.55,33.88,57.3,57.3,0,0,0,13.19,11.52l2.77,1.76,2.72-1.84a57.25,57.25,0,0,0,12.53-11.52,60,60,0,0,0,12.81-33.88v-.09l.74-16.19.17-3.69-3.48-1.24L136,130.2l-12.1-4.33-1.63-.58Z" style="fill:#fff"/><path d="M103.18,142.11c-.6,8.21-.89,28.61,12.81,44a46.74,46.74,0,0,0,6.47,6,46.72,46.72,0,0,0,6.34-6c13.51-15.43,13.1-35.74,12.44-44l-19-5.87Z" style="fill:#d75b2b"/><path d="M122.26,136.23l-19.08,5.88c-.65,7.57-1.27,27.51,12,43.06a47.46,47.46,0,0,0,7.3,6.92Z" style="fill:#e8ab8f"/><path d="M175.07,199.11a54.79,54.79,0,0,1-12.62-11,57.47,57.47,0,0,1-13-32.47l-.62-18.6,27.26-9.09,26.75,9.58-.82,18a57.52,57.52,0,0,1-12.26,32.52,54.74,54.74,0,0,1-12,11l-1.36.92Z"/><path d="M176.1,130.58l24.2,8.66-.74,16.19a55.32,55.32,0,0,1-11.71,31.06A52.25,52.25,0,0,1,176.41,197a52.32,52.32,0,0,1-12-10.51A55.34,55.34,0,0,1,152,155.42l-.55-16.62,24.67-8.23m.06-5.29-1.64.55-4.94,1.65-19.74,6.58-3.54,1.18.12,3.73.28,8.31.28,8.31v.23a60,60,0,0,0,13.55,33.88,57.3,57.3,0,0,0,13.19,11.52L176.5,203l2.72-1.84a57.25,57.25,0,0,0,12.53-11.52,60,60,0,0,0,12.81-33.88v-.09l.37-8.09.37-8.09.17-3.69L202,134.53l-24.2-8.66-1.63-.58Z" style="fill:#fff"/><path d="M157,142.11c-.6,8.21-.89,28.61,12.81,44a46.74,46.74,0,0,0,6.47,6,46.72,46.72,0,0,0,6.34-6c13.51-15.43,13.1-35.74,12.44-44l-19-5.87Z" style="fill:#d75b2b"/><path d="M176.1,136.23,157,142.11c-.65,7.57-1.27,27.51,12,43.06a47.46,47.46,0,0,0,7.3,6.92Z" style="fill:#e8ab8f"/><path d="M229,199.11a54.81,54.81,0,0,1-12.61-11,57.46,57.46,0,0,1-13-32.47l-.62-18.6,27.26-9.09,26.75,9.58-.82,18a57.52,57.52,0,0,1-12.26,32.52,54.72,54.72,0,0,1-12,11l-1.36.92Z"/><path d="M230.06,130.58l24.2,8.66-.74,16.19a55.32,55.32,0,0,1-11.71,31.06A52.25,52.25,0,0,1,230.37,197a52.32,52.32,0,0,1-12-10.51,55.34,55.34,0,0,1-12.39-31.06l-.55-16.62,24.67-8.23m.06-5.29-1.64.55-12.34,4.11-12.34,4.11-3.54,1.18.12,3.73.28,8.31.28,8.31v.23A60,60,0,0,0,214.5,189.7a57.3,57.3,0,0,0,13.19,11.52l2.77,1.76,2.72-1.84a57.25,57.25,0,0,0,12.53-11.52,60,60,0,0,0,12.81-33.88v-.09l.74-16.19.17-3.69-3.48-1.24-12.1-4.33-12.1-4.33-1.63-.58Z" style="fill:#fff"/><path d="M211,142.11c-.6,8.21-.89,28.61,12.81,44a46.74,46.74,0,0,0,6.47,6,46.72,46.72,0,0,0,6.34-6c13.51-15.43,13.1-35.74,12.44-44l-19-5.87Z" style="fill:#d75b2b"/><path d="M230.06,136.23,211,142.11c-.65,7.57-1.27,27.51,12,43.06a47.46,47.46,0,0,0,7.3,6.92Z" style="fill:#e8ab8f"/><path d="M116.4,128.37c0,6.6,1,26.77,15.92,43.17a58.79,58.79,0,0,0,15.54,12.08,57.4,57.4,0,0,0,15.61-12.79c14.07-16.52,14.23-36.23,14-42.46Z" style="fill:#fff"/><path d="M224,128.37c0,6.6,1,26.77,15.92,43.17a58.79,58.79,0,0,0,15.54,12.08,57.4,57.4,0,0,0,15.61-12.79c14.07-16.52,14.23-36.23,14-42.46Z" style="fill:#fff"/><path d="M62.5,128.37c0,6.6,1,26.77,15.92,43.17A58.79,58.79,0,0,0,94,183.62a57.4,57.4,0,0,0,15.61-12.79c14.07-16.52,14.23-36.23,14-42.46Z" style="fill:#fff"/><path d="M170.29,128.37c0,6.6,1,26.77,15.92,43.17a58.79,58.79,0,0,0,15.54,12.08,57.4,57.4,0,0,0,15.61-12.79c14.07-16.52,14.23-36.23,14-42.46Z" style="fill:#fff"/><path d="M88.95,167.81l-.12-.12Z" style="fill:#d75b2b"/><path d="M93.76,172.05a46.71,46.71,0,0,0,6.34-6c13.16-15,13.11-34.67,12.49-43.3h-19Z" style="fill:#d75b2b"/><path d="M90.91,169.67l-.51-.45Z" style="fill:#d75b2b"/><path d="M93.76,172.05c-.57-.44-1.14-.9-1.71-1.38Q92.9,171.39,93.76,172.05Z" style="fill:#d75b2b"/><path d="M86.46,165.14c.77.91,1.57,1.75,2.37,2.56q-.78-.79-1.54-1.65c-13.34-15-13.42-34.7-12.86-43.3h0C73.8,130.77,73.58,150,86.46,165.14Z" style="fill:#e8ab8f"/><path d="M90.4,169.22q-.73-.68-1.45-1.41C89.43,168.3,89.91,168.77,90.4,169.22Z" style="fill:#e8ab8f"/><path d="M92,170.68c-.38-.32-.76-.66-1.14-1C91.29,170,91.67,170.36,92,170.68Z" style="fill:#e8ab8f"/><path d="M74.43,122.75c-.56,8.6-.48,28.33,12.86,43.3q.76.85,1.54,1.65l.12.12q.72.73,1.45,1.41l.51.45c.38.34.76.68,1.14,1,.57.48,1.14.94,1.71,1.38l-.17-49.3Z" style="fill:url(#New_Gradient_Swatch_3)"/><path d="M144.74,169.67l-.51-.45Z" style="fill:#d75b2b"/><path d="M147.59,172.05a46.72,46.72,0,0,0,6.34-6c13.16-15,13.11-34.67,12.49-43.3h-19Z" style="fill:#d75b2b"/><path d="M142.78,167.81l-.12-.12Z" style="fill:#d75b2b"/><path d="M147.59,172.05c-.57-.44-1.14-.9-1.71-1.38Q146.73,171.39,147.59,172.05Z" style="fill:#d75b2b"/><path d="M140.29,165.14c.77.91,1.57,1.75,2.37,2.56q-.78-.79-1.54-1.65c-13.34-15-13.42-34.7-12.86-43.3h0C127.64,130.77,127.42,150,140.29,165.14Z" style="fill:#e8ab8f"/><path d="M144.23,169.22q-.73-.68-1.45-1.41C143.26,168.3,143.75,168.77,144.23,169.22Z" style="fill:#e8ab8f"/><path d="M145.88,170.68c-.38-.32-.76-.66-1.14-1C145.12,170,145.5,170.36,145.88,170.68Z" style="fill:#e8ab8f"/><path d="M128.27,122.75c-.56,8.6-.48,28.33,12.86,43.3q.76.85,1.54,1.65l.12.12q.72.73,1.45,1.41l.51.45c.38.34.76.68,1.14,1,.57.48,1.14.94,1.71,1.38l-.17-49.3Z" style="fill:url(#New_Gradient_Swatch_3-2)"/><path d="M198.7,169.67l-.51-.45Z" style="fill:#d75b2b"/><path d="M196.74,167.81l-.12-.12Z" style="fill:#d75b2b"/><path d="M201.55,172.05c-.57-.44-1.14-.9-1.71-1.38Q200.69,171.39,201.55,172.05Z" style="fill:#d75b2b"/><path d="M201.55,172.05a46.72,46.72,0,0,0,6.34-6c13.16-15,13.11-34.67,12.49-43.3h-19Z" style="fill:#d75b2b"/><path d="M199.84,170.68c-.38-.32-.76-.66-1.14-1C199.08,170,199.46,170.36,199.84,170.68Z" style="fill:#e8ab8f"/><path d="M198.19,169.22q-.73-.68-1.45-1.41C197.22,168.3,197.7,168.77,198.19,169.22Z" style="fill:#e8ab8f"/><path d="M194.25,165.14c.77.91,1.57,1.75,2.37,2.56q-.78-.79-1.54-1.65c-13.34-15-13.42-34.7-12.86-43.3h0C181.6,130.77,181.38,150,194.25,165.14Z" style="fill:#e8ab8f"/><path d="M182.22,122.75c-.56,8.6-.48,28.33,12.86,43.3q.76.85,1.54,1.65l.12.12q.72.73,1.45,1.41l.51.45c.38.34.76.68,1.14,1,.57.48,1.14.94,1.71,1.38l-.17-49.3Z" style="fill:url(#New_Gradient_Swatch_3-3)"/><path d="M255.25,172.05c-.57-.44-1.14-.9-1.71-1.38Q254.39,171.39,255.25,172.05Z" style="fill:#d75b2b"/><path d="M250.44,167.81l-.12-.12Z" style="fill:#d75b2b"/><path d="M255.25,172.05a46.71,46.71,0,0,0,6.34-6c13.16-15,13.11-34.67,12.49-43.3h-19Q255.16,147.4,255.25,172.05Z" style="fill:#d75b2b"/><path d="M252.4,169.67l-.51-.45Z" style="fill:#d75b2b"/><path d="M247.95,165.14c.77.91,1.57,1.75,2.37,2.56q-.78-.79-1.54-1.65c-13.34-15-13.42-34.7-12.86-43.3h0C235.29,130.77,235.07,150,247.95,165.14Z" style="fill:#e8ab8f"/><path d="M251.89,169.22q-.73-.68-1.45-1.41C250.92,168.3,251.4,168.77,251.89,169.22Z" style="fill:#e8ab8f"/><path d="M253.54,170.68c-.38-.32-.76-.66-1.14-1C252.78,170,253.16,170.36,253.54,170.68Z" style="fill:#e8ab8f"/><path d="M235.92,122.75c-.56,8.6-.48,28.33,12.86,43.3q.76.85,1.54,1.65l.12.12q.72.73,1.45,1.41l.51.45c.38.34.76.68,1.14,1,.57.48,1.14.94,1.71,1.38q-.09-24.65-.17-49.3Z" style="fill:url(#New_Gradient_Swatch_3-4)"/><path d="M280.61,123l-6.53-.29c.62,8.63.67,28.27-12.49,43.3a46.71,46.71,0,0,1-6.34,6q-.86-.66-1.71-1.38c-.38-.32-.76-.67-1.14-1l-.51-.45c-.49-.45-1-.92-1.45-1.41l-.12-.12c-.8-.81-1.6-1.65-2.37-2.56-12.88-15.11-12.65-34.36-12-42.39H220.38c.62,8.63.67,28.27-12.49,43.3a46.72,46.72,0,0,1-6.34,6q-.86-.66-1.71-1.38c-.38-.32-.76-.67-1.14-1l-.51-.45c-.49-.45-1-.92-1.45-1.41l-.12-.12c-.8-.81-1.6-1.65-2.37-2.56-12.88-15.11-12.65-34.36-12-42.39H166.43c.62,8.63.67,28.27-12.49,43.3a46.72,46.72,0,0,1-6.34,6q-.86-.66-1.71-1.38c-.38-.32-.76-.67-1.14-1l-.51-.45c-.49-.45-1-.92-1.45-1.41l-.12-.12c-.8-.81-1.6-1.65-2.37-2.56-12.88-15.11-12.65-34.36-12-42.39H112.59c.62,8.63.67,28.27-12.49,43.3a46.71,46.71,0,0,1-6.34,6q-.86-.66-1.71-1.38c-.38-.32-.76-.67-1.14-1l-.51-.45c-.49-.45-1-.92-1.45-1.41l-.12-.12c-.8-.81-1.6-1.65-2.37-2.56-12.88-15.11-12.65-34.36-12-42.39l-5,0q0,6.19,0,12.37c.45,5.92,2.33,19.34,12.43,31.36a52.35,52.35,0,0,0,12,10.51,52.25,52.25,0,0,0,11.44-10.51A55.32,55.32,0,0,0,117,135.39l.36-7.94,5.63,0,.26,7.91a55.34,55.34,0,0,0,12.39,31.06,52.32,52.32,0,0,0,12,10.51,52.25,52.25,0,0,0,11.44-10.51,55.33,55.33,0,0,0,11.71-31.06l.36-7.94,5.75,0,.26,7.91a55.34,55.34,0,0,0,12.39,31.06,52.32,52.32,0,0,0,12,10.51,52.25,52.25,0,0,0,11.44-10.51,55.33,55.33,0,0,0,11.71-31.06l.36-7.94,5.49,0,.26,7.91a55.34,55.34,0,0,0,12.39,31.06,52.32,52.32,0,0,0,12,10.51,58.64,58.64,0,0,0,11.44-10.51,61.34,61.34,0,0,0,13.41-31.67A63.48,63.48,0,0,0,280.61,123Z"/></g></g></svg>