<svg xmlns="http://www.w3.org/2000/svg" xmlns:xlink="http://www.w3.org/1999/xlink" viewBox="0 0 350 350"><defs><radialGradient id="radial-gradient" cx="175" cy="175" r="96" gradientTransform="translate(-87.5 350) rotate(-90) scale(1 1.5)" gradientUnits="userSpaceOnUse"><stop offset="0.64" stop-color="#4fa0e2"/><stop offset="1" stop-color="#3a6082" stop-opacity="0"/></radialGradient></defs><title>Doc</title><g id="Doc"><g id="Background"><g id="BG_Colors" data-name="BG Colors"><rect x="59.87" y="60" width="230.26" height="230" style="fill:#fff"/><rect x="69.18" y="69.39" width="211.64" height="211.4"/><polygon points="247.63 79 101.87 79 78.75 88.3 78.75 271 270.75 271 270.75 89.56 247.63 79" style="fill:#1b3652"/><rect x="79" y="79" width="192" height="192" style="opacity:0.6000000000000001;fill:url(#radial-gradient)"/></g><g id="Splater"><path d="M73.25,77.75c-2.41,1.48,1.63,4.54.5,13.75C70.87,115.09,74,138,74,138s2.78,1.52,3.5,1.75c3.47,1.12,9.2-11.64,16.5-20,3.38-4.5,5.5-2.87,10.44-7.95,7.93-8.14,11.12-6.85,15.06-10.05,6.76-5.49,15.69-16.47,13-21.25-3.24-5.78-19.67.83-42.25-.75C83.3,79.26,78,74.87,73.25,77.75Z"/><path d="M70.75,213.5c-.38-1.69-2.75-1.65-2.93-3-.14-1.11.48-2.51,2.68-4.22,4.31-3.34,8.33-.68,18.25-1.25,13.23-.77,17.79-7.81,22.75-4.5,3.62,2.42,5.1,9.07,3,13.13-2.79,5.38-10.94,4.37-13.75,11.13-.8,1.92-.1,1.9-1,4.25-1.5,3.91-4,5.46-10.25,10.75-.55.46-8.22,7-7.75,7.63.29.4,3.42-1.92,4.25-1.12,1,1-2.27,6.09-2,6.25s3.34-7.4,9.63-9c1.76-.45,1.79.08,3.38-.37,4.28-1.23,4.69-5.26,9.5-11.37,4-5.05,5.12-4.13,8.5-9.12,2.9-4.28,3.83-7.6,4.75-7.37s1.55,4.47.75,8.25c-.46,2.15-1.22,3.52-.5,4.38,1,1.17,3.47-.1,4,.75s-2.35,3.27-5,7.38c-1.42,2.2-4.44,6.87-3,8.88s5.34-.38,9.36,2.51c1.06.76,1.78,1.28,2.07,2.18,1.7,5.32-15.21,14.4-14.08,16.44.37.66,2.52.34,3.4.13,1.68-.4,1.95-1.15,3.88-1.75,1-.32,2.9-.9,3.63-.12s-.28,1.87-.37,4.88c-.05,1.64-.07,2.7.63,3.63a3.56,3.56,0,0,0,4,1.25c1.17-.6.84-2,1.63-4.37,1.36-4.12,4.61-6.77,8.13-9.62.78-.63,1.52-1.14,1.52-1.14a46.83,46.83,0,0,0,6-3.86c2.24-1.71,3.79-3.13,4.53-3.82.9-.84,1.65-3.42,3.6-5.68,4.87-5.66,6.71-7.78,7.63-7.5,1.1.33-.12,1.46-2.5,5.5a26.26,26.26,0,0,1-6.87,8.25c-6.19,5.05-9.24,6.62-10.25,7.5-2.74,2.38-6.42,5.84-7.87,8.88-2.16,4.52.27,7.11-1.25,8.88-3.7,4.32-14.92-5.92-30.5-5.25-12.78.55-18.51,8-24,4.25-2.87-2-3.45-6.09-4.5-14.25-.93-7.28-.9-13.74-.5-28.5.27-10,.49-15.91-1.5-16.5a1.58,1.58,0,0,1-.71-.47C70.38,215.51,71,214.54,70.75,213.5Z"/><path d="M140.89,235.79a1.65,1.65,0,0,0-2.12,1,1.88,1.88,0,0,0,.29,1.67,1.71,1.71,0,0,0,2-.29A1.62,1.62,0,0,0,140.89,235.79Z" style="fill:#060809"/><path d="M67.25,166.5C66.43,160.11,79.12,155.42,93,136c3-4.2,7.25-11.5,20-20.5,5.35-3.78,6.65-8.11,7.75-12.75,1.91-8-1.89-12.4.75-15.5,3.87-4.54,18.13-2.38,21,4.25.75,1.74,1.69,6-14.25,25.75-9.51,11.77-12.42,13.43-18.75,21-19.28,23.05-19.48,40.13-29,40.5C74.57,179,68,172.6,67.25,166.5Z"/><path d="M253,89.33c-2.75,2.7,2.06,8-1.33,14.67-1.76,3.45-4.88,5.62-7.33,7.33-5.35,3.72-9.4,4-10,7-.31,1.54.36,3.34,1.33,3.67,1.17.4,2.79-1.32,5-3.67s1.84-2.54,3.15-3.58c2.44-1.94,3.65-1.16,5.75-3.06,1.2-1.09,1-1.43,2.69-3.81.24-.33,4.58-6.25,6.09-5.53.61.29.58,1.64.53,4.34a23.15,23.15,0,0,0,0,4.91c.22,1.3.37,2.26,1,2.47s1.41-.47,4-3.37c3.4-3.76,3.89-4.59,5.25-4.91,2-.46,3,.82,4,.16,1.58-1,1.14-4.9.31-7.44C270.83,90.28,256.73,85.66,253,89.33Z" style="fill:#060809"/><path d="M220.31,117.5c-.66,2.46,2.84,5,5.81,7.19,1.3,1,1.95,1.23,2.38,1,.82-.45.47-2.66.13-3.87-.91-3.23-3.88-6.91-6.31-6.31A2.92,2.92,0,0,0,220.31,117.5Z" style="fill:#060809"/><path d="M139.5,242.5a3.43,3.43,0,0,1,3.31-.75c.86.22,1.94.84,1.88,1.38s-.84.72-2.37,1.31c-2.38.91-2.81,1.31-3.25,1S138.66,243.44,139.5,242.5Z" style="fill:#060809"/><path d="M196.63,273.13c.13-2.46,1.73-3.18,4.63-7.25,1.67-2.34,2.11-3.48,3.88-4.62,1-.67,2.64-1.42,3-1s-.43,1.42-1.37,2.88c-3.23,5-3.48,6.34-6.37,9.75-2,2.31-2.69,2.68-3.12,2.5C196.55,275.09,196.61,273.46,196.63,273.13Z" style="fill:#060809"/><path d="M133.44,249.25c.53.3.1,2.47-1.06,3.94-1.35,1.69-3.68,2.43-4.06,1.94C127.64,254.25,132.46,248.7,133.44,249.25Z"/><path d="M154,265.83c1.05.44,1.37,5.14-1.58,7.25a5.93,5.93,0,0,1-5,.67C151.66,266.82,153.31,265.55,154,265.83Z"/><path d="M276.29,214.57c-3.35-2.26-7.61-.73-13.29,1.3-3.48,1.25-5.08,2.48-6.19,3.77a11.89,11.89,0,0,0-2.26,4.21c-1.67,4.76-5.91,6.74-13.72,12.9-8.65,6.83-12.93,11.89-13.67,11.25s2.74-5.28,2.33-5.58-5.65,6-8.82,9.87c-11.14,13.7-16.69,20.6-15.51,22.63.63,1.09,2.55,2.17,8.83,1.21l65.58,1L280,221.5C279.33,216.77,276.92,215,276.29,214.57Zm-6,32.76c-.55.31-1.37.8-2.33,1.46-5.3,3.61-7.89,7.49-10.83,11a70.19,70.19,0,0,1-9.17,9.17h-3.2a23,23,0,0,0,6.62-6.41c1.19-1.79,1.84-3.37,3.88-4.75,1.53-1,2.29-.9,3.85-2a12.56,12.56,0,0,0,3.57-4.3,20.72,20.72,0,0,1,7.63-6.92Z"/></g></g><g id="Symbol"><rect x="50.25" y="141.25" width="249.5" height="73.5" style="fill:#fff;stroke:#000;stroke-miterlimit:10;stroke-width:6px"/><path d="M175,125.75h32.25l19.8-6.45L227,104.5l59.17-14.83L198,55V98.76l-11.36,7.49H163.25L152,98.67V55L61.33,90.83,123,103.5l.22,16.13,19.53,6.12Z" style="fill:#fff;stroke:#000;stroke-miterlimit:10;stroke-width:6px"/><polygon points="175.01 303.8 182.88 289.18 191.01 235.43 183.53 150.21 183.44 92.94 175 92.94 174.98 92.94 166.54 92.94 166.47 150.21 158.99 235.43 167.12 289.18 174.99 303.8 175.01 303.8" style="fill:#fff;stroke:#000;stroke-miterlimit:10;stroke-width:6px"/><circle cx="175.01" cy="92.17" r="10.35" style="fill:#fff;stroke:#000;stroke-miterlimit:10;stroke-width:6px"/><circle cx="175" cy="179" r="62.83" style="fill:#fff;stroke:#000;stroke-miterlimit:10;stroke-width:6px"/><circle cx="175" cy="179" r="53.04"/><path d="M186.67,216.78l-.05-28H212.5V169.19H186l-.1-27.94-21.82-.06,0,28H137.5V188.8h25.89v28Z" style="fill:#fff"/></g></g></svg>