<svg xmlns="http://www.w3.org/2000/svg" viewBox="0 0 350 350"><title>Dokkaebi</title><g id="Dokkaebi"><g id="Background"><rect x="60" y="60" width="230" height="230" style="fill:#fff"/><rect x="70" y="70.49" width="210" height="210"/><rect x="80" y="80.08" width="190" height="190" style="fill:#c5cfd1"/><g id="SmallWhiteSpikes"><polygon points="90.5 249.33 65.83 275.83 65.83 262.33 90.5 249.33" style="fill:#fff"/><path d="M97.83,256.83,78.17,285H89.83Z" style="fill:#fff"/><path d="M244.83,261.67,256.5,284.5H270Z" style="fill:#fff"/><polygon points="260.33 252.83 284.67 273.17 284.67 258.17 260.33 252.83" style="fill:#fff"/></g></g><g id="Head"><path d="M81,207.25a31,31,0,0,0-.37,6.5c1.27,26.06,35.67,42.49,42,45.38L133.25,285,153,267c7.1.42,14.61.67,22.5.67s15.4-.25,22.5-.67l20.75,18,9.88-26.5A62.75,62.75,0,0,0,270,207.25Z" style="fill:#fff"/><path d="M26.25,139.5c-3.17-22.72,18.49-45,19.75-46.25,5.57-5.59,11.38-11.43,21.25-14.75,17.65-5.95,33.56,1.1,38,3.25A106,106,0,0,1,143.75,60c39-12.11,72.72,3.12,81.5,7.25A118.72,118.72,0,0,1,251,83.75c8.47-3.55,21.65-7.18,35.75-3.25,33,9.21,49.71,54,41.5,67.75-.65,1.09-2,3.31-4.25,3.75-6.43,1.24-10.33-13.7-22.5-19-3.89-1.7-9.94-3-19-.5,1.74,6.31,13.44,51.72-15,90.5-29.47,40.17-78.26,40.82-91.62,41s-58.87.78-89.62-35.5c-35.45-41.82-20.31-95.85-19-100.25-5.7-1.1-9.53-.12-12,1-5.24,2.38-6.05,6.2-14.5,13.75-7.06,6.31-9.15,6-10,5.75C27.39,147.69,26.55,141.64,26.25,139.5Z"/><path d="M78.75,87.75a39.62,39.62,0,0,1,11,1c13.58,3.63,19.14,14.79,25.5,12.5a7.63,7.63,0,0,0,4-4c2-4.63-1.62-9.74-2-10.25a110.43,110.43,0,0,1,121.5,3,8.37,8.37,0,0,0,5.5,15c1.78-1.85,18-18.24,38.75-14.5,14.26,2.57,22.66,13.25,27.83,19.83a67.22,67.22,0,0,1,13.67,33.42,4.42,4.42,0,0,1-2.75,2c-4.58.7-6.44-10.23-15.75-15.5-6-3.4-12.36-2.73-16.75-2.25a37.29,37.29,0,0,0-20,8.75,81.41,81.41,0,0,1,7,33s-.09,27.75-18,51c-32.82,42.6-120.85,48.52-160.5,7-8.65-9.06-23-28.7-24.5-55.75A87,87,0,0,1,80,133.5c-.9-1.21-7.15-9.32-17.37-9.62-.7,0-9.31-.16-15,5.38a71.14,71.14,0,0,0-7.37,8.12,10.37,10.37,0,0,1-4,3.63c-1.25.59-3.74,1.41-4.5.75C27.24,137.85,50.69,89.14,78.75,87.75Z" style="fill:#fff"/><g id="RightEarStripes"><path d="M263.5,89.67c1.56.51,13.06,4.52,17.67,16.67,5.61,14.79-4.41,27.48-4.83,28a12.06,12.06,0,0,0,2.17-.83c7.12-3.56,8.63-13.32,9-15.67,1.57-10.09-5.05-21.69-16.5-30Z"/><path d="M293.33,92.5c9.34,8.31,13.36,19.53,10.06,28.36a19.21,19.21,0,0,1-6,8.17l4.79,1.31a28.87,28.87,0,0,0,6.67-10.5,29.41,29.41,0,0,0,.69-17.38Z"/><path d="M318.5,119a19.77,19.77,0,0,1-1.33,14.17,18.31,18.31,0,0,1-4.67,5.67c1,1.75,2.09,3.36,2.65,3.16a.37.37,0,0,0,.18-.16c1.25-2,7.95-6.46,8.17-12.83C323.67,124.05,319.86,120.24,318.5,119Z"/></g><g id="LeftEarStripes"><path d="M32.83,124.33a12,12,0,0,0,3,9.33,11.86,11.86,0,0,0,8,3.67L47,133.5c-1.49.06-4.86,0-7-2.33s-1.9-5.43-1.67-9.5a30.49,30.49,0,0,1,1.33-7.33Z"/><path d="M63,91.17c-9.7,8.28-13.56,19.54-10,27.67a16.81,16.81,0,0,0,6.5,7.33l-5.17,1.5a24.21,24.21,0,0,1-4.5-5.67c-4.36-7.62-3.23-15.48-2.67-18.33Z"/><path d="M82.83,85a39.2,39.2,0,0,0-8.17,9.17c-1.91,3-6.13,9.58-6,18.67C68.82,123.63,75,131,77,133.17c-.76-1.44-8-15.66-.67-30.17a32.82,32.82,0,0,1,17-15.33Z"/></g><g id="HeadStripes"><path d="M121.13,108.56A395.08,395.08,0,0,1,152.33,83q9.27-6.83,18.18-12.63a110.06,110.06,0,0,0-27.68,4.92,85.14,85.14,0,0,0-21.7,33.26Z" style="fill:#c5cfd1"/><path d="M150.33,122.17a216.78,216.78,0,0,1,32.79-51.68,109.15,109.15,0,0,1,26,5q-18.88,13.83-38.47,29.68Q160.18,113.69,150.33,122.17Z" style="fill:#c5cfd1"/><path d="M180.5,137.67a182.73,182.73,0,0,1,39.8-58,109.47,109.47,0,0,1,10.34,5.19c3,1.7,5.67,3.42,8.11,5.11a8.75,8.75,0,0,0-3.21,5.79q-7.08,5.1-14.21,10.38Q200.13,121.88,180.5,137.67Z" style="fill:#c5cfd1"/></g><g id="Mouth"><path d="M121.5,234.83a24.08,24.08,0,0,0,4.33,3.5,26,26,0,0,0,10.5,3.67c18.84,2.72,60.34,4.27,76.83,0a75,75,0,0,0,11.33-4c2.12-1,3.78-1.9,4.83-2.5a15.8,15.8,0,0,1-4.77,9.27L217,271.17l-21.17-20a151.66,151.66,0,0,1-41.67-.17l-20,20.33-7.11-25.85a23.24,23.24,0,0,1-5.56-10.65Z" style="fill:#020202"/><path d="M132.83,246.79l14.05,4.53L135.7,265.37Z" style="fill:#fcfcfc"/><polygon points="203.58 250.06 217.41 245.45 215.25 264.03 203.58 250.06" style="fill:#fcfcfc"/></g><g id="Eyes"><g id="RightEye"><path d="M270.33,165c-1.47.29-3.71.68-6.46,1-14.26,1.64-23.19-1.08-29.5-1.62-13.38-1.15-33.1,5.95-39.12,20.63s1.78,35.86,19,43.65c19.8,9,43.09-4.06,46-15.65,1.18-4.67-1.16-8.24,1.5-15.5,2.34-6.38,5.56-7.47,8-13C271.48,180.58,272.84,174.41,270.33,165Z" style="fill:#c5cfd1"/><path d="M209.68,186.58a28,28,0,0,0,3.15,21.09c7,11.41,19.76,12.71,21.17,12.83,2.27.07,11.56.1,18.89-6.75,7.7-7.2,10.14-19.09,6.11-30.08Z" style="fill:#fff"/><path d="M268.8,181c-.78-.73-1.75-.64-3.8-.68-1,0-2.53-.07-4.42-.23a3.67,3.67,0,0,0-6.58.67l-39.67,2.75a4.3,4.3,0,0,0-3.17-2.08,4.38,4.38,0,0,0-2.59.84,7.13,7.13,0,0,0-1,.93c-1.87,1.66-4.84-.1-5.81,1.19a2.13,2.13,0,0,0,.39,2.59c.39.31.8.25,2.48.22,1,0,1.78,0,2.31,0a29,29,0,0,0,2,19.15c4.78,9.75,14.92,15.45,24.92,15.83A28.84,28.84,0,0,0,252.76,216c8.62-7,12.34-18.94,9.86-30.83.78-.14,1.86-.34,3.13-.62,3.09-.68,3.63-1,3.81-1.5A2.17,2.17,0,0,0,268.8,181Zm-12.64,24.67a24.39,24.39,0,0,1-21.27,14.17c-1.17,0-12-.15-18.73-9.25-7.76-10.42-2.81-22.56-2.58-23.08l42.08-1.58C256.33,187.32,260.32,196.17,256.17,205.67Z"/></g><g id="LeftEye"><path d="M80.59,165c1.37.22,3.42.52,5.91.75,16.81,1.56,23.22-2.7,33.5-2.5,11.08.21,24.63,5.57,32.18,16.51,6.36,9.22,6.37,19.38,6.07,24-1.11,2.74-8.55,20.21-26.82,25.55-16.5,4.82-37-1.67-40.43-12-2-5.92,2.55-10-.5-18.58-2.08-5.83-5.2-6.48-8.08-12.08C80.23,182.34,78.36,175.59,80.59,165Z" style="fill:#c5cfd1"/><path d="M96.83,184.17l45.5,1c.34.7,5.71,12.41-1.33,23.5a24.28,24.28,0,0,1-21.75,11.17c-10.61-.18-19.92-6.26-23.58-15.33C91.71,194.69,96.09,185.65,96.83,184.17Z" style="fill:#fff"/><path d="M150.17,185.5c0-.78-1.52-1.89-3.92-2.08a5.25,5.25,0,0,0-1-1.83,4.14,4.14,0,0,0-2.84-1.67,3.9,3.9,0,0,0-3.44,2.62l-40.55-2A3.28,3.28,0,0,0,96,179.06a3.21,3.21,0,0,0-2.31.81c-.61-.12-7.25-1.39-9.85-.54a2.26,2.26,0,0,0-1.75,3c.43,1.67,4,2.81,8.79,3-.58,2.17-3.17,12.73,2.88,23.21.47.81,9,14.92,25.33,14.92.7,0,16.85-.29,24.75-14,5.81-10.08,3.07-20.29,2.5-22.25C148.56,187.17,150.13,186.26,150.17,185.5Zm-12.73,23.38c-.81,1.11-7.17,9.49-17.75,9.69-12,.22-22.26-10.19-23.31-20.94a21.23,21.23,0,0,1,2.13-11.19l42.38.44C141.25,188.05,144.57,199.15,137.44,208.88Z"/></g><g id="Glasses"><path d="M289.75,184.25c-2.21-25.64-30.41-41.65-51-40.5-4.19.23-38.1,2.61-50,26.4a37.65,37.65,0,0,0-3.53,11.35H165a35.45,35.45,0,0,0-3.25-12c-11.41-24-46.88-25.64-50-25.75C85.19,143,63.63,162.14,61.25,184c-2.76,25.38,20.6,52,52,50.75,2.57.26,24.67,2.16,40.25-14.75,11.26-12.22,12.14-26.71,12.25-30.75H184.5c.2,3.18,1.63,21.35,17.25,34.5,17.45,14.69,38.27,11,41,10.5C271.77,231.6,291.75,207.43,289.75,184.25Zm-131.58,8.42c-.63,19.41-17.49,30.38-20.5,32.33a49.22,49.22,0,0,1-51.17,1c-11.89-7-27.18-23.11-23.67-43.17,3.38-19.29,21.72-28.33,23.83-29.33,2.14-.82,31.63-11.53,54,6.09C143.71,162,158.77,173.9,158.17,192.67Zm123.17,16.5c-2.16,3.51-9.68,15.37-24.67,20.5-8.36,2.86-15.37,2.36-20.5,2-7.35-.52-17.74-1.26-27.1-8.28-10.62-8-18.51-23-15.73-38.22,2.46-13.51,12.23-21.45,14.83-23.5,22.1-17.42,62.88-12.79,75.83,8.83a34,34,0,0,1,4.5,17.67A51.13,51.13,0,0,1,281.33,209.17Z" style="fill:#000505"/><path d="M76.33,171a26.16,26.16,0,0,0-3.85,3.84c-9.37,11.53-6,27.79-4.86,32.41a35.8,35.8,0,0,1,10.55-48.41Z" style="fill:#fff"/><path d="M281.33,209.5a35.8,35.8,0,0,0-2.46-45.87l-8.54-5.79A91.45,91.45,0,0,1,279,173a59.63,59.63,0,0,1,4.42,12.25C284.33,189.5,285.42,198.11,281.33,209.5Z" style="fill:#fff"/></g></g><polygon id="Nose" points="161.83 235.04 175 220.51 187.17 235.04 161.83 235.04" style="fill:#020202"/></g></g></svg>