<svg xmlns="http://www.w3.org/2000/svg" xmlns:xlink="http://www.w3.org/1999/xlink" viewBox="0 0 350 350"><defs><radialGradient id="radial-gradient" cx="175" cy="148.72" r="83.89" gradientTransform="translate(-10.9 323.72) rotate(-90) scale(1 1.25)" gradientUnits="userSpaceOnUse"><stop offset="0.15" stop-color="#cc4d3d"/><stop offset="1" stop-color="#fff" stop-opacity="0"/></radialGradient></defs><title>Echo</title><g id="Echo"><g id="Background"><g id="Background-2" data-name="Background"><polygon points="69.5 69.5 280.5 69.5 280.5 205.09 290.04 211.11 290.04 59.96 59.96 59.96 59.96 211.8 69.5 205.73 69.5 69.5" style="fill:#fff"/><polygon points="69.5 69.5 69.5 205.73 79 199.69 79 79 271 79 271 199.08 280.5 205.09 280.5 69.5 69.5 69.5"/><path d="M233.88,175.62,271,199.08V79H79V199.69l37.86-24.08a61.39,61.39,0,0,0,117,0Z" style="fill:#9a273f"/><line x1="175.18" y1="138.53" x2="79" y2="199.69" style="fill:#9a273f"/><path d="M271,199.08V79H79V199.69l37.86-24.07c9.83,27.74,36.76,45.16,64.4,42.56,23.8-2.23,44.51-19,52.62-42.56Z" style="fill:url(#radial-gradient)"/></g></g><g id="Yokai"><g id="BlastWaves"><g id="BottomStripe"><path d="M69.48,247.35,51.29,265.54c7.14,7.7,51.59,54.07,123.83,54.08S291.88,273.24,299,265.54l-18.21-18.19c-6,6.58-43.46,46.35-104.75,46.74C113.7,294.49,75.37,253.81,69.48,247.35Z" style="fill:#050708"/><path d="M192.71,310.19c.48.12,1.2.28,2.07.41,3.65.53,5.4-.2,11-.94,4.43-.58,5.11-.36,8-1.09a34,34,0,0,0,4.63-1.55c-2.83.57-5.13.93-6.66,1.14-4.5.62-5.61.48-9.75,1.22-1.39.25-2.17.43-3.66.59A37.94,37.94,0,0,1,192.71,310.19Z" style="fill:#fff"/><path d="M280.87,262.59c-9.26,7.46-12.21,9.74-12.28,9.66s2.19-2,5.06-5.31a11.09,11.09,0,0,0,1.13-1.41c-.1-.09-3.29,3.12-6.32,6.22a46.81,46.81,0,0,1-6.86,5.5,20.34,20.34,0,0,0-3,2.13c-.71.61-1.18,1.1-1.3,1.22-2.73,2.77-11.23,6.41-11.23,6.41-5.46,2.34-3.81,2.25-10.54,5.29C229.6,295,223,298,215.78,299.34c-2,.38-3.86.61-7,1.46a54.61,54.61,0,0,0-6.51,1.67,6,6,0,0,1-3.39.59c-.85-.14-1.08-.43-2-.66a8.06,8.06,0,0,0-3.5.06c-1.81.3-3.65.37-5.47.63-.37.05-9.22,1.27-14.56.5-.25,0-2.2-.32-2.41.22-.12.3.39.64.3.87-.22.58-3.56-.28-5.27-.69a52.25,52.25,0,0,0-7.25-1.46c-4.49-.42-6.37.72-9.81-.76-.34-.15-2-.85-1.87-1.41.16-.92,4.89-.62,4.94-1.09s-5.81-1.46-6.84-1.62a95.73,95.73,0,0,1-19.62-5.47c2.42,1.78,4,3.51,3.6,4.15s-2.69.26-5.62-.92a131.34,131.34,0,0,1-53.9-31.71l-1.33,1.17q5.51,4.4,5,5.32-.13.22-.61.24c.63.63,1.6,1.58,2.88,2.63,3,2.44,3.82,2.43,6.06,4.25,2.93,2.38,2.49,3.25,5.75,6a45.55,45.55,0,0,0,4.5,3.13c4.57,3,6.86,4.45,9.13,5.13a8.87,8.87,0,0,1,2.27,1,9.52,9.52,0,0,1,2.17,1.89c1.19,1.28,2.58,1.82,5.25,2.81,10.29,3.83,15.44,5.75,17.69,6.38,3.71,1,6.2,1.58,10.77,3.17,3.17,1.11,2.58,1.06,4.42,1.64,4.4,1.39,8,1.72,15.13,2.31a38.4,38.4,0,0,0,4.9.24c0-.19-5.17-.84-5.15-1.05s3.21.13,8.58.42c5.67.3,8.54.31,8.54.52s-3.12.47-4.54.58c-2.39.19-2.94.13-4.5.3a30.73,30.73,0,0,0-4.77.93c3.75.2,9.45.41,16.43.23,6.07-.15,13.7-.6,13.69-1,0-.15-1.34-.16-6.23-.49a16,16,0,0,0-2.44,0c-.29,0-.59.07-.92.13a12.78,12.78,0,0,0-1.26.29c-1.33.37-6.11.35-6.13,0s2.62-.76,5-.86,3,.25,5.79.08c1.87-.12,3.95-.43,3.94-.64s-1.65-.29-1.73-.29a14.31,14.31,0,0,1-3.19-.15s-1.06-.29-1-.47.91-.28,4.95,0c.9,0,1.18,0,1.19-.1s-.93-.26-.92-.35,2.57.22,5.62,0a30.23,30.23,0,0,0,4.38-.59c1.87-.39,2.25-.69,4-1.12a31.53,31.53,0,0,1,5-.73c4.3-.4,5.76-.28,7.71-.46,1.76-.16,3.42-.53,9.43-2.92,6.9-2.75,14.87-6.32,14.75-6.6,0-.07-.6.17-7.75,2.65-4.1,1.42-5.52,1.9-7.19,2.44s-1.94.61-3.29,1.06c-3.91,1.31-4,1.52-5.54,1.94a17.86,17.86,0,0,1-6.61.65,21.37,21.37,0,0,0,2.21-.51,13.37,13.37,0,0,0,2.4-1.07,23.31,23.31,0,0,1,5.39-1.91,38.17,38.17,0,0,1,4.17-.67c2.83-.49,4.5-1.4,7.4-2.73,5.95-2.73,5.35-1.85,13-5.25,3.76-1.68,5.64-2.51,7.53-3.59s4.52-2.75,9.62-6c.84-.54,5.15-3.3,5.59-2.75.12.15-.12.49,0,.63.32.3,2-1,2.71-1.56,4.29-3.34,6.14-4.57,6-4.84s-1.64.55-1.75.34.75-1,1.83-1.5c1.48-.74,2.24-.42,3-1.22.38-.41.31-.63.69-1.44a10.3,10.3,0,0,1,2.06-2.75,23.82,23.82,0,0,1,3.28-3Zm-90.2,45.49a2.57,2.57,0,0,1-1.83,0c-.22,0-.27-.08-.27-.09a6.18,6.18,0,0,0,1.5-.23,3.1,3.1,0,0,0,.41-.19,4.61,4.61,0,0,1,3.27,0C193.75,307.74,192,307.59,190.68,308.08Zm74.58-27.85c-.38.41-.54.34-1.85,1.16-.36.23-.68.44-.73.38s.11-.25.19-.35a4.34,4.34,0,0,1,1-1c1.28-.79,1.84-1.55,2-1.43S265.69,279.77,265.26,280.24Z" style="fill:#fff"/></g><g id="MiddleStripe"><path d="M90.61,226.19,72.27,244.52C78,250.81,115.4,290.47,176.17,290c59.37-.46,95.71-38.89,101.58-45.31l-18.44-18.44c-4.7,5.25-34.29,37.17-83,37.75C126,264.6,95.14,231.25,90.61,226.19Z" style="fill:#050708"/><path d="M92.9,253.88c-.71-.45,0-.37,0-.73s-.3-.48-.54-.68c-.48-.41-1-.74-1.47-1.16-.31-.29-.87-1.2-1.31-1.31s-.52,0-.63.46-.26.06.19.63a5.19,5.19,0,0,0,.73.62A27.43,27.43,0,0,0,92.9,253.88Z" style="fill:#9a273f"/><path d="M268.46,244.58l-7.8-7.46a1.2,1.2,0,0,1-.74,1.77c.48-2.39-2.74.64-3.24,1a15.47,15.47,0,0,0-3.44,3.48c-.94,1.38-2.3,2-3.65,2.9-1.79,1.16-3.52,2.42-5.24,3.67,1.65-2.09,3.81-3,5.87-4.5,2.37-1.77,4-4.21,5.77-6.5a238.57,238.57,0,0,1-21.06,15.68c1.39,1-4.53,4.2-4.67,4,.16.24,2.83-2.73,2.91-2.85a43.36,43.36,0,0,0-4.09,2.46,23.66,23.66,0,0,1-3.05,2.48c-.27.16-4,2-4.19,1.46,0,0,2.35-1.41,2.4-1.44-2.42,1.08-5,1.85-7.46,2.81.33-.11,2.35-.79,2.37-.16s-1.53.44-2,.54-4.64,2-4.7,1.88,2.16-1.39,2.34-1.47c-2.64,1.07-5.23,2.28-7.94,3.16a13.21,13.21,0,0,1-2.86.68c-.94.09-1.83-.21-2.76-.16-1.36.07-2.21,1-3.46,1.32a6.29,6.29,0,0,1-3,.08c-.81-.19-1.44-.7-2.29-.32s-1.34,1.42-2.41,1.58a5.69,5.69,0,0,1-2.08-.36,6.42,6.42,0,0,0-3.66.21,6.94,6.94,0,0,1-3.69.7c-.7-.12-2-.82-2.67-.36-.11.08,0,.42-.19.56s-.4.1-.63.14a18.82,18.82,0,0,1-2.26,0q-2.33,0-4.65,0-4.24-.08-8.47-.4a85.28,85.28,0,0,1-15.64-2.27c-1.71-.46-3.3-1.25-5-1.71-1.93-.52-3.93-.51-5.86-1-4.24-1.07-8.26-3.23-12.08-5.32s-7.39-4.22-10.94-6.54c-4-2.61-7.86-5.4-11.65-8.28q-4.13-3.14-8.12-6.45l-.84-.7-.85-.72-.41.37a13.39,13.39,0,0,0-2,1.84l-4.46,4.05a20.64,20.64,0,0,0,2.82,2,40.61,40.61,0,0,1,2.92,3c1.74,1.57,3.91,2.54,5.64,4.16a12.39,12.39,0,0,0,2.45,2.19c.39.2.83.25,1.23.43a3.43,3.43,0,0,1,1.55,1.5c.84,1.21,2,1.1,3.31,1.54a10.39,10.39,0,0,1,3.28,2.4A31.59,31.59,0,0,0,114,265.7c2.94,1.45,5.92,2.83,8.94,4.11q4.82,2,9.8,3.66a56.74,56.74,0,0,0,7.8,2.26,18.32,18.32,0,0,0,4.53-.2c1.24-.08,2.06,1.17,3.2,1,2.43-.38-2.85-1.8-2.86-1.74-.09.38,29.65,5.26,29.69,4.74,0,.25-13.08-.64-13.54-.59-1.43.18-2.61,1-4.06,1a23.27,23.27,0,0,1-5-.69,49.34,49.34,0,0,0-10.77-1.54l13.67,2.63A127,127,0,0,1,135,277.08a128.26,128.26,0,0,0,25.93,5.69,126.87,126.87,0,0,0,14.61.79c.56,0,1,.16,1.31-.39.12-.24.2-.47,0-.65-.43-.41-1.4.44-1.86-.12-.8-1,1.4-2.3,2-2.64a29.51,29.51,0,0,1,9.87-3.28c-.82.39-2.35,1.23-.79,1.53a13.44,13.44,0,0,0,3.37,0c2.23-.15,4.46-.41,6.66-.77,3.73-.6,7.34-1.62,11-2.56,4-1,8.11-1.64,12.17-2.41,3.44-.66,6.39-2.65,9.59-4,1.3-.53,3-.68,4-1.72a10.72,10.72,0,0,1,1-1.22,7.43,7.43,0,0,1,1.89-.87c1.69-.65,3.64-1,4.77-2.5s2.36-1.4,4-1.9c3.41-1,6.67-3.28,9.52-5.37,1.38-1,3.26-1.86,4.37-3.16a3.76,3.76,0,0,1,2.07-1.55,6.55,6.55,0,0,0,2.55-1.54,13.69,13.69,0,0,0,2-2.18c.26-.36.67-1.35,1.06-1.57s.17-.27.29.08c.2.58-.45,1.92-.61,2.45Q267.1,245.94,268.46,244.58Zm-45.61,25.15a8.62,8.62,0,0,0-1.25.68,2.4,2.4,0,0,1,2.47-1.12A8.61,8.61,0,0,0,222.85,269.73Zm17.34-16.65a3.86,3.86,0,0,1-2.08.73,12.31,12.31,0,0,0,3.4-2.44A3.85,3.85,0,0,1,240.19,253.08Z" style="fill:#9a273f"/><path d="M243.92,263.44c-.36-.83-2,.68-2.21,1a5.92,5.92,0,0,1-2.67,1.94,47.86,47.86,0,0,0-5.28,2.21c-2,1.08-4,2.13-6.06,3-4.29,1.84-8.75,3.29-13.19,4.73-5.57,1.81-11.18,3.53-16.79,5.21a130.4,130.4,0,0,0,26-7.57q5.51-2.24,10.81-5C235.44,268.54,244.25,264.2,243.92,263.44Z" style="fill:#9a273f"/><path d="M120.06,270.42c-.05-.46-1.64-.22-1.8-.18C118.43,270.32,120.15,271.18,120.06,270.42Z" style="fill:#9a273f"/><path d="M193.15,281.63c-.37-1-3.46-.54-4.21-.45a48.79,48.79,0,0,0-5.34,1.28,6.08,6.08,0,0,1-2.15.24c-.78-.11-1.2-.79-2-.87-2.18-.23,1.12,1.21.93,1.62q3.44-.14,6.87-.47,1.55-.15,3.09-.33C190.9,282.58,193.5,282.6,193.15,281.63Z" style="fill:#9a273f"/><path d="M259.4,251.52a76.41,76.41,0,0,1-14.55,9.14c-2.53,1.27-5.4,2.31-7.64,4-.23.18-1.53,1.1-1.29,1.44s1.25-.24,1.44-.31a12.74,12.74,0,0,0,3.37-1.76,8.14,8.14,0,0,1,2.93-1.9c.94-.24,1.87-.06,2.79-.22,1.1-.18,2.41-1.42,3.37-2.06-.87-1,1.3-1.76,1.89-2.07,1.32-.7,2.45-1.72,3.72-2.52a67.76,67.76,0,0,0,6.44-4.64A3.75,3.75,0,0,0,259.4,251.52Z" style="fill:#9a273f"/></g><g id="TopStripe"><path d="M93.88,223.19c4.26,4.81,34.37,37.68,83.38,36.81,46.59-.82,74.81-31.5,79.34-36.59L238.18,205c-3.32,3.85-25.29,28.48-61.93,29-38.2.55-61.38-25.55-64.5-29.19Z" style="fill:#050708"/><path d="M226.54,238.21a12.76,12.76,0,0,0-3.17.42c-2.7.71-3.53,1.93-6.88,3.1-1.13.39-3.13,1-3.24.74s4.1-2.57,5.09-3.09c4.47-2.33,11.43-6.88,22.45-16.57l-2.5-1.77a91.63,91.63,0,0,1-15.62,12.52s-4,2.51-14.75,7.25a13.33,13.33,0,0,1-4.14,1.21c-.62.07-.88,0-1.71.14a19.88,19.88,0,0,0-3.45.75c-.46.13-2.17.38-5.53,1-4.5.85-5,1-6.34,1-2.08-.06-2.34-.49-5.25-.56-1.48,0-2.82,0-3.66.09-2,.12-3.53.32-3.75.34a69.05,69.05,0,0,1-19-1A72.46,72.46,0,0,1,131,234c-2.16-1.29-4.43-2.8-5.91-3.78-5.46-3.62-9.79-6.85-12.73-9.12l-1.42,2.08q9.19,6.82,14,10.38c3.89,2.86,7.49,6.17,11.62,8.67,1.18.71,3.43,2,3.24,2.48-.27.67-5.4-1.06-5.53-.69s3.3,2.13,7.6,3.11c2.54.57,2.67.24,5.13.85,3.07.77,3.95,1.57,6.71,2.49a34.29,34.29,0,0,0,7.06,1.34,104.32,104.32,0,0,0,14.34.89l.4-.16c1-.37,1.29-.35,1.67-.72s.33-.8.7-1.28a3,3,0,0,1,2.19-.88c2.71-.25,5.36-.93,8.06-1.21,1.91-.2,3.28-.4,5.78-.78,3.56-.54,6.71-1.12,6.78-.83s-1,.33-2.12,1.4c-.67.65-.66,1-1.19,1.34a3.74,3.74,0,0,1-2.69.41c-1.79-.21-.86.3-7.06.69a17.87,17.87,0,0,0-5.78.91l-.94.38-1.59.66A99.18,99.18,0,0,0,206.46,248c14.31-4.64,25.19-12.13,25.13-12.25S230.76,236.08,226.54,238.21Z" style="fill:#9a273f"/></g></g><g id="DroneBody"><path d="M82.75,90.56A11.29,11.29,0,0,1,84,86.63c1.39-2.7,2.82-2.94,5.4-3.88,2.14-.78,3.89-3.59,5.55-5.47q3.91-4.42,8-8.7c7.56-8,15.72-18,25.54-23.21,6.55-3.49,13.11-1.63,18.71,2.86,2.43,1.95,4.1,4.84,6.47,6.73,1.28,1,.15,1,1.67.83a6.9,6.9,0,0,0,1.44-.85,19.25,19.25,0,0,1,3.17-1.41c4.68-1.55,10-1.22,14.87-1.38s10.18-.93,14.75.64c1.91.66,4.2,2.95,5.65,2.5s3-2.65,4.08-3.59L204,47.58c4.3-3.79,8.55-7,14.71-5.63,3.66.84,6,3.18,8.57,5.7C234.72,55,242.57,62.06,250,69.55c8,8.07,16.19,19.12,9.26,30.39a36.4,36.4,0,0,1-6.36,7.23c-1,.92-4.4,3.1-4.55,4.18-.12.89.74,1.86,1,2.7,1.12,4,.74,8.69.67,12.84-.08,4.53-.13,9.06-.2,13.6,0,3-1.49,6.76-1.14,9.54s6.28,7.13,8.5,9.34a38.33,38.33,0,0,0-2.06-4.12c-1-1.81-2-3.14-1.81-3.31s1,.56,1.25.81a29.67,29.67,0,0,1,5.69,7.3l1.48.48.7,3.44a33.59,33.59,0,0,1,.82,8.49c-.08,2.52-.07,6.52-2,9.92-2,3.57-5.44,6.06-10.23,8.5-3.63,1.84-9.21,6.91-14,13.7-3.73,5.26-3.23,6.91-6.35,9.61-4.24,3.67-9.62,4.46-13.59,4.53a1.6,1.6,0,0,0,.25.78c.54.8,1.8.81,2.64,1.26a7.47,7.47,0,0,1,3.33,3.62c-7.42,1.56-14.3-.45-20.37-4.8-2.09-1.5-5-5-7.2-4.82-.81,0-9,2.6-9.05,1.06,0,.48,8.31-2.26,9-2.66-1-1-2.31-3.09-3.56-3.72-1-.52-2.66.06-3.69-.67-2.29-1.62,1-1.68.37-3,.11.23-8.16.18-9.06.1s-5.63-.73-6,.16a1.1,1.1,0,0,0-.09.9c.18.36.69.49,1.64.7.73.17.92.14.93.22,0,.23-1.52.91-3.12.64-.3-.05-1.27-.21-1.37-.68s.44-.73.37-1.35a.8.8,0,0,0-.14-.36c-.46-.67-3.41.43-4.1.63,3.78,4.67-5.53,3.57-7.63,3.31-1.91-.23-2.34-.55-3.67.33a14.56,14.56,0,0,0-1.83,2.08,36.43,36.43,0,0,1-5.89,5c-2.91,2-9.54,6.48-16.93,5.09-3.11-.59-5.14-2-9.19-4.87a53.83,53.83,0,0,1-10.08-9.25L98.41,197.59a51,51,0,0,1-12-15.76c-2.47-5.09-5.15-10.18-3.53-15.92a27.78,27.78,0,0,1,4.23-8.42c1.92-2.7,5.16-5.07,6.72-7.92.86-1.58.3-2.47-.1-4.37a39,39,0,0,1-.73-4.55,8.49,8.49,0,0,1,.37-4.49c.24-.51,2-3.13,2.77-2.49.34.29-.36,2.91,1.28,1.88.83-.53,1-3.47,1.17-4.19.3-1.45,1.47-4.11,1.16-5.53s-2.16-2.23-2.53-3.61a6.77,6.77,0,0,1,.34-3.08c.46-2.37.06-2.87-1.4-4.72-.37-.47-4.86-6.76-3.54-7.38.46-.22,1,1.41,1.46,1.17s-5.54-9-6.06-10.13a51.25,51.25,0,0,1-2-5.29c-.27-.82-.51-3-1.16-3.57-.19-.18-.64-.63-1.09-.52C83,88.85,82.77,90.57,82.75,90.56Z" style="fill:#050708"/><path d="M114.25,151.56a7.9,7.9,0,0,1-3.94-3.5,7.27,7.27,0,0,1-.69-3.5l.06-27.62a8.65,8.65,0,0,1,1.88-4.37,8.47,8.47,0,0,1,2.44-2L99.77,96.29a8.87,8.87,0,0,1-2.21-6,8.74,8.74,0,0,1,1.81-5.06l29.25-29.56a8.37,8.37,0,0,1,11.06-.44l14.92,15.08a7.68,7.68,0,0,1,6.33-4.52h28.13a7.57,7.57,0,0,1,6.56,4.52,113,113,0,0,0,9.63-9.39q1.92-2.11,3.63-4.19a9.31,9.31,0,0,1,7.56-3.37,8.93,8.93,0,0,1,5.88,3l27.31,27.69a8.94,8.94,0,0,1,2.88,5.31,9.19,9.19,0,0,1-2.19,7.13l-14.27,14a7.24,7.24,0,0,1,4.45,6.39l.13,27.27a7.81,7.81,0,0,1-1.44,4.85,7.7,7.7,0,0,1-3.14,2.52l15.08,14.92a8.8,8.8,0,0,1,1.63,7.25,8.38,8.38,0,0,1-3.06,4.56L220.91,207a8.92,8.92,0,0,1-11.74-1.54L195.58,192a6.21,6.21,0,0,1-2,3,6.64,6.64,0,0,1-3.49,1.37c-3,.39-14.09.49-29,.13a11,11,0,0,1-4.44-2.31,10.84,10.84,0,0,1-2-2.23l-14.54,14.48a9.66,9.66,0,0,1-6.06,1.89,10,10,0,0,1-7.12-3.7L99.63,177a8.69,8.69,0,0,1,.69-11.56Z" style="fill:#fff"/><rect x="160" y="115.93" width="30" height="30" style="fill:#050708"/><path d="M134.32,99.86c-3.89-.22-9.46-3.66-9.38-9.38.07-5.37,5.07-9.18,9.81-9.1,4.53.07,8.73,3.69,9.19,7.63a6.93,6.93,0,0,1-.39,3.15l8.79,9.95a21.18,21.18,0,1,0-6.32,6.35l-9.76-8.73A7.49,7.49,0,0,1,134.32,99.86Z" style="fill:#050708"/><path d="M206.36,90.48c.22-3.89,3.66-9.46,9.38-9.38,5.37.07,9.18,5.07,9.1,9.81-.07,4.53-3.69,8.73-7.62,9.19a6.93,6.93,0,0,1-3.15-.39l-9.95,8.79a21.18,21.18,0,1,0-6.35-6.32l8.73-9.76A7.49,7.49,0,0,1,206.36,90.48Z" style="fill:#050708"/><path d="M216,162.33c3.89.22,9.46,3.66,9.38,9.38-.07,5.37-5.07,9.18-9.81,9.1-4.53-.07-8.73-3.69-9.19-7.62a6.93,6.93,0,0,1,.39-3.15L198,160.09a21.18,21.18,0,1,0,6.32-6.35l9.76,8.73A7.49,7.49,0,0,1,216,162.33Z" style="fill:#050708"/><path d="M144,171.71c-.22,3.89-3.66,9.46-9.38,9.38-5.37-.07-9.18-5.07-9.1-9.81.07-4.53,3.69-8.73,7.63-9.19a6.93,6.93,0,0,1,3.15.39l9.95-8.79A21.18,21.18,0,1,0,152.6,160l-8.73,9.76A7.49,7.49,0,0,1,144,171.71Z" style="fill:#050708"/><path d="M240.92,209.79l1.92-2.71a5.37,5.37,0,0,0,1.54.38c3.56.31,6.19-3.19,6.37-3.43,1.34-1.84,1-2.92,1.84-5.29a16.34,16.34,0,0,1,5.38-7.19,18,18,0,0,0-6.93,2.88,23.51,23.51,0,0,0-4.75,4.83c-1.64,2-4.19,5-7.54,8.83Z" style="fill:#050708"/></g></g></g></svg>