<svg xmlns="http://www.w3.org/2000/svg" viewBox="0 0 350 350"><title>Ela</title><g id="Ela"><g id="Background"><rect x="60" y="60" width="230" height="230" style="fill:#fff"/><rect x="70" y="70.49" width="210" height="210"/><rect x="80" y="80.08" width="190" height="190" style="fill:#409392"/><g id="Stripes"><polygon points="80 258.92 88.83 270.08 80 270.08 80 258.92" style="fill:#9fb9a6"/><polygon points="80 171.67 110.5 130.25 104.75 115.5 80 125.25 80 171.67" style="fill:#9fb9a6"/><path d="M137.75,270.08A206.15,206.15,0,0,1,129,249.5,212,212,0,0,1,116.5,177l45,9a98.39,98.39,0,0,0,38,84.08Z" style="fill:#9fb9a6"/><path d="M270,248.75c-6.71-2.76-13.65-5.91-20.75-9.5A296.15,296.15,0,0,1,194,203l34.75-27.51A55.77,55.77,0,0,0,270,201.75Z" style="fill:#9fb9a6"/><polygon points="270 156.75 246.75 147.5 250 117 270 121.5 270 156.75" style="fill:#9fb9a6"/><polygon points="267.25 80.08 254.25 93 241 93 251.25 80.08 267.25 80.08" style="fill:#9fb9a6"/></g><g id="Spikes"><polygon points="75.5 282.25 106.75 239 93.75 286.25 75.5 282.25" style="fill:#fff"/><polygon points="66.75 254 93.25 212.12 65 237.75 65 254 66.75 254" style="fill:#fff"/><polygon points="65 190.25 84.42 168.75 65 178 65 190.25" style="fill:#fff"/><polygon points="234.25 260 246.75 286.25 258.38 286.25 234.25 260" style="fill:#fff"/><path d="M251.75,229.25,284,273.13s.5-15.29,0-14.21S251.75,229.25,251.75,229.25Z" style="fill:#fff"/><path d="M261,172.75,284.22,194V182.75Z" style="fill:#fff"/><polygon points="280 90.75 256.5 93 261 97.75 280 93 280 90.75" style="fill:#fff"/></g></g><g id="Head"><path d="M254.15,79.76l8.13-22.59-17.65,9.89A94.72,94.72,0,0,0,207.5,41.44V29L196,37.93a91.13,91.13,0,0,0-21.27-2.43,93.42,93.42,0,0,0-71.25,34,26.61,26.61,0,0,1-5.75-1.21,27.1,27.1,0,0,1-9.5-5.5A33.76,33.76,0,0,1,94,73.5a33.42,33.42,0,0,1,1.45,7.24,90.83,90.83,0,0,0-8.76,19.05,89.62,89.62,0,0,0-4.18,21L45,126.25l37.62,9.69a90.05,90.05,0,0,0,9.92,33.53L80,182.25l17.42-4.52a94.44,94.44,0,0,0,20.85,22.42l-30,40.35L126.76,206a92.23,92.23,0,0,0,110.68-10.42L266,219l-23.15-28.7a93.56,93.56,0,0,0,14.73-20.55L270,172l-9.48-8.37a89.68,89.68,0,0,0-6.37-83.86Z"/><path d="M247.17,87.83C236,64.18,208.73,41.91,174.5,42.25,142.11,42.57,118.59,63,107.15,81c-4,6.21-13.37,23-12,44.52.56,8.64,1,20.36,10,27.84,7,5.79,15.52,6.15,19.49,6,20.16.38,32.62.35,38.37,0h0s5.66-.37,11.5-.33c23.4.13,43.83,1.33,43.83,1.33,4,.24,11.27.7,19.17-2.83a28.92,28.92,0,0,0,12.67-10.17c3.58-5.4,4.3-11.18,4.25-18.6C254.35,117.5,254.26,102.88,247.17,87.83Z" style="fill:#fff"/><path d="M99.33,158.67a6.49,6.49,0,0,0-3.47,1.62l8.3,10.55-1-11.5A6.5,6.5,0,0,0,99.33,158.67Z" style="fill:#fff"/><path d="M110.5,172.75l2.67,14.75,11.5,7.83a92.68,92.68,0,0,0-14.17-22.58Z" style="fill:#fff"/><path d="M129.17,164.72c-3-.07-6.16-.24-9.5-.55s-6.3-.7-9.17-1.17c2.4,3.69,5.11,7.54,8.17,11.5a178.1,178.1,0,0,0,12.17,14.17,88.75,88.75,0,0,1-1.67-23.95Z" style="fill:#fff"/><path d="M135.67,165c.83,6.35,1.88,13,3.2,20,1.35,7.12,2.86,13.87,4.46,20.23l13.34,4.8L138,165Z" style="fill:#fff"/><polygon points="158 194 162.67 165 146.17 165 158 194" style="fill:#fff"/><polygon points="166.33 212.12 181.5 211.33 169.33 171.67 166.33 212.12" style="fill:#fff"/><path d="M202.33,165l-28.42-1.17c1.15,4.81,2.5,9.82,4.08,15,2.53,8.28,5.31,15.9,8.17,22.83A129.62,129.62,0,0,0,202.33,165Z" style="fill:#fff"/><path d="M208.33,172.83a144.36,144.36,0,0,1-20.21,38.33,47.6,47.6,0,0,0,25.54-9.5,119.81,119.81,0,0,0-2.5-18.17C210.33,179.66,209.36,176.1,208.33,172.83Z" style="fill:#fff"/><path d="M228.67,164.72,214,165.5q1,2.73,1.83,5.67A130.42,130.42,0,0,1,219.5,187a36.91,36.91,0,0,0,7.5-13.17A36.43,36.43,0,0,0,228.67,164.72Z" style="fill:#fff"/><path d="M234.73,162.74a139.21,139.21,0,0,1-11.89,35.09l18-18.16-3.62-18Z" style="fill:#fff"/><polygon points="243.17 165 245.33 158.61 241.5 160.82 243.17 165" style="fill:#fff"/><path d="M204.75,51.75a26.51,26.51,0,0,0-6.22,1.05c-6.06,1.79-11.22,5.74-21.78,19.2-6,7.65-9,11.48-9.75,13.25-6.56,15.67,2,32.68,6.25,41,3.55,7,6.53,12.91,13.25,18,11,8.35,23.51,8,32.62,7.79,9.72-.25,18.2-.47,24.25-6.92,4.93-5.25,5.8-12,6-15.46a27.59,27.59,0,0,1-14.83,5.08c-11.65.35-19.54-7.47-21.83-9.75C200.8,113.24,201,96.15,201.13,89.5c.13-9.44.19-14.16,2.63-20,2.12-5.09,5.73-10.38,3.58-14.83A7.63,7.63,0,0,0,204.75,51.75Z" style="fill:#cfe4e4"/><path id="Eyebrow" d="M143,81.33c1.05,1.45,12.61,16.82,32.88,16.54,19.6-.27,30.63-14.93,31.79-16.54a66.18,66.18,0,0,1-64.67,0Z" style="fill:#090909"/><g id="RightEye"><path d="M240,117c.09-.21,2-5-1-9a9.23,9.23,0,0,0-10.33-3l-1.42-12-4.42,13.75-33.08,12.5a22.59,22.59,0,0,0,12.58,17.63l-1.44,15.38,5.35-12.75,15.08.75,4.42,5.5-.25-7.25a30.83,30.83,0,0,0,15.29-17l17.59,5v-8Zm-22.21,10.75a9.74,9.74,0,0,1-10.12-9.25h19A9.71,9.71,0,0,1,217.79,127.75Z" style="fill:#090909"/><path d="M217.79,127.75a9.71,9.71,0,0,0,8.88-9.25h-19A9.74,9.74,0,0,0,217.79,127.75Z" style="fill:#fff"/></g><g id="LeftEye"><path d="M132,108.13l-5.87-16.75.88,15a15.13,15.13,0,0,0-11.08-1.95,13.36,13.36,0,0,0-4.17,1.82l-11.38-12a4.93,4.93,0,0,0-5.12,2.5,5,5,0,0,0,2.16,6.45l11.46,6.8a24.92,24.92,0,0,0,1.63,15.88l-5.62,7.25,8.88-4.12A34.71,34.71,0,0,0,134,139.75l1.67,7.38,1.83-6.87c2-.29,11.37-1.84,17.38-10.12a24.63,24.63,0,0,0,4.38-10.87Zm.88,19.63a9.74,9.74,0,0,1-10.12-9.25h19A9.71,9.71,0,0,1,132.88,127.75Z" style="fill:#090909"/><path d="M132.88,127.75a9.71,9.71,0,0,0,8.88-9.25h-19A9.74,9.74,0,0,0,132.88,127.75Z" style="fill:#fff"/></g><path d="M136.38,263.63a13.38,13.38,0,0,0-11.62,3,7.41,7.41,0,0,0,.3.81c1.37,3.17,4.63,4.58,8.83,6.19s8.08,2.93,11.5,4l7-3.75Z" style="fill:#487f7e"/><polygon points="145.38 277.63 152.38 273.88 187.12 284.26 145.38 277.63" style="fill:#fff"/><path d="M213.63,286.88c1.89-.85,4.27-2.15,4.13-3.37-.24-2-7.26-2.75-9.68-3-18.74-2-58.94-8-58.95-10.12,0-1.33,16.26-2.3,43.52-6.12,7.58-1.07,37.32-5.43,41-14.92a3.91,3.91,0,0,0,.26-2.43c-1.29-4.88-14.56-5.51-22.59-5.57A186.32,186.32,0,0,1,169.67,236q69.53-5.93,71.33-20.33.78-6.21-11-14l-93.56,9.5L156.67,221a265.48,265.48,0,0,1-27,2.29c-8.62.28-15.24.07-17,3.71-1.46,3,1,6.93,1.67,8,5.67,9.14,18.25,10.39,44,14,6.9,1,18.64,2.65,33.67,5-56.31,4.49-70.89,9.2-71,13.13-.16,5.7,30.14,13.18,51.67,15.88,5.74.72,10.68,1.07,14.45,1.26-21.79-3.64-58.48-10.37-59.87-15.26a3.83,3.83,0,0,1,.12-2.75c1.34-2.42,6.33-1.92,7.74-1.75q-3.94.82-4.11,2.13-.66,5.1,56.12,17.64c7.69.09,9.34.63,9.38,1.11.21,2.11-29.76,7.92-45.12,10.63-10.15,1.79-14.8,2.38-14.87,3.75-.15,2.87,20,6.29,38.83,8.92q-4.62-1.87-9.67-3.67-4.62-1.64-9-3a157.49,157.49,0,0,0,57-15.12Zm10.38-67a14.92,14.92,0,0,0,11.42-7.8,6.93,6.93,0,0,1,.67,4.55c-1.17,4.85-8.84,6.41-28,10.49-20.73,4.42-23.79,5.16-32,6.43l-.77.12c-11.79,1.81-13.73,2-16,2-1.27,0-6.23-.11-6.33-.83C152.83,233.6,166.61,230,224,219.92Zm-64,26.83c-11.39-1.65-43.95-6.35-44.37-14.75a5.35,5.35,0,0,1,2-3.87,7.87,7.87,0,0,0,1,4.5c1.85,3,5.62,3.73,7,4,13.13,2.57,25.9,7.58,39.25,8.38,22.11,1.31,43.87,3.91,43.85,4.48S186.66,250.6,160,246.75Zm12.88,15.5c5.54-.75,6.36-.74,12-1.5C190,260.06,197.67,259,207,257c4.68-1,10.92-2.47,18.25-4.62,4.91-.82,5.84-.78,5.88-.62.18.77-20.64,7.28-43.25,10.75a238.54,238.54,0,0,1-33.46,2.75C158.55,264.46,164.94,263.33,172.88,262.25Z"/><path d="M128.88,227.25a56.61,56.61,0,0,0,37.46,9c-6-1-12.45-2.32-19.15-3.94C140.69,230.74,134.57,229,128.88,227.25Z" style="fill:#fff"/><path d="M190,256.25a56.15,56.15,0,0,0,22.24-3.79A55.38,55.38,0,0,0,224,246.13c-4.5,1-9.22,2.12-14.12,3.5C202.67,251.66,196,253.92,190,256.25Z" style="fill:#fff"/></g></g></svg>