<svg xmlns="http://www.w3.org/2000/svg" viewBox="0 0 350 350"><title>Finka</title><g id="Finka"><g id="Background"><polygon points="79.68 270.03 270.59 270.03 270.59 111.9 223.77 79.12 79.68 79.12 79.68 270.03" style="fill:#fcae1d"/><polygon points="60.09 128.9 88.72 118.3 69.88 174.58 139.97 128.31 89.45 219.71 131.09 185.21 88.97 266.7 129.11 221.42 195.93 270.03 270.59 189.08 228.23 273.8 236.56 273.8 265.19 253.73 253.93 289.61 60.09 289.61 60.09 128.9" style="fill:#c98e2b"/><polygon points="270.59 270.03 79.68 270.03 79.68 79.12 223.77 79.12 211.89 70.8 72.31 70.8 72.31 278.36 279.87 278.36 279.87 118.4 270.59 111.9 270.59 270.03" style="fill:#231f20"/><polygon points="279.87 118.4 279.87 278.36 72.31 278.36 72.31 70.8 211.89 70.8 195.81 59.54 60.09 59.54 60.09 289.61 290.17 289.61 290.17 125.61 279.87 118.4" style="fill:#fff"/></g><g id="Fist"><path d="M116.46,235,92.07,271.52h101.1l8.8-12.24,61.43-91V135.59l8-10.67-7.74-16.55-14.1-1.84,5.49-7.1V95.78L239.58,82.53l-9.64-2.09L224,64.29l-20.38-2.91L195.5,49.6l-14,.06-3-5.87-21.46-8.87-8.16,22.93L115.48,94l6,55.72,19.34,41.45Z" style="fill:#231f20"/><polygon points="250.95 152.12 259.15 141.23 259.15 141.23 250.95 152.12" style="fill:#fff"/><polygon points="259.15 141.23 259.15 165.54 201.96 259.28 263.4 168.31 263.4 135.59 259.15 141.23" style="fill:#fff"/><polygon points="263.4 135.59 271.43 124.93 263.4 135.59 263.4 135.59" style="fill:#fff"/><path d="M259.15,141.23l12.28-16.3-7.74-16.55-14.1-1.84,5.49-7.1V95.78L239.58,82.53l-9.64-2.09L224,64.29l-20.38-2.91L195.5,49.6l-14,.06-3-5.87-20-8.29-1.47-.58-8.16,22.93L115.48,94l6,55.72,19.34,41.45L116.46,235l28.72-40.14,13.62,6.53-15.23-9.7-17.52-41-6.12-55.32,32.28-35.74,6.84-19.33,9.83,3.38,6.48,3.23,1.84,3.79-2.65.61L150.64,91l8.24,14.77,11.26,1.63a66.3,66.3,0,0,1,9.22,18.11c4.74,14.62,3.89,30.1,3.43,38.51-.24,4.35-.62,7.61-.24,7.67.7.12,3.8-11.24,4.79-22.93a97.86,97.86,0,0,0-1-24.15l10.77,3.75,7.42,15.34,18.48,1.92,5.1,10.4,4.53-3.05L228,143.22l22-33.41,10.69,2.77,4.49,12.34-14.24,27.19,8.21-10.89ZM162.88,102.8l-6.69-12.24,21-35,15.5-1.63,8,10.36L174.14,102.8Zm23,16.32L177,106.47l28.56-39.16,15.09.45,5.22,14-28.27,40.39Zm38.55,20.07H208.16l-7.06-12.89,28.27-41.36,12,2.28,9.06,10.2Z" style="fill:#fff"/></g><g id="FloatingPieces"><polygon points="269.6 92.89 259.26 50.3 235.82 62.18 241.76 94.3 269.6 92.89" style="fill:#fff"/><path d="M261.2,58.32l-24,11.17,1.43,7.76,24.85-9.66Z" style="fill:#231f20"/><polygon points="238.61 77.25 263.45 67.59 269.6 92.89 241.76 94.3 238.61 77.25" style="fill:#fcae1d"/><polygon points="279.87 107.03 290.17 107.94 290.17 88.6 279.87 91.41 279.87 107.03" style="fill:#fff"/><polygon points="270.59 93.94 270.59 106.22 279.87 107.03 279.87 91.41 270.59 93.94" style="fill:#231f20"/><polygon points="270.59 93.94 255.07 98.18 255.07 99.44 253.92 100.94 260.18 105.31 270.59 106.22 270.59 93.94" style="fill:#fcae1d"/><line x1="270.59" y1="106.22" x2="260.18" y2="105.31" style="fill:#fcae1d"/><polygon points="227.09 45.77 237.74 51.6 229.46 67.18 227.09 45.77" style="fill:#050708"/><polyline points="287.79 42.34 273.68 70.8 294.4 54.25 287.79 42.34" style="fill:#050708"/><path d="M289.61,150.93l7.89,5.32L215.93,256.61Z" style="fill:#050708"/></g><g id="LightingBolt"><g id="LightingBolt-2" data-name="LightingBolt"><polygon points="251.93 141.23 170.72 283.96 128.04 289.61 163.7 229.5 110.5 299.42 79.26 299.42 180.02 199.31 167.04 247.61 251.93 141.23" style="fill:#fff"/><polygon points="110.5 299.42 118.52 305.13 134.72 278.36 163.7 229.5 110.5 299.42" style="fill:#231f20"/></g><polygon points="60.57 258.26 92.7 215.73 60.57 248.96 60.57 258.26" style="fill:#fff"/><polygon points="127.15 198.46 67.18 287.63 60.57 278.36 127.15 198.46" style="fill:#fff"/></g></g></svg>