<svg xmlns="http://www.w3.org/2000/svg" xmlns:xlink="http://www.w3.org/1999/xlink" viewBox="0 0 350 350"><defs><radialGradient id="radial-gradient" cx="175.13" cy="175" r="96" gradientTransform="translate(0 -35) scale(1 1.2)" gradientUnits="userSpaceOnUse"><stop offset="0" stop-color="#fd6566"/><stop offset="0.12" stop-color="#fb6465" stop-opacity="0.98"/><stop offset="0.25" stop-color="#f56061" stop-opacity="0.93"/><stop offset="0.37" stop-color="#ec595a" stop-opacity="0.85"/><stop offset="0.5" stop-color="#df5051" stop-opacity="0.74"/><stop offset="0.63" stop-color="#cd4545" stop-opacity="0.59"/><stop offset="0.76" stop-color="#b83737" stop-opacity="0.41"/><stop offset="0.89" stop-color="#a02626" stop-opacity="0.2"/><stop offset="1" stop-color="#891716" stop-opacity="0"/></radialGradient></defs><title>Glaz</title><g id="Glaz"><g id="Background"><rect x="59.87" y="60" width="230.26" height="230" style="fill:#fff"/><rect x="78.88" y="79" width="192.25" height="192" style="fill:#891716"/><rect x="79.13" y="79" width="192" height="192" style="fill:url(#radial-gradient)"/><path d="M69.18,69.39v211.4H280.82V69.39ZM271,271H79V79H271Z"/><g id="Splashes"><path d="M77,83.5s2.63-5.75,7.5-7-5.75-3.25-5.75-3.25L75.5,83.5Z" style="stroke:#000;stroke-miterlimit:10"/><path d="M78.25,86.88s4.63-8.5,10.38-11.25,7.25-2.37,7.25-2.37l.63,3.25S84.32,84,76.75,96.75s-4.75,4.5-4.75,4.5Z" style="stroke:#000;stroke-miterlimit:10"/><path d="M75.92,100.33A55,55,0,0,1,86.67,89.92c.65-.45,2.59-1.64,2.83-1.35s-1.47,1.92-6.33,7.2c-3.91,4.25-5.89,6.36-6.42,7.24C73.75,108.08,75.92,100.33,75.92,100.33Z" style="stroke:#000;stroke-miterlimit:10"/><path d="M169.75,265.25c-36.22-4.94-63.61-32.61-73.12-54.25A100,100,0,0,1,89,179a86.43,86.43,0,0,1,2-22.26,82.16,82.16,0,0,1,15.25-33.37c7.94-10.19,18.45-18.32,17.13-20.12-.92-1.27-8.26-.24-13.26,2.63-.81.47-2.68,1.55-3.89.94-1.54-.78-1.48-3.44-1.48-3.44,2.13-9.5,30.13-28.5,30.13-28.5-9.67-1.83-16.54-.26-20.5,1.12-10.11,3.52-16.58,11.22-29.09,26.49-4.29,5.24-7.61,9.72-9.79,12.76-.09,1.4-.11,3,.34,3.13s1.12-1.23,1.33-1.63c2.25-4.42,8.17-10.5,8.17-10.5.86-.95,1.86-2,2.06-1.84s-1.9,3.87-2.15,4.26a70.79,70.79,0,0,1-8,10.33l-4.17,3.42,1.67,122.66s-6.33,3.42,2.08,13.75a62.36,62.36,0,0,0,18.25,15.25l19.62-.18c-.69-.26-1.5-.58-2.45-1-12-5-23.5-19.67-24.42-21.84s-3.75-13.16,2.17-.91,23.83,21.16,23.83,21.16a35.89,35.89,0,0,1,3.57,2.55l84.6-.76s28.12,11.13,46.5,1,25-22.37,25-22.37l.88-50.25C254.78,245.38,211.29,270.92,169.75,265.25Zm102.63-46.63c.67.86-.73,3.32-2.48,4.83s-3.71,2.15-4,1.8c-.11-.16,0-.72,1.06-1.55a13.93,13.93,0,0,0,3.94-5.38C271.82,218.2,272.2,218.39,272.38,218.62Z"/><path d="M258.08,75.58s10.75,2.08,17.5,15.08-1.2,1.42-1.2,1.42S266,78.92,258.08,76.75,258.08,75.58,258.08,75.58Z" style="stroke:#000;stroke-miterlimit:10"/><path d="M237.94,74.12c11.45,9.29,13.75,11.72,13.5,12.07s-3.51-1.25-6.25-3.25c-4.75-3.48-6.09-6.76-10.57-8.55-.56-.23-1.67-.63-1.63-.81C233.08,73.21,237.94,74.12,237.94,74.12Z" style="stroke:#000;stroke-miterlimit:10"/><path d="M228.08,74.5s19.17,12.75,25.58,20.17c.81.93,2.91,3.63,2.56,4s-3.24-2.07-7.17-5.27c-11.91-9.69-17.86-14.53-24.06-18-2.16-1.21-4.89-2.62-4.74-3S224.54,73.27,228.08,74.5Z" style="stroke:#000;stroke-miterlimit:10"/></g></g><g id="Crosshair"><g id="Circles"><circle cx="176.67" cy="175" r="83" style="fill:none;stroke:#fff;stroke-miterlimit:10;stroke-width:7px"/><circle cx="176.67" cy="175" r="49.8" style="fill:#fff"/><circle cx="176.67" cy="175" r="25"/></g><g id="Crosshair-2" data-name="Crosshair"><rect x="173.67" y="113.5" width="6" height="123"/><rect x="113.83" y="172.25" width="125.67" height="5.5"/><rect x="149.92" y="73.45" width="53.5" height="9.85" transform="translate(98.29 255.04) rotate(-90)"/><rect x="149.86" y="75.63" width="53.5" height="5.5" transform="translate(98.24 254.99) rotate(-90)" style="fill:#fff"/><rect x="149.92" y="268.11" width="53.5" height="9.85" transform="translate(-96.37 449.71) rotate(-90)"/><rect x="149.86" y="270.29" width="53.5" height="5.5" transform="translate(-96.43 449.66) rotate(-90)" style="fill:#fff"/><rect x="246.92" y="169.73" width="53.5" height="9.85"/><rect x="246.92" y="171.85" width="53.5" height="5.5" style="fill:#fff"/><rect x="52.25" y="170.16" width="53.5" height="9.85"/><rect x="52.25" y="172.29" width="53.5" height="5.5" style="fill:#fff"/></g><circle cx="176.67" cy="175" r="5.83" style="fill:#fff"/></g></g></svg>