<svg xmlns="http://www.w3.org/2000/svg" xmlns:xlink="http://www.w3.org/1999/xlink" viewBox="0 0 350 350"><defs><linearGradient id="Unbenannter_Verlauf_16" x1="175" y1="80" x2="175" y2="270" gradientUnits="userSpaceOnUse"><stop offset="0" stop-color="#156609"/><stop offset="1" stop-color="#115107"/></linearGradient><linearGradient id="Unbenannter_Verlauf_27" x1="126.77" y1="317.96" x2="127.35" y2="317.96" gradientTransform="matrix(-111.91, -3.5, -3.5, 111.91, 15411.01, -35057.67)" gradientUnits="userSpaceOnUse"><stop offset="0" stop-color="#499247"/><stop offset="1" stop-color="#1b6219" stop-opacity="0"/></linearGradient><linearGradient id="Unbenannter_Verlauf_27-2" x1="125.98" y1="326.5" x2="126.55" y2="326.5" gradientTransform="matrix(-211.58, 3.5, 0.46, 27.6, 26608.56, -9363.32)" xlink:href="#Unbenannter_Verlauf_27"/><linearGradient id="Unbenannter_Verlauf_27-3" x1="126.42" y1="316.64" x2="126.99" y2="316.64" gradientTransform="matrix(-178.35, 17.49, 17.49, 178.35, 17142.1, -58591.7)" xlink:href="#Unbenannter_Verlauf_27"/><linearGradient id="Unbenannter_Verlauf_27-4" x1="128.64" y1="317.83" x2="129.21" y2="317.83" gradientTransform="matrix(-76.94, 24.48, 24.48, 76.94, 2230.28, -27495.1)" xlink:href="#Unbenannter_Verlauf_27"/><linearGradient id="Unbenannter_Verlauf_27-5" x1="126.35" y1="315.82" x2="126.92" y2="315.82" gradientTransform="matrix(-220.32, 92.67, 92.67, 220.32, -1303.58, -81184.99)" xlink:href="#Unbenannter_Verlauf_27"/><linearGradient id="Unbenannter_Verlauf_27-6" x1="126.95" y1="315.89" x2="127.52" y2="315.89" gradientTransform="matrix(-155.62, 85.68, 85.68, 155.62, -7173.54, -59927.6)" xlink:href="#Unbenannter_Verlauf_27"/><linearGradient id="Unbenannter_Verlauf_27-7" x1="127.32" y1="315.48" x2="127.89" y2="315.48" gradientTransform="matrix(-115.41, 101.42, 101.42, 115.41, -17177.11, -49193.12)" xlink:href="#Unbenannter_Verlauf_27"/><linearGradient id="Unbenannter_Verlauf_27-8" x1="126.31" y1="315.18" x2="126.88" y2="315.18" gradientTransform="matrix(-201.09, 197.59, 197.59, 201.09, -36736.63, -88212.5)" xlink:href="#Unbenannter_Verlauf_27"/><linearGradient id="Unbenannter_Verlauf_27-9" x1="127.05" y1="315.06" x2="127.62" y2="315.06" gradientTransform="matrix(-117.15, 139.89, 139.89, 117.15, -29042.92, -54557.74)" xlink:href="#Unbenannter_Verlauf_27"/><linearGradient id="Unbenannter_Verlauf_27-10" x1="126.31" y1="314.72" x2="126.89" y2="314.72" gradientTransform="matrix(-125.9, 239.55, 239.55, 125.9, -59345.66, -69737.09)" xlink:href="#Unbenannter_Verlauf_27"/><linearGradient id="Unbenannter_Verlauf_27-11" x1="126.72" y1="314.43" x2="127.29" y2="314.43" gradientTransform="matrix(-75.19, 176.61, 176.61, 75.19, -45862.43, -45851.6)" xlink:href="#Unbenannter_Verlauf_27"/><linearGradient id="Unbenannter_Verlauf_27-12" x1="126.39" y1="314.39" x2="126.96" y2="314.39" gradientTransform="matrix(-69.94, 234.31, 234.31, 69.94, -64664.82, -51464.52)" xlink:href="#Unbenannter_Verlauf_27"/><linearGradient id="Unbenannter_Verlauf_27-13" x1="126.33" y1="314.14" x2="126.9" y2="314.14" gradientTransform="matrix(-33.22, 241.3, 241.3, 33.22, -71430.04, -40792.99)" xlink:href="#Unbenannter_Verlauf_27"/><linearGradient id="Unbenannter_Verlauf_19" x1="126.22" y1="313.95" x2="126.79" y2="313.95" gradientTransform="matrix(-5.25, 237.81, 237.81, 5.25, -73822.08, -31523.81)" gradientUnits="userSpaceOnUse"><stop offset="0" stop-color="#499247"/><stop offset="1" stop-color="#1b6219"/></linearGradient><linearGradient id="Unbenannter_Verlauf_19-2" x1="126.06" y1="313.9" x2="126.63" y2="313.9" gradientTransform="matrix(20.98, 255.05, 255.05, -20.98, -82527.4, -25441.6)" xlink:href="#Unbenannter_Verlauf_19"/><linearGradient id="Unbenannter_Verlauf_27-14" x1="125.91" y1="313.43" x2="126.48" y2="313.43" gradientTransform="matrix(57.7, 202.83, 202.83, -57.7, -70643.18, -7304.35)" xlink:href="#Unbenannter_Verlauf_27"/><linearGradient id="Unbenannter_Verlauf_27-15" x1="125.7" y1="314.32" x2="126.27" y2="314.32" gradientTransform="matrix(76.94, 190.59, 487.08, -196.62, -162565.82, 38004.39)" xlink:href="#Unbenannter_Verlauf_27"/><linearGradient id="Unbenannter_Verlauf_27-16" x1="125.68" y1="313.99" x2="126.25" y2="313.99" gradientTransform="matrix(87.43, 174.86, 331.06, -165.53, -114738.47, 30134.33)" xlink:href="#Unbenannter_Verlauf_27"/><linearGradient id="Unbenannter_Verlauf_19-3" x1="125.31" y1="313.44" x2="125.88" y2="313.44" gradientTransform="matrix(159.12, 201.09, 201.09, -159.12, -82781.76, 24776.69)" xlink:href="#Unbenannter_Verlauf_19"/><linearGradient id="Unbenannter_Verlauf_27-17" x1="125.03" y1="313.53" x2="125.6" y2="313.53" gradientTransform="matrix(174.86, 183.6, 201.37, -191.78, -84776.39, 37309.15)" xlink:href="#Unbenannter_Verlauf_27"/><linearGradient id="Unbenannter_Verlauf_27-18" x1="124.84" y1="312.56" x2="125.41" y2="312.56" gradientTransform="matrix(150.38, 120.65, 105.08, -130.97, -51409.76, 25992.84)" xlink:href="#Unbenannter_Verlauf_27"/><linearGradient id="Unbenannter_Verlauf_27-19" x1="124.21" y1="310.18" x2="124.78" y2="310.18" gradientTransform="matrix(131.14, 68.19, 38.19, -73.44, -27916.14, 14421.65)" xlink:href="#Unbenannter_Verlauf_27"/><linearGradient id="Unbenannter_Verlauf_27-20" x1="124.04" y1="309.33" x2="124.62" y2="309.33" gradientTransform="matrix(127.65, 62.95, 31.47, -63.82, -25334.2, 12046.22)" xlink:href="#Unbenannter_Verlauf_27"/><linearGradient id="Unbenannter_Verlauf_27-21" x1="124.29" y1="310.61" x2="124.86" y2="310.61" gradientTransform="matrix(234.31, 69.94, 24.76, -82.94, -36609.3, 17166.18)" xlink:href="#Unbenannter_Verlauf_27"/><linearGradient id="Unbenannter_Verlauf_27-22" x1="122.38" y1="291.91" x2="122.95" y2="291.91" gradientTransform="matrix(111.91, 3.5, 0.44, -13.99, -13585.11, 3751.87)" xlink:href="#Unbenannter_Verlauf_27"/><linearGradient id="Unbenannter_Verlauf_27-23" x1="122.9" y1="300.1" x2="123.47" y2="300.1" gradientTransform="matrix(143.38, 2.62, 0.4, -21.82, -17496.93, 6314.69)" xlink:href="#Unbenannter_Verlauf_27"/><linearGradient id="Unbenannter_Verlauf_27-24" x1="123.36" y1="298.58" x2="123.93" y2="298.58" gradientTransform="matrix(194.09, -20.98, -1.91, -17.64, -23157.86, 7942.55)" xlink:href="#Unbenannter_Verlauf_27"/></defs><title>Goyo</title><g id="Goyo"><g id="Background"><rect x="60" y="60" width="230" height="230" style="fill:#fff"/><rect x="70" y="70" width="210" height="210"/><rect x="80" y="80" width="190" height="190" style="fill:url(#Unbenannter_Verlauf_16)"/></g><g id="Rays"><path d="M80,80H98l18,3L80,82Z" style="fill-rule:evenodd;fill:url(#Unbenannter_Verlauf_27)"/><path d="M126,88,80,85v6Z" style="fill-rule:evenodd;fill:url(#Unbenannter_Verlauf_27-2)"/><path d="M132,93,80,95v6Z" style="fill-rule:evenodd;fill:url(#Unbenannter_Verlauf_27-3)"/><path d="M114,107l-34,9v3Z" style="fill-rule:evenodd;fill:url(#Unbenannter_Verlauf_27-4)"/><path d="M128,107,80,123v8Z" style="fill-rule:evenodd;fill:url(#Unbenannter_Verlauf_27-5)"/><path d="M136,109,80,135v8l56-34" style="fill-rule:evenodd;fill:url(#Unbenannter_Verlauf_27-6)"/><path d="M125,128,80,164v5Z" style="fill-rule:evenodd;fill:url(#Unbenannter_Verlauf_27-7)"/><path d="M139,123l-38,43L80,186v-9l17-18Z" style="fill-rule:evenodd;fill:url(#Unbenannter_Verlauf_27-8)"/><path d="M144,125l-34.5,48L80,205v-7l25-31Z" style="fill-rule:evenodd;fill:url(#Unbenannter_Verlauf_27-9)"/><path d="M143,146,82,270H80V255Z" style="fill-rule:evenodd;fill:url(#Unbenannter_Verlauf_27-10)"/><path d="M154,135l-17,51L97,270l33-87Z" style="fill-rule:evenodd;fill:url(#Unbenannter_Verlauf_27-11)"/><path d="M142,182l-25,88,33-89,8-42Z" style="fill-rule:evenodd;fill:url(#Unbenannter_Verlauf_27-12)"/><path d="M168,156l-7,49-7,65h5Z" style="fill-rule:evenodd;fill:url(#Unbenannter_Verlauf_27-13)"/><path d="M169,196l3,74,5-74-4-57Z" style="fill-rule:evenodd;fill:url(#Unbenannter_Verlauf_19)"/><path d="M188,195l-9-53,3,54,7,74Z" style="fill-rule:evenodd;fill:url(#Unbenannter_Verlauf_19-2)"/><path d="M192,149l34,121h9Z" style="fill-rule:evenodd;fill:url(#Unbenannter_Verlauf_27-14)"/><path d="M192,132l26,55,28,83-32.5-74Z" style="fill-rule:evenodd;fill:url(#Unbenannter_Verlauf_27-15)"/><path d="M195,128l34,55,41,87-45-78Z" style="fill-rule:evenodd;fill:url(#Unbenannter_Verlauf_27-16)"/><path d="M213.5,135,270,201v10l-56.5-76" style="fill-rule:evenodd;fill:url(#Unbenannter_Verlauf_19-3)"/><path d="M208,123l40,36,22,23v9l-28.25-29Z" style="fill-rule:evenodd;fill:url(#Unbenannter_Verlauf_27-17)"/><path d="M270,171l-62-54,41,28,21,19Z" style="fill-rule:evenodd;fill:url(#Unbenannter_Verlauf_27-18)"/><path d="M232.5,120,270,141v-3Z" style="fill-rule:evenodd;fill:url(#Unbenannter_Verlauf_27-19)"/><path d="M218,107l52,26v-8l-52-18" style="fill-rule:evenodd;fill:url(#Unbenannter_Verlauf_27-20)"/><path d="M213.5,101,270,121v-8Z" style="fill-rule:evenodd;fill:url(#Unbenannter_Verlauf_27-21)"/><path d="M238,95l32,4V97Z" style="fill-rule:evenodd;fill:url(#Unbenannter_Verlauf_27-22)"/><path d="M224,89l46,4V86Z" style="fill-rule:evenodd;fill:url(#Unbenannter_Verlauf_27-23)"/><path d="M215,85l55-2V80H239Z" style="fill-rule:evenodd;fill:url(#Unbenannter_Verlauf_27-24)"/></g><g id="Mountain"><path d="M280,290H76V280l13-15,21-18,1,1,16-16-12,18,29-39,2,1,4-6,8,5,13-4-8,1,12-3h14l6,3,2,2,2,3v2l7-5,4-1h3l2,1,1,2,3-2h3l4,3,1,4,15,24-2-5,7,9,6,11,12,4,15,20ZM95,263,79,280h2Z" style="fill:#fff;fill-rule:evenodd"/><path d="M78,290l20-25,14-11,5,3h3l31-45,5,3,12,1,3-2h14l10,8,2-3,5-4,8,7,9-7,28,47,11,3,15,25-9,1-13,6h-3l-2-1,5-1,3-3-10,4-3,3-6,1,5-3h-9l-22,7,4-4-7,3,1-3-8,5H186l2,2-13,5-40-11,16,8-19-5-15-4,5,3-30-9v-2l-5-1H85l2,2Z" style="fill-rule:evenodd"/><path d="M112,259l3,2,7,1-4,10-14,7Z" style="fill:#fff;fill-rule:evenodd"/><path d="M135,243l4,33v8l5-10,12-16,7.6,10L175,242l6,18,21,12-4-18,5-6V232l19,18,12,19-1-4-2-4,3-7-4-13-5-7,3,13-6-8v-4l-4-7v-7l-10,6-10-1-15,9-20-8-11-9Z" style="fill:#fff;fill-rule:evenodd"/></g><g id="Fireball"><path d="M174.33,196a.5.5,0,0,1-.5.07.48.48,0,0,1-.3-.4c-.28-3-1.13-12.06-1.17-12.5v0c-.05-.27-.64-3.92-1.21-7.43a.49.49,0,0,0-.53-.42.52.52,0,0,0-.46.51v.27a.3.3,0,0,0,0,.1c.08.4.67,3.14,1.14,5.3a.49.49,0,0,1-.29.57.52.52,0,0,1-.62-.19l-.5-.79a.48.48,0,0,1-.07-.2c-.08-.59-.44-3.37-.52-4a.58.58,0,0,0-.08-.22L167.4,174a.4.4,0,0,1-.08-.23c-.14-1.22-1.21-11.17-1.36-12.59a.52.52,0,0,1,.07-.32l.58-.93a.51.51,0,0,0,0-.58.5.5,0,0,0-.57-.15l-.32.12a.48.48,0,0,1-.59-.21h0a.51.51,0,0,0-.57-.22.5.5,0,0,0-.36.5c.16,3.65.49,11.18.52,12a.45.45,0,0,1,0,.16c-.12.41-.66,2.32-.78,2.74a.47.47,0,0,0,0,.17c0,.36.11,1.8.21,3.38a.51.51,0,0,1-.42.52.49.49,0,0,1-.56-.36c-1.39-5-3.45-12.3-3.63-13a.36.36,0,0,1,0-.1c0-.45-.27-3.86-.31-4.39l0-.14-3.51-9.5a.24.24,0,0,1,0-.08c-.14-.73-1.91-10.44-2-11.14,0,0,0-.05,0-.08l-2.18-6.15a.49.49,0,0,1,0-.21c0-.27.08-1,.11-1.38a.49.49,0,0,0-.18-.42l-1-.85a.51.51,0,0,1-.17-.34c0-.59-.17-2.25-.21-2.71a.48.48,0,0,0-.07-.23l-.64-1a.52.52,0,0,1-.07-.27c0-.73,0-4.05,0-4.86a.5.5,0,0,0-.12-.33l-2.41-2.89a.48.48,0,0,0-.56-.15.5.5,0,0,0-.33.48c0,1.71.08,4.4.09,4.71a.13.13,0,0,0,0,.06c.07.57,1.26,9,1.33,9.53a.11.11,0,0,1,0,.05c.11.41,1.39,5.49,1.5,5.89a.13.13,0,0,0,0,.06c.06.47,1,7.19,1.08,7.5v0c0,.26.47,4.73.73,7.39a.5.5,0,0,1-.33.52.49.49,0,0,1-.58-.19c-.41-.6-.81-1.19-.95-1.38a.47.47,0,0,1-.06-.15c-.06-.2-.21-.75-.3-1.06a.54.54,0,0,1,.06-.39l.27-.44a.48.48,0,0,0,.07-.26v-1a.51.51,0,0,0-.2-.41l-.32-.23a.51.51,0,0,1-.21-.44c0-.78.18-3,.21-3.53a.37.37,0,0,0,0-.18c-.08-.22-.26-.78-.34-1a.44.44,0,0,1,0-.2c0-.35.14-1.43.18-1.77a.51.51,0,0,0,0-.21c-.1-.32-.42-1.3-.47-1.45a.08.08,0,0,1,0,0c-.06-.23-.53-2.23-.59-2.5a.14.14,0,0,1,0-.06l-1.25-3.35h0c0-.12-1.2-3.06-1.36-3.48l0-.1c-.12-.75-1.58-9.55-1.65-10v0c-.05-.44-1-10-1.09-10.67v-.07c0-.3.11-2.31.14-2.75a.88.88,0,0,0,0-.16c-.13-.44-.73-2.46-.8-2.71,0,0,0,0,0,0-.07-.17-.55-1.33-.71-1.73a.45.45,0,0,1,0-.28l.38-2a.55.55,0,0,1,.12-.24l.82-.89a.5.5,0,0,0,.13-.37c0-.61-.16-2.31-.2-2.86a.46.46,0,0,0-.13-.29l-1.47-1.67a.48.48,0,0,1-.12-.36c0-.73.15-3.23.18-3.8a.48.48,0,0,1,.07-.23l1.48-2.6a.5.5,0,0,0,0-.5c-.12-.21-.29-.5-.38-.64a.48.48,0,0,1-.06-.18c-.06-.34-.25-1.57-.34-2.13a.52.52,0,0,0-.3-.38l-.43-.18a.47.47,0,0,1-.27-.3.49.49,0,0,1,0-.41l.84-1.41a.48.48,0,0,0,.06-.18c.06-.35.25-1.56.29-1.85a.56.56,0,0,1,0-.12c.21-.51,1.81-4.21,1.89-4.4v0c.08-.19,1.88-4,2.12-4.53a.27.27,0,0,1,.06-.1l7-8.8.08-.07c.38-.31,3.21-2.58,3.58-2.89l.09-.06,5.08-2.53.08,0,6.42-2,.09,0,4.26-.53h.11l4.4.47.14,0,3.46,1.48.06,0,3.76,1,.1,0,2.74,1.48,0,0,5.47,3.61,0,0,11.9,9.45a.49.49,0,0,1,.12.13l2.44,4a.6.6,0,0,1,.06.11c.15.48,1.15,3.65,1.31,4.13a.5.5,0,0,1,0,.12c0,.53.24,4.27.28,4.85a.39.39,0,0,1,0,.15c-.09.37-.5,2-.55,2.2,0,0,0,0,0,0s-.22,1.32-.3,1.79a.49.49,0,0,0,.07.36l1,1.57a.51.51,0,0,1,.08.29c0,.51-.07,2.07-.08,2.19h0c0,.18,0,3.88-.05,5.14a.51.51,0,0,0,.4.5h0a.5.5,0,0,1,.4.55l-.19,1.77a.45.45,0,0,0,.18.4.42.42,0,0,0,.43.07h0a.47.47,0,0,1,.43.07.44.44,0,0,1,.18.4c-.11,1.38-.34,4.39-.39,5.11a.45.45,0,0,0,.06.28c.26.45,1.09,1.91,1.47,2.56a.51.51,0,0,1-.07.59L209,111.4a.55.55,0,0,0-.13.34v2.59a.51.51,0,0,0,.13.34l.76.84a.5.5,0,0,1,0,.68l-.83.9a.53.53,0,0,0-.13.31c-.05.72-.23,3.41-.27,4a.48.48,0,0,1-.07.23c-.31.47-1.5,2.35-1.69,2.64a.59.59,0,0,0,0,.08c-.12.29-.84,2.05-.92,2.26l0,0c-.07.13-.46.89-.61,1.2a.49.49,0,0,0-.06.27c0,.44.14,1.8.18,2.27a.55.55,0,0,1-.07.31l-.88,1.4a.31.31,0,0,0-.06.13c-.11.37-.63,2.19-.71,2.48a.19.19,0,0,0,0,.07c0,.07,0,.2,0,.37a.49.49,0,0,1-.36.42.51.51,0,0,1-.53-.17c-.19-.26-.4-.52-.56-.72a.5.5,0,0,1,.09-.7l.36-.29a.48.48,0,0,0,.15-.59c-.09-.22-.21-.5-.3-.7a.5.5,0,0,1,.06-.5c.26-.33.71-.93.86-1.13a.55.55,0,0,0,.08-.15c.1-.29.42-1.27.58-1.75a.52.52,0,0,0-.09-.48c-.22-.26-.61-.72-.84-1a.5.5,0,0,1-.06-.56l.33-.6a.51.51,0,0,0-.13-.63l-.39-.3a.49.49,0,0,1-.18-.47c.06-.37.17-1,.23-1.39a.51.51,0,0,1,.45-.42h0a.47.47,0,0,0,.37-.22.5.5,0,0,0,.06-.43c-.1-.32-.21-.68-.24-.76a.08.08,0,0,0,0,0c0-.13-.22-1-.28-1.25a.5.5,0,0,1,0-.21c.13-.67.83-4.49.9-4.83a.09.09,0,0,1,0,0l.42-1.48a.5.5,0,0,1,.52-.36l.6,0a.49.49,0,0,0,.5-.32l.22-.59a.53.53,0,0,0,0-.41.5.5,0,0,0-.32-.25l-.46-.12a.49.49,0,0,1-.37-.45c-.05-.8-.17-2.72-.22-3.48a.51.51,0,0,1,.26-.47l.51-.27a.5.5,0,0,0,.23-.62l-.7-1.78a.49.49,0,0,0-.41-.32.5.5,0,0,0-.47.22l-.51.78a.5.5,0,0,0-.09.24c-.06.9-.42,6.11-.49,7.14a.5.5,0,0,1-.14.31l-.74.79a.45.45,0,0,0-.13.35c0,.54,0,2,0,2.27v.09c-.05.29-.33,2-.43,2.58a.53.53,0,0,1-.17.31l-.58.47a.49.49,0,0,0-.17.47c.07.41.2,1.14.25,1.4a.49.49,0,0,0,.06.17l.45.73a.5.5,0,0,1,0,.46l-.55,1.3a.51.51,0,0,1-.31.28l-.52.16a.5.5,0,0,0-.35.51c0,.45.09,1.17.12,1.58a.51.51,0,0,1-.26.47l-.22.13a.5.5,0,0,0-.25.55c.14.58.39,1.67.45,1.94a.62.62,0,0,1,0,.13c0,.4-.09,2.41-.11,2.8a.5.5,0,0,1,0,.12c-.1.35-.61,2-.69,2.29,0,0,0,0,0,.07-.06.37-.55,3.56-.59,3.87a.06.06,0,0,0,0,0c-.05.2-.39,1.5-.53,2.07a.55.55,0,0,1-.33.35l-.69.23a.52.52,0,0,0-.34.44c-.07,1.07-.29,4.35-.34,5a.49.49,0,0,1-.05.2c-.24.44-1.26,2.37-1.47,2.76a.58.58,0,0,0-.05.14c-.09.56-.68,3.89-.75,4.3,0,0,0,.06,0,.08l-1.47,4.12a.51.51,0,0,1-.55.33.51.51,0,0,1-.42-.48c-.08-2.1-.19-4.81-.21-5.33a.52.52,0,0,1,0-.17c.07-.2.24-.75.36-1.14a.5.5,0,0,0-.25-.6l-.64-.31a.52.52,0,0,1-.27-.34.53.53,0,0,1,.1-.42l.58-.73a.51.51,0,0,0,.11-.35c0-.56-.17-2.15-.21-2.59a.37.37,0,0,0-.06-.21l-.32-.55a.48.48,0,0,1,0-.49c.2-.37.58-1.07.74-1.35a.6.6,0,0,0,.06-.27c0-.38-.08-1.52-.14-2.7a.5.5,0,0,0-1-.1l-2.57,10.34h0c-.05.17-1.77,6.7-1.81,6.85h0c0,.14-1.62,6.41-1.69,6.67v0c0,.13-.57,1.93-.76,2.61a.52.52,0,0,1-.32.33l-.93.32a.49.49,0,0,0-.34.47v2.06a.51.51,0,0,0,.34.48l.88.28a.51.51,0,0,1,.35.52c0,.4-.1,1-.12,1.3a.51.51,0,0,1-.13.29l-.83.92a.49.49,0,0,0-.13.31c0,.82-.21,4.21-.24,4.87a.83.83,0,0,1-.06.21l-.57,1.06a.54.54,0,0,0,0,.28c0,.36.1,1.29.14,1.71a.48.48,0,0,0,.18.34l.53.44a.46.46,0,0,1,.17.28c0,.19.11.49.15.69a.51.51,0,0,1-.07.38l-.87,1.3a.54.54,0,0,0-.08.35c0,.31.13,1,.18,1.4a.5.5,0,0,1-.31.53L181,189a.51.51,0,0,1-.48-.06l-.46-.34a.51.51,0,0,1-.2-.35l-.21-1.71a.49.49,0,0,1,.09-.35l.83-1.15a.49.49,0,0,0,.09-.35c0-.31-.1-.92-.15-1.34a.51.51,0,0,0-.5-.44h-.07a.5.5,0,0,1-.5-.46c0-.38-.08-.88-.09-1.09a.84.84,0,0,0-.05-.17l-.61-1.25a.54.54,0,0,1,0-.43l.61-1.31a.47.47,0,0,0,0-.4l-.44-1.1a.48.48,0,0,0-.4-.31h-.11a.52.52,0,0,0-.4.12.55.55,0,0,0-.16.38c0,.54,0,1.39,0,2.24a.5.5,0,0,1-1,.19l-.1-.24a.19.19,0,0,1,0-.08c-.07-.3-.51-2.28-.73-3.26a.45.45,0,0,0-.24-.3.43.43,0,0,0-.38,0h0a.13.13,0,0,0-.07.14c0,.74.21,5.74.22,6.16v0c-.05.64-.9,12.25-1,13.87a.46.46,0,0,1-.15.31Z" style="fill:#fff;fill-rule:evenodd"/><path d="M158.05,60.53a.57.57,0,0,1-.25.06l-1.16-.07a.5.5,0,0,1-.43-.71c.09-.17.17-.34.23-.47a.51.51,0,0,1,.37-.28l1.33-.22.16-.05,1.92-1.07.05,0,2.6-1.07.07,0L165.46,55a.49.49,0,0,1,.24-.08l4.83-.26h0l4.94,0,.14,0,2.45.71h.06l2.26.36a.51.51,0,0,1,.4.34c.11.35.31,1,.4,1.23a.56.56,0,0,0,.18.25l.29.21a.51.51,0,0,0,.7-.11l.05-.07a.5.5,0,0,1,.59-.17l.26.1a.49.49,0,0,1,.22.18c.21.3.75,1.05.84,1.19l0,0,.53.61A.54.54,0,0,1,185,60a.49.49,0,0,1-.2.35l-.09.07a.52.52,0,0,1-.27.1l-1.88.09a.49.49,0,0,1-.38-.14l-1.13-1.11,0,0-1.79-1.47a.56.56,0,0,0-.17-.09l-3.5-1.12-.11,0-2.67-.2h-.06l-4,.2h-.05l-3.71.58-.06,0-2.33.68a.84.84,0,0,0-.14.06l-2,1.34s0,0,0,0l-2.38,1.21Z" style="fill-rule:evenodd"/><path d="M175.35,140.38a.4.4,0,0,1,.35-.22.38.38,0,0,1,.36.2c.51.9,1.38,2.44,1.57,2.76a.69.69,0,0,1,.05.13l.75,3.16a.68.68,0,0,1,0,.14c0,.73-.35,6.77-.39,7.52a.37.37,0,0,1,0,.15l-.55,1.45a.64.64,0,0,0,0,.2c0,.65.17,4.3.23,5.7a.51.51,0,0,1-.52.52h0a.52.52,0,0,1-.46-.35c-.11-.34-.29-.88-.38-1.13a.51.51,0,0,1,0-.3c.1-.37.38-1.33.5-1.76a.49.49,0,0,0-.05-.39c-.23-.4-.78-1.31-1-1.64a.67.67,0,0,1-.07-.24c0-.88-.09-5.82-.1-6.64a.5.5,0,0,0-.05-.21l-.43-.86a.43.43,0,0,1,0-.25c0-.26,0-.88,0-1.23a.51.51,0,0,1,.22-.39l.12-.08a.48.48,0,0,0,.22-.39c0-.5.1-1.64.13-2a.48.48,0,0,1,.07-.24l.2-.32a.5.5,0,0,0,0-.6l-.36-.39a.6.6,0,0,1-.13-.28c-.05-.44-.19-1.66-.22-1.91a.14.14,0,0,1,0-.09Z" style="fill-rule:evenodd"/><path d="M172.17,140.74a.48.48,0,0,0,.56.26.49.49,0,0,0,.39-.48c0-2.84,0-7.57,0-8a.13.13,0,0,0,0-.06c0-.17.14-1.14.27-2.22a.5.5,0,0,1,.48-.44.51.51,0,0,1,.51.42l.06.35v0c0,.27.24,3,.32,4a.46.46,0,0,0,.47.42h0a.45.45,0,0,0,.43-.45v-5a.49.49,0,0,1,.39-.49.49.49,0,0,1,.56.28c1,2.22,2.51,5.5,2.75,6a.57.57,0,0,1,0,.14c0,.27.15,1.2.23,1.83a.52.52,0,0,0,.23.36.5.5,0,0,0,.43,0l.49-.16a.54.54,0,0,0,.31-.28l.55-1.35a.45.45,0,0,0,0-.2c0-.31,0-1.28,0-1.75a.49.49,0,0,1,.21-.41l.37-.27a.5.5,0,0,0,.17-.58c-.15-.39-.38-1-.48-1.25a.47.47,0,0,1,0-.31c.11-.4.39-1.47.45-1.7l0-.08.41-.87a.5.5,0,0,0,0-.34c-.1-.37-.32-1.24-.4-1.55a.5.5,0,0,1,0-.21c.07-.38.3-1.67.33-1.84,0,0,0,0,0,0,.05-.17.37-1.39.54-2a.46.46,0,0,1,.5-.34h0a.45.45,0,0,1,.39.45c0,.86,0,2.9,0,3.95a.51.51,0,0,0,.63.48l.07,0a.51.51,0,0,0,.38-.53c-.07-.69-.19-2-.24-2.44a.46.46,0,0,1,.06-.28l1.5-2.91h0l.86-1.83a.44.44,0,0,1,.08-.11l2.57-3h0l3.5-4.32,0,0,3.47-5,.06-.1c.17-.45,1.35-3.44,1.47-3.76,0,0,0,0,0,0,.11-.42,1.47-5.54,1.74-6.54a.53.53,0,0,1,.18-.28l1-.75a.52.52,0,0,0,.21-.38c0-.85.2-3.77.23-4.3a.47.47,0,0,0,0-.17c-.15-.5-.92-3.18-1-3.56l0-.09c-.18-.34-1.35-2.59-1.5-2.9a.25.25,0,0,1,0-.07c-.2-.26-1.53-2.08-1.87-2.55a.34.34,0,0,1-.07-.24h0a.49.49,0,0,1,.33-.39.47.47,0,0,1,.5.14l1.73,1.94a.54.54,0,0,1,.07.13c.2.41,1.22,2.62,1.36,2.91a.1.1,0,0,0,0,0h0a.35.35,0,0,0,.4,0,.34.34,0,0,0,.17-.36c-.14-.86-.34-2.07-.4-2.42a.36.36,0,0,0-.07-.17L199.42,79l-.09-.11L195.05,75h0l-3.38-2.92,0,0-3.78-2.72-.07,0L183,66.85l0,0-5.75-2.14-3.43-1.27a.38.38,0,0,0-.1,0L172,63.17a.38.38,0,0,0-.4.21.38.38,0,0,0,.08.44h0l1.23,1.2a.54.54,0,0,1,.13.22c.06.19.17.58.23.8a.47.47,0,0,1,0,.35l-.16.35a.48.48,0,0,1-.41.29l-.35,0A.72.72,0,0,1,172,67l-.55-.31-.07,0-1-.38a.58.58,0,0,0-.23,0l-2.16.23h0l-1.95.1-.09,0-.82.2a.56.56,0,0,0-.24.13l-.4.41a.49.49,0,0,1-.57.09l-.28-.13a.51.51,0,0,1-.26-.58c0-.12.06-.25.09-.36a.51.51,0,0,1,.41-.36l1-.16a.48.48,0,0,1,.45.16l.12.14a.5.5,0,0,0,.5.15l.35-.08a.52.52,0,0,0,.32-.24l.09-.16a.48.48,0,0,1,.39-.25l2-.19h0l1.63-.19a.46.46,0,0,0,.32-.7h0a.32.32,0,0,0-.27-.14l-4.73.1H166l-2.44.52-.11,0-2.57,1.21,0,0-3,1.8-.11.09-3.27,3.56-.05.06-3.39,5,0,.07L149.11,81a.53.53,0,0,0,0,.12c-.06.31-.32,1.69-.37,2a.41.41,0,0,0,0,.11c0,.3,0,1.77.05,2.19a.46.46,0,0,0,.05.2c.17.34.71,1.48.8,1.66l0,.05.74,1.18,0,0,.22.27a.46.46,0,0,1,.1.32c0,1.14-.13,7.44-.14,7.89a.07.07,0,0,0,0,0c0,.31.28,3.3.31,3.7a.19.19,0,0,0,0,.08c.09.36.76,2.91.84,3.2a.17.17,0,0,0,0,0s.05.13.1.26a.46.46,0,0,0,.55.28.47.47,0,0,0,.34-.52h0v0c-.06-.22-.73-3-.81-3.34a.29.29,0,0,1,0-.09c0-.39-.23-3.32-.24-3.59a.08.08,0,0,1,0,0c0-.36.07-5.47.08-5.67v0c0-.11,0-1.66,0-2.32a.5.5,0,0,1,.25-.43l.3-.18a.5.5,0,0,1,.58.06l.08.07a.49.49,0,0,1,.07.66c-.16.23-.35.51-.46.65a.58.58,0,0,0-.08.22c-.05.32-.17,1.15-.2,1.35v.08c0,.5.13,5.28.14,5.73a.2.2,0,0,0,0,.07c.06.39.66,4.16.71,4.43v0c.06.24.77,3.44.85,3.82,0,0,0,0,0,.07.14.35,1.27,3.28,1.44,3.71a.31.31,0,0,0,.05.1l1.39,2a.05.05,0,0,1,0,0l2,2.41h0l2,2.38a.47.47,0,0,1,.07.12c.14.32.78,1.72.91,2a.34.34,0,0,1,0,.12c.05.26.22,1.3.29,1.69a.49.49,0,0,0,.12.25l1,1.06,0,0,1,1.35a.39.39,0,0,1,.08.14c.07.2.25.76.33,1a.5.5,0,0,1,0,.21c0,.46-.26,2.19-.3,2.55V127c0,.18.1.67.15,1a.53.53,0,0,0,.42.42h.1a.5.5,0,0,0,.56-.35l.3-1a.43.43,0,0,1,0,0c0-.17.17-1,.2-1.2a.15.15,0,0,0,0-.07c0-.34.09-3.08.11-3.55a.16.16,0,0,1,.05-.11h0a.42.42,0,0,1,.7.23c.14.74.35,1.81.41,2.12a.51.51,0,0,0,.07.17c.18.29.79,1.26,1,1.58a.44.44,0,0,1,.07.22c0,.43.16,1.89.2,2.29a.33.33,0,0,0,.06.19c.07.15.23.43.32.61a.45.45,0,0,1,.05.34c-.05.23-.13.59-.14.61h0s-.17.78-.25,1.12a.5.5,0,0,0,0,.32c.14.32.47,1,.55,1.21a.11.11,0,0,1,0,.08c.08.27.49,1.82.53,2h0c0,.13.33,1.44.43,1.89a.44.44,0,0,0,.15.25l.81.76a.47.47,0,0,1,.15.25c.11.47.45,1.9.53,2.2a.45.45,0,0,0,0,.11.36.36,0,0,1,.06.11Z" style="fill-rule:evenodd"/></g></g></svg>