<svg id="IQ" xmlns="http://www.w3.org/2000/svg" xmlns:xlink="http://www.w3.org/1999/xlink" viewBox="0 0 350 350"><defs><radialGradient id="radial-gradient" cx="175" cy="175" r="96.5" gradientUnits="userSpaceOnUse"><stop offset="0.09" stop-color="#f9c133"/><stop offset="0.2" stop-color="#f79520"/></radialGradient><radialGradient id="radial-gradient-2" cx="175" cy="175" r="96" gradientTransform="translate(0 -43.75) scale(1 1.25)" gradientUnits="userSpaceOnUse"><stop offset="0.58" stop-color="#fbd778"/><stop offset="0.62" stop-color="#fbd878" stop-opacity="0.98"/><stop offset="0.68" stop-color="#fbda79" stop-opacity="0.91"/><stop offset="0.73" stop-color="#fcdd79" stop-opacity="0.81"/><stop offset="0.8" stop-color="#fce27a" stop-opacity="0.66"/><stop offset="0.87" stop-color="#fde97c" stop-opacity="0.47"/><stop offset="0.94" stop-color="#fef07d" stop-opacity="0.24"/><stop offset="1" stop-color="#fff87f" stop-opacity="0"/></radialGradient></defs><title>IQ</title><g id="Background"><g id="BG_Colors" data-name="BG Colors"><rect x="59.87" y="60" width="230.26" height="230" style="fill:#fff"/><rect x="69.18" y="69.39" width="211.64" height="211.4"/><rect x="78.5" y="78.5" width="193" height="193" style="stroke:#000;stroke-miterlimit:10;fill:url(#radial-gradient)"/><rect x="79" y="79" width="192" height="192" style="opacity:0.6000000000000001;fill:url(#radial-gradient-2)"/></g><g id="Splatter"><path d="M262.44,99.39c-.3-2,4.44-4.45,4.93-4.68a34.33,34.33,0,0,1,4.82-1.83L277.25,82c-1.5.75-3.78,1.9-6.52,3.37-5.88,3.14-8.47,4.82-8.73,4.48-.38-.51,4.79-4.9,5.28-5.32a79.71,79.71,0,0,1,7.3-5.52L75.67,75.67l-2.5,4.16,42.2,34.51c3.15,2.85,3.47,3.8,3.25,4.16-.86,1.4-11-4.38-12.53-2.37-.91,1.23,1.88,4.73,2.34,5.31,8,10,52,40.12,69.31,51.81,0,0,64-63.5,87.75-67.87,4-.78,4.84-1.44,4.84-1.9C270.36,102.08,262.8,101.85,262.44,99.39ZM137,137c-2.71-2.2-3.21-2.4-5-3.89-3.28-2.67-6.93-6.3-6.63-6.67s4.79,2.38,8.75,5.85c4.56,4,7.7,8.27,7.48,8.48S140.25,139.62,137,137Zm12.08,11.94c-.93-.15-4-4.25-4-4.25C147.46,145,150,149.07,149.08,148.92Zm-56-57.75c4.5.16,39.07,27.91,40.92,29.5,4.42,3.79,35.58,27.25,35.58,27.25C160,147,93.08,91.17,93.08,91.17Zm85.5,55.64s9-5.85,10.5-5.39C190.36,141.81,183.48,147.31,178.58,146.81ZM196.92,138s18.25-11.84,21.08-11.58C222,126.79,203.1,136.92,196.92,138Z"/><path d="M261.75,253.75c-2.25-4.25-87-55.75-87-55.75L73.17,257.75l2.08,18L273,277.5V267S264,258,261.75,253.75Zm-172,5.17A57.38,57.38,0,0,1,78,264.5v-2.75c1.78-.7,4.34-1.76,7.33-3.21,9.62-4.66,15-9.12,15.26-8.75S96.18,254.89,89.73,258.92ZM176.23,204a2.37,2.37,0,0,0-2.5,0c-8.67,5.1-58.86,34.49-61.61,33.75-1-1.59,59.42-36.53,62.88-36.75s31,18.13,33.5,20.62C206.35,223.39,182,207.8,176.23,204Z"/></g></g><g id="Symbol"><g id="Eye_L" data-name="Eye L"><path d="M100.37,130.54l74.57,53.08.27,11.75-19,2.5c-2.06,2.36-17.2,19.06-41.88,18.52-23.55-.51-37.63-16.33-39.8-18.85L29.25,135.75Z"/><path d="M42.9,141.92l55.74-4.2,71.1,52.53h0l-16.37.5C143,205,126.24,212.56,109.83,210.17c-17.44-2.55-27.3-15.29-29.37-18.1Z" style="fill:#fff"/><path d="M98.5,147.42l41.59,29.85a14.7,14.7,0,0,1,1.24,9.39c-2.22,10-15.93,13.18-17.83,13.62a30.42,30.42,0,0,1-11.83.38c-13.63-2.13-25-13.06-27.83-15.83a30,30,0,0,1-8.88-16.6,30.4,30.4,0,0,1,1.68-16,49,49,0,0,1,21.88-4.83Z"/><polygon points="105.56 148.75 105.56 169 98.38 163.75 100.88 199.25 103.5 200.91 104.63 180.5 115.75 194.13 117 154.88 105.56 148.75" style="fill:#fff"/></g><g id="Eye_R" data-name="Eye R"><path d="M170.72,195.66l23.81,1.83c1.85,2.25,17.35,20.52,42.8,19.84,29.38-.78,44.38-26.07,45.17-27.46L322,135.75l-72.67-5.21-74.4,53.08Z"/><path d="M308.6,142.42l-56.51-4.67L180.5,190.08l15.37.39c11.07,14.19,28.52,21.52,45.65,19,20.52-3,31.37-18.84,33.12-21.49Z" style="fill:#fff"/><path d="M268.33,149.33a50.23,50.23,0,0,0-18.67.25l-40.92,28.66c.2,2.49,1.15,10.39,7.5,16.25A25.21,25.21,0,0,0,226.5,200a31.12,31.12,0,0,0,12.63,1,42.48,42.48,0,0,0,21.63-8.87,41.22,41.22,0,0,0,8.5-8.37c3.23-4.3,10.17-13.5,7.38-23.37C276.09,158.49,274.38,153.64,268.33,149.33Z"/><polygon points="244.44 148.5 244.44 168.75 251.63 163.5 249.13 199 246.5 200.66 245.38 180.25 234.25 193.87 233 154.62 244.44 148.5" style="fill:#fff"/></g></g></svg>