<svg xmlns="http://www.w3.org/2000/svg" xmlns:xlink="http://www.w3.org/1999/xlink" viewBox="0 0 350 350"><defs><radialGradient id="radial-gradient" cx="175.13" cy="175" r="96" gradientTransform="translate(0 -35) scale(1 1.2)" gradientUnits="userSpaceOnUse"><stop offset="0" stop-color="#fd6566" stop-opacity="0.95"/><stop offset="1" stop-color="#891716" stop-opacity="0"/></radialGradient></defs><title>Kapkan</title><g id="Kapkan"><g id="Background"><rect x="59.87" y="60" width="230.26" height="230" style="fill:#fff"/><rect x="78.88" y="79" width="192.25" height="192" style="fill:#891716"/><rect x="79.13" y="79" width="192" height="192" style="fill:url(#radial-gradient)"/><g id="RedLines"><line x1="278.33" y1="155.33" x2="149" y2="275" style="fill:none;stroke:#f87070;stroke-miterlimit:10;stroke-width:3px"/><line x1="75.33" y1="154.67" x2="276.33" y2="119.67" style="fill:none;stroke:#f87070;stroke-miterlimit:10;stroke-width:3px"/><line x1="84.33" y1="76.33" x2="252" y2="275.33" style="fill:#df6c6d;stroke:#f87070;stroke-miterlimit:10;stroke-width:3px"/></g><g id="BlackLines"><line x1="94.76" y1="76.46" x2="272" y2="215.67" style="fill:none;stroke:#000;stroke-miterlimit:10;stroke-width:3px"/><line x1="91" y1="274" x2="273.72" y2="98.39" style="fill:none;stroke:#000;stroke-miterlimit:10;stroke-width:3px"/><line x1="76.67" y1="118.67" x2="276.33" y2="237.33" style="fill:none;stroke:#000;stroke-miterlimit:10;stroke-width:3px"/><line x1="76.67" y1="196.33" x2="275.33" y2="137.67" style="fill:none;stroke:#000;stroke-miterlimit:10;stroke-width:3px"/><line x1="76" y1="139" x2="212.33" y2="279" style="fill:none;stroke:#000;stroke-miterlimit:10;stroke-width:3px"/><line x1="109.33" y1="274.67" x2="216" y2="76" style="fill:none;stroke:#000;stroke-miterlimit:10;stroke-width:3px"/></g><path d="M69.18,69.39v211.4H280.82V69.39ZM271,271H79V79H271Z"/></g><g id="EDDTrap"><g id="Explosive"><rect x="106" y="48.38" width="137.75" height="72.75"/><path d="M237.83,68.25c.54,0,1.87,0,2.42,0a16.63,16.63,0,1,1,0,33.25c-.55,0-2,0-2.58,0" style="fill:none;stroke:#000;stroke-miterlimit:10;stroke-width:9px"/><path d="M237.83,68.25c.54,0,1.87,0,2.42,0a16.63,16.63,0,1,1,0,33.25c-.55,0-2,0-2.58,0" style="fill:none;stroke:#fff;stroke-miterlimit:10;stroke-width:2px"/><rect x="111.12" y="53.5" width="127.5" height="62.38" style="fill:#fff"/><g id="lines"><rect x="116.13" y="60" width="117.5" height="7.25"/><rect x="116.13" y="95.75" width="117.5" height="7.25"/><rect x="109" y="82.19" width="132.11" height="5.38"/></g><rect x="156.25" y="51.5" width="37.5" height="66.38" style="fill:#fff"/><path d="M191.75,53.5v62.38h-33.5V53.5h33.5m4-4h-41.5v70.38h41.5V49.5Z"/></g><g id="Hook"><path d="M168.17,243.17V177a14.68,14.68,0,0,1-6.38-12.34c0-7.94,5.86-14.38,13.09-14.38S188,156.77,188,164.71a14.65,14.65,0,0,1-6.46,12.39V243c.29.46,4.72,7.27,12.75,7.29,4.66,0,10-2.27,12.52-7a12.35,12.35,0,0,0,1.38-5.61H199c10.69-1.25,8.13-37.63,8.13-37.63s15.37,13.13,15.43,39.88c0,0-4.06,23.25-28.37,23.62,0,0-13.31-2-19.19-9.12h0c-5.88,7.12-19.19,9.12-19.19,9.12-24.31-.37-28.37-23.62-28.37-23.62.06-26.75,15.44-39.88,15.44-39.88s-2.57,36.38,8.12,37.63h-9.12a11.18,11.18,0,0,0,1.37,5.6c3.43,6.09,11.75,6.06,12.59,6C163,249.21,167.45,244,168.17,243.17Z" style="fill:#fff;stroke:#000;stroke-miterlimit:10;stroke-width:4px"/><circle cx="175.01" cy="164.5" r="2.49"/><rect x="172.52" y="114.33" width="4.98" height="41" style="fill:#fff"/></g></g></g></svg>