<svg xmlns="http://www.w3.org/2000/svg" viewBox="0 0 350 350"><title>Maestro</title><g style="isolation:isolate"><g id="Maestro"><rect x="60.01" y="59.92" width="230.08" height="230.08" style="fill:#fff"/><rect x="69.5" y="69.97" width="211.39" height="211.39" style="fill:#231f20"/><rect x="78.35" y="79.31" width="192.71" height="192.71" style="fill:#666e24"/><path d="M90.81,167.39l-.45-2.34a33,33,0,0,0-4.06.53,33.57,33.57,0,0,0-9.63,3.48c3.38-.4,6-.71,7.62-.86a8.64,8.64,0,0,0,2.83-.53A9.81,9.81,0,0,1,90.81,167.39Z" style="fill:#231f20"/><polygon points="92.57 166.12 94.41 165.42 94.7 166.73 92.57 166.12" style="fill:#231f20"/><polygon points="80.6 200.37 77.49 202.54 77.9 201.72 80.6 200.37" style="fill:#231f20"/><path d="M86.42,215c-.12.08-1.39,1.47-1.39,1.47l1.43-.94Z" style="fill:#231f20"/><polygon points="97.69 219.83 96.21 220.28 97.77 220.65 97.69 219.83" style="fill:#231f20"/><path d="M76.51,234.74a26.84,26.84,0,0,1,3.15-.33c2.27-.1,3,.16,4.26-.25,1-.31,1.11-.63,2.91-1.84a39.3,39.3,0,0,1,4.42-2.58c2.2-1.13,3.51-1.78,5.41-2a10.51,10.51,0,0,1,2.38,0l4.18-3.61,2.38,6a8.54,8.54,0,0,0-7.46,1.23,16.54,16.54,0,0,0-3.52.25,18.64,18.64,0,0,0-8.56,4,6.76,6.76,0,0,1-1.31,1,7,7,0,0,1-2.62.86,8.82,8.82,0,0,0-3.2.25,19.13,19.13,0,0,0-2.09.74h0S76.81,237.64,76.51,234.74Z" style="fill:#231f20"/><path d="M77.29,239.45c1.13-.46,2-.77,2.58-1a3,3,0,0,0,1.19-.66,2.76,2.76,0,0,0,.7-1.11l1,.49a6.06,6.06,0,0,1-1.19,1.27,5.26,5.26,0,0,1-2.09,1.11c-.73.18-1.15.08-1.52.45a1.45,1.45,0,0,0-.37.9Z" style="fill:#231f20"/><polygon points="82.45 239.2 83.23 239.37 83.43 238.51 82.45 239.2" style="fill:#231f20"/><polygon points="86.09 237.53 86.18 236.58 86.75 236.99 86.09 237.53" style="fill:#231f20"/><polygon points="94.53 241.09 96.17 240.43 96.13 240.84 95.64 241.29 94.53 241.09" style="fill:#231f20"/><polygon points="99.94 246.87 101.05 245.64 101.33 246.29 99.94 246.87" style="fill:#231f20"/><path d="M96.91,249.53a21.12,21.12,0,0,1,1.39-1.72l.12.82Z" style="fill:#231f20"/><polygon points="96.25 250.35 95.27 250.76 96.01 250.02 96.25 250.35" style="fill:#231f20"/><polygon points="90.97 254.03 90.07 254.12 90.11 254.77 90.97 254.03" style="fill:#231f20"/><path d="M77.24,247.32a5.79,5.79,0,0,1,.53-.37,5.89,5.89,0,0,1,1.68-.7,2.48,2.48,0,0,1-1.15,2.09c1.17-.69,2.1-1.31,2.74-1.76a13.22,13.22,0,0,1,4.22-2.21c.28-.07.74-.16,1,.08s.08,1,0,1.27c-.52,1.57-2,2.45-4.42,4.26-.54.4-1.35,1-2.34,1.8l.45,1a7.16,7.16,0,0,1-2.46,2.13,6.75,6.75,0,0,1-.74.33Z" style="fill:#231f20"/><path d="M76,263.21c.44-.39,1.08-.94,1.88-1.56a38.55,38.55,0,0,1,8.77-4.88c4.23-1.76,4.76-1.34,6.68-2.79,1.68-1.26,1.55-1.79,3.73-3.52,2.69-2.14,3.3-1.67,5.2-3.44s1.72-2.63,3.65-4.55a15.82,15.82,0,0,1,4.22-3l11.47,23.88a17.46,17.46,0,0,0-2.87.53c-2,.54-2.64,1.09-6.39,3.15s-4.69,2.39-6,3.81a12.14,12.14,0,0,0-1.64,2.29l-7.21-.33,6.92-7.54L89,272.8H82c.44-.59.93-1.19,1.47-1.8a28.94,28.94,0,0,1,5-4.42,18.38,18.38,0,0,0-10.24,5.86L74.5,272Z" style="fill:#231f20"/><polygon points="108.09 211.86 108.83 215.42 106.71 218.28 104.41 215.7 108.09 211.86" style="fill:#231f20"/><path d="M105.7,211.77a14.26,14.26,0,0,1,3.9-2.55l.31.86-1.57,1.26c-.29,0-.59,0-.92.06A9.32,9.32,0,0,0,105.7,211.77Z" style="fill:#231f20"/><path d="M103.52,199.23l-1.51.22a7.32,7.32,0,0,0,3.81,2.8Z" style="fill:#231f20"/><path d="M258.16,83.49c.41-.33,1.09-.08,1.46.24a1.49,1.49,0,0,1,.45.74,1.23,1.23,0,0,1-.38.78,1.29,1.29,0,0,1-1.1.29,1.54,1.54,0,0,1-.69-1C257.88,84.48,257.75,83.81,258.16,83.49Z" style="fill:#231f20"/><path d="M262,98a1.35,1.35,0,0,1,1,.74,1.41,1.41,0,0,1-.27.64.79.79,0,0,1-1.52-.19.91.91,0,0,1-.08-.8C261.38,98,262,98,262,98Z" style="fill:#231f20"/><path d="M265.82,96.31a1,1,0,0,0,.12.86,1,1,0,0,0,.68.42.44.44,0,0,0,.38-.23.45.45,0,0,0,0-.37,1,1,0,0,0-.36-.5A1.07,1.07,0,0,0,265.82,96.31Z" style="fill:#231f20"/><path d="M258.88,102.54a2.68,2.68,0,0,0-.1,1,7.25,7.25,0,0,0,.37,1.27c.15.51.19.7.35,1.17.08.23.15.42.2.55a.89.89,0,0,0,.27-.7,8.16,8.16,0,0,0-1.09-3.28Z" style="fill:#231f20"/><path d="M253.24,111.32l8,.68c.1-.33.22-.68.37-1a14.55,14.55,0,0,1,.74-1.58,7.26,7.26,0,0,1,2.17.08,11.82,11.82,0,0,1,4,1.91,29.27,29.27,0,0,0,3.73,1.84l.41,25.34-14.38,1Z" style="fill:#231f20"/><polygon points="264.24 107.12 264.32 108.05 264.65 107.47 264.24 107.12" style="fill:#231f20"/><path d="M175.53,54.81a73.75,73.75,0,0,0-49.82,16.8c-4.76,3.78-18.58,15-26.14,34.66-3.17,8.22-4.11,15-5.16,22.53-1.49,10.69-1.28,18.58-1.07,26.87A194.76,194.76,0,0,0,99,193.12a11.4,11.4,0,0,0,.9,2.46,13.36,13.36,0,0,0,2.46,3.28c1.27,1.35,2.44,2.8,3.77,4.1,1.75,1.72,4.47,4.51,8.85,9.34l.9,3.69a4,4,0,0,0-3,1.88,3.6,3.6,0,0,0-.41,2L90.64,205.32c11,24.53,19,42.26,20.73,46.13.3.68,1.23,2.8,2.62,5.57,1,2,1.88,3.63,2.46,4.67q4.14,5.75,8.28,11.55l4.8,6.74q4.36,6.47,8.89,13,8.72,12.6,17.45,24.58l4.75-43h30.81l4.26,42.69L241,253.58c4.84-13.68,27.62-80.27,15.65-131.42-1.78-7.62-5.1-21.15-15.49-35-3.77-5-16.87-22-40.8-29.17A77,77,0,0,0,175.53,54.81Z" style="fill:#231f20"/><path d="M165.86,64.23a54.22,54.22,0,0,0-15.57,3.44c-9.84,3.78-15.89,9.45-20.73,14.09a78.23,78.23,0,0,0-20.24,30.4c-3.27,9.09-3.93,16.53-4.51,23-.9,10.16-.21,18.15.66,28,.3,3.39.1.2,2.46,17.45.62,4.5,1.06,7.87,3.11,11.88a44.7,44.7,0,0,0,4.18,6.39,67.44,67.44,0,0,0,5.82,6.8c2.85,3,5.4,10.93,3.85,33l-13.6-9.18,11.06,25.07,27.16,36.24,5.78-68.64a40.37,40.37,0,0,0-9.42-13.56,28.62,28.62,0,0,0-10.65-6.88,26.34,26.34,0,0,0-8.44-1.43l-12.41-50.64,16.9,14.5,29.8,6v26.06L174.52,202l16-5.9,0-25.52,29.35-6L237,149.91l-8,34.23,9.28-7.87-11,14.87L225.53,198l7.13-2.27-31.71,25.81,7.62-.74-12.11,8.3a33.9,33.9,0,0,0-.43,8.11c.34,5.14,1.73,14.27,1.84,15,1.23,8.06.72,7.91,1.91,15.12.77,4.65,1.59,8.4,2.15,10.82l-1,.12,1,9.77L229.52,254l-3.26-34.23a29.43,29.43,0,0,1,.61-6.33,23.66,23.66,0,0,1,1-3.75c1.33-3.46,3.2-4.83,6.58-8.91,1-1.23,2.48-3.08,4.12-5.47a19,19,0,0,0,2.27-3.38,20.57,20.57,0,0,0,2.21-8.11c.9-9.75,3.13-10.67,3.81-21.69.16-2.51.13-4.82.06-9.34-.19-13.33-.29-20-1.29-26.12a82.67,82.67,0,0,0-8.11-24.7A78.61,78.61,0,0,0,226,85.7c-4.24-4.6-10.63-11.41-21.2-16.28a59.14,59.14,0,0,0-18.89-5.1c-1.5,5.83-3.46,14.28-5.08,24.58-2.27,14.45-2.67,25.31-3.38,46.46-.84,25.05-1.38,41.4-1.6,48.18-.84-22.32-1.41-38.64-1.72-47.75-.73-21.26-1-31.6-3.26-46.33C169.28,78.71,167.3,70,165.86,64.23Z" style="fill:#fff"/><path d="M176.12,61.49l10.75-.41c-2,7.11-3.4,13.44-4.42,18.72-.81,4.19-2.18,11.88-3.15,21.51-.64,6.37-.93,11.77-1.15,16s-.34,7.54-.41,10.08L183.39,154a14.47,14.47,0,0,0,5.69,8.77,14,14,0,0,0,6.88,2.44,38.36,38.36,0,0,0,9-1.82,38.83,38.83,0,0,0,13.15-7.5c1.07-1.3,2.92-3.57,5.12-6.47,7.22-9.53,8.35-12.86,14.38-20,.92-1.1,3.41-4,6.64-7.54,1.67-1.83,3.09-3.33,4.1-4.38a158.85,158.85,0,0,1,5.43,35.7l-7.39,37.26a17.13,17.13,0,0,1-1.88,6,16.58,16.58,0,0,1-1.76,2.66c-1.75,2.15-3.41,3-5.65,4.59a50,50,0,0,0-5.31,4.28q0,6.27-.23,12.72c-.33,11.35-1,22.28-1.93,32.77l-.12,7-30.32,33.8-9.38-67.47,27.53-24L206.66,184,175.75,210.2Z" style="fill:#848414;opacity:0.25;mix-blend-mode:multiply"/><path d="M248,199.81l4.55,6.25-14,24L235,217.2l1.37-4.69,6.37-4.47-2.83.47Z" style="fill:#727929"/><path d="M176.8,261.57c4-2.7,7.35-4.88,9.83-6.45,9-5.71,12.26-7.26,14.56-8.23a65.19,65.19,0,0,1,7.44-2.64,8.44,8.44,0,0,1,6.76-7.25l-.86-5.28a4.43,4.43,0,0,0,2.58-1.23c.72-.76.75-1.47,1.35-2.64a11.79,11.79,0,0,1,2.21-2.83c3.52-3.75,5.28-5.63,7.31-6.7a16.23,16.23,0,0,1,5.59-1.72l1.84.18a10.44,10.44,0,0,1,3.26,2.15c1.19,1.16,1.28,1.84,1.78,1.84.86,0,1.52-1.95,3.93-9.34.75-2.29,1.13-3.47,2.21-4.79a10.72,10.72,0,0,1,3.93-2.95,14.22,14.22,0,0,0-1.54-7.56A112.77,112.77,0,0,0,242.86,186c-3.19-4.94-5.56-8.61-5.28-13.21.19-3.14,1.53-5.41,3.32-8.42,2.25-3.79,4-4.86,8.11-9.77,1.52-1.8,3.58-4.36,5.84-7.62a22.3,22.3,0,0,1,2-7.5,18.5,18.5,0,0,1,7.74-9,17.24,17.24,0,0,1,8.85-2.09C304.78,155.81,310,166.61,307.57,171c-1.1,1.95-5.17,5.23-9.09,4.79-1.28-.14-3.35-1.28-7.5-3.56s-4.47-2.7-5.78-2.7c-2.93,0-3.7,2.4-6.88,2.95s-5.77-1.15-6.88-1.84c-7.45-4.67-7-17.34-7.87-17.33s-1.59,10.54-2.09,53.09c4.12-8.76,11.13-12.42,15.12-10.69a7.62,7.62,0,0,1,3.93,8.23c-1.38,5-9.21,4-13,9.59-1.76,2.59-2.92,7-.49,14.75l3.56-3.44a32.89,32.89,0,0,0,5.41-6c1-1.5,1.47-2.26,1.35-3.13-.25-1.86-2.53-2.53-2.58-4.42a3.06,3.06,0,0,1,.68-1.88,4.43,4.43,0,0,1,3.31-1.8c3,.2,4.54,5.58,4.85,6.64,2.11,7.15-.85,14.05-3.44,19.91a59.81,59.81,0,0,1-6.45,11.12l-1.09,18.62a22.67,22.67,0,0,1-10.86,3.73c-6.53.44-11.63-2.26-14.09-3.56a31.06,31.06,0,0,1-3.4-2.09,10,10,0,0,1-5.94,1.19,13,13,0,0,1-5.86-2.7,39.15,39.15,0,0,1-3.81-3.11c-1.88-1.66-2.72-2.6-4.38-3a5.87,5.87,0,0,0-2.38-.16c-2.41.36-3.18,2.19-5.08,3.2-1.19.63-3.17,1.12-6.47.08a7,7,0,0,0-5-1.47,23.82,23.82,0,0,0-3.77,1.31l-3,1.07c-3.34,1.17-7.67,1.58-12,2C184.41,260.62,181,261,176.8,261.57Z" style="fill:#708035"/><polygon points="246.56 245.72 245.34 245.23 247.43 247.56 246.56 245.72" style="fill:#2f2b2c"/><polygon points="246.24 250.14 247.26 250.31 244.68 248.5 246.24 250.14" style="fill:#2f2b2c"/><path d="M258.53,241.17c.76-1.31,2.43-2.89,6.51-3.85a8.37,8.37,0,0,0-4.55,1.35c-1.25.85-1.69,1.73-3.93,4.47-1,1.2-1.82,2.16-2.38,2.79a10.11,10.11,0,0,0,2-1.47A11.83,11.83,0,0,0,258.53,241.17Z" style="fill:#2f2b2c"/><path d="M252.63,191.52l-2.07-4a3.77,3.77,0,0,1,.35,1.92,3.49,3.49,0,0,1-.08.49Z" style="fill:#2f2b2c"/><path d="M250.55,187.55a5.13,5.13,0,0,0-.3-.58Z" style="fill:#2f2b2c"/><path d="M246.93,184.34l.37.42Z" style="fill:#2f2b2c"/><path d="M246.86,184.25l.07.09Z" style="fill:#2f2b2c"/><path d="M300.11,216.1c-.51-.06-.12-2.48-1-4.63a8.93,8.93,0,0,0-5-4.42l-.86,0c-1.55-1.09-2-1.5-1.93-1.6.19-.32,5.74,2.56,5.78,2.5s-9.8-5.16-9.46-5.94c.08-.18.63,0,.78-.29.27-.49-1.12-1.75-2.38-2.79l-2.42.74,3.36,3.36a.92.92,0,0,0-.33.57c-.09.91,1.73,1.52,4.79,3.4,2.06,1.26,1.74,1.29,3.15,2,1.82,1,3.7,1.65,3.61,2,0,.15-.31.1-.49.33-.39.48.21,1.51.53,2.21.53,1.14.54,2.78.57,6.06a2.67,2.67,0,0,1-.57,2,2,2,0,0,1-.82.49c-.08,1.28-.09,2.34-.08,3.07,0,2.23,0,3.34.12,4,.17,1.27.44,2.25-.12,2.95-.2.24-.44.39-.49.74-.08.53.42.77.49,1.39,0,.21,0,.38-.45,1.31a11.26,11.26,0,0,0-.94,2,4,4,0,0,0,.29,1.84c.17.83,0,2.11-1.39,4a7.87,7.87,0,0,0,2.38-3.85,14.7,14.7,0,0,0,.37-2.17,5.1,5.1,0,0,1,.25-2,5.52,5.52,0,0,1,.74-1.07c.2-.31.42-.8.25-3.15s-.43-2.9-.08-4.14c.1-.34.11-.26.33-.94a10.65,10.65,0,0,0,.66-2.87c-.13,0-.85,2.39-1.07,2.34s.22-2.93,1-7.21c.16-.3.38-.74.61-1.27a10.52,10.52,0,0,0,1-3.15C301.19,214,300.59,216.16,300.11,216.1Z" style="fill:#231f20"/><path d="M290.4,246.33a28.57,28.57,0,0,1-3.85,2.58,13.08,13.08,0,0,0,7.62-6.19A28.57,28.57,0,0,1,290.4,246.33Z" style="fill:#2f2b2c"/><path d="M282.37,251.62a6.32,6.32,0,0,0-1.07,2.62l2.42-4A6.26,6.26,0,0,0,282.37,251.62Z" style="fill:#2f2b2c"/><path d="M318,153.42c-1.09-2.16-2.54-2.76-5.51-5.31a33.63,33.63,0,0,1-3.85-3.85c-1.9-2.25-2.1-3.12-2.17-3.52-.16-1,.07-1.44-.1-3.67a7.86,7.86,0,0,0-.25-1.78,5.18,5.18,0,0,0-2.5-2.77l1.29,1.66a4.22,4.22,0,0,1-.74,0,5.07,5.07,0,0,1-2.46-.9,9.9,9.9,0,0,0-4.83-1.7c-1.21,0-1.26.39-2.42.33a6.62,6.62,0,0,1-3.69-1.58c-1.41-1-3.94-2.18-8.87-2.34a16.12,16.12,0,0,0-8.54.68c-4.09,1.52-6.4,4.43-8.54,7.13a17.07,17.07,0,0,0-3.38,5.78,15,15,0,0,0-.7,4.59c-1,1.52-2.57,3.71-4.57,6.28-1.77,2.27-3.63,4.5-6.31,7.7-3.92,4.68-5,5.9-6,8.44a15.41,15.41,0,0,0-1.07,5.12,16.07,16.07,0,0,0,4.06,10.51,15.36,15.36,0,0,1-2.05-16.74c.36-.75.69-1.29,3.56-4.88,3-3.74,4.5-5.62,7-8.44,1.45-1.66,3.3-3.72,5.51-6.05,0,.17,0,.33.07.48-2.26,2.87-4.15,5.17-5.49,6.78-4.46,5.36-6.69,8-7.07,8.44a15.14,15.14,0,0,0-1.72,2.09,16.21,16.21,0,0,0-2.34,6.41c-.39,3.47,1.91,7,6.51,13.95,3,4.58,4.62,6.28,5.8,10.12a24.49,24.49,0,0,1,1,5.72,5.09,5.09,0,0,1-.45,2.23c-.75,1.61-2,1.94-3.34,3-1.49,1.23-2.15,3-3.46,6.62-1.08,2.94-.73,3.17-1.74,5.47-.5,1.14-2.34,5.32-4,5.1-.53-.07-.65-.55-2.52-2.77-.59-.71-1.09-1.27-1.41-1.62l1.41-3.32L239.62,219l.43,1-.94-.06a11.64,11.64,0,0,0-3.81.2c-4.48,1-7.16,4.51-8.6,6.41a22.13,22.13,0,0,0-2.7,4.63c-.4.32-1,.82-1.72,1.45-1,.89-1.37,1.31-1.82,1.7a9,9,0,0,1-3.67,1.86L227,234.49q-.85.62-1.78,1.25c-1.21.8-2.38,1.5-3.5,2.11a12.43,12.43,0,0,0,3.89-1.5c1.13-.67,1.11-.92,2.44-1.72,1.93-1.18,2.63-1.07,3.91-2.07a8.11,8.11,0,0,0,1.91-2.15,25.17,25.17,0,0,1,5.59,6.45c1.82,3.05,2.07,5,4.32,6.21a10.36,10.36,0,0,0,5,.78,6.92,6.92,0,0,0,3.65-.82,5.79,5.79,0,0,0,.88-.63c1.87-1.6,3.31-2.17,6.82-4.61.83-.58.42-.32,4.38-3.26l4.3-3.18a9.12,9.12,0,0,0,.16-2.93,9.31,9.31,0,0,0-1.68-4.38c-.51-.78-.51-1.12-.39-1.29s.28-.15.72-.29a5.73,5.73,0,0,0,.92-.39l-1.56-.18a12.31,12.31,0,0,1,4.57-7l.08,7.78a19.63,19.63,0,0,0,3.81-3.77c1.35-1.76,2.3-3,2-4.55A4,4,0,0,0,275.8,212l3.05-4.63a16.81,16.81,0,0,1,3.75,5.33,5.76,5.76,0,0,1,.66,2.81,6.39,6.39,0,0,1-1.74,3.61c-.83,1.05-1.07,1-4.12,3.81a19.89,19.89,0,0,0-2.15,2.15,27.81,27.81,0,0,0-1.84,2.77c-1.59,2.35-2,2-3.2,3.81s-.93,2.71-2.13,4a6.73,6.73,0,0,1-2.65,1.65l1.87-.17,2-1.58-1.54,4.36h-5.33c-3,2.6-5.37,4.72-7,6.22,0,0-1.31,1.23-3.53,2.92-3.2,2.43-4.32,2.72-5.25,2.49a3.38,3.38,0,0,1-1.87-1.44l-.43-1.11-4.08-3.83.67-1-1.08-.83-.52.28-3.08-4.19a2.31,2.31,0,0,1-1.72,1.15l-.74-1.47a9.1,9.1,0,0,1-4.2,2c-1.82.32-3-.07-6.21-.31-1.79-.13-3.26-.14-4.18-.13a5.65,5.65,0,0,0-4.42,4.74v3.32a10.56,10.56,0,0,0-5.72.11c-.91.3-1.64.71-3.2,1.14a19.66,19.66,0,0,1-3.29.61l1.51-1.35c-4.7,2.56-6.05,3.77-6.18,4.36a2.5,2.5,0,0,1-.41,1,2.58,2.58,0,0,1-.79.72,12.19,12.19,0,0,0-2.34,1.74,10.07,10.07,0,0,0,3-1.13,2.82,2.82,0,0,1,1.17-.38,6.84,6.84,0,0,1,1.38.22c.65,0,1-.27,1.87-.74a18.71,18.71,0,0,1,3.44-1.35c.49-.16,2.14-.7,2.21-.52s-1.2.79-3,1.87c-1.54.91-2.77,1.72-3.63,2.3l10.72-4.64c.8.19,7.63,1.75,9.83.55.94-.51,1.57-.92,1.57-.92a16.14,16.14,0,0,1,2.15-1.44,4.4,4.4,0,0,1,2.27-.28,7.21,7.21,0,0,1,3.26,1.18,9.69,9.69,0,0,1,2.27,2.3,40.27,40.27,0,0,0,3.13,2.89c2.81,2.27,7,4.28,8.66,3.26a21.22,21.22,0,0,1,1.94-1.17c.37-.2.67-.34.86-.43a20.77,20.77,0,0,0,5.35,3.44c1.57.69,3.66,1.12,7.84,2s5.38.91,6.73.86a19.64,19.64,0,0,0,4.18-.61l9-12.41a5.18,5.18,0,0,1,.83-2,6.94,6.94,0,0,1,3-2.12,36.52,36.52,0,0,0,5.44-3.41,19.86,19.86,0,0,0,2.73-2.61,9.26,9.26,0,0,0,1.72-3.69c.19-.94.12-1.43.4-2.8a21.31,21.31,0,0,1,.83-2.86c.67-2.12.52-4.54.22-9.37a8.78,8.78,0,0,1,.09-2.7c.29-1.32,1-2.6.77-2.7s-.21.19-.37.15c-.34-.08-.61-1.3-.12-2.18.33-.61.73-.51,1-1.08.47-.92,0-2.23-.37-2.24s-.24.59-.55.68c-.68.18-1.29-2.51-3.38-4.46-1.16-1.08-1.24-.5-4.27-2.43a19.9,19.9,0,0,1-3.93-3.07,15.42,15.42,0,0,1-2-2.64l.34-1.14c-2.68-1.26-5-1.08-5.75,0a2,2,0,0,0-.15,1.63c-.22-.36-.55-.89-1-1.51a39.46,39.46,0,0,0-3-3.72c-1-1.18-1.66-3.4-.49-8a17.56,17.56,0,0,1-1.81-6.21,17.12,17.12,0,0,1-.06-2.43l2.21-.25q.28.38.43.34t.15-1.26l-2.92.25.09-.52a5,5,0,0,1,0-.62l.08-.08A3.47,3.47,0,0,1,273,176a6.44,6.44,0,0,0-1-.45,6.29,6.29,0,0,0-.93-.23,3.75,3.75,0,0,1,1.2-1.7,4,4,0,0,1,2.27-.83l1-3.63-.37.55c-.82,1.23-1,1.46-1.19,1.47s-.44,0-.88-.82a12.89,12.89,0,0,1,3-4.75c.31.45,3.64,5.24,6.15,4.57a12.43,12.43,0,0,0,2.89-1.72,11.7,11.7,0,0,0,1.64-1.25c.38-.38.52-.61.86-.76a2.16,2.16,0,0,1,1.78.25,7.86,7.86,0,0,1-1.86,2.07,8,8,0,0,1-3.65,1.56,7.87,7.87,0,0,0,5-1.09,7.47,7.47,0,0,0,2-1.91,41.56,41.56,0,0,1,6.88,3.93c1.85,1.31,3.11,2.44,5.28,3a10.69,10.69,0,0,0,4.57.14,33.28,33.28,0,0,0,7.12-5.42c-.23.44-.49.89-.79,1.34a17.79,17.79,0,0,1-2.62,3.15,11.76,11.76,0,0,0,2.13-1.93,12.65,12.65,0,0,0,2.91-6.88,18,18,0,0,1-1.47,4l-1.54.64a25.07,25.07,0,0,1,2.81-6l.59-.1.39-1.66c.91-3.94,1-4.51.9-5.18-.11-1.32-.55-2.33-.37-2.4s.79,1.09.88,1A5.83,5.83,0,0,0,318,153.42ZM314.51,165a21.93,21.93,0,0,1-3.63,5.59l-.12.86a5,5,0,0,1-5,2,24.07,24.07,0,0,0,6-6.64,25,25,0,0,0,2.64-6.94,6.24,6.24,0,0,0-.06-3.63,5.52,5.52,0,0,0-1.35-2c-3.73-3.75-6.42-5.31-7.93-7.87a10.06,10.06,0,0,1-1.29-5.35,10.51,10.51,0,0,0,3,5,22,22,0,0,1,2.46,2.15c1.13,1.21,1.05,1.53,2,2.46s1.58,1,2.89,2.09a13.7,13.7,0,0,1,2.21,2.27A22.22,22.22,0,0,1,314.51,165Z" style="fill:#231f20"/><path d="M290.61,164.76a7.1,7.1,0,0,1,5.1-1.63,6.23,6.23,0,0,1-5.1,1.63Z" style="fill:#708035"/><path d="M299.82,168.7a4.27,4.27,0,0,0,3.2,1.84,7.6,7.6,0,0,0-3.2-1.84Z" style="fill:#fff"/><path d="M269.53,191.09a3.26,3.26,0,0,1,.74,1.84l-.74,1.66-.86-2.58Z" style="fill:#708035"/><polygon points="272.48 196.86 273.95 199.2 272.35 197.85 272.48 196.86" style="fill:#708035"/><path d="M273.43,214.12q.46-.83,1-1.69l.46-.72a2.32,2.32,0,0,1,.25,1.38,3.48,3.48,0,0,1-1.71,1Z" style="fill:#fff"/><path d="M252.2,259.11a1,1,0,0,0,.07,1,1.08,1.08,0,0,0,1.5,0,1.4,1.4,0,0,1-.77-.25,5.74,5.74,0,0,1-.44-.42Z" style="fill:#fff"/><path d="M257.22,261.53a2.49,2.49,0,0,0,.76.81,2.65,2.65,0,0,0,1.9.37,4.55,4.55,0,0,1-2.66-1.18Z" style="fill:#fff"/></g></g></svg>