<svg xmlns="http://www.w3.org/2000/svg" viewBox="0 0 350 350"><title>Maverick</title><g id="Maverick"><g id="Background"><path d="M60,150.25Q60,220.14,60,290l230,0q0-115,0-230L162.67,60a56.92,56.92,0,0,0-21.32-1c-1.86.29-5.07.91-7.84,1.45-7.74,1.5-9.48,2-13.33,2.67a98.06,98.06,0,0,1-12.75,1.25,26.27,26.27,0,0,0,4.75,5.5c5.08,4.44,8.77,4.16,16.92,8.67,4.24,2.34,9.48,5.95,9,7-.21.46-1.46.32-6.08-.58-8.31-1.62-12.47-2.44-14.83-3.5-3.31-1.49-5.57-3.27-10.08-6.83-4.74-3.74-5.07-4.78-9.33-7.83a62.8,62.8,0,0,0-9.08-5.42,47.18,47.18,0,0,0-13.08-4.59c-4.28-.73-8.3-.2-16.34.84a112.3,112.3,0,0,0-18.08,3.83c-2,.6-3.65,1.17-4.83,1.58.74.28,1.88.74,3.25,1.33,2.64,1.15,4.53,2.13,5.08,2.42,5.13,2.63,8,2.77,12.17,5,1.93,1,7.44,4,10.59,10,1.91,3.63,3.85,10.08,1.24,12.54-1.43,1.35-2.94.31-9.17.42a67.69,67.69,0,0,0-12.25,1.5,90.92,90.92,0,0,0-9.5,2.33c3.9,1.4,7.15,2.64,9.58,3.58,9.33,3.64,11.18,4.8,12.67,5.92a43.7,43.7,0,0,1,6.5,6.25,33.48,33.48,0,0,1,4.75,6.06c3.1,5.49,2.77,10.42,5.24,13.1a24.8,24.8,0,0,0,2.95,2.89,5.3,5.3,0,0,1,1.34,1.16c.88,1.16,1.17,2.8.73,3.07s-1.17-.53-1.51-.82c-2.71-2.32-7.15-2.82-10.22-3.16-4.27-.48-7.58.21-11.66,1.06-1.8.37-3.27.78-4.29,1.08,1.53,1.16,2.78,2,3.63,2.58,1.29.85,2.4,1.5,2.57,2.66a2.18,2.18,0,0,1,0,.81Zm77.63-69.31a58.7,58.7,0,0,0-14.19-7.56h0a29.92,29.92,0,0,1-7.52-4,29.29,29.29,0,0,1-3.6-3.1c4.76-.52,9.75-1.2,14.94-2.06,4.32-.72,8.46-1.52,12.42-2.37a69.36,69.36,0,0,1-11.23,3l-4.69.81-7.67,1.4a15.82,15.82,0,0,0,1.5,1.67c3.16,3,6.14,3.35,11.17,5.33a45.58,45.58,0,0,1,8.31,4.17,33.06,33.06,0,0,1,6.85,5.57l2.92,3.43-.68.32h-1.49A41,41,0,0,0,137.63,80.94ZM80.69,136.38a48.1,48.1,0,0,1-3.19-4.06c-3.37-4.67-2.13-7.78-4.74-13.53a26.15,26.15,0,0,0-4.57-6.84A24.37,24.37,0,0,1,70.25,114c3.8,4.29,5.66,9.46,7,13.27A33,33,0,0,0,79,131.38a28.21,28.21,0,0,0,2.19,3.69c2.52,3.55,4.06,3.7,5,6.13a8.32,8.32,0,0,1,.44,4.13l-2.06-2.06a6.66,6.66,0,0,0-.19-1.75C83.85,139.34,82.38,138.2,80.69,136.38Z" style="fill:#fff"/><path d="M280.5,280.5H205.25c-4.19-5.21-10.29-12.86-17.5-22.25-19.55-25.46-29.33-38.19-34.5-49.25-7.18-15.37-17.36-37-8.92-58.83,6.32-16.33,20.13-25.27,27.33-29.17l-.17-51.29,109-.21Z" style="fill:#191917"/><path d="M271,271l-74.88.08A114.26,114.26,0,0,0,184,237.5c-13.88-25.06-30-31.11-37.5-53.5-2.61-7.82-4.59-19-2.17-33.83l27-24.5.17-46.92L271,79Z" style="fill:#768696"/><path d="M169.5,67.63a4,4,0,0,1,2.17-.58c1.81.09,3.15,1.64,5.58,5.08,2.92,4.14,2.68,4.3,3.88,5.79a23.69,23.69,0,0,0,8.25,6.17c-.09.16-4.9-.7-8.42-4.62a105.49,105.49,0,0,1-6.75-9.29,3.67,3.67,0,0,0-2.38-1.86,2.21,2.21,0,0,0-.79.06l1.17,1.42c8.91,10.82,11.34,13.2,14.85,14.83a20.39,20.39,0,0,0,3.75,1.31c-.36-.33-.73-.78-.62-1.19.4-1.55,7.48-1,8.44-.87,4.12.35,9.17.77,14.38,3.88,4.48,2.67,4.55,4.63,10.13,9.44a57.2,57.2,0,0,0,10.5,7.19L214.5,119.5l-43.12-15.62Z" style="fill:#fff"/></g><g id="PaintSplatter"><g id="Layer_6" data-name="Layer 6"><path d="M205.42,248.35a2.06,2.06,0,0,1,1.82.3c.66.59.23,1.49.93,2.09s1.42.15,1.83.75a1.65,1.65,0,0,1,.13,1.17c-.13,1.13-.78,1.62-.54,2s.75.18.83.17c.71-.12.83-.75,1.23-.73s.46,1,1.35,1.77c.73.65,1.21.41,1.54,1,.52.85-.36,1.86.08,2.29s1.91-.65,2.71-.08c.52.37.46,1.26.46,1.63,0,2.13,1.51,3.8,3.54,6.13a18.49,18.49,0,0,0,5.42,4.25H212.31c-.56-1.33-1.12-1.7-1.56-1.75-.6-.07-1.11.45-1.5.17s-.14-.64-.5-1a1.6,1.6,0,0,0-1.25-.33c-1,.09-1.33.89-1.79.92s-1.46-1.19-2.71-6.37Z" style="fill:#566675"/><path d="M250.7,234.37a1.39,1.39,0,0,1,1.45.37,1.41,1.41,0,0,1,0,1.79.93.93,0,0,1-.79-.26c-.23-.27,0-.57-.28-.89s-.66-.25-.72-.49S250.39,234.63,250.7,234.37Z" style="fill:#566675"/><path d="M221.25,227.88a.89.89,0,0,1,.31-1.15c.47-.15,1.38.88,1.17,1.38-.11.25-.47.3-.54.31A.93.93,0,0,1,221.25,227.88Z" style="fill:#566675"/><path d="M221.5,229.58a.82.82,0,0,0-.54-.67c-.26-.09-.49,0-.94.19s-.71.29-.73.46c0,.4,1.19,1.19,1.84.77A.83.83,0,0,0,221.5,229.58Z" style="fill:#566675"/><path d="M223.6,231.5c.51-.6,1.19-.69,1.48-.44a.77.77,0,0,1,.08.9,1.09,1.09,0,0,1-1.6.13A.68.68,0,0,1,223.6,231.5Z" style="fill:#566675"/><path d="M211.35,222.4c.55-.15,1.53,1.13,1.31,1.48a1.23,1.23,0,0,1-1.69-.5C210.87,223,211.05,222.48,211.35,222.4Z" style="fill:#566675"/><path d="M181.42,198.4c.17-.21.65-.13.94,0,.85.43.84,1.84.83,2a1.33,1.33,0,0,1-1.13-.07c-.21-.15-.31-.46-.52-1.09S181.38,198.44,181.42,198.4Z" style="fill:#566675"/><path d="M187,202.31c.54,0,.9.38.88.69s-.34.46-.37.48c-.6.07-1-.3-1-.6S186.72,202.43,187,202.31Z" style="fill:#566675"/><path d="M175.23,199.63c0-.19-1.7-.22-3-1a2.49,2.49,0,0,1-.67-.5c-.45-.51-.33-.88-.69-1.1s-.77.12-1.16-.16-.14-.35-.49-.9a1.93,1.93,0,0,0-.66-.74,1.66,1.66,0,0,0-.95-.2,2.57,2.57,0,0,0-1.37.63c-.39.27-.38.35-.37.38s.44.08,1.19.21a3.61,3.61,0,0,1,.88.23,3.06,3.06,0,0,1,.87.62,12.77,12.77,0,0,0,1.44,1c1.88,1.27,1.76,1.55,2.5,1.79A2.78,2.78,0,0,0,175.23,199.63Z" style="fill:#566675"/><path d="M165.48,192.81c0,.41-.62.69-.87.81a4,4,0,0,1-2.75,0,26.76,26.76,0,0,0-4.83-.75l-2.94-5.33a2.86,2.86,0,0,0,2.12-.3c.5-.32.66-.74,1.27-.89a1.7,1.7,0,0,1,1.17.13c.61.34.63,1,.92,1.71.4.94,1.19,1.47,2.78,2.51C164.26,192,165.51,192.2,165.48,192.81Z" style="fill:#566675"/><path d="M153.88,182.85a5.42,5.42,0,0,0,1.81,1.29c.75.32,1.22.31,1.27.52s-.55.84-3.77,2.17Z" style="fill:#566675"/><path d="M257.39,267.58c.25.08.37.51.33.83-.07.51-.6,1-.94.86s-.36-.45-.34-.72C256.46,268,257,267.46,257.39,267.58Z" style="fill:#566675"/><path d="M260.52,269.16a.37.37,0,0,1,.43.18c.06.13-.14.23-.13.49,0,.08,0,.08,0,.15s-.12.45-.24.46-.33-.36-.33-.7C260.27,269.66,260.27,269.24,260.52,269.16Z" style="fill:#566675"/><path d="M262.28,270.43a.67.67,0,0,1,.52.31.57.57,0,0,1,.07.27h-1.36A.83.83,0,0,1,262.28,270.43Z" style="fill:#566675"/><path d="M250,79c.38.36.9.84,1.57,1.38,1.51,1.22,2.22,1.52,2.67,2.5.33.73.42,1.62.17,1.75s-.77-.82-2.31-2.19a8.85,8.85,0,0,0-3.15-2.18,2.41,2.41,0,0,1-1-.46,2.34,2.34,0,0,1-.62-.81l-13.87,0a2.46,2.46,0,0,1-.79,1.63,2.89,2.89,0,0,1-2.12.5c-.77-.08-1-.39-1.62-.25a1.89,1.89,0,0,0-1,.67,1,1,0,0,1-.79-.09c-.51-.33-.63-1.35-.1-2.47l-15.84,0c.69.05,1.39.2,1.5.58s-.48.66-.62,1.19c-.38,1.35,2.25,4.2,5,4.16,2.05,0,3.44-1.7,3.79-1.35.56.57-2.16,4.24-1.75,4.56.2.15.81-.67,1.75-.94,1.55-.44,3.32.82,4.81,2.31-.24.12-2.19,1.15-2,2.13.07.39.43.5,2,1.43,1.84,1.12,2.1,1.44,2.56,1.31.86-.24.67-1.57,1.56-2.12.58-.36,1.67-.43,3.94,1a12,12,0,0,1-1.75-1.62c-.76-.86-.79-1.15-1.31-1.44-1-.56-1.82,0-2.25-.56a1.37,1.37,0,0,1,.06-1.5c.34-.48.78-.34,1.25-.75.81-.71.3-1.83.75-2.12,1.06-.68,5.13,4.62,6.56,3.84.54-.29.24-1.19,1-1.71.94-.64,2.42,0,2.81.19,2.27,1,2.45,2.93,4.07,3,.77,0,.79-.39,1.87-.35a5.14,5.14,0,0,1,2.68.95,6.06,6.06,0,0,1,1.34,1.22,9,9,0,0,0,.66,3.53,5,5,0,0,0,1,1.7c.8.85,1.4.74,2.09,1.62.52.66.35.93.81,1.59a4.76,4.76,0,0,0,2.38,1.59c3.08,1.33,3.78,5.16,4.38,4.94s.27-5.15-1.94-6.06c-.56-.23-1.34-.25-1.72-.9a1.32,1.32,0,0,1,0-1.48c.7-.67,2.7.64,2.94.25.14-.22-.36-.86-.87-1.25-.69-.53-1.19-.43-1.44-.87-.12-.22-.2-.6.13-1.31a1.83,1.83,0,0,1,.82.1c.81.3,1.13,1.15,1.37,1.59,1,1.77,2.83,1,5.13,3.13a25.61,25.61,0,0,1,1.94,2.44l2.63,3.38V79Zm-25.89,3.13c-.57.14-1.23-.35-1.21-.79s.45-.61.79-.68,1,0,1.13.43A.93.93,0,0,1,224.08,82.08Zm3.42,3c-.72-.26-.64-1.09-1.48-1.48a1.31,1.31,0,0,1-.65-.4,1,1,0,0,1-.17-.62c.38-.67.76-.74.88-.75.66-.06,1.22.87,1.63,1.54a6.53,6.53,0,0,1,.71,1.68A1.36,1.36,0,0,1,227.5,85Zm8.71-.12a3.72,3.72,0,0,1-1.87,1.21,2,2,0,0,1-1-1.17,1.56,1.56,0,0,1,.5-1.71c.21-.11.37,0,.75,0,1.33.14,1.94-.42,2.21-.12S236.64,84.38,236.21,84.92Zm19,11a.86.86,0,0,1,.46-1,.87.87,0,0,1,1.12.58,1,1,0,0,1-.17,1.13C256.35,96.8,255.64,96.6,255.25,95.88Zm1.21,4.54c-.31,0-.56-.51-.54-.92a1.13,1.13,0,0,1,.71-1,1.15,1.15,0,0,1,.58.83C257.25,99.9,256.82,100.46,256.46,100.42Z" style="fill:#556775"/><path d="M233.46,78.91,227,78.86l0,0Z" style="fill:#556775"/><path d="M249.88,78.86h-2.58l0,.08H250Z" style="fill:#556775"/></g><g id="Layer_11" data-name="Layer 11"><path d="M249,89.28A1.48,1.48,0,0,1,247.5,88c0-.82,1.63-1,1.65-1.7S247,84.41,246.29,85s.3,1.93-.51,2.7a1.25,1.25,0,0,1-1.06.34c-.88-.18-.67-1.51-1.81-2.37-.92-.69-1.73-.35-2-1a1.39,1.39,0,0,1,.79-1.69c.42,0,.65.58,1.12.5a.8.8,0,0,0,.63-.69c0-.78-2-1-2.09-1.94-.07-.55.5-.9.29-1.39a1.09,1.09,0,0,0-.73-.53h2.22a2.47,2.47,0,0,0,.09.69c.23.8.81,1.25,1.66,1.91,2.15,1.67,2,1.58,2.13,1.66a12.72,12.72,0,0,0,3.81,1.94c.34.08,1.08.25,1.16.65s-.31.5-.25.85c.08.5.94.64.91.84s-1.18-.07-2.16.5S249.65,89.19,249,89.28Z" style="fill:#44525f"/><path d="M258.09,80.5a1.87,1.87,0,0,0-1.5-.69c-.15,0-.37.1-.84.53-1,.95-1.18,1.66-1.56,1.64s-.44-.63-.91-1.36A5,5,0,0,0,251.44,79h6.41l1.41,1.42c2,2,2.16,2.23,2.13,2.28S260.68,82.38,258.09,80.5Z" style="fill:#44525f"/><path d="M264.75,83.84c.37-.25,1,.11,1.31.47a1.69,1.69,0,0,1,.34,1.34,1.49,1.49,0,0,1-1.72-.47C264.42,84.77,264.4,84.08,264.75,83.84Z" style="fill:#44525f"/><path d="M271,92.87a3.13,3.13,0,0,0-.72-2.25c-.23-.24-.38-.3-1-.84a12.86,12.86,0,0,1-1-1c-.46-.54-1.23-1.55-1.09-1.69s.69.6,2.07,1.32a3.78,3.78,0,0,1,1.12.75A3.24,3.24,0,0,1,271,90Z" style="fill:#44525f"/><path d="M206.58,256c.3-.08.49.35,1,.5.89.26,1.51-1,2.21-.83s.78,1,.94,1.55c.67,2.21,1.52,2.11,3,4.95.15.28,2.57,4.94,1.6,5.7-.61.47-2.76-.46-3.93-1.95-.53-.67-.7-1.26-1.25-1.33s-.83.47-2,1.25c-1,.63-1.6,1-2,.83s0-1.36-.17-4c0,0-.08-1.72.08-4.75C206.08,257.16,206.15,256.12,206.58,256Z" style="fill:#44525f"/></g><g id="Layer_5" data-name="Layer 5"><path d="M221.25,272a1.22,1.22,0,0,0,.25-.58,1.45,1.45,0,0,0-.37-1.08c-.3-.35-.5-.28-.67-.58s0-.46-.08-.92a2.66,2.66,0,0,0-1-1.54,6.54,6.54,0,0,1-.67-.46,3.72,3.72,0,0,1-.63-.79c-.46-.7-.5-.86-.74-1.21a5.78,5.78,0,0,0-1-1c-1-.94-.9-1.35-2.29-3.12-.48-.62-.88-1-1.21-1.42a31.22,31.22,0,0,0-2.21-2.21l2.88,1.83a14.79,14.79,0,0,0,2.13,1.29,6.71,6.71,0,0,1,1.58.79,3.1,3.1,0,0,1,1,1c.41.7.09,1,.45,1.57s.87.44,1.42,1.18a12.19,12.19,0,0,1,.58,1.25,5.79,5.79,0,0,0,.79,1.29,4.14,4.14,0,0,0,.75.67c1.43,1,1.68,1.67,3.29,2.83a16.35,16.35,0,0,0,1.74,1.1l3.71.2c-1-2.3-1.68-2.81-2.08-2.75a1.4,1.4,0,0,1-.58.08,1.14,1.14,0,0,1-.87-.75c-.1-.31-.1-.81.17-1,.72-.5,2.88,1.7,3.21,1.38.11-.1,0-.42-.25-.87a5,5,0,0,0-.87-1.29c-.41-.45-.55-.46-1.08-1s-.65-.71-.58-.83.72-.06,1.2.17a4.21,4.21,0,0,1,1.83,2c.45.91.34,1.24.75,1.5.57.36,1-.14,1.88,0s1,.66,2,1.79a24.83,24.83,0,0,0,2.08,2Z" style="fill:#191917"/><path d="M206.5,258.17a2,2,0,0,1,.7-.34,1.1,1.1,0,0,1,1.63,1.14c0,.45-.07.59,0,.71.27.29,1.06-.34,1.45-.09.23.15.36.63,0,2a.8.8,0,0,1-.37.21,1.43,1.43,0,0,1-1.33-.83c-.34-.62,0-1-.37-1.42a1.87,1.87,0,0,0-1-.54c-.43-.08-.7,0-.83-.12S206.39,258.39,206.5,258.17Z" style="fill:#191917"/><path d="M211.71,263.29A.51.51,0,0,1,212,263c.35,0,.61.62,1.15,1.47,1,1.53,1.89,2.15,1.64,2.62a.48.48,0,0,1-.25.21c-.08.11-.27.32-.46.29s-.29-.27-.34-.37a9.33,9.33,0,0,0-1.37-2c-.51-.56-.85-.64-.92-1.08A1.25,1.25,0,0,1,211.71,263.29Z" style="fill:#191917"/><path d="M216,265.83a.63.63,0,0,1,.5-.25c.37,0,.74.6.75,1.46a.74.74,0,0,1-.48.09C216.39,267,216.05,266.53,216,265.83Z" style="fill:#191917"/><path d="M224.33,263.92a.87.87,0,0,1,.86-.12c.32.2.43.88,0,1.49a.86.86,0,0,1-1.17-.42A.84.84,0,0,1,224.33,263.92Z" style="fill:#191917"/><path d="M225.47,267.79a.88.88,0,0,0-.64.38.87.87,0,0,0,.08,1c.76-.32,1.18-.76,1.11-1C226,268.09,225.95,267.9,225.47,267.79Z" style="fill:#191917"/><path d="M216.46,269.63a.57.57,0,0,0,.09.84.57.57,0,0,0,.8-.2C217.38,270.08,217,269.83,216.46,269.63Z" style="fill:#191917"/><path d="M230.63,234.56a.62.62,0,0,1,.75-.12c.27.15.28.5.38.81.37,1.19,1.85,1.12,2.5,2.44a2.56,2.56,0,0,1,.25,1c-.64-.44-1.21-.84-1.69-1.19a5.61,5.61,0,0,1-2.12-2.19C230.5,234.87,230.54,234.68,230.63,234.56Z" style="fill:#191917"/><path d="M239.31,241.63c.31.19,1.49,1,1.56,1.88a.63.63,0,0,1-.12.5c-.23.22-.7.1-.94,0C239.27,243.65,239.09,242.72,239.31,241.63Z" style="fill:#191917"/><path d="M232.31,247.25c0-.31.5-.51.81-.56.62-.11,1.37.23,1.38.56s-.78.78-1.44.63C232.73,247.8,232.3,247.55,232.31,247.25Z" style="fill:#191917"/><path d="M246.88,248.63a1.33,1.33,0,0,1,1.1-.21c.58.25.91,1.35.4,2.65a5.33,5.33,0,0,0-.94-.69c-.41-.24-.62-.29-.75-.5S246.51,249.32,246.88,248.63Z" style="fill:#191917"/><path d="M252.5,248.94c.35.11.44.8.38,1.25a1.85,1.85,0,0,1-.5,1,1.2,1.2,0,0,1-1.37-.5c-.17-.45.32-.95.63-1.25S252.21,248.85,252.5,248.94Z" style="fill:#191917"/><path d="M252.63,244.88c.34-.15.68-.22.88-.06s.06.61.31.81.85-.12.94,0-.09.33-.87,1a1.73,1.73,0,0,0-.44-.48c-.57-.42-1.15-.28-1.26-.54S252.17,245.31,252.63,244.88Z" style="fill:#191917"/><path d="M251.58,252.46c-.64.26-1,.68-.87.92s.56.29.63.29a.71.71,0,0,0,.25-.21A1,1,0,0,0,251.58,252.46Z" style="fill:#191917"/><path d="M253.71,255.25a.67.67,0,0,1,1.05.67.62.62,0,1,1-1.05-.67Z" style="fill:#191917"/><path d="M258.21,245.79a1.19,1.19,0,0,0,.38.75c.55.47,1.56.25,1.67-.08A.48.48,0,0,0,260,246c-.25-.19-.48,0-.79-.17s-.26-.42-.46-.46S258.5,245.4,258.21,245.79Z" style="fill:#191917"/><path d="M259.92,250.83c.25-.17.66,0,.88.2.42.32.26.61.66,1.09s.7.38,1,.88c.15.25.32.68.17.83s-1-.24-1-.29c-.37-.23-.38-.35-1.08-1.08-.55-.57-.78-.74-.79-1.08A.66.66,0,0,1,259.92,250.83Z" style="fill:#191917"/><path d="M260.88,255.12c.14-.58.28-.7.38-.71s.26.51.87,1.71a2.93,2.93,0,0,1,.38,1.16,2.54,2.54,0,0,1,0,.42c-.31.09-.71.16-.92,0s-.11-.53-.12-1A3,3,0,0,0,260.88,255.12Z" style="fill:#191917"/><path d="M264.13,247.83c-.1.07.1.79.67,1.21.37.28.61.2,1,.38s.68.45,1.38,1.75.59,1.42,1.17,2.46a8.85,8.85,0,0,0,1.33,1.88,7.47,7.47,0,0,0,1.21,1c.78.55,1.74,1.68,2.54,4.25v-4.54a22,22,0,0,0-2-2.13c-1-.93-1.35-1.08-1.67-1.14-.6-.13-1,.05-1.25-.23s0-.65-.08-1.33a4.25,4.25,0,0,0-1.08-1.71c-.58-.71-.88-1.07-1.29-1.17s-.55.06-1-.08S264.21,247.77,264.13,247.83Z" style="fill:#191917"/><path d="M265,256.79c0-.22.07-.71.25-.75s.68.91.79,1.15c.34.79.24,1,.51,1.22.49.44,1.1,0,1.42.42s-.26,1.37.08,1.67.67-.23,1.23-.05a1.37,1.37,0,0,1,.91,1.51c-.08.28-.33.63-.64.66s-.47-.34-1.25-.79c-.32-.18-.64-.36-.82-.24s0,.46-.27.78c0,0-.21.27-.41.26s-.58-.53-.63-1,.15-.66,0-.86-.48-.07-1-.2a1.9,1.9,0,0,1-1.29-1,1.12,1.12,0,0,1,.17-1.08c.32-.31.74-.05,1-.33S265,257.56,265,256.79Z" style="fill:#191917"/><path d="M263,261.13a.69.69,0,0,1,.5-.25c.46,0,.95.7,1.08,1.76-.15.17-.46.47-.78.43S262.85,262.23,263,261.13Z" style="fill:#191917"/><path d="M267.54,263.79c.18-.22.7-.19,1,0s.25.76.75,1.5c.39.57.71.6.79,1s-.11.94-.35,1-.36-.84-1.32-1.77a2.87,2.87,0,0,1-.87-1.08C267.52,264.33,267.39,264,267.54,263.79Z" style="fill:#191917"/><path d="M268.92,100.21c-.21.11-.19.89.21,1.42s.61.33,1.58.83,1.26.85,1.38.75-.13-.74-.58-1.17-.73-.25-1.25-.75a6.29,6.29,0,0,0-.86-.86C269,100.16,268.94,100.2,268.92,100.21Z" style="fill:#191917"/><path d="M270.79,97.83c-.58-.07-.86-.81-.71-1s1.5.2,1.5.58C271.58,97.64,271.17,97.88,270.79,97.83Z" style="fill:#191917"/><path d="M265.13,92.92c.49-.13.87,0,.92.27s-.18.41-.21.44a.61.61,0,0,1-.83-.21A.58.58,0,0,1,265.13,92.92Z" style="fill:#191917"/><path d="M263.25,99.71a.56.56,0,0,0-.25,1.08.64.64,0,0,0,.54-.62A.63.63,0,0,0,263.25,99.71Z" style="fill:#191917"/><path d="M244,78.93c-.18.11-.47.34-.46.61s.32.46.65.67c1,.67,1.47,1.24,2.81,2,.13.07.39.22.5.13s0-.44,0-.54c-.4-1.06-1.41-1-2.08-2.08-.19-.32-.31-.65-.67-.79A1.06,1.06,0,0,0,244,78.93Z" style="fill:#191917"/><path d="M253,85.17A1.39,1.39,0,0,1,254,85c.36.08.79.35.75.54s-.69.41-1.17.17A1.1,1.1,0,0,1,253,85.17Z" style="fill:#191917"/><path d="M256.33,87.29a2,2,0,0,1,1.21-.54,1.92,1.92,0,0,1,1,.21,1.26,1.26,0,0,1-2.21.33Z" style="fill:#191917"/><path d="M255,88.29l.67-.33h0s.26.51.46.83a5.32,5.32,0,0,0,.71.92,1.2,1.2,0,0,1-.91.24A1.45,1.45,0,0,1,255,88.29Z" style="fill:#191917"/><path d="M214.51,215.24a1,1,0,0,1,1.14.63.91.91,0,0,1-.5,1c-.67.32-1.69-.45-1.62-.95S214.39,215.27,214.51,215.24Z"/></g></g><g id="HorseHead"><path d="M136.25,239.63a29.25,29.25,0,0,0,3.56,2.56,29.67,29.67,0,0,0,5.69,2.69c11.11,4,16,5.49,20.88,7.75a47.44,47.44,0,0,1,9.63,5.44c2.77,2.08,9,6.89,12.31,15.44a31.38,31.38,0,0,1,1.81,7h2.13a21.75,21.75,0,0,0-1.12-4.94,23.26,23.26,0,0,0-3.87-6.76A55.7,55.7,0,0,0,177,257.94c-10.38-8.06-17.53-6.5-36.9-16.31C138.39,240.78,137.06,240.06,136.25,239.63Z" style="fill:#191917"/><path d="M302.88,189.75c-5.54-7.4-11.85-15.09-19-22.87q-4.78-5.2-9.5-9.87V141l-14.28-6.93a16,16,0,0,0,7.15-7.45c2.63-5.93,1.06-13.36-4-18.91a35.34,35.34,0,0,1-35.53,10.66,159.11,159.11,0,0,0,15.14-12.09A159.13,159.13,0,0,0,258.54,90a202,202,0,0,0-47,9.73,62.64,62.64,0,0,0-6.37-1.7c-6.42-1.36-7.8-.59-13.12-1.87-4.16-1-8.18-2-10.62-5.37-.58-.8-.56-1-2-3.25a65.29,65.29,0,0,0-4.35-6c-3.23-3.76-7.64-5.32-10.71-6.4-5.13-1.82-9.45-1.93-14.48-2.06a71.84,71.84,0,0,0-8.21.25c.86.37,2.12.91,3.68,1.51,4.19,1.61,5,1.57,6.69,2.37a16.23,16.23,0,0,1,6.63,6.25c2,3.26,1.38,4.76,3.11,8.76a25.45,25.45,0,0,0,5.18,7.62,98.78,98.78,0,0,0-12.42-.42,71.29,71.29,0,0,1-8.33.11,49.67,49.67,0,0,1-8.94-1.52,107.31,107.31,0,0,1-18.9-6.16,81.92,81.92,0,0,1-16.42-9.08C95.41,77.94,95,76,90.58,73c-4.28-2.92-11.21-6.11-22.33-6.25a35.67,35.67,0,0,1,7.08,5.58c1.4,1.42,4.08,4.41,8.67,13.17,2.82,5.39,2.67,5.92,4.58,9.58,3.14,6,7,13.39,14.33,18.42,3.88,2.66,8,3.94,16.33,6.5s13.3,3.11,13.25,4.17c-.05,1.23-6.76,2.22-12.5,2.17-2.92,0-15-.14-23.35-7.05-1.23-1-3.19-2.85-4.69-4.33-3.63-3.58-5.34-5.81-6.46-7-2.48-2.53-7.23-5-17.25-4.37A50.45,50.45,0,0,1,74.47,108a25.77,25.77,0,0,1,4.78,4.61,25.36,25.36,0,0,1,3.41,6.53c1.31,3.28,1.1,3.95,2.09,6.3a17,17,0,0,0,4.5,6.83,15,15,0,0,0,3.83,2.25c5.34,2.6,8.3,7.84,9.75,10.42a30.21,30.21,0,0,1,3.79,15.83,35.89,35.89,0,0,0-10.85-4.59c-2.84-.66-5.83-1-9.1-3.24a28.83,28.83,0,0,1-3.17-2.67c-3.39-3.19-3.11-4.05-5.08-5.33-1.67-1.08-3.42-1.36-6.92-1.92a40.9,40.9,0,0,0-5.62-.5c3.33,1.07,8,3.19,9.38,7.36a8.41,8.41,0,0,1,.41,2.81c0,9.49-.82,19.37-.55,27.08a48.85,48.85,0,0,0,.86,8.59c.36,1.77.69,2.56,1,4.91.24,1.65.56,3.28.83,4.92.72,4.27,2,4.79,6,14.17a27.16,27.16,0,0,0,3.42,5.92,49.06,49.06,0,0,0,3.7,4.63c5.64,6.16,24.46,19.92,33.3,26.62,0,0,5.87,4.45,16.25,13.75a48.87,48.87,0,0,1,5.17,5.25,44.36,44.36,0,0,1,3.66,4.74c1.28,2,2.32,4,4.75,5.4.28.16.52.28.68.36,0-.18.07-.41.11-.62l-.28-.17a49.44,49.44,0,0,1-3.29-3.83c-.58-.76-1.51-1.95-2.58-3.62a25.82,25.82,0,0,0-1.83-2.79,11.86,11.86,0,0,0-2.75-2.42l.33-1.42c.13,0,.33.13.57.25a9.57,9.57,0,0,1,4,4,72.67,72.67,0,0,0,6.05,8.16,17.83,17.83,0,0,0,0-2.52,20.64,20.64,0,0,0-3.83-10.17c-4.93-7.41-10.19-9.55-15.92-15.92a42.2,42.2,0,0,1-4.65-5.79,17.36,17.36,0,0,0-1.77-2.62c-1.17-1.33-2.14-1.82-2.85-3.37a4,4,0,0,1-.44-1.44,8.4,8.4,0,0,0,.81,1.25,3.86,3.86,0,0,0,1.31.94,22.66,22.66,0,0,1-.75-8.37,42.32,42.32,0,0,0,3.08,3.75,40.28,40.28,0,0,0,9.08,7.42,37.41,37.41,0,0,0,9.17,3.58c13.08,3.85,20.16,5.94,26.62,10.14a43.93,43.93,0,0,1,8.92,7.73c0-.47.14-1,.46-1.12,1.22-.47,4.91,5.1,6.83,10.25a31.48,31.48,0,0,1,2,10.25h12.13l.25-4.25c-.11-11.12.14-22.94.88-35.37.88-15,2.37-29,4.21-42l-34.71,11.5a55.63,55.63,0,0,1-18.62-21c-2.32-4.65-4.54-9.1-4.62-15.25-.11-8.55,3.89-14.94,11.63-27.25,3.83-6.09,8.21-12,8.5-11.83s-1.21,2.41-3,5.79a146.14,146.14,0,0,0-6.29,14.25C159.82,165,158,169.91,159.17,175c1,4.08,3.14,6.7,7.08,11.42a62.82,62.82,0,0,0,12.25,11.25c10.13-2.36,17.81-4.2,22.33-5.29,10.31-2.49,15.06-3.69,18.15-1,1.77,1.54,2.32,4.44,3.35,10.17a93,93,0,0,1,1.42,13.25A77.3,77.3,0,0,0,253,222.88a20.78,20.78,0,0,0,7.62,8.93,21.48,21.48,0,0,0,8.38,2.94,46.85,46.85,0,0,0,22-2l8,3.78,9.63-9.65,2.71-36.2ZM101.5,230.83c-.28.27-3.61-2.83-5.42-4.5-3.44-3.19-1.82-2-2.83-2.87-.79-.65-1.79-1.36-1.67-2.12a1,1,0,0,1,.29-.54.77.77,0,0,1,.3-.08c.7,0,1.25,1,1.45,1.33a20.06,20.06,0,0,0,2.75,3.47c1.75,1.93,3.83,2.82,5,4.9C101.45,230.56,101.56,230.77,101.5,230.83Zm6.71,5.25s-.12,0-.79-.46c-1.11-.8-1.66-1.2-1.58-1.37s.87-.16,1.46.21C108.07,234.95,108.38,236,108.21,236.08Zm10.89,8.1c-.11.14-.4.14-.72,0-.58-.4-1.05-.74-1.37-1-.93-.68-1.22-.94-2.19-1.65s-.85-.58-1.31-.94c-1.46-1.15-1.32-1.42-2.16-1.87a2.72,2.72,0,0,1-1-.78,2.42,2.42,0,0,1-.29-.51,3.12,3.12,0,0,1,1,.13,3.4,3.4,0,0,1,1.42.88c.53.52.48.74,1,1.25a5.65,5.65,0,0,0,1.42,1c1,.62,2,1.31,3,1.92a2.4,2.4,0,0,1,1.08,1C119.1,243.79,119.21,244,119.09,244.19ZM143,262.71a6,6,0,0,1,.5.67l-.37,1.42A17.48,17.48,0,0,1,140.5,261,6.42,6.42,0,0,1,143,262.71Zm-10.17-8.25c.76-.08,1.24.59,2.29,1.54,1.78,1.6,2.46,1.52,3,2.67a4,4,0,0,1,.38,1.67l-6.42-5.54A1.46,1.46,0,0,1,132.83,254.46Zm-5.25-4.5s3,1.8,3.42,3.17a4,4,0,0,1,.15.75c0,.14,0,.26,0,.34a25.51,25.51,0,0,0-3-2.5,30.24,30.24,0,0,1-2.58-1.79c-.85-.71-1-1-2.21-2-.77-.62-1.16-.93-1.4-1.08-.79-.48-1.28-.6-1.43-1a1.33,1.33,0,0,1,.25-1.08,1.43,1.43,0,0,1,.72.22c.34.22.41.51.62.82.34.51.7.55,1.31,1a8.1,8.1,0,0,1,1.44,1.52C125.56,249,125.79,248.88,127.58,250Z" style="fill:#191917"/><path d="M75,196.75a3.69,3.69,0,0,1,.79.92,3.64,3.64,0,0,1,.27.53c.48-2.27.66-2.75.73-2.74a26.27,26.27,0,0,0,.17,4,16.59,16.59,0,0,0,.54,2.13,35.48,35.48,0,0,0,1.48,4,12.35,12.35,0,0,1-1.56-2.44,30,30,0,0,1-1.25-3.32C76,199.14,75.57,198.06,75,196.75Z" style="fill:#191917"/><path d="M74.63,189.86c.12-.75.2-.89.26-.89s.06,1.37.44,3.38a20.41,20.41,0,0,1,.56,3.33c0,.31,0,.57,0,.75q-.16-.26-.31-.55A11.65,11.65,0,0,1,74.63,189.86Z" style="fill:#191917"/><g id="Layer_9" data-name="Layer 9"><path d="M182.5,117.33l34.58,10.58,23.5,23.92-18.9-1.66-13-5.34a13,13,0,0,0,.17-8.92c-1.68-4.22-5.63-5.66-13-9.92A152.37,152.37,0,0,1,182.5,117.33Z" style="fill:#7b8e9d"/><path d="M220.75,117.83l24.67-19.75a37,37,0,0,0-11.67,2.08c-3.56,1.26-8.35,2.95-12.17,7.58a21.57,21.57,0,0,0-4.08,7.92Z" style="fill:#7b8e9d"/><polygon points="289 197.08 293.42 207.25 280.67 199.33 289 197.08" style="fill:#7b8e9d"/></g><g id="Layer_8" data-name="Layer 8"><path d="M68.5,47.25a29.14,29.14,0,0,1,11.83-1.08c3,.35,7.57.89,11.58,4.08,1.48,1.18,1.59,1.69,5.83,6.33,2.09,2.29,3.85,4.11,5,5.29a20.12,20.12,0,0,1-10.83-2.71c-2.32-1.41-2.39-2.22-6-4.82a39.19,39.19,0,0,0-8.55-4.84A35.09,35.09,0,0,0,68.5,47.25Z" style="fill:#fff"/><path d="M97.69,190.69c.2-.11.77.84,1.94,1.94a14.43,14.43,0,0,0,3.13,2.19,93.63,93.63,0,0,0,13.56,6.13c9.37,3.23,14.05,4.84,17,7.38A28.68,28.68,0,0,1,142,222.19c.19.81.46,2.4.61,3.36.35,2.23.75,4.76.33,4.89-.27.08-.76-.84-1.06-1.37-1.14-2-2.67-3.23-5.74-5.77-4.92-4.07-12.93-8.29-14.13-8.91-9.4-4.87-10.45-4.44-13.81-7.44a41.57,41.57,0,0,1-6.95-8.12,29.52,29.52,0,0,1-2.55-4.88C98.51,193.54,97.36,190.87,97.69,190.69Z" style="fill:#fff"/><path d="M227.94,124.59l42.73,23.07-6.33,10.83L301,194.17l10.33-3.49-2.71,36.2-10-27.54-7-11.52-7,1.84-34.41-30.91a12.06,12.06,0,0,0,3.72-7.5c.19-3.1-1.19-6.32-7.44-12.5A92,92,0,0,0,227.94,124.59Z" style="fill:#fff"/><path d="M239,109.63l8.06,6.75a18.34,18.34,0,0,1,2.69,7.69,18.13,18.13,0,0,1-.23,5.44l-21.77-11.13Z" style="fill:#fff"/><polygon points="215.25 135.19 221.44 146.5 237.9 149.1 227.27 138.29 215.25 135.19" style="fill:#fff"/></g></g></g></svg>