<svg xmlns="http://www.w3.org/2000/svg" xmlns:xlink="http://www.w3.org/1999/xlink" viewBox="0 0 350 350"><defs><linearGradient id="New_Gradient_Swatch_3" x1="110.22" y1="60.97" x2="241.95" y2="289.14" gradientUnits="userSpaceOnUse"><stop offset="0" stop-color="#bc1956"/><stop offset="0.64" stop-color="#df0b63"/><stop offset="1" stop-color="#b11d52"/></linearGradient><linearGradient id="linear-gradient" x1="121.79" y1="259.88" x2="239.62" y2="55.79" gradientUnits="userSpaceOnUse"><stop offset="0" stop-opacity="0.2"/><stop offset="0.58" stop-opacity="0.85"/><stop offset="1"/></linearGradient><linearGradient id="linear-gradient-2" x1="86.51" y1="210.39" x2="89.38" y2="206.98" gradientUnits="userSpaceOnUse"><stop offset="0" stop-opacity="0.2"/><stop offset="0.52" stop-opacity="0.85"/><stop offset="1"/></linearGradient><linearGradient id="linear-gradient-3" x1="82.69" y1="214.08" x2="83.89" y2="212.66" xlink:href="#linear-gradient-2"/><linearGradient id="linear-gradient-4" x1="197.62" y1="262.64" x2="206.4" y2="252.17" xlink:href="#linear-gradient-2"/><linearGradient id="linear-gradient-5" x1="207.04" y1="266.88" x2="235.42" y2="233.05" gradientUnits="userSpaceOnUse"><stop offset="0" stop-opacity="0.2"/><stop offset="1" stop-opacity="0.4"/></linearGradient><linearGradient id="linear-gradient-6" x1="87.28" y1="133.13" x2="122.82" y2="71.58" xlink:href="#linear-gradient"/><linearGradient id="linear-gradient-7" x1="241.4" y1="274.09" x2="253.38" y2="259.81" xlink:href="#linear-gradient-2"/></defs><title>Mozzie</title><g id="Mozzie"><g id="Background"><path d="M176.38,281.63a158,158,0,0,0-44-2.87l-25.12-44L70.13,258.88l-33,39.88L60,261.62Q60,160.79,60,60H290V212a56.43,56.43,0,0,0,1,8.46,61.18,61.18,0,0,0,4.5,13.75c.26.62,5.34,12.82,5,24.25-.43,14.66-9.69,25.18-11.67,27.33-10.24,11.12-23.08,13.42-30.08,14.67-15.1,2.7-27.54-.9-34.5-3-7.23-2.18-7.21-3.23-18-7.26A225.14,225.14,0,0,0,176.38,281.63Z" style="fill:#fff"/><path d="M69.49,259.63q0-95.06,0-190.13h211q0,70.5,0,141a183.44,183.44,0,0,0,5.76,34.5c1.91,7.07,3.71,11.92,2.5,18.75C286.91,274.2,279.52,280.92,277,283c-10.46,8.64-23,8.54-30.08,8.36-15.43-.37-26.47-6.05-32.67-8.86-13.94-6.33-35.44-12.71-67.5-11.5l-14.5-7.5L97,227.25l-12.31,22.5Z"/><path d="M200.67,268c-14.84-5.15-29.29-7.7-58.19-6.76l-58.81,1.92,12.5-20.83L75.33,261l3.5-8.17L79,79H271V239.05c.25,1.65.66,4.12,1.38,7.07,1.29,5.29,2.26,6.89,2.75,9.5a20.28,20.28,0,0,1-2.61,13.71c-5.24,8.45-17.15,9.17-23.36,9.54-5.09.31-9.65-.21-21.11-3A249.57,249.57,0,0,1,200.67,268Z" style="fill:url(#New_Gradient_Swatch_3)"/><path d="M108.75,233C95.5,251.38,83.93,265.22,75.5,274.75c-6.64,7.51-22.15,24.59-22.25,24.5h0c0-.21,24.12-5.15,43.5-8a426.45,426.45,0,0,1,44.14-4.13,51.75,51.75,0,0,1-10.51-16.49l-8.12-15.25-12.37,7Z" style="fill:#fff"/><path d="M147.58,271c-7.09,0-14.68.33-22.71,1-5.32.46-10.4,1.06-15.25,1.75a43.89,43.89,0,0,0,17.06,8.75c-9.28.71-19.11,1.75-29.44,3.25-9.24,1.34-18,2.91-26.25,4.63,4.88-5,9.93-10.66,15-16.87a269.33,269.33,0,0,0,18.13-25l1.13,18.63c3.68-1.15,7.72-2.25,12.08-3.21,4.81-1.06,9.34-1.79,13.5-2.29Z"/><g id="Layer_5" data-name="Layer 5"><path d="M95.25,72.25a60,60,0,0,1-11,11.5c2.78-1.47,5.78-2.95,9-4.37C97.36,77.55,101.3,76,105,74.75q-5.1,5.31-10.25,10.63Q88.37,92,82,98.5c4.31-3.76,9.22-7.7,14.75-11.62A189,189,0,0,1,113.5,76.25c-4.13,5.35-8.74,10.93-13.87,16.63-6,6.67-11.95,12.61-17.62,17.88,7-5.23,14.54-10.56,22.75-15.87,6.86-4.44,13.55-8.47,20-12.12-5.37,6.75-11.31,13.75-17.87,20.88C98.39,112.84,90,121,82,128.25q13.33-10.31,27.75-20.75,16.66-12,32.75-22.75L125.75,175a53.68,53.68,0,0,1-15.62,12.63A108.41,108.41,0,0,0,93,205.25a146.84,146.84,0,0,0,14.75-10.37c5-4,5.58-5,11.13-9.37,1.48-1.17,3.91-3.06,15.25-11,4.45-3.12,8.45-5.89,11.88-8.25a139.32,139.32,0,0,1-3.37,14.5c-1.35,4.66-2.85,8.92-4.37,12.75a48.42,48.42,0,0,1-11.37,11.75c-3.35,2.42-6.19,3.75-11,7.92-2.43,2.09-2.72,2.61-5.45,5a110,110,0,0,1-9.88,7.51c-9,6.41-15.86,12.69-15.75,12.83s4.07-3.15,11-7.87c18.55-12.64,21.64-11.57,32.63-20.5a130.48,130.48,0,0,1,15.25-11.37c3-1.9,5.63-3.33,7.38-4.25L235.38,207a37.53,37.53,0,0,0-1.24,5.88c-.75,5.85.57,6.64-.26,9.87-.45,1.77-3,4.79-8.21,10.75-2.41,2.78-3.61,4.17-4.67,5.25a67.43,67.43,0,0,1-9.75,8.25,61,61,0,0,0,15.12-8.22c3.19-2.4,6-5,12-9.28,2.46-1.75,4.53-3.11,5.92-4,3.59-1.32,4.53-1.37,4.66-1.12.36.69-5.58,3.26-5.49,6.88,0,1.68,1.35,2,1.45,3.49.28,4.27-10.31,8.42-10.32,8.4s19.21-9.66,20.22-8.07c.41.64-2.61,2.39-4,6.73-.9,2.85.09,3.31-.55,6.56-.25,1.28-.73,2.9-5.25,10-1.05,1.66-2.53,3.93-4.37,6.63a112.74,112.74,0,0,0,18.07-14.81c1.11-1.15,3.52-3.71,3.89-3.43s-2,4.09-4.08,7.24a26.69,26.69,0,0,0,11.25-9.25l3.51-7.68,2.16-54.82L275.5,76.5Z" style="fill:url(#linear-gradient)"/><path d="M90,207.5a3.58,3.58,0,0,0-2.81.13c-.88.46-1.81,1.46-1.57,2,.35.75,3.5.71,4.26-.84A2,2,0,0,0,90,207.5Z" style="opacity:0.2;fill:url(#linear-gradient-2)"/><path d="M82.75,214.13c.26.18.79-.19,1.06-.5.06-.07.45-.52.31-.75s-.95-.26-1.31.19S82.52,214,82.75,214.13Z" style="opacity:0.2;fill:url(#linear-gradient-3)"/><path d="M205.5,253.17l-.64.28a22.14,22.14,0,0,0-4.45,2.8c-2,1.63-4.7,4.58-4.25,5.17s5.06-2.13,6.88-3.35c1.29-.86,5.32-3.55,4.87-4.57C207.71,253,206.63,253,205.5,253.17Z" style="opacity:0.2;fill:url(#linear-gradient-4)"/><path d="M240.13,237c.31.35-1.77,2.37-11.87,13.38,0,0-2.22,2.41-12,11.13-1.77,1.57-3.78,3.32-6.74,3.62-3.71.38-7.27-1.68-7.12-2.5s3-.77,6-1.5c7.78-1.87,9.58-7.49,20-16.25C233.47,240.59,239.6,236.42,240.13,237Z" style="fill:url(#linear-gradient-5)"/><path d="M84.33,110.67l3.42-1.92A412.66,412.66,0,0,0,126,84.17,160.55,160.55,0,0,0,83,126.5q-1,1.5-2,3l35.33-20.67L148.67,86.5,124.17,76H99.83a19.28,19.28,0,0,0-11.58,1.63c-4.08,2-7.51,5.81-6.87,6.88,1,1.65,11.4-3.67,12.32-2,.46.81-1.8,2.77-5.18,6.21-3.87,3.94-6.85,7.44-8.89,10a74,74,0,0,0,13-5.75c8.21-4.63,12.49-9.12,13.13-8.5s-4.18,8.06-11,14.63c-7.11,6.84-14.09,10.78-13.5,11.88C81.49,111.31,82.82,111.09,84.33,110.67Z" style="opacity:0.15;fill:url(#linear-gradient-6)"/><path d="M239.83,272.75c.24.49,2.59-.16,3.58-.5,5.35-1.83,8.66-7.31,10.58-11.92a81.24,81.24,0,0,1-9,8C242.2,270.47,239.56,272.19,239.83,272.75Z" style="opacity:0.2;fill:url(#linear-gradient-7)"/></g><path d="M278.34,64.71,261.67,88,285,72.67,281.67,64Z" style="fill:#fff"/></g><g id="Helmet"><path d="M52.31,190.88l-4-7.37,92.85-100A86,86,0,0,1,162,74.1c9.24-2.73,14.17-2.41,24.47-5.44a102.7,102.7,0,0,0,17.94-7.17l-4,6.25a56.53,56.53,0,0,0,22.75-5.5l.5,3A37.41,37.41,0,0,0,246.44,62a32.48,32.48,0,0,0-5.5,6.75c-.58.94-1.07,1.87-1.5,2.75L256.94,87l25.5,40,3.12,4.76A24.7,24.7,0,0,0,302.44,127c-.83,3.7-2.58,8.49-6.75,11.75-3.05,2.38-5.29,2.31-8.25,4.63-2.53,2-5.43,5.6-6.76,12.78a24.42,24.42,0,0,0,8-1.9,34.13,34.13,0,0,1-10.25,10.5l-2.55,19.46L150.94,295l-33-36.37,3.25-20.12L142.42,231a104.25,104.25,0,0,0-17-54.74L67.17,189Z" style="fill:#090909"/><path d="M57.5,183.25,118,122l-1,21.75q7.79-2.78,15.75-5.75,7-2.61,13.75-5.25a39.25,39.25,0,0,1-15.5,3.5,38.2,38.2,0,0,1-6.75-.5l4.56-24a61.12,61.12,0,0,1,11.19-15c4.82-4.72,12.83-10.95,36-18a249,249,0,0,1,45.26-9.25c8,2.77,26.38,10.43,38.24,29.25a66,66,0,0,1,7.1,15.39l12.15,20.11-9,44.5L151,285l-23-26.25,1-15.25a108.76,108.76,0,0,0,22-9c4.42-2.41,13.53-7.77,34.25-27.75,6.64-6.4,15.23-15,24.88-25.75q-4.89,2.68-10,5.75c-4.56,2.75-8.85,5.51-12.87,8.25a87.88,87.88,0,0,0,1-24.5,86.71,86.71,0,0,0-1.52-9.61q5.3-3.32,10.77-6.64,4.08-2.48,8.13-4.87-44.09,10.54-89.12,20.75Q86.85,176.84,57.5,183.25Z" style="fill:#fff"/><path d="M65.2,175.45c3.41.33,7,.53,10.8.55a122.24,122.24,0,0,0,37.5-5.75c76.13-18.68,92.87-22.25,93-21.75.2.78-40.66,12.85-88.07,23.19-25.26,5.51-46.37,9.21-60.93,11.56Z" style="fill:#ebcad3"/><path d="M204,84.5c13.25,1,22.75,6.73,23.75,13.5a9.81,9.81,0,0,1-1,5.72q7.07-.41,14.51-1.09,5.49-.51,10.75-1.12l-9,4.38a157.94,157.94,0,0,1,6.88,14.25c1.59,3.78,3,7.42,4.13,10.88a13,13,0,0,0,10.5-5,48.15,48.15,0,0,1-4,9.75c-1.33,2.43-1.57,2.45-4.5,7.34-2.54,4.24-3,5.25-5.17,8.91-1.8,3-3.34,5.29-4.33,6.75l5.17-2.42-5.92,37.92,20.75-17,9-41.75-11.81-20.06a85.08,85.08,0,0,0-9.19-19,76,76,0,0,0-33.24-23.17,64,64,0,0,1-9.46,5.47c-5.92,2.78-11,4.06-10.81,5C201,84,201.57,84.39,204,84.5Z" style="fill:#ebcad3"/><path d="M143.63,189.68l16.06.33,13.06-19.07Z" style="fill:#ff0971"/></g></g></svg>