<svg xmlns="http://www.w3.org/2000/svg" xmlns:xlink="http://www.w3.org/1999/xlink" viewBox="0 0 350 350"><defs><linearGradient id="linear-gradient" x1="178.96" y1="135.48" x2="179.66" y2="135.48" gradientTransform="matrix(127.14, 0, 0, -8.57, -22581.86, 1263.29)" gradientUnits="userSpaceOnUse"><stop offset="0" stop-color="#fff" stop-opacity="0"/><stop offset="0.5" stop-color="#fff" stop-opacity="0.5"/><stop offset="1" stop-color="#fff" stop-opacity="0"/></linearGradient><linearGradient id="linear-gradient-2" x1="179.47" y1="155.8" x2="180.17" y2="155.8" gradientTransform="matrix(150, 0, 0, -21.43, -26816.14, 3451.14)" gradientUnits="userSpaceOnUse"><stop offset="0" stop-color="#fff" stop-opacity="0"/><stop offset="0.5" stop-color="#fff" stop-opacity="0.75"/><stop offset="1" stop-color="#fff" stop-opacity="0"/></linearGradient><linearGradient id="linear-gradient-3" x1="177.02" y1="157.5" x2="177.72" y2="157.5" gradientTransform="matrix(71.43, 0, 0, -22.86, -12414.71, 3759)" gradientUnits="userSpaceOnUse"><stop offset="0" stop-color="#fff"/><stop offset="1" stop-color="#fff" stop-opacity="0"/></linearGradient><linearGradient id="linear-gradient-4" x1="174.01" y1="157.8" x2="174.71" y2="157.8" gradientTransform="matrix(32.86, 0, 0, -22.86, -5614.71, 3781.86)" gradientUnits="userSpaceOnUse"><stop offset="0" stop-color="#fff" stop-opacity="0"/><stop offset="1" stop-color="#fff"/></linearGradient><linearGradient id="linear-gradient-5" x1="177.07" y1="158.1" x2="177.77" y2="158.1" gradientTransform="matrix(68.57, 0, 0, -22.86, -11946.14, 3804.71)" xlink:href="#linear-gradient-2"/><linearGradient id="linear-gradient-6" x1="175.9" y1="155.74" x2="176.6" y2="155.74" gradientTransform="matrix(54.29, 0, 0, -16.86, -9336.14, 2876.29)" xlink:href="#linear-gradient-3"/><linearGradient id="linear-gradient-7" x1="178.69" y1="158" x2="179.39" y2="158" gradientTransform="matrix(92.86, 0, 0, -21.43, -16526.14, 3608.29)" xlink:href="#linear-gradient-2"/></defs><title>Mute</title><g id="Mute"><g id="BackPlate"><g id="WhitePlate"><path d="M41.23,230H50.9V215h7V199h4V183h-9V167h9V151h7V135h2V120h-2V105h-9V90h-10V75h-6V60h232V75h10V90h6v15h10v15h2.67v15H301.9v16h-7v16h-3v16h-3v16h-13v16h8v15h-7v15h10v15h6v15h9v15H68.9V275h-12V260h-2V245H41.23Z" style="fill:#fff"/></g><g id="BlackPlate"><path d="M64.9,245h-8V230h3V215h7V199h7V183h-9V167h7V151h6V135h3V120h4V105h-16V90h-7V75h198V90h23v15h8v15h-4v15h5v16h-6v16h-7v16h-8v16h-4v16h7v15h-12v15h16v15h-6v15h21v5H78.9v-5h6V260h-20ZM52.9,70h214v5H52.9Z"/></g><g id="SASPlate"><path d="M110.9,260h161v10h-161Zm-30-61h19V183h-21V167h164v16h12v16h12v16h-12v15h-7v15h12v15H86.9V245h-10V230h-8V215h12Zm144-109h49v15h4v15h-9v15h10v16h-10v16H83.9V151h12V135h18V120h-10V105h-8V90h-24V81h153Z" style="fill:#906f79"/></g></g><g id="Mask"><path d="M121.9,167c-2.15-5.17-2-15-2-15s0-.36,0-1H125c0-2.61.33-9.86,2.87-16h3.94a21.51,21.51,0,0,1,2.14-4,26.17,26.17,0,0,1,13-10s.1-.36.35-1h83.29c.26.64.36,1,.36,1a26.17,26.17,0,0,1,13,10,21.51,21.51,0,0,1,2.14,4H242.1c2.54,6.14,2.85,13.39,2.87,16h-5.06c0,.64,0,1,0,1s.15,9.83-2,15h-8c-2.15,5.16-8,16-8,16l-1,9s7,2.94,15,7h-3c5.22,2.64,9.15,7.92,9.72,16h-2.89a40.48,40.48,0,0,1-2.16,15h-5.11a76.06,76.06,0,0,1-4.55,11q-1,2.06-2.16,3.86h10.78c-9.86,15.69-24.47,17.13-31.75,13-8.24-4.67-20-11.8-21.78-12.86h-.41l-10.81,7.86L161,245h-.41c-1.76,1.07-13.54,8.2-21.78,12.86C131.5,262,117,260.56,107.1,245H96.15q-1.17-1.86-2.25-4a76.06,76.06,0,0,1-4.56-11h5.11a40.5,40.5,0,0,1-2.16-15h2.89c.57-8.08,4.5-13.36,9.72-16h3c8-4.06,15-7,15-7l-1-9-.07-.12c-.65-1.21-5.92-11-7.93-15.88h8Zm33.42-62h-10c6.22-4.41,15.35-8,28.58-8h2c13,.07,22.08,3.64,28.32,8h10a34.71,34.71,0,0,1,12.32,15H143.25A33.91,33.91,0,0,1,155.32,105Z" style="fill:#fff"/><path d="M225.84,260A25.17,25.17,0,0,1,212,262.88a23.19,23.19,0,0,1-8.57-2.88Zm-83.39,0-1.07.61c-6.33,3.55-13.82,2.86-20.72-.61ZM184,244.86A38.66,38.66,0,0,1,185.29,230h4.11a34.58,34.58,0,0,0-1.48,14.86h.61q3.63,2.21,7.29,4.39a26.36,26.36,0,0,1-.94-4.39h3.93a17.49,17.49,0,0,0,3.12,8q2.22,1.27,4.46,2.5c6.12,3.29,14.54.88,20.18-3.6a35.32,35.32,0,0,0,6.53-6.87H240l-.07.12a38.5,38.5,0,0,1-15.25,14.88H202.27c-1.79-.94-3.54-2-5.29-3q-6.25-3.66-12.46-7.4l-1.6-1-11.15,8.11-11.15-8.11c-6.38,3.85-12.81,7.69-19.3,11.4h-21.8a40.8,40.8,0,0,1-15.93-15h7c4.86,6.9,12.5,12.24,20.53,12,3.66-.12,7.08-2,10.48-4A17.42,17.42,0,0,0,144.7,245h-.61l6-3.6,4.83,3.51.08,0h10.91l5.9,4.29,5.71-4.15H166.8l4.95-3.6,5.82,3.54.1-.07H184Zm-29.27.14h-6.1a26.36,26.36,0,0,1-.9,4.18Q151.24,247.1,154.73,245ZM92,215a23.37,23.37,0,0,1,5-13.31A17.44,17.44,0,0,1,99.64,199h3a44.77,44.77,0,0,1,9-5.19q3.87-1.85,7.8-3.59l.22-.1c-.26-2.3,0-5-1-6.75l-.2-.38-.07-.12c-2.78-5.17-5.82-10.31-7.63-15.88h6.37l.15.35c2.28,5,4.88,9.89,7.49,14.74l1.31,11.79c-2.74,1.17-5.48,2.36-8.19,3.59a26.73,26.73,0,0,1,4.57,1.52h-3c6.54,2.82,13.05,8.4,18.1,16h-2.89q.94,1.41,1.8,2.91a51.58,51.58,0,0,1,5.1,12.09h-4.11a49,49,0,0,0-4.43-10.1,50.44,50.44,0,0,0-3.22-4.9h2.89c-7.63-10.26-18-15.79-25.77-13.7l-.91.47c-4.72,2.49-7.15,7.76-7.76,13.23H95.43a25.43,25.43,0,0,0,0,5.67,49.22,49.22,0,0,0,2,9.33H92.38a58.66,58.66,0,0,0,6.69,14q.33.51.68,1h-7q-1-1.7-1.93-3.5-.67-1.38-1.3-2.77A80.78,80.78,0,0,1,86.13,230h5.11a41.47,41.47,0,0,1-2.18-15H92Zm45.83,30h-3.93a34.46,34.46,0,0,0-1.46-15h4.11a38.57,38.57,0,0,1,1.28,15Zm62.4-30c5.05-7.6,11.57-13.18,18.1-16h3a26.65,26.65,0,0,1,4.64-1.54c-1.84-.82-3.68-1.61-5.53-2.41l-2.74-1.17L218.88,183l.1-.91c2.67-5,5.43-9.73,7.36-15.09h6.47a41.28,41.28,0,0,1-2.37,6c-1.65,3.37-3.38,6.69-5.13,10l-.2.38-.28.53-.69,6.22c5.93,2.61,12.13,4.94,16.81,8.87h-3a20.26,20.26,0,0,1,6.72,10.24,29.72,29.72,0,0,1,1,5.76H242.8a40.83,40.83,0,0,1-1.86,15h-5.11a72.11,72.11,0,0,1-6.68,15h-6.92a49.63,49.63,0,0,0,7.23-15h5.11a62.28,62.28,0,0,0,1.7-7.23,30,30,0,0,0,.35-7.77h2.88c-.49-5.34-2.65-10.34-7.43-13l-1.15-.63c-7.81-2.19-18.23,3.35-25.9,13.66h-2.89a50.55,50.55,0,0,0-3.21,4.9,49,49,0,0,0-4.43,10.1h-4.11a51.53,51.53,0,0,1,5.1-12.09q.87-1.5,1.8-2.91h2.89Zm-51.78,0,12-12-4-4h3l-11.2-11.2,8.49-8.49,15.2,15.2,15.2-15.2,8.49,8.49L184.39,199h-3l-4,4,12,12H186.5l3.2,3.2-8.49,8.49L169.53,215h2.89l-3.51-3.51L165.39,215H162.5l-11.69,11.69-8.49-8.49,3.2-3.2h2.89Zm-14.82-48a42,42,0,0,1-2.69-16H136c0-8.72,3-13.44,6.05-16H146a13.14,13.14,0,0,1,6.95-3H157a20,20,0,0,1,9.21,2.24l1.46.76h-3.94L185,146l21.21-11h3.94l1.46-.76a20,20,0,0,1,9.21-2.24h4.12a13.14,13.14,0,0,1,6.95,3h-3.94c3.09,2.56,6.05,7.28,6.05,16H228.9a42,42,0,0,1-2.69,16h-8c-3.17,7.65-9,11.49-16.31,11.49-11.39,0-17-7.49-17-7.49a29.72,29.72,0,0,0-7.11-4h8a14.23,14.23,0,0,0-4.89-1h-2a14.23,14.23,0,0,0-4.89,1h-8a29.72,29.72,0,0,0-7.11,4s-5.61,7.49-17,7.49c-7.36,0-13.14-3.84-16.31-11.49h8Zm-11.77-16a44.35,44.35,0,0,1,2.73-16h3.94a28.5,28.5,0,0,1,5-8.35,30,30,0,0,1,8.25-6.65h8.79c-.4.93-.73,1.81-.73,1.81l-.48,1.61A22.67,22.67,0,0,0,135.59,135h-3.94a34.28,34.28,0,0,0-3.7,16h-5.06q0,.49,0,1c-.05,5.13.27,10.39,2.27,15H118.8a33.18,33.18,0,0,1-1.38-6,76.08,76.08,0,0,1-.66-10h5.06ZM242,151a34.75,34.75,0,0,0-.72-7.9,28.65,28.65,0,0,0-2.68-8.1h3.94a21.51,21.51,0,0,0-12.41-11.11l-1.57-.46a26.87,26.87,0,0,0-1.35-3.43h8.89a29.35,29.35,0,0,1,12.79,15h-3.94A43.16,43.16,0,0,1,248,151h-5.06v.09c0,1.05,0,1.36,0,1.88a49.4,49.4,0,0,1-2.09,14h-6.47a42.08,42.08,0,0,0,2.56-15q0-.51,0-1H242Zm-91.34-46h-10c9.54-7.89,23.07-11.1,35.7-11,11.8.16,23.82,3.87,32.55,11h10a35,35,0,0,1,10.32,13.57s1.4.66,2.42,1.19l.45.24h-8.89c-3.15-6.65-8.86-11.66-15.85-15h-10a55,55,0,0,0-23.42-5,50.82,50.82,0,0,0-22.52,5h10a31.71,31.71,0,0,0-14.32,13.82c-.18.36-.37.77-.54,1.18h-8.79a28.41,28.41,0,0,1,2.77-1.32,51.46,51.46,0,0,1,4.23-7.44,34.8,34.8,0,0,1,5.9-6.24Z"/></g><g id="Gradient"><rect x="171.9" y="99" width="89" height="6" style="fill:url(#linear-gradient)"/><rect x="103.9" y="105" width="105" height="15" style="fill:url(#linear-gradient-2)"/><rect x="229.9" y="151" width="50" height="16" style="fill:url(#linear-gradient-3)"/><rect x="102.9" y="167" width="23" height="16" style="fill:url(#linear-gradient-4)"/><rect x="195.9" y="183" width="48" height="16" style="fill:url(#linear-gradient-5)"/><rect x="212.9" y="245" width="38" height="11.8" style="fill:url(#linear-gradient-6)"/><rect x="66.9" y="215" width="65" height="15" style="fill:url(#linear-gradient-7)"/></g></g></svg>