<svg xmlns="http://www.w3.org/2000/svg" xmlns:xlink="http://www.w3.org/1999/xlink" viewBox="0 0 350 350"><defs><radialGradient id="radial-gradient" cx="175" cy="175" r="96" gradientTransform="translate(-17.5 350) rotate(-90) scale(1 1.1)" gradientUnits="userSpaceOnUse"><stop offset="0" stop-color="#e4c8a0"/><stop offset="0.14" stop-color="#e4c8a0" stop-opacity="0.98"/><stop offset="0.28" stop-color="#e4c8a0" stop-opacity="0.93"/><stop offset="0.41" stop-color="#e4c8a0" stop-opacity="0.85"/><stop offset="0.54" stop-color="#e4c8a0" stop-opacity="0.74"/><stop offset="0.66" stop-color="#e4c8a0" stop-opacity="0.59"/><stop offset="0.79" stop-color="#e4c8a0" stop-opacity="0.4"/><stop offset="0.91" stop-color="#e4c8a0" stop-opacity="0.19"/><stop offset="1" stop-color="#e4c8a0" stop-opacity="0"/></radialGradient></defs><title>Nomad</title><g id="Nomad"><g id="Background"><rect x="59.96" y="59.96" width="230.08" height="230.08" style="fill:#fff"/><rect x="69.5" y="69.5" width="211" height="211"/><rect x="79" y="79" width="192" height="192" style="fill:#aa8450"/><rect x="79" y="79" width="192" height="192" style="fill:url(#radial-gradient)"/></g><g id="Compass"><g id="Spikes"><path d="M85.75,264.17l69.94-52-19.44-16.32Z"/><path d="M97.25,252.63l39.63-39-6.19-6.25Z" style="fill:#fff"/><polygon points="84.81 84.63 133.67 150 151.2 132.47 84.81 84.63"/><path d="M96.67,96l39.08,40.32,6.19-5.93Z" style="fill:#fff"/><polygon points="199.83 132.61 265.17 84.63 217.67 150 199.83 132.61"/><path d="M253,97l-39.42,38.83,6.29,5.23Z" style="fill:#fff"/><polygon points="200.83 216.91 265.17 264.17 219.02 199.17 200.83 216.91"/><path d="M252.44,251.88l-44.31-34.25,6.13-4.94Z" style="fill:#fff"/></g><g id="RoundBase"><path d="M217.64,137c-3.56-3.86-18.77-19.35-42-19.3-27.48.05-50,21.74-54.75,42.24a55.43,55.43,0,0,0-1.08,15.54A61.11,61.11,0,0,0,131,207.36a65.71,65.71,0,0,0,11.43,12l-1.68.63a40.38,40.38,0,0,0,8.63,6.33S156.09,230,163,230c0,0,1.48.21,1.71-.29a3.37,3.37,0,0,0,.08-.55,3.77,3.77,0,0,0,.08-.59c-.09-.55-1.77-.71-1.77-.71a20,20,0,0,1-5.44-1.35s6.62,1.56,7.68.87l.53,0a44.54,44.54,0,0,1,10.58,2.15c5.19,1,20.36-1.77,32.93-11.18,3.43-2.57,23.54-17.6,23.91-43.35C233.56,154.75,221.43,141.16,217.64,137Zm-68.1,86.08c-.14.23-1.45-.32-2-.59a7.18,7.18,0,0,1-2.54-2.1l.12,0C147.18,220,149.77,222.76,149.55,223.13Z"/><path d="M126.12,160c5.3-17.17,18-26.12,22.88-29.12A52.78,52.78,0,0,1,175,123a48.39,48.39,0,0,1,18.88,3.31c7,2.84,11.42,6.71,15.25,10.06a42.67,42.67,0,0,1,9.46,10.71,38.5,38.5,0,0,1,3.79,8.54,27.09,27.09,0,0,0-3.25-9.83A48.72,48.72,0,0,1,225,156.5c1.57,3.95,7,19,.46,35a45,45,0,0,1-8.92,13.67c-13.37,14.84-31.39,19.47-40.75,21.08a72.15,72.15,0,0,1-18-5c-8.49-3.63-11.94-6.42-13.25-7.67a31.75,31.75,0,0,1-5.3-6.6,31.41,31.41,0,0,1,3,6.39c.35,1,.62,2,.83,2.92a60,60,0,0,1-16.5-21.42,57.48,57.48,0,0,1-3.17-8.92c0-2.26.14-5.58.46-9.58C124.33,170.76,124.95,163.8,126.12,160Z" style="fill:#fff"/><path d="M199,140.13a34.08,34.08,0,0,0-25.29-7.29A61.71,61.71,0,0,1,199,140.13Z"/><path d="M216,160.42c-2.53-4.3-7-8.38-7.33-8.12s1.86,3.06,2.93,4.81c5.58,9.14,4,22.52.32,31.6-1.67,4.11-8,17.6-23.46,23-14.77,5.1-27.35-.84-29.82-2.07-14.7-7.33-19.29-21.39-20.46-25.19a44.7,44.7,0,0,1-.22-25.08,60,60,0,0,1,3.2-6.63,57.34,57.34,0,0,1,8.46-11.5c2.07-2.17,2.9-2.68,2.86-2.74s-10,5.79-15.15,16.57a45.94,45.94,0,0,0-1.75,4.33A79.5,79.5,0,0,0,131.38,176l1.75,9.92c.78,2.58,6.16,19.22,23.67,27.17a44.28,44.28,0,0,0,32.76,1.2c1.51-.55,18-6.85,25.47-24.44C216.49,186.41,222.66,171.83,216,160.42Zm-73.21,38.76a47.06,47.06,0,0,1-6.7-10.94l.63.17.27.56a68.28,68.28,0,0,0,8.91,13.63C144.83,201.58,143.79,200.44,142.75,199.18Z"/><path d="M123.59,201.5c.26-.21,3.5,3.12,6.18,6.66,1.69,2.22,3.46,4.94,3.26,5.09s-3-3-3.37-3.47C126.59,206.22,123.31,201.73,123.59,201.5Z"/></g><g id="Arrows"><polygon points="174.97 44.46 173.34 51.97 172.18 59.85 171.25 67.77 170.08 75.65 169.07 83.56 167.87 91.43 166.26 99.24 164.65 107.05 163.87 114.99 162.62 122.86 161.1 130.69 159.75 138.54 159.15 146.52 157.85 154.67 149.89 155.81 142.28 157.32 134.53 158.08 126.92 159.58 119.38 161.44 111.77 162.93 104.02 163.67 96.43 165.24 88.8 166.66 81.25 168.49 73.47 169.06 65.98 171.21 58.33 172.5 50.56 173.17 43.09 174.98 51.07 176.56 59.23 177.6 67.29 179.19 75.37 180.73 83.63 181.14 91.67 182.89 99.86 183.7 107.87 185.63 115.95 187.08 124.19 187.61 132.17 189.78 140.28 191.15 148.47 191.96 156.57 193.34 157.76 201.16 158.82 209.01 160.82 216.71 161.74 224.58 163.19 232.37 164.69 240.15 165.74 248 167.57 255.72 168.26 263.63 169.55 271.45 171.12 279.22 172.54 287.01 173.98 294.8 175 302.54 176.79 294.93 177.69 287.04 178.75 279.18 180.48 271.43 181.68 263.58 183.58 255.87 184.42 247.97 185.91 240.18 187.01 232.32 188.71 224.57 189.83 216.71 191.98 209.04 192.91 201.14 194.02 193.01 202.17 191.9 209.99 190.4 217.83 188.96 225.8 188.34 233.58 186.6 241.46 185.42 249.37 184.43 257.12 182.5 265.03 181.52 272.85 180.01 280.67 178.46 288.69 178.1 296.45 176.19 304.09 175 296.47 173.86 288.67 172.29 280.77 171.35 272.89 170.3 265.08 168.83 257.29 167.17 249.34 166.55 241.54 165.01 233.73 163.55 225.84 162.51 217.96 161.45 210.11 160.21 202.29 158.74 194.6 157.41 193.04 149.48 191.54 141.4 190.43 133.25 189.05 125.15 187.36 117.11 185.68 109.06 184.5 100.92 183.61 92.74 181.7 84.73 180.71 76.56 179.58 68.41 178.03 60.34 176.29 52.29 174.97 44.46"/><path d="M175,175l16.18-16L175,64Z" style="fill:#fff"/><polygon points="175 175 191.56 190.92 282.5 175 175 175" style="fill:#fff"/><path d="M175,175l-106.67-.06,90.42-16.19Z" style="fill:#fff"/><path d="M175,175V282.78L159.74,190Z" style="fill:#fff"/></g></g><g id="Spikes-2" data-name="Spikes"><polygon points="66.99 118.78 67.2 120.29 67.94 121.91 68.26 123.77 69.29 125.35 70.76 126.6 72.94 127.09 75.05 127.37 76.74 127.88 78.68 127.67 80.25 128.62 81.52 129.98 83.15 130.75 84.76 131.61 86.21 132.66 87.71 133.59 88.81 135.08 90.59 135.58 91.71 137.09 93.29 137.88 94.83 138.71 96.16 139.91 97.72 140.74 99.55 141.1 100.91 142.25 102.55 142.94 103.96 144.02 105.6 144.69 107.14 145.53 108.56 146.61 110.34 147.04 111.53 148.53 113.14 149.25 115.19 150.23 112.88 149.89 111.39 148.51 109.45 148.63 107.85 147.6 106.11 147.05 104.23 146.97 102.45 146.56 100.67 146.15 99.14 144.91 97.31 144.66 95.58 144.07 93.69 144.04 92.17 142.73 90.43 142.19 88.65 141.77 86.92 141.22 84.94 141.47 83.19 140.96 81.69 139.6 79.83 139.44 78.19 138.55 76.28 138.59 74.66 137.65 72.87 137.26 71.09 136.85 69.19 136.83 67.6 135.79 65.83 135.32 64.06 134.88 62.34 134.29 62.6 132.5 63.39 130.84 63.6 129.03 64.3 127.34 64.69 125.58 65.02 123.79 65.87 122.15 66.29 120.41 66.99 118.78" style="fill:#fff"/><polygon points="146.44 105 130.46 79 138.45 79 146.44 105" style="fill:#fff"/><polygon points="197.17 114.26 197.64 112.24 198.13 110.56 199.45 109.13 200 107.44 199.72 105.53 200.43 103.89 201.16 102.24 201.02 100.22 201.51 98.34 202.25 96.49 201.86 94.47 202.16 92.56 202.9 90.81 204.49 89.79 205.89 88.33 206.61 86.45 207.79 85.17 207.73 83.45 207.77 81.8 208.71 80.03 209.32 78.27 210.57 76.86 211.34 75.09 212.16 73.36 213.58 72.05 214.54 70.42 215.34 68.73 216.23 67.09 217.66 65.65 217.8 63.7 218.15 61.83 219.21 60.23 220.14 58.6 220.74 56.81 221.41 55.02 222.22 53.5 223.3 52.14 224.42 50.83 225.66 49.61 226.34 48 226.01 49.81 226.19 51.67 226.04 53.5 225.61 55.29 225.21 57.09 225.17 58.94 224.95 60.77 224.74 62.6 223.99 64.32 223.51 66.09 222.53 67.73 222.88 69.74 222.01 71.4 221.21 73.01 221.2 74.87 219.92 76.31 219.65 78.09 219.15 79.8 218.67 81.52 218.12 83.23 217.12 84.73 216.22 86.27 215.09 87.69 214.72 89.49 214.17 91.2 212.77 92.46 211.82 93.96 210.92 95.48 210 96.99 209.67 98.88 208.07 99.96 207.72 101.87 206.46 103.16 205 104.28 204.44 106.08 203.04 107.24 202.18 108.83 201.04 110.19 199.38 111.1 198.76 112.91 197.17 114.26" style="fill:#fff"/><path d="M248,144.5l23-14.87v7.14Z" style="fill:#fff"/><path d="M211.19,271l-5.6-24.58L221.31,271Z" style="fill:#fff"/><path d="M79,211.67l27.5-8.54L79,220.42Z" style="fill:#fff"/><polygon points="123.41 300.72 124.76 299.43 125.8 297.96 126.63 296.34 127.66 294.88 128.81 293.49 130.03 292.14 131.03 290.64 131.65 288.91 132.69 287.43 133.6 285.89 134.46 284.31 134.95 282.52 136.11 281.12 137.34 279.74 137.56 277.82 138.51 276.29 139.66 274.85 140.39 273.2 141.12 271.56 142.02 269.99 142.72 268.33 143.02 266.51 143.46 264.75 144.65 263.28 145.13 261.54 146.03 259.95 146.26 258.12 146.8 256.41 147.16 254.63 147.46 252.85 148.39 251.25 148.43 249.39 149.19 247.7 149.28 245.83 150.07 244.13 150.29 242.31 150.82 240.54 150.89 238.69 151.18 236.88 151.63 235.1 152.01 233.58 151.22 234.88 150.16 236.34 148.89 237.66 148.49 239.55 146.96 240.71 146.74 242.7 145.67 244.16 144.14 245.36 143.74 247.22 142.82 248.78 141.71 250.22 140.55 251.65 139.74 253.28 139.25 255.07 138.08 256.5 137.12 258.05 137.1 260.01 135.89 261.37 135.09 262.94 134.31 264.51 133.92 266.25 132.83 267.71 132.34 269.43 132.46 271.32 131.69 272.94 131.05 274.6 131.03 276.43 130.19 278.03 129.89 279.82 129.12 281.55 127.8 283.01 127.5 284.97 126.28 286.44 125.79 288.27 124.67 289.83 124.42 291.7 124.17 293.49 123.53 295.23 123.13 297.03 123.62 298.86 123.41 300.72" style="fill:#fff"/><polygon points="233.36 196.58 234.92 197.48 236.25 198.38 237.35 199.99 238.78 201.13 240.41 201.93 241.95 202.9 243.8 203.31 245.09 204.74 246.99 205 248.45 206.14 250.17 206.72 251.71 207.72 253.4 208.37 255.16 208.84 256.98 209.08 258.68 209.79 260.43 210.38 261.88 211.63 263.43 212.63 265.47 212.6 266.71 214.21 268.62 214.49 270 215.78 271.78 216.36 273.24 217.5 274.99 218.14 276.36 219.43 278.1 220.09 279.58 221.18 281.24 222 282.44 223.53 284.06 224.4 285.83 225.06 287.42 226.57 286.99 224.38 287.7 222.51 286.85 220.65 286.79 218.78 287.22 216.94 285.45 216.41 283.67 216.07 281.78 215.95 280.3 214.8 278.5 214.19 277.08 212.96 275.37 212.03 274.41 210.31 272.63 209.66 270.99 208.77 269.38 208.52 267.69 208.52 266.31 207.39 264.81 206.58 263.06 206.28 261.52 205.3 259.8 205.19 258.12 205.31 256.32 205.76 254.68 205 253.1 204.19 251.33 203.97 249.61 203.59 248.03 202.79 246.46 201.99 244.73 201.62 243.03 201.14 241.62 199.94 239.79 199.79 238.29 198.81 236.64 198.21 234.97 197.64 233.36 196.58" style="fill:#fff"/></g></g></svg>