<svg xmlns="http://www.w3.org/2000/svg" xmlns:xlink="http://www.w3.org/1999/xlink" viewBox="0 0 350 350"><defs><radialGradient id="radial-gradient" cx="175" cy="175" r="96" gradientTransform="translate(-97.24 150.25) rotate(-45) scale(1 1.2)" gradientUnits="userSpaceOnUse"><stop offset="0" stop-color="#fff"/><stop offset="0.16" stop-color="#fff" stop-opacity="0.99"/><stop offset="0.29" stop-color="#fff" stop-opacity="0.95"/><stop offset="0.41" stop-color="#fff" stop-opacity="0.88"/><stop offset="0.52" stop-color="#fff" stop-opacity="0.78"/><stop offset="0.63" stop-color="#fff" stop-opacity="0.66"/><stop offset="0.74" stop-color="#fff" stop-opacity="0.51"/><stop offset="0.84" stop-color="#fff" stop-opacity="0.33"/><stop offset="0.94" stop-color="#fff" stop-opacity="0.13"/><stop offset="1" stop-color="#fff" stop-opacity="0"/></radialGradient><linearGradient id="Unbenannter_Verlauf_42" x1="179.59" y1="162.58" x2="225.34" y2="208.33" gradientUnits="userSpaceOnUse"><stop offset="0" stop-color="#d75b2b"/><stop offset="1" stop-color="#7f2907"/></linearGradient></defs><title>Pulse</title><g id="Pulse"><g id="Background"><rect x="59.96" y="59.96" width="230.08" height="230.08" style="fill:#fff"/><rect x="69.5" y="69.5" width="211" height="211"/><rect x="79" y="79" width="192" height="192" style="fill:#d75b2b"/><rect x="79" y="79" width="192" height="192" style="fill:url(#radial-gradient)"/></g><g id="SplashEye"><g id="top_splahes" data-name="top splahes"><path d="M240.9,63.19c-1.48.25-2.55.37-3.74.5-8.69,1-9.36,1.08-10.13,1.2a61.45,61.45,0,0,0-6.69,1.4c-5.44,1.53-8.13,3.8-14.92,8.13-2.74,1.74-6.72,4.19-11.74,6.95-7.55,5.05-14.53,8.28-16.25,8.61-9.93,6.35-16.44,11.94-15.09,15.36,1,2.47,5.89,2.48,14.33,2.5,24.88.05,56.25-8.48,62.75-25.08.3-.77,3-7.56.33-10-2.37-2.21-7.68-.19-8.17-1.58-.29-.84,1.42-2.21,2.54-2.92,2.15-1.35,4.86-2,10.38-1.5,6.64.55,9.18,2,9.57,1.23.58-1.1-4-6.11-8.44-5.73C244.6,62.34,244,62.68,240.9,63.19Z" style="fill:#202020"/><path d="M236.56,70a.84.84,0,0,0,.59.25c.52.07,1.3-.12,1.5-.69A1.33,1.33,0,0,0,237.5,68C236.74,68.07,236.16,69.51,236.56,70Z" style="fill:#202020"/><path d="M246.06,68.59c-.13-.53-1.2-.83-2-.59-1.46.44-1.77,2.65-1.28,3C243.43,71.53,246.31,69.57,246.06,68.59Z" style="fill:#202020"/><path d="M240.59,68.06a.59.59,0,1,0,1.07.06A.74.74,0,0,0,240.59,68.06Z" style="fill:#202020"/><path d="M249.88,68.47c-1.15-.52-4.84,3.78-4.22,4.66.43.61,3.38.18,4.31-1.91C250.41,70.22,250.45,68.73,249.88,68.47Z" style="fill:#202020"/><path d="M243.63,73.22c-.24-.12-1,.58-.87.91s.44.27.69.16A.74.74,0,0,0,243.63,73.22Z" style="fill:#202020"/></g><path d="M69.5,226.82c18.55,14.68,35.5,21.33,46.66,24.62,6.53,1.92,15.21,4,32.86,6.27,11.21,1.43,23.42,4.82,34.77,3,8.24-1.3,14.73-4.72,23.33-5,9.12-.28,14,.47,20.85-5.62,2.29-2,4.91-2.89,7.35-4.51,3.74-2.49,5.36-6.84,9.2-9,3.44-1.93,5-1.19,7.84-4.88A37.91,37.91,0,0,1,260.5,224c6.21-4.73,9.54-12.3,13.36-18.89,1.62-2.8,4.1-5.9,5-9.07.39-1.36.08-2.87.47-4.14,1-3.24.48-1.94,2.76-4.28,5.91-6,6.09-8.49,4.27-16.87-1.17-5.38,5.7-13.1,3.27-17-3.67-5.87-17.14.21-21.47,1.61-19.61,6.36-29.75,8.45-37.07,12C212.86,176.29,161.64,195.24,69.5,226.82Z"/><path d="M69.5,192.71v-14c.89-.9,1.87-1.82,2.94-2.76,1.33-1.15,2.62-2.16,3.85-3,1-.86,2.77-2.44,5-4.42,22.6-19.68,27-21.54,33.67-29.75,2.1-2.6,3.55-4.77,6.75-7.37,4-3.29,6.4-3.63,9.75-7.37,2.47-2.76,1.54-3,4-5.56a27,27,0,0,1,9.86-6.83c2.07-.8,3.59-1,5.27-2.6,1.16-1.08,1.32-1.79,2.69-3.37a26.62,26.62,0,0,1,4.31-3.75,59.64,59.64,0,0,1,9.75-6.26c1.73-.87,2.33-1.05,5.36-2.34,9.35-4,10.68-5.19,16.77-7.52a58.24,58.24,0,0,1,9.83-3.17c6.7-1.4,9.5-.47,16.83-2,4.75-1,4.06-1.44,8.25-2.33,8.16-1.74,14.86-.9,23.52.19a107.15,107.15,0,0,1,12.19,2.13,102.6,102.6,0,0,1,19.54,6.77v27L69.42,209.42Z"/></g><g id="Icon"><path d="M295.5,107a223,223,0,0,1-26.75,77.75C256.32,206.5,243.51,228.92,216.5,242c-18.95,9.17-37.11,10-48.34,9.49l-101.41-31V199.75c19.73-16.94,37.86-32.16,54-45.5,45.31-37.47,62.82-50.18,88.75-58,19.53-5.89,32.79-5.67,40.5-5A101,101,0,0,1,295.5,107Z"/><g id="Eyeball"><path d="M249.29,165.29C249,202.92,217.44,238.4,176,238.13c-40-.26-72.89-33.71-72.42-74.12,14.37-12.3,30.52-25.09,48.54-37.87,16.61-11.78,32.68-22.05,47.88-31C230,107.19,249.55,135.32,249.29,165.29Z" style="fill:#fff"/><g id="circles"><circle cx="176" cy="164.46" r="14.46" style="fill:none;stroke:#000;stroke-miterlimit:10;stroke-width:4px"/><circle cx="176" cy="164.46" r="34.75" style="fill:none;stroke:#000;stroke-miterlimit:10;stroke-width:4px"/><path d="M177.67,110.88a53.59,53.59,0,1,1-54.46,44.28" style="fill:none;stroke:#000;stroke-miterlimit:10;stroke-width:4px"/></g><g id="lines"><line x1="111.5" y1="164.47" x2="141.25" y2="164.46" style="fill:none;stroke:#000;stroke-miterlimit:10;stroke-width:4px"/><line x1="210.75" y1="164.46" x2="251.83" y2="164.47" style="fill:none;stroke:#000;stroke-miterlimit:10;stroke-width:4px"/><line x1="176" y1="129.71" x2="176" y2="113" style="fill:none;stroke:#000;stroke-miterlimit:10;stroke-width:4px"/><line x1="176" y1="199.21" x2="176" y2="241.7" style="fill:none;stroke:#000;stroke-miterlimit:10;stroke-width:4px"/></g><g id="dots"><circle cx="211.85" cy="124.61" r="6.9"/><circle cx="146.42" cy="180.73" r="6.64"/><circle cx="161.54" cy="214.23" r="7.1"/></g><path d="M235.83,184.43a63.87,63.87,0,0,1-31.3,37.48L175,165.46Z" style="opacity:0.8;fill:url(#Unbenannter_Verlauf_42)"/></g><path d="M247.5,86.25c-44.89-2-76.94,21.23-86.5,28.75L62.83,197.17,63.17,223a584.43,584.43,0,0,0,78.11,25.66c15.52,3.88,25,5.54,36.72,5.34,7.77-.13,30.64-.78,52.5-13.83,20.67-12.34,30.12-29.6,41.67-51.33a261.73,261.73,0,0,0,28-88.25A126.44,126.44,0,0,0,247.5,86.25ZM257.83,193c-16.27,26.77-28.94,35.4-35.33,39.17-19.2,11.31-38.45,12.12-45.37,12.33-11.67.36-21.14-1.38-36.62-5.5a547,547,0,0,1-71-24.31l-.12-10.81c6-5.8,85.48-81.48,135.46-101a99.56,99.56,0,0,1,33.83-7.5c22.42-.83,40.43,6.51,51,12C282.52,147.4,268.22,175.92,257.83,193Z" style="fill:#fff"/></g></g></svg>