<svg xmlns="http://www.w3.org/2000/svg" xmlns:xlink="http://www.w3.org/1999/xlink" viewBox="0 0 350 350"><defs><radialGradient id="Unbenannter_Verlauf_558" cx="13.71" cy="75.8" r="236.88" gradientUnits="userSpaceOnUse"><stop offset="0.37" stop-color="#fff"/><stop offset="0.98" stop-color="#906f79"/></radialGradient><radialGradient id="Unbenannter_Verlauf_615" cx="31.49" cy="63.19" r="236.04" gradientUnits="userSpaceOnUse"><stop offset="0.3" stop-color="#fff"/><stop offset="0.94" stop-color="#906f79"/></radialGradient><radialGradient id="Unbenannter_Verlauf_689" cx="120" cy="43.05" r="195.94" gradientUnits="userSpaceOnUse"><stop offset="0.57" stop-color="#fff"/><stop offset="0.94" stop-color="#906f79"/></radialGradient></defs><title>Sledge</title><g id="Sledge"><g id="Background"><g id="BG_Shapes" data-name="BG Shapes"><path d="M181,290H59.87V60H290.13q0,28.76,0,57.52L290,130,240.23,73.75,115,201l22.75,65.5L236.51,290Z" style="fill:#fff"/><path d="M180.83,280.79H69.18V69.39H280.82V139.5L241.5,102l-16.67,73-81.18,27.73Z"/></g><g id="Frags"><polygon points="270.17 185.17 272.5 203.5 287.5 188.17 270.17 185.17" style="fill:#fff"/><polygon points="247.33 233 262.33 258.83 278.83 231.5 247.33 233" style="fill:#fff"/><polygon points="276 258.83 287.5 266.33 287.5 252 276 258.83" style="fill:#fff"/><polygon points="243.33 281.5 255.67 269.83 259.5 286.83 243.33 281.5" style="fill:#fff"/></g><g id="Splashes"><path d="M44,231.67c-.56-1-2.76-.93-3.15-.18-.25.49.23,1.3.81,1.71a1.74,1.74,0,0,0,2.07.09A1.42,1.42,0,0,0,44,231.67Z" style="fill:#62565a"/><path d="M34.15,179.17c-.56-1-2.76-.93-3.15-.18-.25.49.23,1.3.81,1.71a1.74,1.74,0,0,0,2.07.09A1.42,1.42,0,0,0,34.15,179.17Z" style="fill:#62565a"/><path d="M162.75,247.75c-.54-1.88-3.58-6.78-35.37-6.37-20.08.25-16.48,2.17-26.5,1.37-6.77-.54-22.52-2.55-42.38-5.87-2.6-.44-5.31-.91-5.62-.13-.86,2.07,15.86,11.58,31.5,17.75,7.21,2.85,3.94.94,20.5,6.5,7.51,2.52,12,4.19,18,3.25,2.7-.42,3.09-1,7.12-1.63a49.65,49.65,0,0,1,13.88-.5,120.53,120.53,0,0,1,15.4,2.57c.82.22,3,.82,3.47.06s-.78-2-1.37-3C158.51,257.12,163.85,251.6,162.75,247.75Zm-56.42,4.08c-.48-.4-1.74-1.45-1.5-2,.41-.92,4.73.18,5.34.34,4.56,1.18,10.19,4,9.83,5.16C119.58,256.68,111.09,255.79,106.33,251.83ZM133,258.67c-.24.55-1.77.35-2.5.16-.46-.11-1.46-.37-1.5-.83s1.2-1.39,2.33-1.17S133.22,258.16,133,258.67Z" style="fill:#62565a"/><path d="M106.88,222.13c-3,2.18-8.85-7.08-29.12-18.87C63.22,194.8,44.56,187,40.63,186.13c-.26-.05-1.39-.27-1.37-.5s3.1-.65,5.5-.5a21.08,21.08,0,0,1,8.75,2.63c8.38,4.49,33,12.75,44.38,16a11.38,11.38,0,0,1,3.5,1.25C107.65,208.74,109.78,220,106.88,222.13Z" style="fill:#62565a"/><path d="M142.38,144.25a6.31,6.31,0,0,0-1.38-1.13c-5.1-3-29.75-27-29.75-27-14-12.25-14-12.25-17.83-16.6-.39-.43-4.06-3-5.76-2.85a6.27,6.27,0,0,0-1.83.83c-.56.27-.36,2.16-.36,2.16.72.58.19.75,4.78,6,1,1.1,3.21,3.82,2.5,4.88-.37.56-1.47.52-2.13.38-1.45-.33-1.95-1.48-3.12-2.63-1.44-1.42-4.39-3.32-6.25-2.37-1.55.78-2.18,3.47-1.37,5.12a3.64,3.64,0,0,0,1.74,1.62c6.61,3.24,35.21,33.46,42.5,36.63a6.18,6.18,0,0,1,3.13,1.63c1.65,1.9.44,4,1.5,5.37,2.25,2.85,13.73.73,15.25-5.13A8,8,0,0,0,142.38,144.25Zm-25.21-8.75c-.37.17-1.12-.75-1.34-1-3.6-4.25-16-11.18-14.83-14a2.06,2.06,0,0,1,1.67-1,3.22,3.22,0,0,1,2.33,1.33c3.8,4.29,11,7,12.17,12.5C117.25,133.73,117.59,135.3,117.17,135.5Z" style="fill:#62565a"/><path d="M78.38,96.13c-2.62.57-6-5.08-7.54-9.12-.79-2.12-1.35-3.61-.83-4,1.49-1.11,11.66,7.2,10.08,11.5A2.56,2.56,0,0,1,78.38,96.13Z" style="fill:#62565a"/><path d="M59.49,76.49c-1.54.89-7.06-2.7-6.86-5.86a1.12,1.12,0,0,1,.36-.9c1.2-.9,5.95,1,6.82,4.18C59.86,74.08,60.37,76,59.49,76.49Z" style="fill:#62565a"/><path d="M103.42,104.88c-2.43-1.46-10.51-9.8-12.79-11.17a2.87,2.87,0,0,1-1-1,2.19,2.19,0,0,1-.17-2.08c.56-.82,2.18-.57,2.67-.5,6.25.95,10.44,11.59,12.67,13.13.11.08.56.37.58.79a1.23,1.23,0,0,1-1,1.08A1.34,1.34,0,0,1,103.42,104.88Z" style="fill:#62565a"/><path d="M120.38,112.88c-6.87-3.49-8.11-8.35-12.37-10.87-.27-.16-.9-.51-1-1.12-.22-1.3,2-3.41,3.75-3.12,1.3.21,1.48,1.61,4.13,3.13,1.22.7,1.52.6,1.63.5.39-.35-.59-1.59-.69-3.75,0-.72-.08-1.85.5-2.19s1.63.35,2.31.81c6,4.07,7.83,4.1,9.06,6.94a6.66,6.66,0,0,1,.56,1.88c.53,3.9-2.65,8.41-5.69,8.5A4.32,4.32,0,0,1,120.38,112.88Z" style="fill:#62565a"/><path d="M95.33,84.67C94,81.87,89.4,80.05,85.33,75c-1.44-1.8-3.54-4.91-3.08-5.33,1-.89,11.65,11.34,15.67,13.92.28.18,1,.64,1,1.17-.06.7-1.58,1.41-2.58,1A2,2,0,0,1,95.33,84.67Z" style="fill:#62565a"/><path d="M90.33,84.42c-2.66-4.48-7.14-8.21-12.75-12.83-1.49-1.22-2.07-1.41-2.25-1.25-.62.54,3.1,5.88,6.58,9.75a40,40,0,0,0,7.58,5.83c.42.27,1.32.83,1.58.58S91.16,85.8,90.33,84.42Z" style="fill:#62565a"/><path d="M130.33,76.33c-.93-1.25-2.77-2.6-3.83-2a1.91,1.91,0,0,0-.75,1.42c-.27,2,1.72,4.36,3.67,4.33a2.18,2.18,0,0,0,1.75-.83C131.74,78.23,130.66,76.77,130.33,76.33Z" style="fill:#62565a"/><path d="M217.17,104c-.13-2-1-5.48-2.83-12.33-.91-3.46-1.54-5.58-.33-7.17a3.91,3.91,0,0,1,4-1.5c2.27.82,1.39,4.69,4.5,6.83.15.1,2.31,1.56,3.33.83,1.64-1.17.25-7.88-3.17-13-1.69-2.54-3.23-3.69-2.83-5.33s2.78-3.12,4.83-3c4.14.24,6.58,6.56,7.33,8.5,2.46,6.36-.34,8.35,1.67,11.67,3.82,6.3,15.2,2,18.58,8.13A9.21,9.21,0,0,1,250.5,108c-2.74,2.38-5.77.11-9.62,3-2.13,1.59-1.92,2.81-5,5s-4.83,2.07-5.5,1.67c-1.5-.89-1.76,0-2.67-8.92-.33-3.25.07-4.64-1-5s-1.92.26-2.33,1.79c-.69,2.54,0,4.92-.2,7.43-1.23,15.61-6.65,2.95-8.14,1.9C214.83,114,217.57,110.46,217.17,104Z" style="fill:#62565a"/><path d="M243.67,71.33a2.4,2.4,0,0,0-2.83-.5c-1.16.8-1,3.29.33,4.17a2.29,2.29,0,0,0,2.67-.17A2.54,2.54,0,0,0,243.67,71.33Z" style="fill:#62565a"/><path d="M118.83,61.83c-.63-.37-2.61.58-2.5,2,.08,1,1.16,1.84,1.83,1.67C119.23,65.22,119.61,62.29,118.83,61.83Z" style="fill:#62565a"/><path d="M104.5,50.83c-.8-.65-2.14-1-2.67-.5s0,2.13.83,3,2.28,1.34,2.83.83S105.64,51.76,104.5,50.83Z" style="fill:#62565a"/><path d="M271.33,72c-.83,0-1.67,2-1.83,3.5-.09.9-.08,2.85.83,3.17.7.24,1.69-.55,2.17-1.33C273.71,75.33,272.36,72.06,271.33,72Z" style="fill:#62565a"/><path d="M142.5,94c-.56.64-4.66-2.63-5.67-1.67-.49.47,0,1.72.17,2.17,1.37,3.45,4.72,5.21,9.5,7.83,7.75,4.26,8.92,5.11,9.67,4.5,1.48-1.23-1-6.44-2-8.67-2.89-6.18-7.37-9.9-16.33-17.33-.47-.39-1.3-1.07-1.67-.83-.78.51.86,5,3.17,8.83C141.13,91.78,142.89,93.56,142.5,94Z" style="fill:#62565a"/></g><g id="Impact"><path d="M47.75,200.5l115,66.33,55.8-20.93-99-42.66Z" style="fill:url(#Unbenannter_Verlauf_558)"/><path d="M251.5,216.44l-16.59-96.1L165.25,40.75l32.25,123L40,120.75l96.19,74.78Z" style="fill:url(#Unbenannter_Verlauf_615)"/><path d="M259.67,61.75l30.91,69.06L273.88,149l-20.58-37.33Z" style="fill:url(#Unbenannter_Verlauf_689)"/><path d="M244.92,247.87l-61.28,22.5,52.63,10.38.25,9.25-96.1-16,76.08-28.17L57,181l193,33.66L222.25,52.75l51.69,94.63,23.91-26L290,182.74H278.76L282,155.62l-10.62,9.63-28.12-51.62,17.56,110.61L151.64,206.87Z" style="fill:#fff"/></g></g><g id="Icon"><polygon points="65.07 234.59 196.79 102.79 216.53 122.53 64.3 274.99 65.07 234.59" style="fill:#fff"/><path d="M196.79,107l15.5,15.5L67.44,267.59,68,235.85,196.79,107m0-8.49-4.24,4.25L63.88,231.54l-.08.08-1.71,1.71,0,2.42-.3,15.87-.3,15.87-.29,14.9,10.53-10.54L216.53,126.78l4.24-4.24-4.24-4.24L201,102.79l-4.24-4.24Z"/><rect x="59.87" y="217.17" width="9.31" height="70.33" style="fill:#fff"/><path d="M193.23,192.48,120,118.88l20.69-18.66,2,2.43a19.06,19.06,0,0,0,14.13,6.78c8.93,0,14.16-6.55,14.73-7.3l2.09-2.75,57.12,57.81,0,10.4-25.57,24.95Z" style="fill:#fff"/><path d="M173.92,104l53.83,54.48,0,7.91L204,189.54l-9.52-.05L124.33,119l16-14.44a22.13,22.13,0,0,0,16.44,7.88h.11c10.36,0,16.37-7.62,17-8.48m-.59-9.13-4.19,5.5c-.48.63-4.87,6.11-12.25,6.11h-.08A16,16,0,0,1,145,100.76l-4-4.87-4.67,4.21-8,7.22-8,7.22-4.68,4.22,4.45,4.47,35.08,35.24,35.08,35.24,1.74,1.75h2.47l4.77,0,4.74,0h2.46l1.76-1.72L224,178.37l7.93-7.73,1.82-1.78v-2.54l0-5.27V156L232,154.22,178.18,99.74l-4.86-4.91Z"/></g></g></svg>