<svg xmlns="http://www.w3.org/2000/svg" xmlns:xlink="http://www.w3.org/1999/xlink" viewBox="0 0 350 350"><defs><radialGradient id="radial-gradient" cx="175" cy="175" r="96" gradientTransform="translate(-87.5 350) rotate(-90) scale(1 1.5)" gradientUnits="userSpaceOnUse"><stop offset="0" stop-color="#fd6566" stop-opacity="0.75"/><stop offset="0.5" stop-color="#f96263" stop-opacity="0.73"/><stop offset="1" stop-color="#891716" stop-opacity="0"/></radialGradient></defs><title>Tachanka</title><g id="Tachanka"><g id="Background"><path d="M279.58,118.1,290.13,101V60H59.87V290H290.13V259.15l-10.45-4.22Z" style="fill:#fff"/><rect x="69.18" y="69.39" width="211.64" height="211.4"/><rect x="78.75" y="79" width="192.25" height="192" style="fill:#891716"/><rect x="79" y="79" width="192" height="192" style="fill:url(#radial-gradient)"/></g><g id="Splatter"><path d="M230.08,101.23c1.71-1.15,3.19-1,4.75-1.29,2.32-.51,2.53-1.71,5.34-3.52,3.18-2.05,4.19-1.34,9.79-3.57,3.28-1.31,3-1.56,6.84-3.28,5.48-2.43,10.91-4,11-3.74.18.46-11.67,6-18,8.75a33.33,33.33,0,0,0-7.25,3.75,48.77,48.77,0,0,1-4.5,3.08,16.18,16.18,0,0,1-3.25,1.67c-2.73.92-6,.8-6.25-.08C228.39,102.37,229.76,101.45,230.08,101.23Z"/><path d="M198.08,98.15c-.14-.57,4.1-2.48,8.5-3.48,3.59-.82,4.64-.44,7-1.67a21.18,21.18,0,0,1,3.67-1.67c.83-.27,3.12-1,3.25-.67.24.56-6.93,4.23-12.83,6.25A27.18,27.18,0,0,1,202,98.17C201,98.28,198.19,98.6,198.08,98.15Z"/><path d="M90.21,140a3.2,3.2,0,0,1-.08-2.12c.39-.81,1.34-.71,2.88-1.33a20.68,20.68,0,0,0,3.25-2.12c3-2.12,3.67-2.9,3.92-2.71s-.59,2.31-2,3.92a21.58,21.58,0,0,1-3,2.58c-2.72,2.24-3.71,3.38-4.37,3C90.51,141.11,90.41,140.74,90.21,140Z"/><path d="M117,116.75c.8-.55,2.12-1.45,2.79-1s.63,2.27-.19,3.5-1.62.79-4.65,2.5a10.26,10.26,0,0,0-3.62,2.73c-.47.63-.57,1-1.09,1.31-1.46.95-3.86.31-4-.37-.06-.43.81-.66,3-2a24.62,24.62,0,0,0,4-2.87C115.16,118.81,115.12,118,117,116.75Z"/><path d="M215.33,108.58c-.57-.16-.77,1-2.33,1.75-1.26.61-2,.31-2.69,1.08-.35.4-.69,1.12-.44,1.58.5.91,3,.29,3.54.17,1.07-.26,1.77-.43,2.25-1.08C216.56,110.87,216.05,108.78,215.33,108.58Z"/><path d="M208.41,111.81c-.33-.44-4,1.46-3.87,1.94.11.32,2,.34,3.21-.83C208,112.65,208.56,112,208.41,111.81Z"/><path d="M120.9,220.09c.43-.53.49-1.38.19-1.56-.53-.31-2.42,1.38-2.18,1.89C119.07,220.75,120.29,220.85,120.9,220.09Z"/><path d="M114.08,216.9c-.09.28.49.71.79.89a3.13,3.13,0,0,0,2.16.2c.46-.07,1.88-.33,1.87-.64C118.88,216.79,114.31,216.19,114.08,216.9Z"/><path d="M256.48,237.33c2.71.32,3.64.25,4.27,1,1,1.22.37,3.34,0,3.38s-.21-1.61-1.37-2.47c-.89-.66-1.74-.3-3.22-.41-2.83-.2-5.17-1.9-5.06-2.25S252.6,236.88,256.48,237.33Z"/><path d="M159.91,241.81c-.18,0,.13,1.26.94,5.69.46,2.55.58,3.33,1.33,3.91,1.31,1,3.61.67,3.89-.1s-1.49-1.4-3.31-3.75C160.49,244.64,160.18,241.74,159.91,241.81Z"/><path d="M114.38,267.13c-9.57-8.18-15.49-13.24-19.12-21-1.58-3.38-2.06-5.84-4.62-7.12-1.88-.94-3.09-.35-9.87-.12-5.81.19-6.23-.19-7.12.5-4.06,3.15-2,16.22,4.81,20.19a24.74,24.74,0,0,0,5.14,1.86,61.9,61.9,0,0,0,9.42,2,112.64,112.64,0,0,1,12.25,2.38c9.15,2.53,14.73,7.18,15.06,6.69S117.63,269.91,114.38,267.13ZM93,261.81c-.41.3-.84-.07-4-1.44-5.09-2.2-5.69-2-7.37-3.25-1.19-.89-4.17-3.13-3.75-5.44.46-2.51,4.82-4.29,7.8-3.19A5.73,5.73,0,0,1,88,250.25C91.68,254.36,94.43,260.76,93,261.81Z"/><path d="M277.5,123.38q-4.33,8.5-8.87,17.13-3.93,7.47-7.87,14.75a17.81,17.81,0,0,1-6.31,1.81c-4.21.37-6.37-1-9.28.5-1.16.61-1.07.95-2.94,2a20.33,20.33,0,0,1-4.41,1.84c-2.66.76-6,1.11-6.19.47s2.9-2.67,6-3.67a54,54,0,0,0,5.5-1.58c2-.78,3.22-1.27,3.17-1.71-.17-1.39-13-.83-15.42,0a7.83,7.83,0,0,1-1.5.33c-.92.11-2,.26-2.29-.17-.57-.84,1-3.49,3.29-4.75,1.8-1,2.78-.4,6.21-1a25,25,0,0,0,5.5-1.62c3.83-1.69,7.39-4.82,6.92-5.79s-4.91.31-5.12.38a24.93,24.93,0,0,0-4.17,1.83c-1.56.68-3,.86-9.62.33-5.69-.45-8.53-.68-9.75-1-5.93-1.57-6.69-3.79-11-3.83-.93,0-2.44.08-3.42-.92s-.49-2.42-1.67-3.5-2.82-1-3-.67,1.33.79,1.83,2.29c.09.28.43,1.41-.12,2s-1.72.43-3.46.08a11.39,11.39,0,0,1-4-1.29c-1.86-1.1-1.73-1.91-3.67-2.79a3.71,3.71,0,0,1-1.46-.92c-.52-.59-1.1-1.73-.71-2.33.61-.94,2.87.5,5.38-.67,1-.47,1.84-1.27,1.71-1.62-.22-.58-2.83.51-4-.75a1.64,1.64,0,0,1-.42-1.75c.42-.71,1.92-.55,2.42-.5,5.21.49,16-1.46,16-1.88a6.07,6.07,0,0,0-2.16-.33c-3.94-.16-4.88,0-5.69-.66s-.3-1.66-1.11-2.32c-1.55-1.27-4.3,1.46-8.77.92-.69-.08-2.34-.31-2.74-1.31-.26-.63.17-1.14-.2-1.62-.53-.7-1.83-.19-2.18-.79s.27-1.24.33-1.33c1-1.4,3.33-1.21,5.63-1.29,5-.18,9-1.64,9-1.87a18.65,18.65,0,0,0-3.46,0c-9.55.3-10.48-1.33-15.29-.21-1.94.45-2.94.95-4.33.46-2.25-.8-2.72-3.37-4.25-3.19a3.55,3.55,0,0,0-2,1.31c-1.58,1.63-1.63,2.92-2.37,4.13-1.21,2-3,1.55-10.62,4.5-3.09,1.19-4.14,1.77-4.08,2.29s1.33.93,2.38,1c2.07.05,2.54-1.35,5.38-2.46,2.41-.95,2.92-.27,5-1.37,1.7-.9,1.3-1.32,3.13-2.37a14.24,14.24,0,0,1,6-1.67c1.6-.19,2.08-.05,2.44.13,1.26.63,2.19,2.38,1.75,3.56-.5,1.34-2.49,1.18-5.87,2.38a32.54,32.54,0,0,0-5.69,2.88c-3.15,1.67-5.4,1.78-13.5,2.93-11.91,1.7-17.86,2.55-20.25,3.44-3.75,1.4-5.67,2.69-7.31,1.69-3.47-2.12-1.27-11.72-1.94-11.81s-.56,9.69-5.44,12c-3.93,1.86-9.57-1.85-11.37.5a1.56,1.56,0,0,0-.37,1.19c.16.78,1.25,1.14,4.31,2,3.41,1,4.4,1.17,5.31,2.19a4.87,4.87,0,0,1,1,1.75c.75,2.33-.29,5.32-1.69,5.63-1.22.27-1.56-1.76-3.5-2.5-3.48-1.32-6.45,3.62-13,4.94-1.17.23-2.54.37-6.75-.06A120.26,120.26,0,0,1,75,144.69l-2.38,3.43-.74,54.63c2.72,12.46,4.3,15.5,5.28,15.41,1.31-.12.95-5.84,3.88-6.85,1.1-.38,3.75.37,9,1.86.42.12,1.85.52,2.4-.11s0-1.4.58-2a1.61,1.61,0,0,1,1.11-.38c2-.09,4.91,1.85,6.95,4.29.35.41.85,1.06,1.22.94s.1-1.62.94-2.81a3.69,3.69,0,0,1,1.84-1.24c4.27-1.67,9.69.36,10,.49a16.41,16.41,0,0,1,3.24,1.54c1.63,1,2.08,1.8,3.48,2.08,1.06.22,1.87.14,1.92.38.07.4-2.29.95-2.23,1.31s2.47-.13,5.69.34c2.77.41,4.68,1.33,5,.81.12-.21-.16-.46-.64-1.39-.64-1.23-1.17-2.16-1-2.71.7-1.81,5.54-1.48,7.4-1.35,3,.2,4.14.73,7.52,1.44,5.41,1.14,4.82.35,14.38,1.54,3.44.43,6,.88,6.33.08.22-.56-.77-1.44-1-1.65-3.16-2.81-7.24-.66-14.5-1.89-3.15-.53-2.46-.95-6.46-1.71a72.49,72.49,0,0,0-10.67-1c-5.08-.24-7.07-.1-9.54-1.58-1.57-.94-3.08-2.36-2.87-2.71s2.67.81,5.13,1.63c4.85,1.6,8.77,1.3,12,1.21,16.57-.49,23.68,4.19,42.59,2.13,3.57-.39,12.83-1.15,19.81.68.31.08,3.14,1.06,6.88,2.5s5,2.08,6.81,2.78c3.56,1.39,4.92,1.36,18,3.59,6.55,1.12,8.66,1.54,8.72,1.31s-5-2.34-10.78-3.62c-4.13-.93-6.21-1-10-2.5-1.21-.49-5.8-2.36-5.56-3.53s6.51-1.07,9.06-1c5.77.23,8.76,1.18,13.19,1.69l2.52.24c9.38.86,34.29,1.18,35.92,1.2l2.31-27.12,16.81,8-16.69-22.19,13.12-20.06-.3.17-12.7,7.33Z"/></g><g id="Turret"><g id="Weapon"><path d="M185.38,205.69l-.07-19.19,22,.25,9.6-6.53,21.65-.06,6.72,5.06h21.47V162.38l-21.13-.13-5.5,4.75h-23l-9.62-5h-22V141.88h-7.12l-6.13,10.37H76v47.13l59.69.06,8.75-7.82,11.5-.06,7.25,14.13m-1.13-38.25H91.12v-5.06h70.94Zm26.88,13.68-.94,1.07h-2.81l-1.13-1.07V167.06l1.06-1.94h2.69l1.13,1.44Zm8.94,0-.94,1.07h-2.82L193,181.12V167.06l1.06-1.94h2.69l1.13,1.44Zm8.81.13-.94,1.06h-2.81l-1.13-1.06V167.19l1.07-1.94h2.68l1.13,1.44Z" style="fill:#fff"/><polygon points="269 154.5 283.75 121.75 281 153.88 305.25 134.5 281.63 173.66 302.88 204.63 280.63 191.5 282.38 222.57 269 192.38 273.63 193 274.25 182.19 284.38 186.75 275.25 173.66 286.13 157.1 274.5 165.88 276.33 153 269 157.1 269 154.5" style="fill:#f9f7f7"/></g><g id="Mount"><polygon points="67.33 250.67 175.01 212.83 287.63 258.13 285.63 265.63 175.01 221.88 67.33 259.63 67.33 250.67" style="fill:#fff"/><circle cx="174.75" cy="218.57" r="12.88" style="fill:#fff;stroke:#000;stroke-miterlimit:10;stroke-width:4px"/></g><g id="Bullets"><rect x="137" y="136.86" width="22.45" height="7.14" style="fill:#fff"/><rect x="140.67" y="120.93" width="22.45" height="7.14" transform="translate(-29.16 48.4) rotate(-16.54)" style="fill:#fff"/><rect x="134.12" y="106.21" width="22.45" height="7.14" transform="translate(-35.42 87.38) rotate(-30)" style="fill:#fff"/><rect x="124.17" y="86.65" width="22.45" height="7.14" transform="translate(-20.08 42.28) rotate(-16.54)" style="fill:#fff"/><rect x="51.29" y="45.43" width="26.45" height="11.14" transform="translate(-16.86 39.09) rotate(-30)" style="fill:#fff"/><path d="M72.45,42.3,76,48.48,56.58,59.71,53,53.52,72.45,42.3m1.46-5.46-3.46,2L51,50.06l-3.46,2,2,3.46,3.57,6.19,2,3.46,3.46-2L78,51.95l3.46-2-2-3.46L75.91,40.3l-2-3.46Z"/><rect x="116.42" y="62.83" width="26.63" height="11.79" transform="translate(-10.6 111.86) rotate(-45)" style="fill:#fff"/><path d="M135,58l5.51,5.51-16,16L119,74l16-16m0-5.66-2.83,2.83-16,16L113.32,74l2.83,2.83,5.51,5.51,2.83,2.83,2.83-2.83,16-16,2.83-2.83-2.83-2.83-5.51-5.51L135,52.32Z"/><rect x="101.3" y="55.74" width="26.09" height="11" transform="translate(-1.83 118.93) rotate(-54.58)" style="fill:#fff"/><path d="M117.9,50.21l5.71,4.06-12.81,18-5.71-4.06,12.81-18M117,44.63l-2.32,3.26-12.81,18-2.32,3.26,3.26,2.32,5.71,4.06,3.26,2.32,2.32-3.26,12.81-18,2.32-3.26L125.92,51,120.22,47,117,44.63Z"/><rect x="76.14" y="49.83" width="27.01" height="11.27" transform="translate(-12.96 79.64) rotate(-45)" style="fill:#fff"/><path d="M95.21,44.76l5.14,5.14L84.08,66.17,78.94,61,95.21,44.76m0-5.66-2.83,2.83L76.12,58.2,73.29,61l2.83,2.83L81.25,69l2.83,2.83L86.91,69l16.27-16.27L106,49.9l-2.83-2.83L98,41.93,95.21,39.1Z"/></g></g></g></svg>