<svg xmlns="http://www.w3.org/2000/svg" xmlns:xlink="http://www.w3.org/1999/xlink" viewBox="0 0 350 350"><defs><radialGradient id="radial-gradient" cx="175" cy="175" r="96" gradientTransform="translate(-131.25 350) rotate(-90) scale(1 1.75)" gradientUnits="userSpaceOnUse"><stop offset="0.42" stop-color="#4fa0e2"/><stop offset="1" stop-color="#3a6082" stop-opacity="0"/></radialGradient></defs><title>Twitch</title><g id="Twitch"><g id="Background"><rect x="59.96" y="59.96" width="230.08" height="230.08" style="fill:#fff"/><rect x="69.5" y="69.5" width="211" height="211"/><rect x="79" y="79" width="192" height="192" style="fill:#1b3652"/><rect x="79" y="79" width="192" height="192" style="opacity:0.5;fill:url(#radial-gradient)"/></g><g id="Splatter" style="opacity:0.5"><path d="M85.19,220.23c.88.3-.91,6,.35,6.64.9.42,3.14-1.77,5.12-4.22s3.46-4.64,4.41-4.21c1.38.63-.7,6.13,1.31,7.35s6.41-3.52,7.67-2.45c.65.56-.47,2.4-1.2,4.38-1,2.57-1.62,5-2.63,6.55a12,12,0,0,1-1.76,2,4.79,4.79,0,0,0,2.72-1.57c3-3.24,4-6.23,5-7.78,1.44-2.26,4.11-4.87,10.28-6.79,2.51,1,5.22,1,7.73,2s4.74,2.68,7.24,3.67,5.38,1.5,7.89,2.49a14.65,14.65,0,0,1,.95,8.24c-.68,3.09-3,4.58-5.91,7.07-1.85,1.6-3.66,4-6.38,6.76a76.12,76.12,0,0,0-5.16,5.65c-2.67,3.33-4.57,5.8-4.09,6.3.75.79,5.74-4,7.2-2.81.92.75,0,3.3-1.87,6.84-1.16,2.16-2,5-3.81,7-2.79,3.22-6.23,4.52-8.32,5.78-3.07.59-5.58,1.64-7.88,1.56-3.34-.12-5.76-1.57-7.72-2.34-2.61-1-4.41-2.46-7.8-2.69-2.57-.18-4.46,1.32-8.11.61-1-.19-1.25-.28-3.12-.68-2.41-.52-4.72-1.08-6-1.28,0-2.78.8-5.73.84-8.51s.28-5.55.32-8.33,0-5.56.07-8.33-1.06-5.57-1-8.35c0-.59,1.11-1.34,1.23-2.28,0,0,.81-2.29,1.48-4.52.9-3,2.65-3.1,6-6.69S84.5,220,85.19,220.23Z"/><path d="M104.8,188.13a43.69,43.69,0,0,0-6.14,3.74,39.56,39.56,0,0,0-5.59,4.57,45.43,45.43,0,0,0-4.42,5.67c-2.22,3.12-3.65,5.59-3.06,6.13,1.05,1,7.6-5.27,8.17-4.66.35.37-1.72,3.21-4.11,5.82-2.25,2.45-4.83,4.85-5.87,4.26-1.34-.75.16-6,1-8.19a22.88,22.88,0,0,1,3.35-5.85,28,28,0,0,1,4.77-4.73,32,32,0,0,1,5.61-4A34,34,0,0,1,104.8,188.13Z"/><path d="M86.53,215.52c-.37-.5-2.55,0-3.68,1.46-.7.89-1.08,2.27-.68,2.6s1.93-.66,2.6-1.25C85.7,217.51,86.89,216,86.53,215.52Z"/><path d="M96.79,217.09c-2.29-1.13-3.83-3.24-3.52-5.18.45-2.78,4.23-3.62,4.94-3.81,2.29-.62,3.37,0,5.48-.08s4.81-.84,8.11-4.41c-1.22,8.69-2.88,10.82-4.23,11-1.63.18-2.51-2.49-5.91-3.22-2.43-.52-5.44.1-5.82,1.42-.51,1.78,3.67,4.22,3.26,4.85C98.9,217.94,97.87,217.53,96.79,217.09Z"/><path d="M100.62,216.75c-.35-.42.07-1.44.62-2a2.58,2.58,0,0,1,1.88-.73,2,2,0,0,1,.64,1.68C103.46,217,101.13,217.36,100.62,216.75Z"/><path d="M129.66,256.09c.76.88,2.58.53,3.65-.28,1.32-1,2-3.09,1.23-4s-2.87-.44-4,.69C129.55,253.46,128.9,255.21,129.66,256.09Z"/><path d="M140.68,251.35a2.41,2.41,0,0,1-1.3-2.41c.2-1.5,2.3-2,5-3.49,4.7-2.57,6.49-5.46,6.79-5.19s-1.69,3.82-4.15,6.79C144.84,249.69,142.26,251.94,140.68,251.35Z"/><path d="M145,256.81c.47.72,5-.47,7.76-3.63a11.18,11.18,0,0,0,2.56-7.28,2.83,2.83,0,0,0-2.05-.65c-2,.32-2.18,3.38-5.15,7.59C146.19,255.55,144.7,256.37,145,256.81Z"/><path d="M130.07,272.37c.66.67,3.46-.44,5.12-2.25,2.57-2.81,2.74-7.51,1.68-8s-4,3.89-5.19,5.89C130.8,269.54,129.44,271.73,130.07,272.37Z"/><path d="M134.85,273.83c.87,1,5.47-1.08,8.37-4.11,2.66-2.8,4.31-6.85,3.4-7.61-.72-.6-2.95.88-4.14,1.73C137.87,267.06,133.82,272.64,134.85,273.83Z"/><path d="M150.74,267.7c.29.36,1.72-.07,2.53-1,1-1.11.94-2.83.5-3C153,263.34,150.2,267,150.74,267.7Z"/><path d="M157.8,264.08c-1-.71-1.19-3.26.14-4.45,1.5-1.34,4.37-.5,4.72.55a1,1,0,0,1,0,.73c-.48.81-2.22-.12-3.08.69s-.11,2.4-.82,2.71C158.34,264.46,157.85,264.12,157.8,264.08Z"/><path d="M167.5,264.32a1.47,1.47,0,0,0,2.14-.44,1.15,1.15,0,0,0-1.94-1.25A1.37,1.37,0,0,0,167.5,264.32Z"/><path d="M165.13,241.8c1,.74.1,4.16-1.28,7.33s-3.28,6.07-4.47,5.86c-1.38-.24-2.63-4.76-.89-8.46C160.11,243.11,164,241,165.13,241.8Z"/><path d="M163.14,257.16c.48.33,3.28-2.48,4.83-6,1-2.2,1.78-5.3,1.3-5.49C168.32,245.3,162.28,256.58,163.14,257.16Z"/><path d="M116.39,150.28c-.81-.74-3.14-2-5-3.75-2.66-2.49-4.43-5.11-6.32-7-2.83-2.78-4.66-5.19-6.45-6.81a15.81,15.81,0,0,0-8.25-4.23c-1.64-.34-3.79,0-8-.32-3.36-.26-6.59-.79-8.44-.84.46-3.6,1-7.16,1.29-10.27.29-3.7.77-7,.82-10.07.06-3.86,0-7.22-.13-10.11-.1-1.59-.76-4.59-.4-7.42a7.76,7.76,0,0,1,3.76-5.89,41.16,41.16,0,0,0,5.51-3.49c2.08-1.56,2.58-2,4-2.92,2.8-1.87,7.64-1.26,10.57.73A11.12,11.12,0,0,1,104,85.22c.51,2.39.85,5.15,1.72,8.37a38.46,38.46,0,0,0,3.12,7.83c1.2,2.33,3.13,4.81,7.16,10,1.66,2.12,3.23,4.83,5.46,7.51,1.82,2.19,4.17,4.25,6.38,6.76,1.94,2.19,3.22,4.81,5.46,7.19-1.66,3.69-3,2.57-5.88,5.37s-2.39,3.3-5,6.35S119.65,147.89,116.39,150.28Z"/><path d="M195.05,105.52c.38.26-.05,1.22-1.23,5-2.19,7-1.89,8.06-3.36,9.35-3,2.66-9.14,1.74-9.68,0-.26-.86.9-1.76,3.37-4,2.2-2,3.91-3.88,5.36-5.38C192.9,106.92,194.49,105.13,195.05,105.52Z"/><path d="M197.44,116.71a5,5,0,0,0,4.23-1.37c1.65-1.75,1.76-4.74.76-5.36-1.48-.92-6.48,2.61-6,5.25A2.45,2.45,0,0,0,197.44,116.71Z"/><path d="M213,121.46c.37.56,2.49-.54,5.64-1.78,5.32-2.08,8.19-2.77,10.37-4.81,3.28-3.07,2-4.37,5.55-8.4s5.33-3.84,7.85-6.94c1.69-2.08,3.37-5.46,3.08-11.76a34.56,34.56,0,0,0-8.32,3.73,15,15,0,0,0-5.72,7.18c-1.81,4.64-.27,8.09-3.46,11.41-2.41,2.51-4.33,1.57-9.14,4.91C215.55,117.31,212.5,120.69,213,121.46Z"/><path d="M232.83,145a104.47,104.47,0,0,0,9.62-7.62c2.24-2.1,3.58-3.84,4.76-5,2.12-2.18,3-3.6,5.27-4.62s5-.8,7.39-.92a50.74,50.74,0,0,1,7.4-.13,41,41,0,0,1,9,2.4c.79-2.68.86-6.53,1.19-10.47a47.07,47.07,0,0,0-.29-10.1,47.92,47.92,0,0,0-1.2-7.3c-3.06.67-6,1.57-9,2.23s-6.12,1.36-9.19,2-6.32.78-9.38,1.45c-3.78,3.18-3.36,3.65-6.63,7.36s-3,3.94-6.28,7.65-3.65,3.37-6.93,7.08-3.64,3.45-5.83,7.89c-2.48,5-4.71,5.41-2.58,10.59C222.61,153.62,226.36,146.66,232.83,145Z"/><path d="M242.8,149.75c.2.42,1.88.3,3-.5,1.33-.91,2-2.69,1.63-3C246.83,145.67,242.43,149,242.8,149.75Z"/><path d="M249.93,146.64c.13.06.43.06,2.38-2.35,2.19-2.7,3.3-4.08,3.05-4.4-.39-.48-3.29.59-4.71,2.87C249.65,144.37,249.45,146.43,249.93,146.64Z"/><path d="M259.35,139.87c-.82-.38-.9-2.74-.07-4.56,1-2.19,2.93-3,6.18-4.79a73.55,73.55,0,0,0,7.62-4.77c-3.55,3.93-6.4,7.18-8.39,9.44C261.77,138.52,260.21,140.27,259.35,139.87Z"/><path d="M252,133.66c.67.89,3.15.56,4.46-.86s1.48-3.48.61-4.12-2.39.27-3.09.79C252.51,130.58,251.33,132.76,252,133.66Z"/><path d="M245.14,160.17a46.74,46.74,0,0,1,3.72-4.58,43.5,43.5,0,0,1,9.63-8.31A44.4,44.4,0,0,1,264.4,144,21.82,21.82,0,0,0,270,140.2a28.46,28.46,0,0,0,6-7.52c1.11,3.55,2,7.27,3.1,10.82a10.19,10.19,0,0,1-4.87,5.11c-2.17,1-3.22.16-5,1.36s-1.82,3.32-4,4.21c-.79.32-.81.18-1.88.57-1.93.7-3.8,2.12-3.54,2.82s2.26.47,2.55.45c1.3-.08,1.57-.3,1.77-.11.69.66-2.66,7.2-5.74,6.85-2.46-.27-2.79-4.73-5.18-5.07-1.26-.18-3,1-5.8,6.22C246.68,164.07,245.81,162,245.14,160.17Z"/><path d="M256.85,175a3.8,3.8,0,0,0,3.16-1.33,3.62,3.62,0,0,0,.56-3.33,3.25,3.25,0,0,0-4.11,1.48A3.15,3.15,0,0,0,256.85,175Z"/><path d="M254.48,166c.88.94-.63,5.24-3.73,6a5.53,5.53,0,0,1-4.45-1.17,11.09,11.09,0,0,1,2.75-2.91C250.77,166.6,253.71,165.13,254.48,166Z"/></g><g id="Controller"><path id="Bone2" d="M85.13,100.31c2.64-5.9-4.27-11.31-1.37-16.25,1.93-3.3,7.41-5,10.88-3.37,4.11,1.9,3.34,7.44,7.56,16.63a52,52,0,0,0,7.06,11.27c13.62,14.55,24.53,26.56,31.75,34.58,0,0,65.33,72.59,96.58,96.67,4.44,3.42,7.48,5.77,12.33,8.17,14.13,7,22.85,4.18,25.83,10,2.83,5.53-1.47,15-6.42,16.25-4.35,1.06-6.49-5-12.33-4.58-6.55.43-8.07,8.29-14.25,8.17a10.63,10.63,0,0,1-8.83-6.1c-1.72-4,1-7.2-1-12.73a15,15,0,0,0-2.58-4.43L127,144.75c-8.77-7.37-16.05-13.53-22.5-19.17-3.57-3.12-6.34-5.6-10.83-6.58-5.29-1.16-7.82.9-12.25-1.08-3.52-1.57-7.43-5.33-6.94-8.62C75.12,105,82.69,105.75,85.13,100.31Z" style="fill:#fff;stroke:#000;stroke-miterlimit:10;stroke-width:4px"/><path d="M108.1,277.77a14.83,14.83,0,0,1-5.83-1.33,11.53,11.53,0,0,1-5.15-4.9c-.82-1.3-1.26-1.94-2.23-2.26a2.82,2.82,0,0,0-.88-.14,7.92,7.92,0,0,0-3.59,1.45,11.59,11.59,0,0,1-5.88,2.07h0a7.42,7.42,0,0,1-1.76-.22c-5-1.23-9-7.37-8.12-12.63.43-2.71,2.09-5,5.38-7.57,5.71-4.37,11.33-5.49,15.84-6.4,1.21-.24,2.36-.47,3.4-.74,7.17-1.87,11.23-6.24,17.95-13.49l2.15-2.31c.16-.17,16.85-17.93,102.34-101.74,2.47-2.42,4.84-5.06,7.13-7.61,2-2.19,4-4.45,6.11-6.6a23.29,23.29,0,0,0,3-3.64,17.53,17.53,0,0,0,2.35-5.19,41.6,41.6,0,0,1,1.41-3.93,24,24,0,0,1,3.91-6.47,9.33,9.33,0,0,0,2.27-4.28,12.91,12.91,0,0,0,.35-4.31,5.53,5.53,0,0,1,1.21-4.5c1.43-1.6,3.88-2.48,6.88-2.48,4.92,0,10.8,2.38,12.13,6.37.84,2.54-.4,4.62-1.41,6.29s-1.58,2.74-1.24,4.11c.27,1.08.91,1.55,2.32,2.52a13.83,13.83,0,0,1,4.87,5c2.17,3.92,3.13,9.58.37,13.41s-8.39,4.4-10.65,4.42h-.11a19.73,19.73,0,0,1-3.71-.4,13.23,13.23,0,0,0-2.35-.29,6.62,6.62,0,0,0-1.8.25,11.13,11.13,0,0,0-3.11,1.59c-3.83,2.81-16.7,16.66-31.61,32.69-19.74,21.23-44.31,47.66-62.43,64.33l-37.5,34.5a7.55,7.55,0,0,0-1.85,2.83,8.38,8.38,0,0,0-.21,4.22l.07.48c.56,4.47-.42,12.69-5.46,15.71A8.7,8.7,0,0,1,108.1,277.77Z" style="fill:#fff"/><path d="M256.33,80.56c4.24,0,9.23,2,10.23,5,1.15,3.45-3.77,5.91-2.69,10.25.92,3.68,4.81,3.37,7.38,8,1.68,3,2.84,8,.5,11.27-2.54,3.54-8.2,3.58-9,3.58h-.1c-2.45,0-4.07-.69-6.06-.69a8.61,8.61,0,0,0-2.33.32,12.91,12.91,0,0,0-3.77,1.91c-9.05,6.65-62,67.51-94.21,97.17l-37.5,34.5a9.64,9.64,0,0,0-2.37,3.63,11,11,0,0,0-.25,5.63c.57,4.52-.65,11.44-4.5,13.75a6.77,6.77,0,0,1-3.52.89,12.84,12.84,0,0,1-5-1.14c-4.62-2.17-4.09-6.11-7.62-7.25a4.81,4.81,0,0,0-1.49-.24c-3.34,0-5.94,3.52-9.47,3.52a5.36,5.36,0,0,1-1.29-.16c-4-1-7.3-6.09-6.62-10.37.3-1.9,1.42-3.84,4.63-6.29,6.83-5.24,13.54-5.49,18.53-6.79,8.52-2.22,13-7.74,21.06-16.37,0,0,15.84-16.93,102.28-101.68,4.63-4.54,8.71-9.61,13.26-14.24a25.37,25.37,0,0,0,3.25-3.94c2.39-3.59,2.24-5.43,3.94-9.44,2.77-6.54,5-6,6.27-11,1.16-4.61-.46-6.21,1.1-8,1.13-1.26,3.16-1.81,5.4-1.81m0-4c-3.63,0-6.53,1.09-8.37,3.14a7.48,7.48,0,0,0-1.72,5.95,11,11,0,0,1-.29,3.71,7.38,7.38,0,0,1-1.88,3.51,26,26,0,0,0-4.19,6.95,43.18,43.18,0,0,0-1.48,4.1,15.71,15.71,0,0,1-2.11,4.68,21.36,21.36,0,0,1-2.74,3.32c-2.17,2.21-4.22,4.49-6.2,6.7-2.37,2.64-4.62,5.14-7,7.52-85.45,83.78-101.75,101.11-102.4,101.8l-2.16,2.32c-6.48,7-10.39,11.2-17,12.92-1,.26-2.1.48-3.28.72-4.72.94-10.59,2.12-16.67,6.77-3.74,2.86-5.63,5.59-6.14,8.84-1,6.31,3.59,13.4,9.62,14.88a9.4,9.4,0,0,0,2.24.27,13.38,13.38,0,0,0,6.88-2.34A7.71,7.71,0,0,1,94,271.14a.81.81,0,0,1,.26,0c.26.08.43.26,1.16,1.42a13.6,13.6,0,0,0,6,5.64,16.71,16.71,0,0,0,6.68,1.52,10.68,10.68,0,0,0,5.58-1.46c5.89-3.54,7.06-12.51,6.41-17.68,0-.16,0-.33-.07-.51a6.45,6.45,0,0,1,.12-3.27,5.61,5.61,0,0,1,1.37-2.07L159,220.32c18.18-16.72,42.77-43.18,62.54-64.44,14.84-16,27.65-29.75,31.33-32.45a9.14,9.14,0,0,1,2.5-1.28,4.58,4.58,0,0,1,1.23-.17,11.65,11.65,0,0,1,2,.25,21.74,21.74,0,0,0,4.06.43h.13c2.56,0,8.89-.57,12.26-5.25s2.23-11.08-.25-15.55a15.77,15.77,0,0,0-5.49-5.68c-1.28-.87-1.43-1-1.5-1.35-.14-.55.12-1.1,1-2.59,1.08-1.81,2.72-4.54,1.59-7.95-1.69-5.08-8.33-7.74-14-7.74Z"/><path d="M177.67,250.88a2.49,2.49,0,0,1-1.73-.71,2.49,2.49,0,0,1-1.65.63H168a2.5,2.5,0,0,1-2.11-1.15l-.06.05a2.5,2.5,0,0,1-1.63.6l-.37,0-5.31-.79a2.49,2.49,0,0,1-1.64-1l0,0a2.5,2.5,0,0,1-2.3.28l-6.95-2.62a2.5,2.5,0,0,1-1.62-2.35l0-7.75a2.54,2.54,0,0,1,0-.28,2.27,2.27,0,0,0,0-.69,4,4,0,0,0-1.18-.12,49.9,49.9,0,0,0-5.62.58c-1.23.17-2.49.43-2.5.43q-.67.14-1.46.34c-1.2.31-2.14.62-3,.89a14.78,14.78,0,0,1-2.9.76,7.08,7.08,0,0,1-.82,0c-10.62,0-25.36-24.51-26.47-50.55-.42-9.84-1-23.27,8-34.85,5.09-6.55,12.14-11.19,21-13.82v-7.48a14.52,14.52,0,0,1,14.5-14.5H169V103.42a2.49,2.49,0,0,1,.09-.67A6.43,6.43,0,0,1,175.21,98h.29a6.38,6.38,0,0,1,5.87,4.78,2.49,2.49,0,0,1,.08.64v13.38h21.08a14.52,14.52,0,0,1,14.5,14.5V139c11.82,3.14,20.5,9.09,25.8,17.71,6,9.83,5.53,19.8,5,29.44-1.42,27.46-16.33,51.9-27.08,51.9h0a7.41,7.41,0,0,1-.81,0,17.62,17.62,0,0,1-3.48-.92,50.15,50.15,0,0,0-8.51-2.14,14.08,14.08,0,0,0-2.11-.21c-.83,0-1.19.16-1.27.25a1.28,1.28,0,0,0-.15.73l.21,8.53a2.5,2.5,0,0,1-1.89,2.48l-6.42,1.63a2.53,2.53,0,0,1-.61.08,2.5,2.5,0,0,1-1.29-.36,2.5,2.5,0,0,1-1.9,1.38l-6.33.88-.34,0a2.5,2.5,0,0,1-1.17-.29,2.5,2.5,0,0,1-1.89.86Zm20.69-114.26a77.69,77.69,0,0,1,9,.54v-5.06a5.51,5.51,0,0,0-5.5-5.5H184.35c5.07.39,9.05,1.52,11.3,5.08a10.34,10.34,0,0,1,1.54,5Zm-52.15-10a5.51,5.51,0,0,0-5.5,5.5v4.76a67.29,67.29,0,0,1,8-.47c1.95,0,3.62.08,4.92.18a10.45,10.45,0,0,1,1.61-5c2.19-3.39,5.9-4.54,10.58-4.93Z" style="fill:#fff"/><path d="M175.21,100.53h.17a3.92,3.92,0,0,1,3.57,2.92v15.88h23.58a12,12,0,0,1,12,12v9.6c9.43,2.2,19.95,6.95,26.17,17.07,5.62,9.14,5.16,18.44,4.67,28-1.35,26.14-15.53,49.53-24.58,49.53l-.54,0c-2-.22-5.17-2-11.87-3a16.26,16.26,0,0,0-2.51-.24,4,4,0,0,0-3.16,1.12,3.59,3.59,0,0,0-.75,2.38l.21,8.58-6.42,1.63.08-5.37a1.83,1.83,0,0,0-1.75-2h0a1.82,1.82,0,0,0-1.75,1.67l-.12,6.75-6.33.88v-9.08a1.84,1.84,0,0,0-1.37-2.25h0a1.85,1.85,0,0,0-1.53,2.06l-.12,9.84-5.12,0,0-10.5a2,2,0,0,0-1.55-2.25h-.07a2,2,0,0,0-1.72,2.25l-.08,10.42H168V239a2.13,2.13,0,0,0-2-2.3h-.17a2.07,2.07,0,0,0-1.62,2.17l0,8.87-5.31-.79-.06-6.67a1.79,1.79,0,0,0-1.63-2.08h-.06a1.79,1.79,0,0,0-1.73,1.85q0,3.18,0,6.36l-6.95-2.62,0-7.75a3.26,3.26,0,0,0-.53-2.58c-.61-.74-1.62-1-3.13-1a50.59,50.59,0,0,0-6,.6c-1.34.18-2.68.46-2.68.46-.48.1-1,.22-1.57.36-2.75.7-4.27,1.44-5.54,1.59a4.58,4.58,0,0,1-.53,0c-8.5,0-22.88-22.47-24-48.16-.42-9.88-1-22.33,7.5-33.21,5.89-7.57,13.91-11.49,21.5-13.46v-9.38a12,12,0,0,1,12-12h25.92V103.42a3.93,3.93,0,0,1,3.75-2.89m19.38,38.7c.31,0,1.67-.12,3.77-.12a74.58,74.58,0,0,1,11.52.91v-7.93a8,8,0,0,0-8-8H179v4.8c7.66.09,12.37.61,14.58,4.11a9.24,9.24,0,0,1,1.05,6.23m-56.38.49a63.76,63.76,0,0,1,10.46-.85,54.7,54.7,0,0,1,7.52.47,9.45,9.45,0,0,1,1.11-6.47c2.2-3.4,6.75-3.94,14.17-4v-4.79H146.21a8,8,0,0,0-8,8v7.64m37-44.2h0a8.94,8.94,0,0,0-8.57,6.56,5,5,0,0,0-.18,1.33v10.91H145.54a17,17,0,0,0-17,17V137A42.39,42.39,0,0,0,108.1,151.1c-9.58,12.31-9,26.26-8.55,36.45a84.16,84.16,0,0,0,9.81,35.93c2.79,5.13,10.23,17.06,19.16,17.06a9.63,9.63,0,0,0,1.11-.06,16.82,16.82,0,0,0,3.4-.87c.79-.26,1.69-.56,2.8-.84.45-.12.91-.22,1.35-.31,0,0,1.19-.25,2.32-.4,1.56-.21,2.89-.39,3.95-.48v6.26a5,5,0,0,0,3.23,4.69l3.47,1.31,3.47,1.31a5,5,0,0,0,2.79.22,5,5,0,0,0,1.72.59l5.31.79a5,5,0,0,0,2-.11,5,5,0,0,0,2.5.67h6.33a5,5,0,0,0,1.58-.26,5,5,0,0,0,1.78.34l2.57,0,2.55,0h0a5,5,0,0,0,2.41-.62,5,5,0,0,0,1.34,0l3.4-.47,2.93-.41a5,5,0,0,0,2.4-1l.46,0a5,5,0,0,0,1.23-.15l6.42-1.63a5,5,0,0,0,3.77-5l-.1-4.29-.06-2.57.59.09a47.14,47.14,0,0,1,8.12,2,19.57,19.57,0,0,0,4,1,10.1,10.1,0,0,0,1.08.06c6.5,0,13.64-6.42,19.59-17.61a90.76,90.76,0,0,0,10-36.66c.52-10,1.05-20.38-5.4-30.88-5.28-8.59-14-14.86-25.43-18.29v-5.76a17,17,0,0,0-17-17H184V103.45a5,5,0,0,0-.17-1.28,8.87,8.87,0,0,0-8.17-6.63Zm21.65,33.56h5a3,3,0,0,1,3,3v2.3c-2.11-.17-4-.25-5.52-.27a12.33,12.33,0,0,0-1.58-3.79,11.56,11.56,0,0,0-.91-1.24Zm-53.65,5v-2a3,3,0,0,1,3-3h7.67a12.17,12.17,0,0,0-.78,1.07,12.42,12.42,0,0,0-1.63,3.77c-.86,0-1.79-.06-2.8-.06-1.84,0-3.66.07-5.46.21Z"/><g id="EyeLeft"><path d="M128,180.67a24.28,24.28,0,0,0-8.5,24.83c2.61,10.18,11.94,17.81,22.17,17.83,12.14,0,23.23-10.64,23.67-24.67-5.63-2.21-11.54-4.75-17.67-7.67C140.54,187.61,134,184.12,128,180.67Z"/><path d="M156.69,196.06h-9.91V182.54a3,3,0,0,0-3-3h-4a3,3,0,0,0-3,3v13.52h-9.9a3,3,0,0,0-3,3v4a3,3,0,0,0,3,3h9.9v9.4a3,3,0,0,0,3,3h4a3,3,0,0,0,3-3v-9.4h9.91a3,3,0,0,0,3-3v-4A3,3,0,0,0,156.69,196.06Zm-14.9,9.44a4.5,4.5,0,1,1,4.5-4.5A4.5,4.5,0,0,1,141.79,205.5Z" style="fill:#fff"/></g><g id="EyeRight"><path d="M222.94,182a24.28,24.28,0,0,1,8.5,24.83c-2.61,10.18-11.94,17.81-22.17,17.83C197.13,224.7,186,214,185.6,200c5.63-2.21,11.54-4.75,17.67-7.67C210.4,188.94,217,185.45,222.94,182Z"/><path d="M223.16,196.06h-9.91V182.54a3,3,0,0,0-3-3h-4a3,3,0,0,0-3,3v13.52h-9.9a3,3,0,0,0-3,3v4a3,3,0,0,0,3,3h9.9v9.4a3,3,0,0,0,3,3h4a3,3,0,0,0,3-3v-9.4h9.91a3,3,0,0,0,3-3v-4A3,3,0,0,0,223.16,196.06Zm-14.9,9.44a4.5,4.5,0,1,1,4.5-4.5A4.5,4.5,0,0,1,208.26,205.5Z" style="fill:#fff"/></g><circle cx="175" cy="213.31" r="3"/><g id="AntennaWaves"><path d="M134.34,107.48a7.52,7.52,0,0,1-3.44-.82,8,8,0,0,1-4-5.34,9.49,9.49,0,0,1,1.58-7.75l.11-.14c3-3.68,19.39-22,46.45-22h.13c26.8.06,43.1,18.11,46.25,21.94a9.31,9.31,0,0,1,2.45,7.41,7.35,7.35,0,0,1-3.13,5.36,6.84,6.84,0,0,1-3.74,1.06,9.19,9.19,0,0,1-6.36-2.72c-15.6-15.67-25.54-17.82-34-17.82h-1.47c-20.61.3-32.59,15.7-33.89,17.45l-.09.12-.1.11A9.24,9.24,0,0,1,134.34,107.48Z" style="fill:#fff"/><path d="M175,74.42h.13c26.39.06,42,18.43,44,20.91,2.69,2.87,2,6.91-.05,8.28a3.85,3.85,0,0,1-2.11.57,6.2,6.2,0,0,1-4.25-1.86c-17.35-17.43-28.5-18.68-36.07-18.68h-1.51c-22.24.32-34.85,16.77-36.25,18.67a6.29,6.29,0,0,1-4.58,2.15,4.48,4.48,0,0,1-2.06-.48c-2.56-1.33-3.68-5.46-1.35-8.67,2-2.45,17.66-20.91,44.13-20.91m0-6h0c-28.41,0-45.61,19.25-48.77,23.11l-.11.14-.11.15A12.48,12.48,0,0,0,124,102a11,11,0,0,0,5.53,7.31,10.52,10.52,0,0,0,4.82,1.15,12.25,12.25,0,0,0,9-4.13l.2-.22.17-.24c1.21-1.63,12.35-16,31.52-16.24h1.42c5.23,0,15,0,31.82,16.92l0,0,0,0a12.22,12.22,0,0,0,8.46,3.58,9.83,9.83,0,0,0,5.38-1.55,10.33,10.33,0,0,0,4.48-7.51,12.3,12.3,0,0,0-3.16-9.74c-3.43-4.15-20.51-22.91-48.52-23Z"/><path d="M236.22,95.67a7.91,7.91,0,0,1-6.22-3c-3.46-4.53-22.12-26.89-54-27.35h-1c-33.21,0-52.88,24.51-55,27.31l-.07.09-.08.09a8.45,8.45,0,0,1-6.29,2.83,7.76,7.76,0,0,1-5.6-2.31,8.08,8.08,0,0,1-.62-10.11l.06-.09.07-.08c4.32-5.46,27.9-32.72,67.5-32.72h.93c39.31.43,62.58,27.62,66.84,33.07l.11.14.09.16a8,8,0,0,1-2.08,10.47A7.78,7.78,0,0,1,236.22,95.67Z" style="fill:#fff"/><path d="M174.93,53.33h.9c39.07.43,61.7,28.33,64.51,31.92a4.93,4.93,0,0,1-1.28,6.5,4.82,4.82,0,0,1-2.85.92,5,5,0,0,1-3.87-1.86c-2.35-3.09-22-28-56.34-28.48h-1C140,62.33,119.7,88,117.56,90.81a5.42,5.42,0,0,1-4,1.83,4.73,4.73,0,0,1-3.43-1.39,5.11,5.11,0,0,1-.3-6.34c2.68-3.39,25.8-31.58,65.15-31.58m0-6c-41,0-65.38,28.2-69.86,33.85l-.13.17-.12.18a11.1,11.1,0,0,0,.93,13.87,10.77,10.77,0,0,0,7.76,3.24A11.44,11.44,0,0,0,122,94.81l.15-.17.14-.18c2-2.67,20.86-26.13,52.63-26.13h.95c30.54.44,48.39,21.84,51.66,26.12l0,.05,0,.05a10.89,10.89,0,0,0,8.56,4.12,10.76,10.76,0,0,0,6.38-2.07,11,11,0,0,0,2.89-14.45l-.19-.31-.23-.29c-4.41-5.64-28.48-33.77-69.17-34.22Z"/></g><path d="M124.67,100.53a4.57,4.57,0,0,1-.89-2.09c0-.32,0-.34-.06-.58a3.07,3.07,0,0,0-2-2.14c-.81-.27-1.09.08-1.83-.06s-1.66-.69-2.6-2.66c2.14-2.95,21.37-28.5,55.83-29.33s55.09,24,57.33,26.78c.18,3.43-.44,4.52-1.11,4.82-.51.23-1,0-1.6.4s-.74.94-1.12,2.08a14.09,14.09,0,0,0-.52,2,58.41,58.41,0,0,0-101.48.77Z"/></g></g></svg>