<svg xmlns="http://www.w3.org/2000/svg" xmlns:xlink="http://www.w3.org/1999/xlink" viewBox="0 0 350 350"><defs><radialGradient id="radial-gradient" cx="175" cy="175" r="96" gradientTransform="translate(-35 350) rotate(-90) scale(1 1.2)" gradientUnits="userSpaceOnUse"><stop offset="0" stop-color="#ffde50"/><stop offset="1" stop-color="#fff" stop-opacity="0"/></radialGradient></defs><title>Valkyrie</title><g id="Valkyrie"><g id="Background"><rect x="59.96" y="59.96" width="230.08" height="230.08" style="fill:#fff"/><rect x="69.5" y="69.5" width="211" height="211" style="fill:#231f20"/><rect x="79" y="79" width="192" height="192" style="fill:#c79326"/><rect x="79" y="79" width="192" height="192" style="fill:url(#radial-gradient)"/></g><g id="Head"><path d="M175,69.55A96,96,0,0,0,182,82c5.22,7.86,11,16.55,21,21,3.3,1.46,3.23.78,9,3a93.25,93.25,0,0,1,16,8l46-39q32.49-27.52,65-55L313,75l17-13-29,49,18-12q-13.77,22.5-30,46-7.49,10.8-15,21l2,31a168.49,168.49,0,0,0-27,12c-12.1,6.7-21.2,13.69-21,14s8.31-5.16,22-12c9.85-4.92,15.89-7.23,16-7,.22.46-25.86,9-47,31-.95,1-.38.43-8,9-11.42,12.84-20.76,23.15-27,30H166a283.45,283.45,0,0,0-28-31c-4.69-4.48-9.34-8.61-13.89-12.41C102.79,216.09,88.76,206.36,89,206s27.06,17.33,28,16c.51-.72-6.54-7.12-14-12a82.93,82.93,0,0,0-30-12l2-33q-7-9.79-14-20Q45,121.66,31,99l18,12L20,62,37,75,11,20Q42.06,47.77,76,76q23.72,19.69,47,38c1.62-1,4-2.39,7-4,12.51-6.78,14.86-6.12,21-10,8.26-5.22,13-12.17,17-18A81.14,81.14,0,0,0,175,69.55Z" style="fill:#231f20"/><path d="M32,46Q55.92,67.26,83,89q17.72,14.17,35,27a56.42,56.42,0,0,0-12,28c-3.51,28.42,17.4,48.58,20,51a70.54,70.54,0,0,0-1-16c-1.94-10.77-5.39-15-4-23,.62-3.59,1.86-5.94,4-10a66.57,66.57,0,0,1,14-18,321.24,321.24,0,0,1,18,32,321.34,321.34,0,0,1,17,42,147.11,147.11,0,0,0-8.87-17.06c-4.67-7.69-10.7-16-19.5-21-2.55-1.44-5-2.44-7.31-1.5-3.59,1.48-4.23,6.8-4.31,7.56v28c3,4.32,6,9,9,14a217.9,217.9,0,0,1,17,36,186.2,186.2,0,0,0-81-54,84.75,84.75,0,0,1,11-22,271.83,271.83,0,0,1,29,25c5.11,5.08,9.77,10.11,14,15a187.39,187.39,0,0,0-15-19c-8.81-9.78-15-16.61-25-23-5-3.17-7.53-4.07-12-8-4.8-4.22-7.87-8.45-12-15a281.83,281.83,0,0,1-15-27c7.16,6.26,14.82,12.62,23,19q8.11,6.33,16,12v-7c-2.62-1.68-6.08-4-10-7a169.63,169.63,0,0,1-16-14C53.27,108.94,44.1,88.76,42,84q14.9,12.43,31,25,10.59,8.25,21,16v-7c-8.22-7-15.17-12.39-20-16C62.7,93.57,56.43,89.88,50,81a92.17,92.17,0,0,1-6-10A235.86,235.86,0,0,1,32,46Z" style="fill:#fff"/><path d="M318,46q-23.92,21.26-51,43-17.72,14.17-35,27a56.42,56.42,0,0,1,12,28c3.51,28.42-17.4,48.58-20,51a70.54,70.54,0,0,1,1-16c1.94-10.77,5.39-15,4-23-.62-3.59-1.86-5.94-4-10a66.57,66.57,0,0,0-14-18,275.37,275.37,0,0,0-34,74c2.12-4,19.46-36.72,29.67-38.83,1.58-.33,4.93-1,7.21.92,2.1,1.79,2.15,4.86,2.13,5.92v28c-3,4.32-6,9-9,14a217.9,217.9,0,0,0-17,36,186.2,186.2,0,0,1,81-54,84.75,84.75,0,0,0-11-22,271.83,271.83,0,0,0-29,25c-5.11,5.08-9.77,10.11-14,15a187.39,187.39,0,0,1,15-19c8.81-9.78,15-16.61,25-23,5-3.17,7.53-4.07,12-8,4.8-4.22,7.87-8.45,12-15a281.83,281.83,0,0,0,15-27c-7.16,6.26-14.82,12.62-23,19q-8.11,6.33-16,12v-7c2.62-1.68,6.08-4,10-7a169.63,169.63,0,0,0,16-14c13.73-14.06,22.9-34.24,25-39q-14.9,12.43-31,25-10.59,8.25-21,16v-7c8.22-7,15.17-12.39,20-16,11.3-8.43,17.57-12.12,24-21a92.17,92.17,0,0,0,6-10A235.86,235.86,0,0,0,318,46Z" style="fill:#fff"/><path d="M139.47,120.84a3.45,3.45,0,0,1,.08-3.92A105.51,105.51,0,0,0,175,80a104.31,104.31,0,0,0,36,37,2.5,2.5,0,0,1,0,4,211,211,0,0,0-36,69,245,245,0,0,0-18.29-42.18A244.61,244.61,0,0,0,139.47,120.84Z" style="fill:#fff"/><path d="M120.08,177.42a40.41,40.41,0,0,1-7.67-15.5c-4.46-18.41,5.68-37,9.08-40.33a10.61,10.61,0,0,0,2.82-4.34,10.27,10.27,0,0,0,.42-4.28,121.32,121.32,0,0,1,15.2-7.84s1.12-.45,2.63-1.08a60.84,60.84,0,0,0,8.07-3.82,34.69,34.69,0,0,0,3-2.08l-24,18.52a25.65,25.65,0,0,1,6,7.25,112.18,112.18,0,0,0-13.17,14.83c-6.94,9.39-7.64,13.46-7.82,15.59-.27,3.15.28,5.67,1.24,10.07A70.89,70.89,0,0,0,120.08,177.42Z" style="fill:#050708"/><path d="M230.43,177.1a40.41,40.41,0,0,0,7.67-15.5c4.46-18.41-5.68-37-9.08-40.33a10.67,10.67,0,0,1-2.82-4.34,10.35,10.35,0,0,1-.44-4.29c-2.61-1.53-4.92-2.72-6.77-3.61a98.36,98.36,0,0,0-9.35-3.89c-.78-.27-1.51-.49-1.51-.49-.71-.21-1.13-.32-1.54-.43A26.91,26.91,0,0,1,203,103c-.87-.37-1.5-.71-2-1-1-.52-1.8-1-2.41-1.41l22.3,15.75a25.65,25.65,0,0,0-6,7.25A112.18,112.18,0,0,1,228,138.43c6.94,9.39,7.64,13.46,7.82,15.59.27,3.15-.28,5.67-1.24,10.07A70.89,70.89,0,0,1,230.43,177.1Z" style="fill:#050708"/><path d="M143.25,170.92c-5,1.6-3.58,13.94-3.37,17.7.17,3.1.37,5.33,1.73,8.12q3.61,7.36,7.27,14.69c9.1,18.24,18.43,36.25,26.12,55.15,8.4-20.57,19-40,28.94-59.88,4.55-9.07,9.06-19.34,6.35-29.71-3.05-11.67-13.28,2-16.7,6.5-7.48,9.75-12.57,21.68-18.42,32.42-5.41-9.26-9.9-19.05-15.35-28.27a82.16,82.16,0,0,0-7.09-10C150.89,175.41,146.8,169.79,143.25,170.92Z" style="fill:#050708"/><path d="M165.13,262.56c2.87,4.23,5.69,8.81,8.38,13.75q.84,1.54,1.63,3.06,1.44-2.71,3.06-5.5c2.45-4.21,4.95-8.1,7.44-11.69q-3.16,3.65-6.37,7.75-2.23,2.85-4.25,5.63a46.88,46.88,0,0,0-9.87-13Z" style="fill:#050708"/><path d="M175.11,173.8c-.25-3.72-.59-9-.94-15.44-.78-14.15-1.16-21.22-1.17-27.92,0-9,.43-16.08,1.26-29.53.32-5.12.63-9.39.85-12.4.21,3,.5,7.29.81,12.51.93,15.42,1.4,23.12,1.39,29.43,0,3.81-.45,12-1.35,28.29C175.62,165,175.32,170.22,175.11,173.8Z" style="fill:#231f20"/></g><g id="SpikeLeft"><polygon points="157 185.5 78.67 284.33 125.5 284.33 157 185.5" style="fill:#fff"/><polygon points="149.83 198.92 87.92 280.5 120.33 280.5 149.83 198.92" style="fill:#231f20"/></g><g id="SpikeRight"><path d="M193,185.58l32.33,98.08h45Z" style="fill:#fff"/><polygon points="200.5 198.83 230.58 280.5 261.75 280.5 200.5 198.83" style="fill:#231f20"/></g></g></svg>