<svg xmlns="http://www.w3.org/2000/svg" viewBox="0 0 350 350"><defs><linearGradient id="a" x1="174.42" y1="38.33" x2="174.42" y2="143" gradientUnits="userSpaceOnUse"><stop offset=".37" stop-color="#0e0e0c"/><stop offset=".95" stop-color="#010101"/><stop offset="1"/></linearGradient><linearGradient id="b" x1="173.5" y1="160" x2="173.5" y2="122.99" gradientUnits="userSpaceOnUse"><stop offset=".1" stop-color="#31458e"/><stop offset="1" stop-color="#2e396f"/></linearGradient><linearGradient id="c" x1="170.5" y1="270" x2="170.5" y2="164.94" gradientUnits="userSpaceOnUse"><stop offset="0" stop-color="#35439a"/><stop offset=".62" stop-color="#3d50a3"/><stop offset="1" stop-color="#445aab"/></linearGradient></defs><path fill="#fff" d="M59.99 59.99H290V290H59.99z"/><path d="M70 280V155l15-5-15-10V70h210v70l-15 10 15 5v125z"/><path d="M63.83 38.33l109.5 61.83 9.83-2.83 101.84-59-14.77 102.27-164.48 2.4-23.25-3.37z" fill="url(#a)"/><path d="M196 138l23 19 38-31-45 107-23-80z" fill="#fff"/><path d="M175 114l95-52-8 51-45 36zm-77 26l30 32 27-32 5 13-29 89z" fill="#fff"/><path d="M86 68l85 48-38 42-43-53z" fill="#fff"/><path d="M100 153l29 32 31-38-2.74-8.16L172 123l19 14.65V143l28 27 37-32 1-12-38 31-23-19-24-15-17 17-27 32-30-32z" fill-opacity=".1"/><path fill="url(#b)" d="M183.37 149.77L183 148l6-10.01-17-15-14 16 8 13.01 8 8 9.37-10.23z"/><path fill="url(#c)" d="M186.54 164.94L176 179l-14.02-13.14L134.99 259l3 11H199l7-12-19.46-93.06z"/><path fill="#283674" d="M186.54 164.94l-3.17-15.17L174 160l-8-8-4.02 13.86L176 179l10.54-14.06z"/></svg>